<svg xmlns="http://www.w3.org/2000/svg" viewBox="0 0 552.75 334.73"><defs><style>.cls-1{isolation:isolate;}.cls-2{fill:#98d3bf;mix-blend-mode:overlay;}</style></defs><title>Asset 3</title><g class="cls-1"><g id="Layer_2" data-name="Layer 2"><g id="Layer_1-2" data-name="Layer 1"><path d="M548.42,334.73H515.35c-1.57-.1-3.15-.49-4.72,0H.05V0h552.7q0,167.09,0,334.17A11.42,11.42,0,0,0,548.42,334.73ZM348.56,224.93l-.29-.16a.55.55,0,0,0-.77.07c-.11.13-.05.26.12.34a.57.57,0,0,0,.64-.11l.28-.17c.33.26.28.83.92.78.81-.05.94-.64,1.38-1.06C349.26,224.5,349.26,224.5,348.56,224.93Zm64.94,8.31a6.11,6.11,0,0,0,3.91-.09,1.81,1.81,0,0,0-2.38-.36,2.27,2.27,0,0,1-1.53.44c-.53.23-.79-.07-1.16-.25-1.31-.64-1.63-.59-2.91.49a29.09,29.09,0,0,0,3.48.18C413.3,233.63,413.52,233.52,413.5,233.24Zm-21.26,1.19c.18-.2.38-.41-.1-.54s-1.07-.06-1.13.28a2,2,0,0,1-1,1.27c-.22.14-.17.51,0,.77,1.15-.38,1.21-.38,1.21-1.06s.33-.75,1.07-.76,1.75.28,2.92-.09A3.24,3.24,0,0,0,392.25,234.43Zm-29.86-38.82c-.27-2.34-.11-4.71-.82-7-.4,0-.46.18-.47.31,0,2.11.72,4.18.83,6.29,0,.14.32.27.47.41a.85.85,0,0,0,0,1.1A1.57,1.57,0,0,0,362.39,195.61ZM219.16,125c-.08.33-.4.55-.69.81s.26,1.42.93,1.54.67.12.72.25,0,.47.35.57a8.93,8.93,0,0,0-.47-5v2.43a1.51,1.51,0,0,0-.85-.57,1.1,1.1,0,0,0-.21-1.37C218.75,124.25,219.14,124.61,219.16,125Zm319.63,46.36c.34.3.41.79,1.16.83.61-1-.55-.72-1.17-.82-.47.25-1.19.36-1,1,.09.25-.05.54-.07.82-.08,1.28.69,2.32,1.85,3.31.41-.39.14-.71.17-1,.08-.72.7-1.56-.87-2-.33-.09-.33-.66-.29-1S538.73,171.7,538.79,171.35Zm-146-139.47a2,2,0,0,1-.26-2c.37-1.58-.21-1.92-2.44-1.5l-.56.13c-.85.19-1.24.58-.73,1.15a12.57,12.57,0,0,1,1.24,2,15.59,15.59,0,0,1,2,5.24,6.45,6.45,0,0,0,.35,1,.34.34,0,0,0,.16-.32c.06-1.41.22-2.81-1-4.12-.53-.58,0-1.05,1.25-1.56a1,1,0,0,0,0,1.32ZM377.27,127a4.52,4.52,0,0,1-.06-.69c.05-.85.09-.88,1.33-.67a2.31,2.31,0,0,0,1-.17c1.28-.22,1.51-1,2-1.78a3.1,3.1,0,0,0,2.39.45,1.06,1.06,0,0,1,.9.15,1.28,1.28,0,0,0,1.65-.11c.9-.61,2.11-.42,3.18-.33.88.08.73.79,1,1.23.05.08.08.18.14.26a.74.74,0,0,0,.76.32c.35,0,.66-.1.73-.36.17-.58.6-1.13.47-1.75s-.87-1-1.81-.67a4.72,4.72,0,0,1-2,.45,51.28,51.28,0,0,1-7.49-.6c-.59-.09-1.05-.15-1.48.34s-2.76.8-3.17.41c-1.13-1.09-1.64-.11-2.8.27,2.18.26,2,1.39,2.46,2.25.18.38,0,.84.78,1a1.41,1.41,0,0,0,.2,1.33A1.25,1.25,0,0,0,377.27,127ZM180,249.85h0c1.39-.26,2.77-.53,4.16-.77s2.37-.61,1.74-2.21c-.21-.53-.78-.73-1.33-.94-.72-.27-.56.35-.86.52a2,2,0,0,1-.89.24c-1.43.1-2.87.72-4.28-.06a.78.78,0,0,0-.38,0c-2.64.23-5.32.18-7.94.58a5.37,5.37,0,0,0-.91.26c-1,.33-1,.77-.17,1.19a2.93,2.93,0,0,0,.89.26,21.55,21.55,0,0,0,5.79.38c1.37-.19,2.92-.19,3.69,1C179.59,250.45,179.74,250.38,180,249.85ZM381,29.14a.54.54,0,0,1-.69-.35c-.37-1-1.44-1.21-2.6-1.08-2.8.31-5.63,0-8.42.26a16.76,16.76,0,0,1-4.83-.37,3.15,3.15,0,0,0-1.72-.11,4.23,4.23,0,0,1-2.8-.14,5.42,5.42,0,0,0-4.94.79c1.19.75,1.21.75,1.66,2.28.4,1.37,1.76,2.25,3.13,3.21a8.52,8.52,0,0,1,1.62-3.27c.73-.84.88-.91,2-.26.38.23.82.83,1.12.64,1.15-.76.9.48,1.54.44s.4-1,1.26-.83a1.5,1.5,0,0,1,1.22,1.3c0,.09,0,.18,0,.27l1.71,5.72c.24-2.62-.88-5.17-.59-7.82,1.89.45,2.09.59,2.34,1.81.34,1.67.63,3.34.94,5,1.44-.24,1.24-1.37,2.33-1.93.42.86.79,1.58,1.14,2.31.11.23.18.47.63.35.27-.07.36-.26.3-.45-.41-1.36.07-2.77-.46-4.12-.47-1.2.31-2.14,1.15-3.08.23-.26.66-.49,1-.3.91.57,1.37-.08,2-.28-.59.78.22,1.47.19,2.21A2.07,2.07,0,0,0,381,29.14ZM182,240.24c.42.79-.21,1.82.45,2.37.82.68.72,1.63,1.65,2.25.68-1-.2-1.82-.48-2.68h0a7.56,7.56,0,0,1,.76.13,5.74,5.74,0,0,0,3.59-.14c.78-.29.79-.63.12-1.05a4.22,4.22,0,0,0-1.8-.49c-.94-.11-1.2-.51-1.17-1.06a7,7,0,0,1,.27-1.36c.07-.28.14-.66-.2-.74-.84-.18-.5-.52-.31-.81s.45-.36.31-.61c-.7-1.27-.08-2.63-.49-3.92-.24-.75.13-1.28,1.21-1.65s1-.45,0-.93c-.29-.14-.52-.3-.55-.54,0-.44-.37-.4-.9-.44a10.64,10.64,0,0,0-2.52-.07,25.33,25.33,0,0,1-5.4.46c-1.08,0-1.55.78-2.36,1.14-.59.26-.13.84,0,1.29a10.23,10.23,0,0,1,.55,2.87,1.66,1.66,0,0,0,1.22,1.88c.42.15.73.51.54.93-.39.86-.38.86,1,1.35.54-.33.07-.79.33-1.17a3.28,3.28,0,0,0,.51-2.93c-.15-.48.19-.92.56-1.36.66.42.75.86.57,1.33a1.18,1.18,0,0,0-.06,1.08,11.9,11.9,0,0,1,.9,2.4,1.76,1.76,0,0,0,.61,1c1.23.78,1.27.75,1,1.53a1.29,1.29,0,0,0-.16-.37c-.15-.18-.35-.45-.68-.22s0,.41.21.56A.73.73,0,0,0,182,240.24ZM441,123.68c0,.08,0,.22-.11.24a17.08,17.08,0,0,1-3.47.2c-.64,0-1.36-.4-1.31-.69.17-.86-.57-.74-1.24-.71a37,37,0,0,0-5,.36c-1.63.31-3.46-.2-5.21,0-.26,0-.52.06-.77.11-1,.19-1.06.36-.56,1a1.15,1.15,0,0,0,1.56.4,1.22,1.22,0,0,1,.94-.06,3.59,3.59,0,0,0,3.36-.35c1.47,2,2.07,2,3.75.68a4.41,4.41,0,0,1,2.66,2.39c.4.73,1.24.29,1.78.62.37.23.21-.47.41-.71a1.08,1.08,0,0,1,.27-.16c.59.06.05.66.8.72a2.18,2.18,0,0,1,2.5-1.68c.5,0,.46-.38.48-.65,0-.61.49-.84,1.36-.94a10.7,10.7,0,0,1,4.35.11c1.74.5,3.89.26,5.27,1.46a1,1,0,0,0,.92,0c.62-.24.89-.11,1.18.32a2,2,0,0,0,1.48,1c1,.1,1.67.39,1.83,1.18.77-.49.63-1,.81-1.52a9.41,9.41,0,0,1,.23-.94c.43-.86,1.37-1.08,2.44-.59.16.07.26.24.43.28a4,4,0,0,0,2.42.27c1.17-.3,2.71.12,4.08.22.42-1.16.45-1.35,1.32-1.33,1.42,0,2.88-1,4.28,0a.78.78,0,0,0,.55,0c1.57-.78,3.27-.19,4.89-.2a6.44,6.44,0,0,1,4.27,1.32c.1-.28-.2-.67.45-.81a1.26,1.26,0,0,1,1.19.31,3.62,3.62,0,0,0,1.68.87c.62.15,1.45-.5,1.84.26.17-.06.42-.1.48-.2.7-1,2-1.81,2.47-2.91a5.51,5.51,0,0,0-2.38-.3c-1.62.13-3.24.32-4.86.41a62.67,62.67,0,0,1-9.77.19,24.42,24.42,0,0,0-5.48-.05c-.33,0-.69-.11-.89.32a.55.55,0,0,1-1,0c-.18-.5-.63-.53-1.15-.56-2.41-.14-4.83-.27-7.24-.39a1.47,1.47,0,0,0-1.06.21,5.23,5.23,0,0,1-4.13,1c-.59-.07-1.56.18-1.63-.46s-.71-.72-1.42-.69a31.79,31.79,0,0,1-5.26.19,10.39,10.39,0,0,0-4.7.25,3.23,3.23,0,0,0,.32-.32c.09-.12.11-.25-.12-.32a.34.34,0,0,0-.18,0c-.3.11,0,.19,0,.28S441.12,123.57,441,123.68ZM250.63,187.57a25.2,25.2,0,0,0-.16,5.9c.28-2,1-4,.12-5.94.84-.29.59-.87.67-1.35.16-1,.21-2,.38-3s1-1.27,2.19-1.07a3.27,3.27,0,0,1,2.81,1.87c.15.38,0,.86.56,1,2.21-1.13,2.29-2.83,2.42-4.51,2.16.58,3.49,1.42,3.6,2.48.27,2.79,1.26,5.54.83,8.39a13.25,13.25,0,0,0-.16,4.56c1.48-3.11,1.21-6.3,1.91-9.45.57.29.14.73.67.93,1.12-1.28.59-2.85,1.34-4.3.69.54.4,1,.33,1.43-.36,2.09.79,4,1.74,5.84a.61.61,0,0,0,.38.29c1.11.16.9.79,1,1.32s-.18,1,.48,1.38a1.84,1.84,0,0,0,.63-1.76c-.06-3.1.75-6.15.88-9.24a3,3,0,0,1,.51-1.32,1.34,1.34,0,0,0-.81-2.05c-.83-.27-1.12-.53-.86-1.13a.36.36,0,0,0-.2-.34,4.74,4.74,0,0,0-2.27.15c-.63.26-.37.62,0,.94s0,.62-.38.74-1,.88-1.65.38c-.94-.72-1.94-.44-3-.46-1.36,0-3.15.77-4-.92-.19.39-.27.56-.36.73a.48.48,0,0,1-.58.26.54.54,0,0,1-.34-.3c-.06-.17,0-.38,0-.55-.18-.44-1.43-.78-2.36-.63s-.64.55-.54,1c.18.72-.29,1.18-1.32,1.32a10.33,10.33,0,0,1-1.57,0c-2.83-.06-3,0-2.88,2,0,.09,0,.18,0,.28A46.66,46.66,0,0,1,250.63,187.57Zm56.67-8a4.5,4.5,0,0,1-1,.62c-.65.23-1,.83-2,.58-.82-.2-1.58-.34-1.82-1.07-.11-.36-.76-.48-1.32-.43a60.29,60.29,0,0,1-7.44.19c-.72,0-1.11.25-1,.78a3.83,3.83,0,0,0,.31,1.08,6.94,6.94,0,0,1,.82,3.09c0,.71.1,1.71.73,2.06s.76,1,1.21,1.57c.46-.55,1.17-.86,1.12-1.4-.13-1.4,1.29-2.5,1.47-3.84a.63.63,0,0,1,.71-.56c.57,0,.71.4.66.72a1,1,0,0,0,.22.92c.26.26.53.57,1.09.32,1.12-.5,1.39.14,1.6.65a5.48,5.48,0,0,1,.23,1.51,1.45,1.45,0,0,0,.78,1.39,15.73,15.73,0,0,1,.46-1.9,1.33,1.33,0,0,1,1.36-.85c.81,0,1.75,0,2.2.67a2.2,2.2,0,0,0,2.42.95c.55-.06,1.15.21,1.65-.15.45.35,1.07.06,1.48.17s.6.57.81.9a4.32,4.32,0,0,1,.52,2.44,5.14,5.14,0,0,0,.31,2.32c.54-.26.37-.56.4-.8.22-2.16.42-4.31.61-6.47,0-.5,0-1,.84-1.3.93.56-.18,1.34.49,2,.51-.58.43-1.4,1.53-1.65.13,0,.15-.34.2-.52.27-.95.52-1.9.81-2.84.16-.53,0-.9-.84-1-2.17-.3-4.3-.8-6.56-.31a10.13,10.13,0,0,1-2.15.07,17.91,17.91,0,0,0-3,.11H304A6.11,6.11,0,0,0,307.3,179.55ZM251,70.14a60.32,60.32,0,0,0-1.33-6.95c-.17-.69,0-1.61-1.58-1.66-.12,0-.28-.19-.35-.32a2.54,2.54,0,0,1-.42-2,8.66,8.66,0,0,0,2.23,1.7,4.39,4.39,0,0,1,1.7,2c.26.58.11,1.45,1.61,1.36.16,0,.38.35.56.54a9.69,9.69,0,0,1,1.78,3,5.65,5.65,0,0,0,.51-2.38c-.1-1.35,1-2.18,2.18-3.11.95.79.86,1.73,1.41,2.6.2-1-.37-1.87-.54-2.77-.07-.37-.32-.94.06-1,1.14-.31,1.6-1.37,2.7-1.42s1.51-.64,2.33-.87c.51.33.64,1,1.36.95.89,0,1,.44,1.35.81,1,1,1.17,2.33,2.53,3.22.43-.5.54-1.07,1.21-1.44.36-.2.61-.54.51-.86-.35-1.08.4-2.08.42-3.13s.58-1.4,2.2-1.46a2.73,2.73,0,0,1,.58,0,.39.39,0,0,0,.35-.68,1.68,1.68,0,0,0-.88-.26c-2.3-.21-4.53-.94-6.93-.44a2.78,2.78,0,0,1-.78-.05,24.89,24.89,0,0,0-4.71,0,12.81,12.81,0,0,1-4.07-.25c-1.63-.38-3.35-.43-5-.67a8.48,8.48,0,0,0-4,.57c-.41.14-.92.36-.88.68.07.58-.27.76-1,1-.86.29-.84.74,0,1.11.58.24.46.52.33.81-.46,1,.32,2.12-.66,3.07-.11.11,0,.35.09.53l1.21,4.33c.59,2.12,1.85,4.13,2.23,6.29.11.62.25,1.23.38,1.84l.43,0A47.42,47.42,0,0,0,249,64.22c.66.72.58,1.55.87,2.33.45,1.18.29,2.47,1.17,3.59-.53.79,0,1.59,0,2.39A4.57,4.57,0,0,0,251,70.14Zm-52.53,58.64c-.08-.27-.06-.59-.26-.8-1.06-1.11-.49-2.06.43-3,.52.17.88.56,1.42.5,1-.11,1,.31,1.18.79.53,1.45.1,2.87-.06,4.3a3,3,0,0,0,.39,2.64c.5-.69-.25-1.31.31-1.85.45.12.3.38.31.59,0,1.24.07,2.48.12,3.72a1.39,1.39,0,0,0,.23.93,1,1,0,0,0,1.39.25,3.5,3.5,0,0,0,2-1.74c.2-.38.26-.78.73-1.1a1.74,1.74,0,0,0,.9-1.87c-.07-.33-.13-.74.57-.9a.53.53,0,0,0,.45-.57c-.12-.92.49-1.73.73-2.59.16-.55.57-.62.94-.19.55.63,1,.36,1.56.06s1-.79,1-1.29c-.2-1.4-.16-2.83-1-4.26-.41.68-.45,1.35-1.13,1.81-.75-.33-.85-.87-1.15-1.31a3.24,3.24,0,0,0-.91-1c-1.08-.7-1-.72-.07-1.67h-9.64c1.15.55-.05,1.27.87,1.78.14.08-.7.68-.42,1.21.39.76-.79.84-1.26,1.18s-.88-.1-1.2-.4a1.34,1.34,0,0,0-.63-.3,2.22,2.22,0,0,1-1.72-1.38c-.19-.39-.42-.77-.63-1.16l0,0c-.17-.68-.63-1-1.71-.91s-2.32.23-3.46.42c-.57.09-1,.34-1,.73a1.78,1.78,0,0,0,1.22,1.89,2,2,0,0,1,1.28,1.06,7.12,7.12,0,0,1,.74,2.55c.6,2.49.31,5.1,1.82,7.5,1.17-.54,2.46-.93,2.87-2a.57.57,0,0,1,.35-.31,1.86,1.86,0,0,0,1.7-1.9c1.26.1.78.71.81,1.16,0,.21.09.37.43.34.18,0,.47-.1.49-.17a8.94,8.94,0,0,0,.32-2c0-.48-.85-.5-1.28-.76Zm-10.35-54.1c.37-.09.75-.17,1.11-.28,1.32-.39,1.38-.47.67-1.47-.17-.24-.09-.28.12-.41,1.4-.89.54-1.93.29-2.89a12.44,12.44,0,0,1-.67-2.06,5.94,5.94,0,0,0-.15-1.24,9.06,9.06,0,0,1-.1-3c0-.26,0-.68.55-.58.82.16.65-.13.67-.48,0-.75-.34-1.56.51-2.2,2.88,1,3.72,3,4.92,5.17l.13-1.33.22,0,1.48,4.78a18.68,18.68,0,0,0-.81-5.34c-.18-.56-.36-1.31.07-1.6a1.19,1.19,0,0,0,.6-1.2c0-.49.52-.62,1.07-.33.32.17.6.39.63.68.12,1,1.1,1.67,1.4,2.55.16.46.41.06.58.11a1,1,0,0,0,1.22-.42,9.49,9.49,0,0,1,2.51-2.2,1.27,1.27,0,0,1,1.35-.22,8.31,8.31,0,0,1,3.3,2.13c.93,1.26,2.58,2.22,2.86,3.88.48-.48.14-.94.6-1.28a8.8,8.8,0,0,0,.69,1.4c.18.26.76.39.94.07.37-.64,1.45-1.08,1.36-1.8-.16-1.21.47-2.36.35-3.57a34,34,0,0,1,0-3.46,3,3,0,0,1,.5-1.75c.59-.87.47-1.18-.86-1.31-2.84-.27-5.69-.78-8.59-.39a11.5,11.5,0,0,1-3.12,0,7.21,7.21,0,0,0-1.76,0,20.66,20.66,0,0,1-7.19-.16,4.13,4.13,0,0,0-1.74-.12c-2.56.5-5.19.17-7.78.25-3.52.11-7,.37-10.56.42a5.47,5.47,0,0,0-1.87.38,8.53,8.53,0,0,1-6.36-.06,6.64,6.64,0,0,0-3.43-.25c-.38,0-.81.19-.75.53.11.54.2,1.22.89,1.46A1.42,1.42,0,0,1,165.1,59a.91.91,0,0,0,.58,1.08c.44.23.56.59.77.93.66,1.06.83,2.23,1.49,3.28,0,.07.17.11.26.16.36-.22,0-.67.73-.88a7.58,7.58,0,0,1,2,2.41,28.26,28.26,0,0,1,2.42,7.32A53.43,53.43,0,0,1,174.39,81a26.39,26.39,0,0,0,.2,3.45,11.8,11.8,0,0,1,.1,4.8.75.75,0,0,0,.48,1,22.41,22.41,0,0,0,.22-3.74,52.25,52.25,0,0,0,.61-5.74c0-2,0-4,.07-5.93a7.45,7.45,0,0,1,.24-2.61,2.92,2.92,0,0,0-.54-3.11,2,2,0,0,1-.43-1.33,5.53,5.53,0,0,0-.28-1.78c-.16-.49-.26-1-.43-1.49a5.73,5.73,0,0,1-.54-1.32c0-.62-1-.68-1.15-.92-.64-1.43-1.51-2.85-.92-4.43.38-1,.44-1.08,1.6-.4s1.08.63,2.08-.2c.39-.33,1.13-.57,1.31-.37.75.85,1.58.26,2.39.09.16.41.3.72.38,1a.74.74,0,0,0,1.07.52c.91-.34,1.18,0,1.41.49s.47,1.12.78,1c1.4-.43,1.1.49,1.43.82.64.63.78,1.45,1.51,2.08.36.31.16.57-.49.65-1.52.19-1.64.29-1.5,1.28.49,3.63.54,7.26.7,10.9.19,4.25-.36,8.47-.34,12.71,0,.32-.18.63-.21,1-.1,1.14-.49,2.29,0,3.44.72-2.24,0-4.57,1.09-6.8-.2,1.29.64,2.52.25,3.81a7.76,7.76,0,0,0,.1,5c.09-.38.15-.55.16-.72q.47-4.75.93-9.51a6.7,6.7,0,0,1,.07-1.24c.1-.36,0-1.09,1.11-.59.31.13.4-.16.42-.33a5.4,5.4,0,0,1,0-.83c.23-.85-.34-1.83.33-2.55s1.11-1.62,1.73-2.4c-.08-.43.26-.87-.12-1.39a2.37,2.37,0,0,0,.12,1.4l-2.28-2ZM89.11,122c1.2.51,2.39,1.29,2.4,2.16,0,1.12.92,1.68,1.69,2.5.29-.47,1.2-.76.86-1.1-.67-.67,0-.87.5-1.22a3.25,3.25,0,0,1,1.94-.54c.34,0,.64.06.74.34,0,.13.17.46.38.09.42-.76,1.38-.88,2.32-1.17a3,3,0,0,1,.3.55,103.51,103.51,0,0,1,2.66,12.4c.51,3.42,1.27,6.84,1.17,10.3,0,.45.24.69.88.72a4.41,4.41,0,0,0-.07,2.15c.47-.91,0-1.53.06-2.15-.79-.56.13-1,.2-1.52s-.24-1,.65-1.58c.24,1.72.14,3.25.26,4.79a5.89,5.89,0,0,0,.61-2.23,61.3,61.3,0,0,1,.35-7.45c.15-.91.67-1.89.42-2.69-.39-1.25.37-2,1.22-2.81.69.06.58.6,1.06.74a.92.92,0,0,0,.23-.69c0-.4-.17-.7-.81-.83a1.14,1.14,0,0,0-1.16.32,1.93,1.93,0,0,1-.48.42.87.87,0,0,1-.54,0c-.21-.07-.18-.23,0-.33.57-.32.39-.78,0-1-1.14-.51-.13-.93,0-1.4s-1.09-.87-.44-1.49a.59.59,0,0,0,.08-.13.73.73,0,0,1,.77-.31c.42,0,.54.22.45.49-.24.74.57.57,1.09.76.29-.82-.36-1.6.45-2.25.44.14.55.38.54.68a2.8,2.8,0,0,0,.27,1.36,13.32,13.32,0,0,1,1,4.35c.08.73-.31,1.17-1.81,1.47,1.67.18,2,.57,1.95,1.38a17.52,17.52,0,0,0,.2,2.89,1.78,1.78,0,0,0,1.16,1.64c.75.36,1.14.86.87,1.55-.1.26.08.56,0,.82-.24.57-.53-.29-.69,0a.66.66,0,0,0,0,.68c.8,1.13.62,2.33.6,3.53a3.34,3.34,0,0,0,.41,2c.49-.22.18-.66.88-.81v5.19c1.14-2.42,1.3-4.9,2.27-7.52,1.79,2.18.92,4.57,2.63,6.69.65-4.19.41-8.18.65-12.13.75-.1.69.59,1.22.44s.34-.64.52-.94c.81-1.34-.48-2.81.62-4.1-1.09-1.2-.1-2.52-.43-3.77a6.12,6.12,0,0,1-.37-1.91c0-.67.61-.58,1.21-.43-.2.21-.57.4-.23.68a.38.38,0,0,0,.48,0c.3-.29.11-.48-.29-.62,0-.13-.05-.36-.15-.39-1.25-.29-.87-.85-.32-1.28a2,2,0,0,0,.58-2.39,3.85,3.85,0,0,1-.1-.41c-.06-.41.19-.71.71-.9.27-.1.49-.1.66.1.28.36.31.67-.17,1-.91.6.34,1.29-.14,2-.28.38.63.4.76.7.24.56,1.34.45,1.56,1a5.76,5.76,0,0,1,.21,3.55c-.06.3-.5.43-.84.06-.13-.14-.13-.37-.52-.37a1,1,0,0,0,.42,1.14,2.52,2.52,0,0,1,1,2.8c-.06.21-.07.58.09.65,1.21.54.85,1.4.86,2.13.07,3.5,0,7,.07,10.49a2.45,2.45,0,0,0,.28,1.58c1.8-3.93,1-7.86,1.68-11.66l1.13.08c-.24.28-.93.5-.2,1l.19-1c-.16-.74.15-1.54-1.05-2.08-.7-.31-.52-.92,0-1.34a1.65,1.65,0,0,0,.72-1.52c-.07-2.39-.54-4.75-.76-7.13-.07-.78-.65-1.55-.24-2.68,1.41,1.73,1,3.46,1.61,5a20.69,20.69,0,0,1,.87,4.78,8.4,8.4,0,0,0,.35-5.9c-.46-1.68-.7-3.37-1-5.06a1.59,1.59,0,0,1,.17-1.46,1.45,1.45,0,0,1,.83,1.17c.58,3,1.56,5.89,1.68,8.9a3.06,3.06,0,0,0,.69,1.87,2.1,2.1,0,0,0,.55-2.18c-.3-1.9-.73-3.78-1-5.68-.17-1.05-.14-2.12-.34-3.17-.17-.86.65-.56,1.19-.6s.62,0,.64.59a8.27,8.27,0,0,0,.06,2.19c.39,1.26,1,2.48,1.59,3.84.32-.67.16-1.46,1.54-1.43.32,0,.48-.39.52-.68s-.17-.61.28-.86c.21.25.53.46.5.64-.14,1,.66,1.7,1.75,2.25.27.14.5.34.49.58,0,1.07.81,2.11.53,3.13-.34,1.25,1,2.39.27,3.62-.09.15.22.32.52.3s.31-.16.28-.31a41.9,41.9,0,0,1-.54-5.88,21.11,21.11,0,0,1-.19-3c.39,2.24,1.62,4.39,1.41,6.69a15,15,0,0,0,.53-4.53,7.68,7.68,0,0,1,.14-2.34,8.62,8.62,0,0,0-.27-4.93,2.72,2.72,0,0,1-.07-1.37c.24-1.71.25-1.71-2.09-2.37a7.7,7.7,0,0,0-1.1-.29,3.23,3.23,0,0,1-2.66-1.6c.09,1.23-.88,1.28-1.81,1.38-1.64.17-2.21.34-2.79.87a1.76,1.76,0,0,1,2.31.44c.26-.39,0-.86.71-.87.48,0,.56.34.65.6.19.59.59,1.13.82,1.7a4.19,4.19,0,0,1,.31,2.76c-.49.2-.75,0-1.05-.06-1.72-.23-1.72-.23-2-1.37,0-.14-.07-.27-.11-.41-.17-.49-.5-.75-1.23-1-1.24-.49-2.83-.84-3.4-2a.56.56,0,0,0-.61-.27c-1.47.45-2.38-1.2-3.91-.5a.85.85,0,0,1-.42-.25,3.5,3.5,0,0,1-.92-1.95c0-.35-.12-.81.48-1s.7.32,1,.5a.89.89,0,0,0,.79.15,2.19,2.19,0,0,0-.26-1.69c-.28-.45-.59-.75-1.18-.13a.7.7,0,0,1-1.18-.13c-.27-.37-.43-.78-.73-1.13a2.57,2.57,0,0,0-1.22-1c-1.07-.37-1.54-.23-1.43.58a7.4,7.4,0,0,0,.69,3.25,9.66,9.66,0,0,1,.8,2c.14.41-.13.62-.74.56a4.32,4.32,0,0,0-2.79.19c1.8,1.17,1.84,1.35.41,2.23a1.67,1.67,0,0,1,.44,2.51c-.31-.07-.5-.23-.53-.4-.26-1.41-1.68-2.33-2.78-3.4a2.92,2.92,0,0,0-1.47-.77c-1.56-.38-3-.94-3.06-2.35,0-.26-.26-.51-.43-.76a.68.68,0,0,0-.89-.33c-.45.18-.93.4-.66.86a8.28,8.28,0,0,1,.48.75c.24.55,0,.89-.88,1l-1,.11c-.9.08-1.28.42-1.44,1.06a10,10,0,0,0,.14,2.34c0,.51-.07.8-1,.69-.66-.08-.73.26-.69.62.09.78-.5,1.39-1,2-.28-.79-.57-1.53-.86-2.27s-1.53-1.26-1.7-2.14a.83.83,0,0,0-.88-.47,33.11,33.11,0,0,1-4.27-.29,18.47,18.47,0,0,0-3.52.1c-.52.09-1.15.12-1.14.74,0,.83-1.31.89-1.89,1.41-.36.32-.84-.27-1.29-.42s-.62.08-.93,0c.15-.32.7-.67-.14-.94C88.73,121.45,89.35,121.7,89.11,122Zm62.16,180.52a3.65,3.65,0,0,0,.26-2.59c-.28-2,.73-4-.46-6-.13-.21.16-.53.21-.8a10.35,10.35,0,0,0,.58-3.39c-.36-2.34-.55-4.67-.74-7a9.6,9.6,0,0,1,1.28-4.86c.31-.65,1-.63,1.69-.72a1,1,0,0,1,1.23.69,9.42,9.42,0,0,1,1,2.8c.27,2,.63,3.94,1,5.9a22.11,22.11,0,0,1,.4,2.89c.22,3.36,0,6.73.12,10.1a11.28,11.28,0,0,0,1,5.39,3.7,3.7,0,0,0,.15-1.37,16.84,16.84,0,0,1,.89-5.62c.09-.29.16-.69.71-.75a1,1,0,0,1,1,.57,13.56,13.56,0,0,1,1.95,3.89c.3,1.51.9,3,1.31,4.46.64,2.35,1.75,4.62,2.38,7a16.75,16.75,0,0,0,2.46,6.12c-.39-.84.15-1.72-.17-2.51a13.62,13.62,0,0,1-.82-5.34c0-1.83-.34-3.65-.41-5.47a9.21,9.21,0,0,0-.6-3.11,4.53,4.53,0,0,1-.32-2.59c.27-1.46-.36-2.88-.13-4.36a15.48,15.48,0,0,0,0-3.56c-.15-1.92,0-3.85-.61-5.76a11.7,11.7,0,0,1,0-7.92,2.11,2.11,0,0,1,.55-.88,1.31,1.31,0,0,1,1-.38c.45,0,.57.34.66.61s.06.94.6.94c1.23,0,1.09.65,1.3,1.13s.46,1.21.7,1.83c.51-.3,0-.74.44-1a41.46,41.46,0,0,0,.71,4.26c.23.87-.27,1.73.19,2.6.8,1.54.65,3.18.77,4.78,0,.18,0,.49-.08.53-.89.3-.54.7-.27,1.11a1.83,1.83,0,0,1,.14.94c.07,1.05-.54,2.05-.32,3.13.14.67,1.17,1.48-.26,2.09-.06,0,0,.3.09.38.88.68.63,1.58.85,2.36.37,1.3,1.13,2.67.63,3.95s.58,2.54.25,3.81c1.14.64.3,1.68,1,2.42a.54.54,0,0,1-.09.79c-1.14.89-.37,1.79-.09,2.69,0-1.63,1.16-3.11,1.07-4.76a28.6,28.6,0,0,1,.27-3.87,2.61,2.61,0,0,1,.87-1.81c.83-.76,1.21-.73,2.08,0,1.85,1.55,2,3.65,3.52,5.32a12,12,0,0,1,1.39,2.71c-.21-2.63-.32-4.93-.63-7.22a12.08,12.08,0,0,0-.29-2.75,14.53,14.53,0,0,1-.58-4.8c-.11-3,.17-6.07.3-9.11a4,4,0,0,0-.13-1.51c-.91-2.65-1-5.38-1.37-8.08a4.83,4.83,0,0,1,.75-3.06c.7,0,.82.62,1.3.62,1.37,0,1.28.69,1.4,1.32.25,1.37.32,2.77.65,4.12a47.12,47.12,0,0,1,1.08,10.74,42.16,42.16,0,0,0,.44,7c.43,2.3,0,4.68,1.26,6.9.09.16,0,.36,0,.55,0,.69,0,1.37,0,2.22.77-2,.36-3.83.6-5.65.31-2.43.14-4.88.75-7.3.4-1.58.85-3.16,1.12-4.76.19-1.14.61-2.26.87-3.39.5-2.23,1.47-4.4,1.6-6.67a1.21,1.21,0,0,1,.92-1.22c.77.53.71,1.23,1,1.82.55,1,.53,1,1.77,1.49a64,64,0,0,1-.61-8.85c0-.48-.21-1.07.78-1.25a2.67,2.67,0,0,1,2.6.9,3.83,3.83,0,0,1,.22.81c.06.22,0,.51.46.52.67,0,.6.36.72.67.61,1.51.53,3.09.89,4.79.74-.49,1.31-.4,1.62.15a2.52,2.52,0,0,0,1.24,1,3.14,3.14,0,0,1,1.44,1.29c.94,1.61,1.83,3.24,2.73,4.86.35.64.63,1.31,1,1.94s.21,1.29,1,1.75c-.46-1.11.15-2.18.12-3.26a26.41,26.41,0,0,0-.51-5.1,23.28,23.28,0,0,1-.4-7.71,2.64,2.64,0,0,1,.35-1.21,4.53,4.53,0,0,1,3.35-1.4c1.25.22,1.17,1.09,1.37,1.78a2,2,0,0,1,0,.28c.3,2,.6,3.94.92,5.91.09.58-.09,1.19.37,1.74a16.71,16.71,0,0,1,.44-3.16c.38-2.17,1-4.28,3.74-5.75a14.09,14.09,0,0,1,1.83,1.17c.49.43,1,1.13,1.57,1.17,1.11.07.78.7,1.18,1a1.46,1.46,0,0,0,1.35.39c.1-.6.2-1.19.31-1.78a1.19,1.19,0,0,1,.93-1c.87-.27.45.76,1.25.58a8.92,8.92,0,0,1,.36-1.34c.11-.26.23-.7.91-.31.33.19.35-.11.47-.25.89-1,1.28-1,2.08,0a5.11,5.11,0,0,1,.65,1c.47,1,.88,2,1.36,3a53.82,53.82,0,0,1,3.35,8.23,47.21,47.21,0,0,1,2.09,9.55,24.82,24.82,0,0,0,.86,3.72c1.22-1.44,1.24-1.59.72-3-.09-.25-.27-.62.2-.73.84-.2.54-.67.58-1,.34-3.13,0-6.26.14-9.39a9.54,9.54,0,0,0-.54-3.29,13.89,13.89,0,0,1-.2-7.14c0-.05.18-.09.27-.14.37.14.05.52.37.62.4-.07.06-.62.86-.44.13,1.32,1.39,2.55.78,4a.41.41,0,0,0,.13.39c.63.63.63,1.4,1,2.07,1.75,3,1.62,6.14,1.62,9.27a37.14,37.14,0,0,0,.73,9.33,29.8,29.8,0,0,1,.72-6.2c.28-1.32.38-2.75,1.91-3.93a8.35,8.35,0,0,1,3.46,5.16,25.41,25.41,0,0,0,2.51,8.08,9.41,9.41,0,0,1,.75,2.28c.59,2.48,1.34,4.94,2,7.41.34-2.05-.19-4.07-.45-6.07-.28-2.18.12-4.45-1-6.58a1.66,1.66,0,0,1,0-1.23,5.32,5.32,0,0,0,.15-1.51c0-1.57,0-3.14.13-4.7a37.08,37.08,0,0,0-.38-10.35,33.82,33.82,0,0,1-.7-6.34,6.72,6.72,0,0,1,.49-2.89,4.32,4.32,0,0,1,1.86,3.11,40.67,40.67,0,0,0,1.63,6.24,25.24,25.24,0,0,1,.92,7.42,51.22,51.22,0,0,0,.72,9,8.66,8.66,0,0,1,.54,2.45,22.64,22.64,0,0,0,.62,4.94c.22,1.6.72,3.22,1.06,4.85.27-4.18.26-8.37,3.12-12.38,2,1.93,2.73,4.19,3.93,6.29.49-.17,0-.63.56-.79.3.72-.23,1.45.24,2.09s0,1.33.89,2c0-2.12-.89-4-.44-5.94,0-.12-.13-.26-.17-.39-.72-2-.46-4.12-.53-6.17s.44-4,.26-6a6.2,6.2,0,0,1,.07-1,13.23,13.23,0,0,0-.13-5,6.87,6.87,0,0,1-.21-2.89,3.69,3.69,0,0,1,.61-2.35c.86.4.49,1.24,1.4,1.5.74.22.87.78,1.1,1.25a5.61,5.61,0,0,0,.62,1.31,3.93,3.93,0,0,1,.77,2.79c0,.64,0,1.29,0,1.93.09,2.16.29,4.33.26,6.49a49.82,49.82,0,0,0,1,8.52.77.77,0,0,0,.1-.42c0-3.73-.12-7.47.06-11.2a30,30,0,0,0-.26-6.35,42.61,42.61,0,0,1-.72-7.58c0-2.56.38-2.68,3.51-2.42,1.65.14,2.32.4,2.68,1.45a10.63,10.63,0,0,0,1.32,2.29,3.7,3.7,0,0,0,3.42,1.78c1.52,0,2.63-.35,3-1.35.2-.58.43-1.16.57-1.75a4.45,4.45,0,0,1,3.61-3.5,1.81,1.81,0,0,0,.49-.23c1-.64.87-1.36-.44-1.65s-2.44-.33-3.64-.58a26,26,0,0,0-7.58-.45,23.26,23.26,0,0,1-4.32.1,147.34,147.34,0,0,0-18.44-.54c-2,.06-3.84.53-5.82.54-2.94,0-5.87.12-8.82,0A57,57,0,0,0,240,273a23.38,23.38,0,0,0-4.23.44,16.7,16.7,0,0,1-4.18.43,2.16,2.16,0,0,1-1.22-.34,4.52,4.52,0,0,0-4.3-.08,3.16,3.16,0,0,1-1.6.34c-2.5.07-5-.28-7.44-.42a24,24,0,0,1-5.26-.42,12.84,12.84,0,0,0-6.88.15,13.57,13.57,0,0,1-4,.41,20.19,20.19,0,0,0-4.49.17,16.63,16.63,0,0,1-6.37-.36,18.22,18.22,0,0,0-3.87-.42,85.11,85.11,0,0,1-9-.22,27,27,0,0,0-3.72-.12c-3.85.12-7.66.64-11.53.57-.72,0-1.44,0-2.16.06-2.68,0-5.33.64-8,.31a20,20,0,0,0-5.84.25,32.37,32.37,0,0,1-9,.37c-1.1-.12-2.16-.34-3.3-.36-3.8-.07-7.56.47-11.36.26a2.19,2.19,0,0,0-.78.07,7.92,7.92,0,0,1-4.37-.18,22.79,22.79,0,0,0-5.39-.69,38.25,38.25,0,0,1-7.39-.66c-4.53-.75-9.06-1.14-13.43.47a10.14,10.14,0,0,1-1.67.4A10.63,10.63,0,0,0,86,274.53a7,7,0,0,1-3.68.74,15.09,15.09,0,0,0-3.13.08c-.43.08-1,.18-1,.55s.52.47.91.58a2.62,2.62,0,0,0,1.49.22,15.43,15.43,0,0,1,3.33-.08c1.53,0,2.59.63,2.76,1.74a25.91,25.91,0,0,0,1.21,4.05c.07.21,0,.52.39.56,1.1.09,1.08.76,1.23,1.24a39.18,39.18,0,0,1,1.66,6.38,1.1,1.1,0,0,0,.82,1.06c.4-.94-.21-1.74-.08-2.55a10.17,10.17,0,0,0-.27-4.52,1.68,1.68,0,0,1,.52-2c1.18,1,2.16,1.84,1.89,3.13a2,2,0,0,0,.17,1.09,12.74,12.74,0,0,1,.67,3c.1.73-.51,1.64,1,2.11.24.08.29.49.38.76a7,7,0,0,1,.36,2.47,2.24,2.24,0,0,0,.77,2.12c1.25-2.26,2.62-4.23,3.8-6.5a11.3,11.3,0,0,1,1.52,3c.38,1.82.84,3.62,1.1,5.46a113.71,113.71,0,0,0,2.73,13c.33,1.25.79,2.48,1.18,3.72-.08-2.89-.31-5.73-.63-8.57a30.25,30.25,0,0,0-.49-4,15.05,15.05,0,0,1-.37-4.27,73.05,73.05,0,0,0-.19-13.79c-.1-.69-.18-1.38-.24-2.07,0-.2-.11-.42.23-.61,1.29-.7,2.12-1.57,2-2.78,0-.16.16-.35.47-.39s.45.4.72.59c1.1.77,2.24,1.62,2.54,2.69a33.32,33.32,0,0,1,1.64,9.73,69.3,69.3,0,0,0,.2,10.23c.54,4.55,1.35,9.08,2,13.62.19-3.73.25-7.45.41-11.17a3.38,3.38,0,0,1,1.86-3c.74.4.58,1.17,1.6,1.57a18.85,18.85,0,0,1,.08-4.3c.42,2.76.44,5.6,2.18,8.25.54-.3.19-.83.66-.92,1.05-.2.8-.71.73-1.21a15.71,15.71,0,0,0-.47-2.6c-.32-1,.13-2.11,0-3.13a25,25,0,0,1,0-4.1,34,34,0,0,0-.61-7.28c-.41-3.06-1.44-6.08-1.32-9.19,0-.34-.18-.74.6-1,.26.6,1.14.79,1.61,1.23s.18,1.25.83,1.78c.59-.36.32-1.11,1.35-1.14a3.34,3.34,0,0,1,1.27,2.13,18.9,18.9,0,0,0,.76,3.27,13.08,13.08,0,0,1,.69,2.85c.07,3,.42,6.07.27,9.11s.84,6.32.88,9.5a17.2,17.2,0,0,0,.41,2.56.48.48,0,0,0,.34-.51c.06-1.1,0-2.2.15-3.3.18-1.7-.08-3.41.31-5.11a77,77,0,0,0,1.42-8.78,6.54,6.54,0,0,1,2.86-5.13c1.48,1.19,1.33,2.8,2.25,4.15a10,10,0,0,0-.44-6l.06,0c.07-1.36-.47-2.77.54-4.07a.44.44,0,0,0,0-.4c-.77-2,.71-3.3,2.7-4.53a4.92,4.92,0,0,1,1.72,3.22c.68,2.94,1,5.91,2.35,8.77a20.45,20.45,0,0,1,1,3.93V288c.58.24.61.48.55.7-.26,1,.21,2,.23,3,0,.47.07.93,1.12.75a1.1,1.1,0,0,1,1.18.57,15.16,15.16,0,0,1,1.28,2.45,49.45,49.45,0,0,1,1.84,6.06c.06.36,0,.75.5,1,.07.54-.07,1.13.68,1.6C152.52,303.32,151.89,302.94,151.27,302.54Zm-6-254.94V37.88c.35.29.52.37.58.48.52,1,.19,2.1.53,3.15a10.9,10.9,0,0,0,.12-2.83,51.16,51.16,0,0,1-.41-7.72c0-.49-.08-1.29.78-1.23,1.21.09,2.47-.49,3.61.11a10.18,10.18,0,0,1,1,.69,23,23,0,0,0,2.17,1.4c.79.41,1.58.78,1.74,1.76.83-1.17,1.11-2.27,2.17-3,.62-.44,1.19-.82,1.24-1.48a.59.59,0,0,1,.72-.52,3.75,3.75,0,0,0,2.61-.11.65.65,0,0,1,.46.16c.34.7,1.59.79,1.81,1.53,1.69-.73,2-.69,2.58.52.32.72,1.2,1.23,1.3,2,.17,1.2,1.17,1.69,2.87,1.7.54-1-.39-2.15.17-3.17.64,0,.36.68,1,.51l.75-3a8.31,8.31,0,0,1,.9,2.86,3.74,3.74,0,0,0,2.48,3.14c1.24-1.68-.33-3.5.42-5.2,1.13.24,1.06.86,1.14,1.38.09.69,0,1.38.1,2.07,0,.36.07.75.85.86a4.1,4.1,0,0,0,.57-2.69c-.12-1.12,1-1.81,1.74-2.56.47-.5,1-.83,1-1.49,0-.48.47-.77,1.32-.76,1.61,0,1.86.14,2.47,1.17.35.59,0,1.34.77,1.95a8.36,8.36,0,0,1,.49-1.46c.38-.67.91-.71,1.59-.19a3.48,3.48,0,0,1,1.28,2.28c.36,1.73.81,3.45,1.31,5.16a40.81,40.81,0,0,1,1.19,5,14.35,14.35,0,0,0,1.43,4.25,20.28,20.28,0,0,0,.18-2.2c.14-1.23-.62-2.57.83-3.67.09-.07,0-.27,0-.39-.48-1-.18-2-.44-3-.55-2,0-4-.39-6a1.66,1.66,0,0,1,.16-1.09c.19-.36,0-1.5,1.27-.42a.3.3,0,0,0,.45-.05c.47-.57.73-.16,1.16.06.85.44,1.15,1.26,2.12,1.57s1.4.87,1.47,1.6c0,.25,0,.57.39.73.62-.82.62-.82,1.79-1.16,1,.75,1,1.81,1.51,2.76a.53.53,0,0,0,.31-.61c0-1.38-.07-2.76-.07-4.15,0-.45,0-1,.66-1.21a9.83,9.83,0,0,1,4.68-.42,5.94,5.94,0,0,0,5.17-1.21,5,5,0,0,0-3.35-.71c-.92,0-1.8.16-2.73.18-1.8,0-3.49-.37-5.24-.5a29.35,29.35,0,0,0-8.94.18,21.59,21.59,0,0,1-7.39.37,80.86,80.86,0,0,0-9.16-.67c-2.73,0-5.52.24-8.17-.5a3.9,3.9,0,0,0-1.17-.05c-6.77.33-13.47-.56-20.22-.52-2.62,0-5.22-.27-7.85-.23-4.9.08-9.8-.33-14.71-.14a25.25,25.25,0,0,0-3.71.19,6.75,6.75,0,0,1-3.44-.23,45.25,45.25,0,0,0-5.37-1.33,12.66,12.66,0,0,0-5.42.07c-2.17.52-4.29,1.13-6.47,1.65s-2.18,1.16-.49,2.05c1.48.78,2.67,1.71,3,3a62.57,62.57,0,0,1,1.72,6.1,23.21,23.21,0,0,0,1.22,5.81c.83-.59,0-1.53,1.13-2.08a5.86,5.86,0,0,1,.79,1,6,6,0,0,0,.94,1.31,1.46,1.46,0,0,0,1.33.39c.71,0,.42-.48.42-.77a34.31,34.31,0,0,1,0-3.59,4.94,4.94,0,0,1,1.76-3.43c1.27-1.05,2-1.06,3.63-.2s1.53,2,1.68,3.12a63.31,63.31,0,0,1,.49,6.6c.11,3.27.1,6.54.18,9.81,0,.6-.14.87-1.09.71a15.94,15.94,0,0,0-2.33-.24,15.16,15.16,0,0,0-5.75.66c-1.48.56-1.78,1.26-.86,2.24.49.52,1,1,.84,1.64-.34,1.36.76,2.37,1.44,3.47.92,0,1.59-.61,2.52-.26,1.21.45,2.45.85,2.8,1.92.08.24.2.54.95.5-.12-.92.71-1.58,1.44-2.28a1.35,1.35,0,0,1,1.29-.47,11.41,11.41,0,0,1,2.74.7c1.21.61,2.34,1.24,2.65,2.68a11.06,11.06,0,0,1,.86-1.61,2.15,2.15,0,0,1,3-.54,10.19,10.19,0,0,0,1.29.63c1.59.65,2.76.33,3.21-.88.11-.3.14-.58.65-.76a5,5,0,0,1,.16.51c.11.58-.56,1.17.05,1.73s1.65-.07,2.35.35c.06,0,.24,0,.37-.06.9-1.28-.4-2-1.32-2.86-.41,0-.18.48-.74.43-.2-.39,0-.78.15-1.17a1.13,1.13,0,0,1,1.27-.7c.71.09,1.17.49.88,1-.39.72.22,1.08.8,1.54s1.64.46,2.2,1c.11-.52.38-1-.41-1.4-.53-.26-.3-.67-.22-1s.21-.44.64-.41a.74.74,0,0,1,.6.31c.21.32-.14.76.56,1.06,1.13-4.24.76-8.5,1.21-12.73l.29,2.55h.32V45.72C145.11,46.49,144.78,47.06,145.26,47.61Zm-8.85,158.13h.24c0-.58,0-1.16,0-1.74,0-2.05-.4-4.12.74-6.13a2.46,2.46,0,0,0,.27-2c-.84-2,.06-4,.27-6a9.39,9.39,0,0,0,0-3.63,5.78,5.78,0,0,1,.53-3.41,1,1,0,0,1,1.09-.85c.82.05.85.62.94,1.07s.07.74.17,1.09a.73.73,0,0,0,.68.58c1.38.26,2.18.91,2,1.76-.42,2.66.16,5.32-.07,8a74.83,74.83,0,0,0-.06,11.18c.1,1.52.19,3,.23,4.56a.63.63,0,0,0,.81.56c.64-.27.53,0,.57.25s0,.39.43.35c0-2.3,0-4.6,0-6.89a3.24,3.24,0,0,1,.49-2.42,1.15,1.15,0,0,0,.15-1.2,1.31,1.31,0,0,1-.09-.93,4.23,4.23,0,0,0,0-2.46,4.08,4.08,0,0,1,.38-3.54c.28-.38.12-.8.12-1.21,0-1.05-.85-2-.3-3.15s0-2.23,1.25-3.29c.07,6.66-.86,13.22.58,20a3,3,0,0,0,.5-2.29c-.2-3-.61-6,.38-8.94a.6.6,0,0,0,0-.41c-.49-1.15-.05-2.29.07-3.43a3.82,3.82,0,0,0,0-1.38,12.56,12.56,0,0,1,.13-4.26c0-.17.13-.36.76-.29a19.27,19.27,0,0,0,.21,3.18,1.11,1.11,0,0,1-.13.68,3.37,3.37,0,0,0-.32,2.85,10.63,10.63,0,0,1,.05,3,37.48,37.48,0,0,0,.18,6.13c.13-.19.22-.27.24-.35.79-4.77.48-9.56.79-14.34a22.6,22.6,0,0,0-.33-3.29c0-.39-.27-1,.42-1.09s.71.49.93.83c.06.08.1.17.15.25.35.49.58,1.09,1.69.59.48-.21.63.15.77.41s-.31.92.3,1.16a4.14,4.14,0,0,1,2.21,2.29c.12-.79.26-1.68,1-1.84s.77-.39.76-.76a1.93,1.93,0,0,1,.22-.95,17.4,17.4,0,0,0,1.66-4.52c.18-1,.18-1.17-1.17-1.34a24.85,24.85,0,0,0-6.64,0c-1.08.15-2.11.33-1.85,1.39a.58.58,0,0,1-.33.62,3,3,0,0,0-1.48,2.57,16.63,16.63,0,0,0-.32-2c-.34-1.09-.84-1.36-2.43-1.12-.91.13-1.42,0-1.32-.72.06-.4-.2-.63-.75-.65a57.54,57.54,0,0,0-6.67,0c-.77.06-1.3.38-1,1.07.19.42.3.92-.46,1.21-.62-.09-.83-.6-1.47-.66-1.36-.12-2.71-.33-4.07-.37-.74,0-1.21-.11-1.57-.58a3.85,3.85,0,0,0-4.11-1c-.36.11-.58.42-1,.39-2-.15-3.64.57-5.44.92a8.4,8.4,0,0,1-5.14-.2,10,10,0,0,0-4.9-.6c-1.56.06-2.09.76-1.68,1.85.15.4.79.69.63,1.13-.37,1,1.16,1.61,1.09,2.55,0,.15.36.25.64.25s.4-.17.53-.34c.4-.5.07-1,0-1.48a2.2,2.2,0,0,1,.26-1.92,4.32,4.32,0,0,1,.42.49c.52.93.51.89,1.91.75.81-.08,1.78-.57,2.42.26a.23.23,0,0,0,.32,0c.88-.67,2,.19,3-.24a.72.72,0,0,1,.87.4,3,3,0,0,1,.48,1c.23,2.8.07,5.61,1,8.37-.48,1.46.48,2.9.12,4.37,0,.14.09.27.48.26.48-.94.2-2,.32-2.95a2.34,2.34,0,0,1,1.9-2.46c-2.26-.78-1.72-2.17-1.75-3.32-.05-2.25.29-2.81,1.42-3.22.46.64-.13,1.37.45,2.28.17-1.68.66-3.07.43-4.5-.09-.6.05-1.08,1-1.33,1.95-.52,2.59-.25,2.75,1.22,0,.23,0,.46.05.69.18,2,.11,4.07.92,6.06.07-.64,0-1.28.08-1.92s-.23-1.18.23-1.73c-.19,2.54.77,5.12-.66,7.61,0,.08,0,.18,0,.27,0,.25-.33.56.29.68s.52-.29.59-.5a14.93,14.93,0,0,1,1.18-3.48,4.88,4.88,0,0,0,.91-3.54c1.17-.09,1.4.28,1.51,1a42.21,42.21,0,0,0,1,5.34,11.15,11.15,0,0,0,1,2.51c.52.92.19,1.92.46,2.87a21.69,21.69,0,0,1,1.23,6A9.34,9.34,0,0,0,136.41,205.73ZM258.51,124c-.29-.29-.51-.77-.88-.83a7.11,7.11,0,0,1-2.14-.89,6,6,0,0,0-4.06-.75,7.89,7.89,0,0,1-3.11-.07c-1.43-.33-2.93.09-4.31-.38a1.32,1.32,0,0,0-1.18.3l1.17.32a13.22,13.22,0,0,1-1.75.48c-1,.32-1.74.45-2.13-.47-.12-.29-.45-.27-.8-.18a1.7,1.7,0,0,1-1,0,15.59,15.59,0,0,0-7.9-.38c1.95.36,1.71,1.26,1.48,2.13,1.56,0,1.62,0,1.85.94a3.06,3.06,0,0,0,.63,1.5,3.82,3.82,0,0,0,1.27-2.08,1.41,1.41,0,0,1,1.45-1,12.68,12.68,0,0,1,3.53,1.22c.9.79,1.44.75,2-.16.64-1.06,1.06-1.17,2.47-.55.84.37,1.59.77,1.68,1.59,0,.46.4.86,1.31.75.33,0,.87,0,1,.31.52,1.08,1.58,2,1.32,3.32a29.17,29.17,0,0,0-.08,5.47c.89-.44,1-.91,1-1.35,0-1.56.05-3.12-.06-4.68a10.63,10.63,0,0,1,.29-3.66c.09.55-.11,1.1.29,1.61a4.75,4.75,0,0,1,.86,2.94,9.08,9.08,0,0,0,.14,2.8c.94-.39.72-1.15,1.48-1.65.83,1.27.6,2.65,1.49,3.88,0-.17.06-.26.08-.35.3-1.82-.73-3.73.74-5.48.09-.11-.11-.34-.19-.52s-.5-.46-.16-.76c1.06.5,2.27.91,2.1,2.06,0,.24.55.33.83.44,1.42-.72.91-1.84,1.07-2.92,1,.64.32,1.34.61,1.94.86,1.8,2.25,3.51,2.11,5.51,0,.1.15.13.32,0,0-.72.76-1.31,1-2a.58.58,0,0,1,.68-.4.5.5,0,0,1,.5.52,6.49,6.49,0,0,0,.27,1.76c.39,1.19,1.39,2.15,2,3.26a4,4,0,0,0,2.3,2,15.16,15.16,0,0,1,3.52,1.48c-.41-1.43,1.17-2.66.54-4.08-.1-.23.14-.4.38-.58a2.52,2.52,0,0,0,.81-3.06c-.47-1,.62-2.32,2-2.44s1.51-.13,1.26-1.11a25.85,25.85,0,0,1-.32-4.67,1.29,1.29,0,0,1,1-1.41,12.21,12.21,0,0,1,2.88-.18c.71,0,.76.59,1.23.82,1.2-.5,1.71-1,1.38-1.57s-1.32-.57-2.16-.59a14.5,14.5,0,0,1-2.91-.18c-1.13-.26-1.4.1-1.52.72,0,.22.09.46-.32.69a6,6,0,0,0-4.34-3.27c.51.9-.77,1.07-.91,1.8a9.15,9.15,0,0,0-5.82-1.17,5.91,5.91,0,0,1-1.74-.17,14.16,14.16,0,0,0-2.33-.23c-2.12,0-2.08,0-2.43,1.48C260.06,122.74,260.22,123.77,258.51,124Zm-27.26,55.71c.56.18.8.46,1.38.4,1.14-.13,1.44,0,1.22.78-.38,1.34-.07,2.66-.11,4-.09,2.63-.21,5.25-.3,7.88,0,.94,0,1.88,0,2.82a11.2,11.2,0,0,0,1.3-2.29.49.49,0,0,0,.07-.27c-.12-.64-.26-1.27-.37-1.91,0-.25,0-.51.5-.63,0,.47,0,.89,0,1.3,0,.25,0,.61.51.63a.6.6,0,0,0,.71-.54c.1-.91.18-1.83.27-2.74a7.11,7.11,0,0,1,.11,1.59,4,4,0,0,0,.89,2.88,6,6,0,0,1,1.77,3.9,26.85,26.85,0,0,0,.21,3.59c.1,1.15,0,2.43.75,3.38a5.62,5.62,0,0,1,.76,2.39c.09.32-.09.68.44,1.16-.2-2,.11-3.7-.25-5.44a4.4,4.4,0,0,1,0-1.79,27.28,27.28,0,0,0,.69-7.1,4.62,4.62,0,0,1,0-1.1c.53-2.79.17-5.61.63-8.4.18-1.1-.2-2.31,1-3.38a2,2,0,0,0,1.87,1.11c.23-.62.46-1.24.67-1.87.16-.47-.05-.86-.77-.95-2.83-.36-5.69-.83-8.5,0a5.44,5.44,0,0,1-2.86.16,5.24,5.24,0,0,0-1.73-.21c-.75.08-1.25,0-1.49-.6-.18-.43-.91-.62-1.19-.25-.66.88-1.87.62-2.83.82a2.29,2.29,0,0,1-2.12-.39,2.52,2.52,0,0,0-2.17-.35c-2.86.52-5.82.48-8.71.82a12.17,12.17,0,0,1-1.36,0,30.45,30.45,0,0,0-5.35.68c-.31.06-.32.27-.22.46a.41.41,0,0,0,.62.11c.64-.56.86-.31,1.16.2a7.41,7.41,0,0,1,1.1,2.28c.52-.38,0-.78.52-1,.19.45.55.9.52,1.33,0,.83,1.54.82,1.55,1.62,0,.1.95-.29,1.48,0a2.15,2.15,0,0,0,.31-.22c-.67-.81.12-1.5.38-2.27.35.11.32.25.28.38-.29,1.12-.42,2.18,1.12,3,.4.21.48.74.65,1.13s.18.74.73.95c.8-.23,1.26-.63,1.23-1.26,0-.83.67-1.49,1.13-2.19s1-.65,1.62-.09c.35.33.55.74.92,1.06.76.63.43,1.57,1.27,2.23.21-.23.33-.53.54-.57.42-.07.52.24.53.45.06.88.61,1.71.46,2.6,0,.19,0,.42.33.42.49,0,.43-.31.32-.5-.65-1.13-.36-2.28-.18-3.41.08-.5-.13-1.29,1.31-1.12.38,0,.38-.31.42-.53a10.34,10.34,0,0,0,0-3.29,1.06,1.06,0,0,1,1.53-1.09c.79.39,2.13.18,2.31,1.21C231.61,181,231.36,180.43,231.25,179.75ZM352.09,282.17c-.21-1.81.26-3.58.3-5.35a3,3,0,0,1,1.4-2.49,2,2,0,0,1,2.08-.23,3.47,3.47,0,0,1,2.4,2.53c1,2.9,2,5.82,2.95,8.73.07.22.07.54.55.61a1.14,1.14,0,0,0,0-.83,67.17,67.17,0,0,1-.93-7.15,17.13,17.13,0,0,1,.17-2.89c.15-.94.51-1,1.6-.46.65.33,1.07.32,1.22-.3,0-.2.18-.34.65-.39.89.77,1.85,1.57,2.75,2.41.28.26.73.49.89.25.4-.59,1.48-.94,1.52-1.51.08-1,.92-.87,1.67-.91a47.91,47.91,0,0,1,1.71,7.78c.11-2.35-.35-4.69-.23-7,.05-1,0-1,1.57-1.44a.69.69,0,0,0,.3-.17c.48-.51.93-.29,1.46,0,1,.51,1.69,1.12,1.76,2,0,.25.27.42.64.46a.59.59,0,0,0,.66-.4c.16-.3.33-.6.51-.9.29-.48.72-.46,1.22-.16a6.65,6.65,0,0,1,1.57,1.61c.08-.22.11-.36.17-.48s0-.28.25-.24c.67.81.28,1.83,1.21,2.73.17-1-.11-2,.38-3.21a12.44,12.44,0,0,1,1.12,3.77,36.47,36.47,0,0,1,.32,3.64,2.86,2.86,0,0,0,.47-1.46c.06-.78.05-1.57.11-2.35a2.81,2.81,0,0,1,1.84-2.17,2.25,2.25,0,0,1,2.74.26c.4.34.51.86,1.22,1,.26-.2.14-.44.19-.66a5,5,0,0,1,1.41-2.4,1.71,1.71,0,0,1,2.63-.08c.71.61,1.57,1.18,1.5,2.11a1.34,1.34,0,0,0,1,1.35c.54-.61.72-1.48,1.78-1.57,1.38-.11,1-.74,1.06-1.31s-.75-.79-.3-1.3c1.26.2,1,1,1.32,1.67a6.24,6.24,0,0,0,.47-.72c.47-1,1.26-1.55,3-1.49a12.19,12.19,0,0,0,5.17-1,3.6,3.6,0,0,0-2.32-.48,18.07,18.07,0,0,1-3.29-.13c-1.33-.13-2.82-.48-4.06,0a8,8,0,0,1-4,.29,30.53,30.53,0,0,0-6.84,0,27.79,27.79,0,0,1-7.79-.18,17.23,17.23,0,0,0-7.3.21,33.67,33.67,0,0,1-5.6.61,3.41,3.41,0,0,1-1.69-.28,10.24,10.24,0,0,0-6.07-.46,3.65,3.65,0,0,1-1.52.18,7.76,7.76,0,0,0-4.19.3,4.9,4.9,0,0,1-3.21-.14,13,13,0,0,0-3.35-.76,6.29,6.29,0,0,0-5.09,1.27A3,3,0,0,1,344,273c-1.16.32-2.42,0-3.63.28.15.15.2.24.29.29a4,4,0,0,0,1.72.08c1.78,0,2.41.41,2.79,1.62.06.19,0,.46.38.53.45-.25-.06-.63.35-.94,2.14,2,2.14,4.72,4.27,6.87.29-.51.41-1.07,1.21-1.15Zm106.17-97c1.78,1.28,1.29,3.07,2.33,4.47,0,.06,0,.18-.12.25-.87.89-.12,1.75.1,2.62.13.54.72,1.13.4,1.6-.68,1,.4,1.65.74,2.42s1.8.75,2,.18c.26-.81,1.17-1.42,1.25-2.25.17-1.74,1.33-3.34,1.47-5.09,0-.22.13-.61.28-.63,1.16-.15,1-1,.82-1.26-.39-.77.54-1.17.66-1.78.07-.36.64-.47,1.09-.43a.63.63,0,0,1,.62.62c0,.23,0,.47.46.51.18-.16.33-.44.56-.47a.83.83,0,0,1,.89.43,13.46,13.46,0,0,1,.41,1.52c0-1.2.8-2,2.21-2.58.89.21,1.24.87,2,1.27,1-1.22,1.27-2.59,2.31-3.79,1.33,1.06,1.79,2.33,3.22,3.12a.68.68,0,0,1,.36.62c0,1.64,1.44,3.06,1.33,4.72a2.58,2.58,0,0,0,.53-1.2c0-1.78,1.37-3.33,1.67-5,.18-1,1.45-1,2.41-1.27s.6.57,1,.76a2.48,2.48,0,0,1,1.39,1.25c.06.14.3.26.43.14.48-.45,2,0,1.78-1.07-.06-.35.35-.75.54-1.12a9,9,0,0,1,2.91,1l.25-2.73a5.27,5.27,0,0,0-.75-.11,12.09,12.09,0,0,1-5.3-.68,2.15,2.15,0,0,0-1,0c-2.09.07-4.18.17-6.27.16-1.62,0-3.42.22-4.83-.29a12.19,12.19,0,0,0-5.33-.37,25.85,25.85,0,0,1-5.24,0c-2.47-.28-5-.08-7.43-.32a15.36,15.36,0,0,0-5.29.74c-.77.18-1,.59-.63,1.22a4.28,4.28,0,0,1,.95,2.52c0,.14.09.38.2.32,1.32-.7.92.5,1.46.64C457.73,185.78,457.66,185.26,458.26,185.17Zm-93.72-6c-.52.46-.93.76-1.24,1.11s-.71.82-.51,1.29c1,2.43.73,4.94.93,7.41.07.87,0,1.75.05,2.63s.26,1.83.32,2.75a8.79,8.79,0,0,0,.74,2.4,7.22,7.22,0,0,0,.5-4.19c-.16-.68-.4-1.64,1.06-2.07.3-.09.21-.42-.16-.55s-.71-.26-.71-.59c0-.06-.18-.18.18-.23,1-.15,1-.19,1-.63a7.69,7.69,0,0,0-.15-1.1c-.34-1.44.61-2.68,1.19-4a.67.67,0,0,1,.68-.42c.42,0,.44.29.55.5a6.21,6.21,0,0,1,.51,2.85,43.58,43.58,0,0,1-.28,4.67c-.15,2.2,0,4.41.1,6.61,0,.25-.14.58.45.65a10.21,10.21,0,0,1,2.57-2.13,6.17,6.17,0,0,0,2.87-2.37,2.12,2.12,0,0,1,1.81-1.47c1.13,0,1.09,1,1.43,1.63s0,1.16.71,1.58a1.38,1.38,0,0,0,.38-1.2,50.86,50.86,0,0,1,.44-7.17,26.65,26.65,0,0,0,.13-5c-.08-.94-.15-1-1.51-1a13.94,13.94,0,0,1-2.54-.06,28,28,0,0,0-5.59-.63,23.66,23.66,0,0,1-3.91-.89c-.43-.08-.49-.41-.56-.68-.26-1-.38-2.07,1-2.79a6.68,6.68,0,0,0-5.22-.86c-1.55.25-2.81,1-4.4,1.13-1.09.11-1.16.29-.61,1a5.91,5.91,0,0,1,1.43,2.25c.11.6-.16.88-1,.85s-1.57,0-2.35,0c-.49,0-1.21-.21-1.29.31s.26.92.94,1.11a5.8,5.8,0,0,0,1,0c2.38.21,2.86.71,2.32,2.38l-.13.4c.85-.32,1.62-.58,1.86-1.31a1.46,1.46,0,0,1,1.15-1,1,1,0,0,0,.81-1.18,3.22,3.22,0,0,1,1.26-3.72A2.61,2.61,0,0,0,364.54,179.17Zm29.35,20.9h.49c-.53-1.79-.05-3.55,0-5.33,0-3.21.75-6.41.53-9.63a.69.69,0,0,1,.37-.76c.64-.32.63-.89,1-1.3.63-.16.45.93,1.29.4.25-.16.3-.62.81-.34s.11.5-.07.75a3,3,0,0,0-.49.75c-.4,1.19-1.57,2.42.26,3.55.35.22.32.6.34.92,0,.51,0,1,0,1.52q0,4.6,0,9.2a13.62,13.62,0,0,1,.46-1.73c.31-1.64.87-3.26,1.06-4.9.09-.81,1-1.26,1.17-1.93.38-2,.62-3.94.83-5.91a3.18,3.18,0,0,1,.93-2.05c1.38-1.42.33-3.11-2.07-3.29a20.39,20.39,0,0,0-4.88,0,40.15,40.15,0,0,1-6.16.69c-1.64,0-3.27-.08-4.9-.08a3.47,3.47,0,0,0-2.57,1.23c-.82.67.53.67.55,1.08a5.71,5.71,0,0,0,.35,1.22,17,17,0,0,1,.24,4.65,18.93,18.93,0,0,0,.21,3.47,13.21,13.21,0,0,1,.6-2.7c.31-2.06.32-4.15,1.22-6.15.15-.34.1-.81.7-.92s1,.3,1.42.6a2.08,2.08,0,0,1,.39.48,9,9,0,0,1,.73,1.13c.2.41.8.58,1,1s-.26,1,1,.72c.39-.09.11.7.53,1a1.4,1.4,0,0,1,.38.32c1,1.49,2,2.95,2,4.68C393.63,195,393.79,197.51,393.89,200.07Zm-61.74-72.65a2.47,2.47,0,0,1,.59,2.05.52.52,0,0,0,.68.52c.42-.06.24-.35.19-.57a16.94,16.94,0,0,1-.47-2.18.88.88,0,0,1,1.13-.87c.63.16,1.75-.49,2,.53a1.9,1.9,0,0,0,1.23,1.36c.45.18.94.17,1-.3s0-1.1.06-1.65a1.16,1.16,0,0,1,1.45-1c.6.14,1.32,0,1.78.29a1.08,1.08,0,0,0,1.48,0c.63-.55,1-.17,1.31.2s.06.54.13.8c.18.76,0,1.61.83,2.23a2.79,2.79,0,0,1,.94,1.63,5.51,5.51,0,0,0,2,3.26,23.27,23.27,0,0,0-.56-4.53c-.39-1.56,1.38-2.41,1.68-3.68.1-.4.87.42.9-.21a6.85,6.85,0,0,0,0-2.77c-.41.46-1.2.73-1.07,1.38.06.28-.2.58-.56.68-.63.17-.67-.31-1-.52a4,4,0,0,1-1.38-1.31c-.45-.89-.56-.94-1.86-.64a14.76,14.76,0,0,1-4.46.15,38.55,38.55,0,0,0-5.39-.37c-.27.52.17,1.06-.48,1.53-.24-.24-.64-.45-.65-.67-.07-.91-.93-.86-1.85-.93-1.2-.09-2.33.4-3.49.18a2.46,2.46,0,0,0-2.09.4c-.7.5-1.71.3-2.6.28s-.35-.43-.37-.71-.33-.25-.58-.3a13.55,13.55,0,0,0-5.21,0c-.82.17-1.49,1.28-.9,1.69a3,3,0,0,1,1.11,1.42,1.24,1.24,0,0,0,1.16.82,1.06,1.06,0,0,0,1-.73c.37-1,1.42-1.23,2.62-1.55a6.67,6.67,0,0,1,4,.4,2.6,2.6,0,0,0,1.37.31c.81-.14,1.2.12,1.37.65a10.89,10.89,0,0,0,.57,1.32,7,7,0,0,0,1.61,2.26C331.86,128,331.54,127.58,332.15,127.42ZM374,74.23c0-.78,0-1.55,0-2.33a1.41,1.41,0,0,1,.47-1.31,3.4,3.4,0,0,0,1.24-3.08c.07-2.26-.57-4.49-.32-6.75a5.37,5.37,0,0,0-.23-2.86c-.55-1.3-.72-1.59-2.64-1.7a32.81,32.81,0,0,0-8.92.52c-1.57.34-3.08.9-4.83.36a1.47,1.47,0,0,0-1.76.58c-.34.68.51,1.91,1.45,2.17a1.31,1.31,0,0,0,.92,0,6,6,0,0,1,5.13.06,25.09,25.09,0,0,1,2.46,1.37,12.49,12.49,0,0,1,4.34,4.54C372.72,68.5,373.26,71.37,374,74.23ZM291.68,179.57c-.83-.31-1.84.33-2.55-.37-.21-.21-.69-.32-.53-.64s.63-.23,1-.17a9.76,9.76,0,0,0,5.65-.55c.22-.1.46-.18.42-.41s-.34-.29-.58-.29c-2.54,0-5.09-.08-7.62.15-.33,0-.72.07-.83.3-.73,1.51-2.46,1.34-4.16,1.28-.71,0-1.13-.14-1.06-.71a.62.62,0,0,0-.67-.73c-1.14.07-2.18-.29-3.27-.28s-1.58.44-1.13,1.27c.16.3.41.56.3.91-.35,1.17-.34,1.17,1.29,1.4.32,0,.66,0,1,.08.95.16,1.68.49,1.9,1.23a5.41,5.41,0,0,0,.34.79c.3.63.44,1.2,1.88,1.09,1.12-.08,1.4.45,1.38,1.58-.2-.17-.21-.5-.59-.49s-.36.32-.34.53c.09.92-.36,1.87.21,2.82.47-.45.16-1.05,1.13-1.56a9.2,9.2,0,0,0,.61,4.29,7,7,0,0,1,.31,3.84c0,.06.14.13.22.2.53-.09.2-.75.89-.69s-.13.72.64.76a.6.6,0,0,0,.17-.66c-.53-1.15-.07-2.26.24-3.39a43.48,43.48,0,0,0,.47-4.54,5.44,5.44,0,0,1,1.82-3.63C291.2,182.09,292.17,180.9,291.68,179.57Zm51.13,10.05c.42,0,.47-.23.51-.41a3.15,3.15,0,0,1,2-2.77c.45-.18.44-.54.64-.82.49-.68.8-1.67,1.6-1.94,1.86-.63,1.91-1.92,3.22-3a18.15,18.15,0,0,1-4-.55,21.34,21.34,0,0,0-4.24-.47c-1.32,0-1.64-.52-.94-1.31.41-.46,1.16-.58,1.69-.92s.6-.67-.06-1a5.47,5.47,0,0,0-5.06-.37,4.8,4.8,0,0,1-3.52.34c-.89-.26-2.12-.82-2.89-.08s.3,1.36.74,2c0,.05.22.05.35.08.48-.3,0-.92.81-1.15a3.46,3.46,0,0,1,3.84,1,5.64,5.64,0,0,1,.45.61c.37.7,0,1.06-1.07,1a8.14,8.14,0,0,0-2.69.27c-1.16.33-1.31.81-.47,1.49a1.69,1.69,0,0,1,.52,1c.13.43-.14.89.36,1.5.13-.87.9-1.39.84-2.11s.45-1,1.43-1c.37,0,.75-.24,1.17.06,0,.13.08.31.13.49.46,1.49.12,3.09,1.78,4.41.5.4.49,1.15,1.49,1.4.23.06.37.37.49.58C342.26,188.56,342.53,189.1,342.81,189.62ZM262.07,28.3c.41-.09,0-.94.86-.52.5.24.72.61.89-.11.07-.29.39-.31.74-.32a1.59,1.59,0,0,1,1.6.77c.11.18.56.53.93.28s1.15-.33,1.16-.86a.29.29,0,0,0-.3-.3c-1.74-.06-3.38-.73-5.11-.57a9.66,9.66,0,0,1-3.43-.39,23,23,0,0,0-6.38-.52,11.85,11.85,0,0,1-2.15,0c-4-.61-8.05-.38-12.09-.49a9.71,9.71,0,0,0-3.57.56c1.89.79,4,1.09,5,2.52a.47.47,0,0,0,.31.11c.94-.53,1.57,0,2.33.26.23.07.74-.29.88.15s.88.63,1.38.91c1.38.77,2.62,1.67,2.82,3.06a3.26,3.26,0,0,0,1.61-1.5,6.21,6.21,0,0,0,.72-1.71c.07-.57.52-.64,1.21-.6A1.84,1.84,0,0,1,253.3,30a1.21,1.21,0,0,0,1.29.88.86.86,0,0,0,.92-.93c0-1.08,1.55-1.43,2.15-2.24.28-.38,1,0,1.46-.09C261,27.34,261.15,27.36,262.07,28.3ZM392.35,61.89c.49-.2.22-.49.23-.74,0-.89.11-.83,1.42-.94a3.35,3.35,0,0,1,2.38.76,9,9,0,0,1,3.07,3.33,2.69,2.69,0,0,0,1.72,1.59,37.19,37.19,0,0,1,1.24-6.41c1,.54,2.4.38,3,1.36.26.46,1.36.41,1.85,0a3.29,3.29,0,0,0,.54-.73c.58-.86,1-1.07,2.39-.95a2.07,2.07,0,0,0,2-.59c.25-.33.92-.36,1.06-1-2.58,0-5-.59-7.47-.76a34.59,34.59,0,0,0-7.23.25c-1.47.21-3,.44-3.9,1.38-.35.36-.49.78-1.24.65s-.6-.51-.62-.9c0-.72-.6-1-1.54-1A6.28,6.28,0,0,0,392.35,61.89ZM235.2,68.34a16.72,16.72,0,0,0-.65-5.37c-.54-2.17-.91-4.26.75-6.27.28-.34.24-.58-.27-.8a9.23,9.23,0,0,0-6.7-.57c-.73.23-1.17.54-1.16,1.13s.23,1.28-.09,1.78c-.89,1.4.06,2.52,1,3.55A13,13,0,0,1,230,64.18a1.81,1.81,0,0,0,1.15.84,3.86,3.86,0,0,1,2.42,1.47C234.07,67,234.15,67.72,235.2,68.34ZM282.44,32a5.28,5.28,0,0,0,3.46,4.37,2.38,2.38,0,0,0,0-2.31,3.33,3.33,0,0,1,1.56-4.17c.44-.25.87-.38.46-.83-.22-.24.19-.4.33-.59.49-.65,1.15-1.36.44-2s-1.91-.41-2.93-.35a3.28,3.28,0,0,0-1.11.23,10.66,10.66,0,0,1-2.43.48c-1.35.28-2.68-.11-4.3-.06,1.68,2.1.8,4.57,2.75,6.71.5-.83-.11-1.51.28-2.17.78.78.17,1.75.83,2.52a1.67,1.67,0,0,0,.29-.13C282.51,33.2,281.88,32.65,282.44,32ZM448.15,63.21l.23,0c0-.55,0-1.09,0-1.64s.44-.88,1.09-1c1.1-.26,1.52.88,2.7.68.35-.06.51.4.51.66,0,1.38,1.28,2.49,1.68,3.79a1,1,0,0,0,.36.48,1.18,1.18,0,0,0,1,.35c.49-.1.45-.41.44-.68,0-1.27.29-2.53-.18-3.81-.34-.93,0-1.06,1.33-1.11a1.06,1.06,0,0,0,.47-.17,2.12,2.12,0,0,0,1.34-2c.06-.45-.27-.7-.84-.79s-1-.12-1.56-.15a37.57,37.57,0,0,0-6.61-.26,19.5,19.5,0,0,1-3.5-.24,1.77,1.77,0,0,0-1.84.77c-.36.59.14.87.64,1.16A4.46,4.46,0,0,1,447.67,62,9.78,9.78,0,0,0,448.15,63.21ZM407.56,179.54c.9-.32,1.1-1,2-.74A1.53,1.53,0,0,1,410.7,180c.07.27,0,.55.09.82s-.23.65.35.88a1.66,1.66,0,0,0,.87-1.31,15.44,15.44,0,0,0,.22-2.75,2.41,2.41,0,0,1,.41-1.47.82.82,0,0,1,1.11-.25,4.44,4.44,0,0,0,2.45.68c.71,0,.45.86,1.45.52.74-.25.68.6,1.1.86.37-.53-.37-1.22.67-1.73.58-.28-.31-1,.67-1.44-3.28-.31-6.29-.28-9.16-1a2.3,2.3,0,0,0-.78,0c-1.61.21-3.24.35-4.81.67-1,.21-1.93.66-3.15.3-.69-.2-1.41.31-1.25.74s.82.82,1.24,1.22.8.07,1.14.11a8.28,8.28,0,0,1,2,.21C406.24,177.74,408,178.06,407.56,179.54ZM145.92,244.31c0-.41,0-.59,0-.77,0-1-.24-1.09-1.58-.89-.25,0-.5.1-.76.12-1.64.1-2.06-.11-2.56-1.21-.83-1.84-1-3.77-1.43-5.66a22,22,0,0,1-.25-4.54,6.75,6.75,0,0,0-.44-1.9c-.23-.66-.74-.81-1.59-.51-.47.16-1,.3-1.42.46-.32.11-.43.3-.38.57.47,2.87,1,5.73,2.78,8.4.72,1.08,1.2,2.23,1.8,3.35.23.43.17.77-.59.74a13,13,0,0,0-2.44.45c-1,.14-1.32,1.13-.52,1.52.56.27,1.33.3,2,.54.23.09.71-.15,1.08-.25.81-.21,1.52-1,2.51-.21a.84.84,0,0,0,.52-.1A3.64,3.64,0,0,1,145.92,244.31ZM485.46,30.2a7.4,7.4,0,0,1-2.73-.26,16.5,16.5,0,0,1-2.71-.1,7.34,7.34,0,0,0-3.09-.17,9.79,9.79,0,0,1-4-.29,4.42,4.42,0,0,0-2.12-.1,7,7,0,0,1-3.63-.27,3.49,3.49,0,0,0-2.45-.1,7.61,7.61,0,0,1-4,.41,11.59,11.59,0,0,0-2,0c-.65.07-1.75-.17-1.81.47s1.19.69,1.84,1c.41.2.67-.17,1-.28,2.29-.73,3.39-.39,4.13,1.27a4.4,4.4,0,0,0,.77,1.41c.19.2.64.43.77.23.72-1,1.69.06,2.46-.15.31-.62.15-1.23.3-1.82a.82.82,0,0,1,.65-.64.87.87,0,0,1,.93.37c.29.3.55.61.86,1a15.67,15.67,0,0,1,1.42-.82c1.5-.67,3-1.31,4.79-.37a2.78,2.78,0,0,0,1.5.24A8,8,0,0,1,483,32,2.31,2.31,0,0,1,485.46,30.2ZM83.71,58.93c.48-.45.07-1.12.91-1.24.62-.09.67.51,1.12.68.58-.05.51-.93,1.31-.58s1.63.59,1.75,1.22c.2,1,1.31,1.37,2.68,2a2.22,2.22,0,0,1,.59-2.81c.07-.06.13-.19.08-.26-.57-.95.39-1.43,1.18-2a3.2,3.2,0,0,0,.91-.89c.31-.49.18-.82-.63-.88a17.57,17.57,0,0,0-5.06,0,25.66,25.66,0,0,1-2.69.35,20.6,20.6,0,0,1-4.09-.05c-.43,0-1-.11-1.2.26s.29.47.55.66A6.6,6.6,0,0,1,83.71,58.93Zm318,167.75a3.68,3.68,0,0,0,1-2c.31-.84,1-1,2-.55a3.29,3.29,0,0,1,1.88,1.88c.18.6.72.58,1.38.85a4.89,4.89,0,0,1,.46-3c.69.3.43.9.91,1.36a4,4,0,0,1,3.86-1.71,6.61,6.61,0,0,1-2.29-1.3,2.54,2.54,0,0,0-1.78-.68c-2.33-.33-4.68.12-7-.23-1-.14-2.33.66-2.24,1.23A7.39,7.39,0,0,0,401.71,226.68Zm31.92-198c-2.09-.07-3,.16-3.08.64-.07.78,1.41,1.8,2.72,1.87a6.71,6.71,0,0,0,1-.08,13.47,13.47,0,0,1,2.09-.17,1.68,1.68,0,0,0,1.17-.21c1.15-.7,2-.6,2.56.36.44.75,1.11.64,1.83.46A2.39,2.39,0,0,0,443,31c.45-.48,1.07-.49,1.85-.52a3.93,3.93,0,0,0,2.53-.47c.27-.23.86-.32.74-.72s-.63-.47-1.07-.49a47.4,47.4,0,0,0-6.83-.26A29.3,29.3,0,0,1,433.63,28.66Zm-30.29,2.89c.38-.41.27-.94,1.19-.86a1.88,1.88,0,0,0,1.39-.37.82.82,0,0,1,1.15.05c.21.22.38.1.64,0,1.27-.4,1.3-.4,2,.41.46.57,1,.6,1.87.46,1.15-.18,1.59-1.16,2.69-1.12,1.65,0,3-.71,4.68-.62a21.4,21.4,0,0,0,3.43-.34c-3.4,0-6.64-.71-9.93-1a19.44,19.44,0,0,0-7.65.55C402.14,29.49,402.17,29.53,403.34,31.54ZM132.81,167c.36-1.33.35-1.32-.7-1.9-.6-.34-.21-.48.28-.63,1.44-.44,1.65-.76.72-1.56a2.93,2.93,0,0,1-1.17-2.27,1.38,1.38,0,0,0-.34-.93c-.1-.11-.21-.26-.44-.19s-.37.14-.42.24a1.77,1.77,0,0,0-.22.8,2.86,2.86,0,0,1-1.77,2.63,3.7,3.7,0,0,1-3.85-.09c-.42-.3-.75-1-1.48-.67s-.25.92-.18,1.4a1.23,1.23,0,0,0,.71.8,5.65,5.65,0,0,1,2.45,2.27c.3.6,1.07.57,1.59,0a1.93,1.93,0,0,0,.46-.75c.18-.7,1-.94,1.73-1.2a.71.71,0,0,1,.71,0,.3.3,0,0,1,0,.5c-.52.48-.17.74.43,1ZM293.36,56.36c.27.18.4.28.55.36,1,.5,2,1,.91,2a.22.22,0,0,0,0,.37c.61.39.51,1.05,1.18,1.55a3,3,0,0,1,.65-1.85c.56-.57,1.25-.6,1.63,0,.76,1.26,2.17,2.28,2.74,3.63a1.36,1.36,0,0,0,.1-.83c-.31-1.24.3-2.12,1.88-2.73,1-.38.95-.43,1,.48,0,.16.23.2.45.14s.07-.44.15-.64a3.06,3.06,0,0,1,.35-.63c.67-1,.6-1.12-.83-1.42a8.52,8.52,0,0,0-1.34-.2,59.17,59.17,0,0,1-6.78-.7A3.9,3.9,0,0,0,293.36,56.36ZM456.7,174.3c1.77.3,3.06,1.11,4.73,1.34a1,1,0,0,1,1,1c0,.75,1.27,2.19,2.52,2.77-1-1,.82-1.1.84-1.83a15.64,15.64,0,0,1,.34-2c.12-.71.44-1.26,1.67-1.23.35,0,.65-.08.67-.38s-.31-.33-.65-.33a1.76,1.76,0,0,1-1.34-.47,3,3,0,0,0-2.1-.54A18.24,18.24,0,0,0,456.7,174.3ZM460.56,59a4.2,4.2,0,0,1,2.77.34c1.14.78,2.65,1.29,3.35,2.4a1.65,1.65,0,0,0,2.3.1,1.38,1.38,0,0,1,1-.33c.51,0,1,.26,1.6.11a8.65,8.65,0,0,1,.49-2.55c.08-.44,0-.88-.75-1-2.1-.19-4.15-.91-6.35-.34a4.07,4.07,0,0,1-1.35.13A3.94,3.94,0,0,0,460.56,59Zm-144.78.38c.13.14.18.24.27.28,1.39.51,3.09.36,4.42,1,.34.17.31-.2.49-.28.66-.29.41-.92.69-1.15a6.16,6.16,0,0,1,3-1.42c1-.14,1.5.63,2.41.74a.31.31,0,0,1,.26.46c-.09.2-.29.28-.6.25a10.31,10.31,0,0,1-2.1-.09.56.56,0,0,0-.69.36.66.66,0,0,0,.25.77.63.63,0,0,0,.82,0,1.89,1.89,0,0,1,1.24-.35c.59.07,1.62.42,1.65.38.61-.9,1.39.38,2-.13-.18-.44-1-.72-.79-1.31s1-.8,1.38-1.29a5,5,0,0,0-4.41-.6,4.7,4.7,0,0,1-2.27,0A12.47,12.47,0,0,0,319,57c.15.71,1.15,1.16.67,1.93C318.38,58.89,316.93,58.55,315.77,59.39ZM170.2,120.27c1.84-1.12,3.75-2.06,3.12-4-.08-.25.17-.43.25-.65a1.63,1.63,0,0,0-.45-1.58c-.31-.37-1.09-.08-1.66-.06a15,15,0,0,0-1.95.12c-1.63.27-2.21,1.25-1.38,2.28a4.16,4.16,0,0,1,.86,2A3.3,3.3,0,0,0,170.2,120.27Zm14.36,63.11c.29-2,.29-2,2.18-2.89,1-.45,1.32-.36,1.7.42.28.58.23,1.24.82,1.74.55-.13.57-.45.7-.69.9-1.65.36-2.43-2-3-.31-.07-.59-.19-.9-.26a10.49,10.49,0,0,0-6.65.57,3.79,3.79,0,0,1,1.71,2.6c.12.39.35,1.08.87.92C184,182.45,183.88,183.25,184.55,183.38Zm127,90.62c-.18-.64-.76-.74-1.48-.73a16.7,16.7,0,0,1-2.74-.05,21.67,21.67,0,0,0-7.17.34c-.54.09-1.36.13-1.29.64s.83.67,1.43.84a3.08,3.08,0,0,0,.77-.07,2,2,0,0,1,2,.91c.2.37.19.84,1.05.56.24.48.88.48,1.43.59a.57.57,0,0,0,.7-.33A6,6,0,0,1,311.57,274ZM371.3,160.37c1.2-.22,2.62-.06,3.6-1a1.16,1.16,0,0,1,1.75.08c.36.56.94.46,1.43.31.69-.21.61-.64.26-1-.2-.23-.29-.62-.57-.7a17.69,17.69,0,0,0-3.34-1.09,6,6,0,0,0-3.13.64,6.65,6.65,0,0,1-3.25.84c-.93,0-1.05.49-1.12.91s.37.66,1,.72ZM196.24,179.51c.72.57,1.86.38,2.1,1.16.4,1.29,2.06,2,2.93,3.15a1.08,1.08,0,0,0,.9.23c.38-.46.26-.83-.33-1.2a.91.91,0,0,1-.3-1.48c1.57-.09,1.32.89,1.81,1.38.7-.2.46-.58.55-.87a.51.51,0,0,1,.66-.37c1.29.28,1.28-.4,1.35-.92a1.27,1.27,0,0,0-1.37-1.43,42.73,42.73,0,0,0-4.84-.27A11.12,11.12,0,0,0,196.24,179.51ZM312,61.45c.26-1,.68-1.75,1.51-1.76a1.69,1.69,0,0,0,1.78-1.17,8.31,8.31,0,0,1,.85-1.07c.47-.55.39-.85-.49-1a17.33,17.33,0,0,0-5-.24,4.62,4.62,0,0,0-2.14.91c-.18.13-.44.34-.29.47a6,6,0,0,1,1.23,1.61c1.69.09,1.7,1.08,2.06,1.89A.5.5,0,0,0,312,61.45Zm79.68,115.2c-.07.73.75,1.17,1.23,1.74.17.21,0,.59.64.38.38-.12,1,0,.94-.5a4.7,4.7,0,0,1,.73-2.94c.31-.56-.07-.8-1-.86-2.16-.15-4.23.45-6.39.39-.69,0-1.42.36-1.3.84a6,6,0,0,0,1.39,3.15C388.93,177.77,389.6,176.67,391.65,176.64Zm-11.1,2.91c.13,0,.22,0,.23,0,.42-.87.5-1.79.9-2.67s-.36-1.71-1.77-1.9a7.18,7.18,0,0,0-2.88.24,3.69,3.69,0,0,1-2-.07,7.88,7.88,0,0,0-5.1.25c-.5.22-1.43.24-1.33.86.12.77,1.25.71,1.94.95a1.52,1.52,0,0,0,1.47-.51c.18-.19.32-.49.71-.31.88.41,1.62,0,2.43-.12,1.48-.14,3.15-.63,4,.83a.41.41,0,0,0,.26.2c1,.07,1,.6,1,1.1S380.49,179.15,380.55,179.55Zm7.88-111.33c-.51-2.09-1-4-1.44-5.88-.09-.36-.31-.74-.06-1.08.89-1.21,1.06-2.76,3.14-3.45a.52.52,0,0,0,.28-.48c0-.21-.33-.23-.6-.23a14,14,0,0,0-3.09.28c-1.27.28-1.46.49-1.57,1.49a5.28,5.28,0,0,0,.24,2.31c.42,1.25.64,2.53,1.06,3.78A5.09,5.09,0,0,0,388.43,68.22Zm50.65,154.21c.61.12.57.74,1.23.82,1.17-.34,1-1.33,1.87-1.8-.32-.39-.91-.55-1.14-.95s-.93-.46-1.51-.34c-.37.08-.68.28-1,.37-1.2.29-2.32.76-3.66,0-.84-.47-3.17.41-3.45,1.16-.17.45.25.65,1.13.72.68.05,1.32.3,2-.09.33-.19.67,0,1,.19C437,223.28,437.85,223.24,439.08,222.43Zm93.32-48.76c.19-.52.37-1,.5-1.41s-.12-.77-.94-.65c-.25,0-.49.12-.74.18-1.68.39-3.31.5-4.72-.47a2.76,2.76,0,0,0-1.42-.42,1.65,1.65,0,0,0-1.36.43c-.32.34,0,.59.25.87.59.75,1.55,1.31,2,2.17s1.59.71,2.26,0a1.38,1.38,0,0,1,1.81-.54.76.76,0,0,0,1-.23C531.45,172.75,531.85,173.45,532.4,173.67ZM97.62,164.5c-.26.71-.42,1.2-.63,1.68s.11.81.65,1a8.27,8.27,0,0,0,6.56-.44c.59-.35.9-.8.7-1.34a1.78,1.78,0,0,0-1.67-1,7.3,7.3,0,0,0-2.3.24A4.82,4.82,0,0,1,97.62,164.5Zm73.94,17.7a6.23,6.23,0,0,1,.77-.33,2.79,2.79,0,0,0,2.31-2.46c.09-.55-.28-.87-1-1.05a14.14,14.14,0,0,0-5.79.07c-.59.08-.86.44-.28.82,1.14.75,1.56,2,3.34,2.32C171.18,181.6,171.31,181.92,171.56,182.2Zm-24.33,54.16a8.9,8.9,0,0,0-.08-2.19c0-.8-.16-1.63,1.09-2.18.52-.23,1-.78.36-1.18a7.23,7.23,0,0,1-1.51-1.4,1.86,1.86,0,0,0-1.6-.35c-.54.07-.59.45-.66.77s.18,1-.49,1.27a5.32,5.32,0,0,1-1.89.39,5.65,5.65,0,0,0,1.51.32c.82.05,1.11.32,1.08.9a6.19,6.19,0,0,0,.2,1.51C145.5,235.56,145.51,235.56,147.24,236.36Zm294.34-2.52c-.77.12-1.66.25-2.54.42-.65.12-.77.46-.51.86a4.64,4.64,0,0,0,2.57,2.17c.29.1.63.32.88.13a10.8,10.8,0,0,1,2.9-1.07c1.16-.44,1.11-1.28,0-1.72A10.5,10.5,0,0,0,441.58,233.84ZM337.16,60.06c.45-.8,1.68-1,2.05-1.82.24-.51.3-1-.52-1.1a10.92,10.92,0,0,0-5-.13c-.58.16-1.08.31-1.07.83a1.07,1.07,0,0,0,.95,1.08,8.64,8.64,0,0,0,1.13.19A4.27,4.27,0,0,1,337.16,60.06Zm-52.9,181.79a6.59,6.59,0,0,0-1.85.35,8.54,8.54,0,0,1-4.17,1,1.08,1.08,0,0,0-1.14.79c0,.52.77.34,1.21.46a3.13,3.13,0,0,0,1.5-.17,4.68,4.68,0,0,1,3.19.19.86.86,0,0,0,1.14-.08,2.7,2.7,0,0,1,1-.47c1.18-.32.72-1,.62-1.53S284.86,241.94,284.26,241.85Zm-25.12-86c-1.07,1-.75,2.3-1.53,3.32-.2.26.12.51.52.65,1,.37,1.89,1,3.23.53.85-.28,1.89.29,2.91-.15-.93-.75-2.3-1-3-1.86S260.43,156.57,259.14,155.84Zm-95.2-29.61a8.23,8.23,0,0,1,.12,2.05c0,.19.19.35.5.35s.46-.08.42-.22c-.24-.8.67-1.49.21-2.38a1.54,1.54,0,0,1,.63-2.08c.88-.66.94-1.78,1.08-2.74.07-.46-1-.86-1.58-.65a2.91,2.91,0,0,0-1.24,1c-.3.35,0,.59.39.8a.3.3,0,0,1,.09.51C163.45,123.9,164.08,125,163.94,126.23Zm4.4,103.18c-1.55,0-2.59.47-2.35,1.3a4.17,4.17,0,0,0,.88,2.07,1.67,1.67,0,0,0,1.83.67c.94-.2,1.16-.71.93-1.29a1.23,1.23,0,0,1,.11-1.18C170.35,229.94,169.88,229.44,168.35,229.4Zm-34.76-63.2c0,1,.56,1.28,1.56,1a3.53,3.53,0,0,1,1.63-.25c1.34.15,2.09-.23,2.21-1a1.88,1.88,0,0,0-2-2c-.45,0-1-.09-1.23.25a3.34,3.34,0,0,1-1.58,1.09A1.07,1.07,0,0,0,133.59,166.2ZM520.37,172c-.65-.26-1.27-.5-1.88-.76a1.91,1.91,0,0,0-2.36.28,2.79,2.79,0,0,1-1.47.61c-.39.1-1,0-1,.47a7.64,7.64,0,0,1,3.08.83c.88.53.93,1.49,1.25,2.31a2.63,2.63,0,0,1,.93-1.95A20.27,20.27,0,0,0,520.37,172Zm-84.32,4.85c1-.6,1.08-1.41,1.45-2.13.24-.47-.15-.78-.81-.92-.36-.07-6.24-.06-6.56,0s-.49.18-.48.38.22.34.47.39a5.25,5.25,0,0,0,2.26.18,2.3,2.3,0,0,1,2.56.77ZM395,225.6a2.6,2.6,0,0,1,.64-1.31c.28-.28.8-.45.57-.93a2.38,2.38,0,0,0-.91-1c-1.12-.69-2.88-.37-3,.61-.05.62-.85.7-1.1,1.17.83.28,1.67.46,1.86,1.16a.73.73,0,0,0,.94.21A.81.81,0,0,1,395,225.6ZM514.89,232a1.49,1.49,0,0,0,1.08.44c.69.08,1.47,0,2,.45a1.37,1.37,0,0,0,1.5.24c.81-.23.84-.85,1.46-1.18.27-.14-.84-1.3-1.42-1.49-.79-.26-1.61-.48-2.28.15a3.08,3.08,0,0,1-1.86.92A.46.46,0,0,0,514.89,232ZM437.62,57.35a13.1,13.1,0,0,0-2.44.23c-.49,0-1.16-.09-1,.52.1.45.18.8,1.16.83a22.63,22.63,0,0,1,4.6.35c1,.23,1.35,0,1.67-.86.25-.66-.34-.86-1-.89A21.94,21.94,0,0,1,437.62,57.35Zm67.89,175.11a1,1,0,0,0-.37-.71c-.85-.84-2-.69-3.14-.49a1.88,1.88,0,0,0-1.54.93c-.19.48.43.71.9,1,.21.11.38.25.59.36.45.25.65.82,1.56.43S505.45,233.41,505.52,232.46ZM296.72,124.57c.89-.08.23-.92.9-.78.92.2.9-.19.9-.52a10.12,10.12,0,0,1,.19-1.65c.14-.86-.21-1.1-1.55-1.14-1.52,0-1.76.14-1.83,1.1C295.25,122.71,296.06,123.6,296.72,124.57Zm53.47,35.07a1.36,1.36,0,0,0-1.23-.41c-1.69.36-3.5.18-5.18.58a4.77,4.77,0,0,1-2.67,0c-.43-.14-.57,0-.73.19s-.32.42-.08.64a1.06,1.06,0,0,0,.89.15,19.74,19.74,0,0,1,6,0A3.28,3.28,0,0,0,350.19,159.64ZM161.77,233.25a1.81,1.81,0,0,1,1.37-2c.63-.25.88-.53.48-1a2.06,2.06,0,0,0-2-.47c-1.84.66-2.18,1.16-1.75,2.65l.29,1C160.44,232.83,161,232.91,161.77,233.25ZM240.4,58.75a5.39,5.39,0,0,0,.47-.67,1.19,1.19,0,0,1,1.4-.74,1,1,0,0,1,1.07,1c.06.36-.13.81.47,1.08a.85.85,0,0,0,.32-.85c0-.64.8-1.31.31-1.86s-1.8-.37-2.7-.62a2.76,2.76,0,0,0-2.36,0Zm-88,183.39c-.8.07-1.38.1-2,.18a.8.8,0,0,0-.75.56c-.06.26.16.45.48.53a2.57,2.57,0,0,1,1.26.79,1,1,0,0,0,1.17.23,8.65,8.65,0,0,1,1.91-.65.73.73,0,0,0,.59-.8c0-.38-.31-.6-.8-.66C153.64,242.24,152.93,242.18,152.43,242.14Zm260.3-118.76a10.8,10.8,0,0,0-4.33-.21c-1.69.33-2.17,1.45-1,2.32.25.18.26.55.78.53s.51-.52.67-.81a2.27,2.27,0,0,1,2.46-1.23A1.35,1.35,0,0,0,412.74,123.38Zm8.68-65.74a2.1,2.1,0,0,0-.06.42c.08,1,.23,1.13,1.62.71a3.39,3.39,0,0,1,2.58.07,4.85,4.85,0,0,0,1.1.26c1,.19,1.39.06,1.56-.56s-.06-1-1.1-1C425.23,57.61,423.34,57.46,421.42,57.64Zm-247.62,65a4.79,4.79,0,0,0-1.35,3.53c.05,2,0,2.69.85,3.32C173.79,127.34,174.58,125.16,173.8,122.66Zm89,122.32c.64,0,1.25.3,1.91,0,.47-.19.68-.39.57-.76a.84.84,0,0,0-.95-.56,2.22,2.22,0,0,0-.93.15,5.31,5.31,0,0,1-3.19.33,8.92,8.92,0,0,0-1.36-.08c-.64.05-1.54.18-1.5.67s1,.46,1.6.44C260.2,245.17,261.47,245.06,262.76,245Zm3.68-83.76c-.45.3-.79.53-.88.85s.05.71.67.65c1.37-.14,2.7.14,4,.08s1.8-.43,1.68-1-1.16-1-2.14-.9a1.29,1.29,0,0,0-1.11.69c-.35.7-1,.44-1.53.23A2.71,2.71,0,0,1,266.43,161.23Zm235.26,20.85c-1.24-.15-2.23,0-3.18-.19-.51-.12-.88.07-1,.46a5.19,5.19,0,0,0,.13,2.05c0,.2.25.34.54.32.5,0,.94.35,1.47.13.08-.44-.58-1,.24-1.26S500.91,182.67,501.69,182.07ZM150.42,163.24a1.6,1.6,0,0,1-1.84,1.16c-.65,0-.93.2-1,.65a1.29,1.29,0,0,0,.92,1.52,1.41,1.41,0,0,0,1.4-.17c.56-.37,1-.79,1.62-1.23C150.71,164.69,150.15,164.13,150.42,163.24ZM539.49,274a1.52,1.52,0,0,0,1.63-.64c.14-.22.1-.54-.32-.51-1.22.09-2.39-.5-3.63-.09a2.65,2.65,0,0,1-1.69,0c-.57-.19-1.08-.11-1.14.38s.41.65,1,.66A25.23,25.23,0,0,1,539.49,274ZM453,174.19c-.4-.21-.69-.38-1-.52-1.63-.71-3.29.21-4.93,0-.17,0-.38.13-.35.27a.64.64,0,0,0,.28.35,1,1,0,0,0,.9.07,1.71,1.71,0,0,1,2.12.48,8.73,8.73,0,0,0,.89.71A5.92,5.92,0,0,0,453,174.19Zm5.75,62.51c.12-.8.74-1.08,1.62-1.23.27,0,.62-.37.37-.54-.59-.41-.58-1.27-1.6-1.27a3.52,3.52,0,0,0-2.4.81c-.35.33-.35.82.35.86C458.25,235.39,458.29,236,458.72,236.7Zm-155.78,5.85c1.69.11,3,1,4.44,0,.29-.2,1-.16.83-.6a1.2,1.2,0,0,0-1.11-.68A4.89,4.89,0,0,0,302.94,242.55Zm-88.7-129.39c-.4,1.27-.39,1.24,1.13,1.39a3,3,0,0,1,1.78.48.64.64,0,0,0,.84.08,5.54,5.54,0,0,1,1.87-1c.23-.09.23-.32.13-.5s-.31-.26-.44-.18c-1,.61-2.15.07-3.19.32A1.82,1.82,0,0,1,214.24,113.16Zm34.63,2.49c.76-1,.23-2,.84-2.83.13-.19-.16-.53-.47-.72s-.89-.24-1,0c-.34.56-1.81,1-1.28,1.42A18.8,18.8,0,0,1,248.86,115.64ZM538.65,216.37c-1.09,1.94-1.07,2.47,0,3.39.11-1.06.78-1.63,2.33-1.6.55,0,1-.37.8-.78s-.78-.47-1.14-.29C539.62,217.59,539.14,217.18,538.65,216.37Zm-49.71,18.34c.91,0,2-.8,2-1.46,0-.49-.68-.94-1.4-1s-1.89.78-1.93,1.34S488.1,234.7,488.94,234.71ZM85.08,63.62l.37-.23c-.29-.7-.57-1.39-.86-2.09-.43-1-.58-.9-2-1.68s-2.18-.26-3.33.15C82.19,60.3,85,60.92,85.08,63.62ZM492,30.77c1.41.9,3.35.56,4.46,1.56a7.88,7.88,0,0,0,.71-1.15c.3-.75-.08-1-1.17-.92C494.69,30.41,493.43,30.58,492,30.77ZM342.44,58.53a3.58,3.58,0,0,1-2.59.93c-.53-.06-.86.7-.44.78,1.19.21,1.8,1,2.85,1.37C342.94,59.4,342.94,59.4,342.44,58.53Zm94.07,124.31c.49-.38.85-.7,1.28-1,.7-.46.56-.89-.07-1.29a2.38,2.38,0,0,0-2.49,0c-.51.39-.62.76.07,1.16A8.31,8.31,0,0,1,436.51,182.84ZM249,191.51c-.74,2.2-.73,6.87,0,7.76.41-.19.25-.61.68-.8s.38-.42.1-.58c-.78-.43-.45-1-.52-1.53C249.06,194.82,249.71,193.25,249,191.51ZM273.58,28.19c.95-.27,1.09-1,2-.88.27,0,.37.65.69.14.15-.24.56-.67,0-.86A6.8,6.8,0,0,0,274,26a2.16,2.16,0,0,0-1.88.69A2,2,0,0,1,273.58,28.19ZM137.86,113.53c-.35.53-.52.86-.77,1.17s-.2.79.22,1.12c.66.52,1.44.21,2.12.07s.52-.61.39-.92.12-.93-.5-1.26c-.6.14-.2.64-.63.88l-.32-.4ZM524.77,230.75a1.35,1.35,0,0,0,1.34,1.18c.93,0,2-.64,1.92-1.11a4.82,4.82,0,0,0-2.41-1.14A1.11,1.11,0,0,0,524.77,230.75Zm-98.39-7.86c-.58-.52-.88-1.43-1.71-1.37-1.26.09-2.44-.21-3.65-.08-.37,0-.75.15-.74.6a8,8,0,0,1,3.54.74A3.48,3.48,0,0,0,426.38,222.89ZM165.82,241.35c-1,0-1.54.35-1.47.81a2.2,2.2,0,0,0,2,1.43,1.13,1.13,0,0,0,1-1.33C167.29,241.6,166.8,241.31,165.82,241.35Zm355.32-22.64c.24,1,1.52.72,2.29,1,.32-.67,1.54-.95,1.56-1.75s-.75-.59-1.42-.81C523.5,218.35,522.21,218.47,521.14,218.71ZM406.58,238.52c.65,0,1.31-.48,1.25-.89s-.59-.73-1.24-.63a2,2,0,0,1-1.45-.19c-.35-.22-.59,0-.79.16s-.71.61-.48,1,.75.34,1.21.31A8,8,0,0,1,406.58,238.52ZM254.91,161.86c0-.46-.76-.9-1.48-.91s-1.57.77-1.49,1.4.36.9,1.17.9S255,162.48,254.91,161.86ZM380.19,60.94c1.07.63,1.82-.05,2.66,0,.21,0,.39,0,.46-.18.18-.42-.2-.81-.18-1.22,0-.18.08-.36.11-.54s-.07-.46-.44-.54a1.2,1.2,0,0,0-.9.16c-.27.16-.41.38-.35.61C381.73,60,381.19,60.53,380.19,60.94ZM510,232.15c.17.37,0,.82.62,1a1.27,1.27,0,0,0,1.3-.4,4.16,4.16,0,0,1,.61-.53c.58-.42.56-.79-.15-1.12a1.73,1.73,0,0,0-2,.21A3.36,3.36,0,0,0,510,232.15ZM434,157.9c1.46.7,2.78.16,4.1.1.33,0,.72,0,.8-.29s-.18-.53-.53-.68a2.44,2.44,0,0,0-1.51-.09A11,11,0,0,0,434,157.9ZM271.46,244.5a1.19,1.19,0,0,0,.92,0c.25-.14.56-.27.48-.55a.66.66,0,0,0-.73-.34c-1.11.57-1.92,0-2.8-.3a1,1,0,0,0-1,.18c-.25.24-.3.59,0,.77a2.2,2.2,0,0,0,1.9.42A2,2,0,0,1,271.46,244.5ZM117.64,44.21a9.12,9.12,0,0,0,.06-2.79c-.2-.85.08-1.73-.28-2.59s.68-1.68-.73-2.28C117.14,39,116.94,41.54,117.64,44.21Zm332.59,189.7c-.9,0-1.61.39-1.56.81a3.57,3.57,0,0,0,2.11,1.28,1.16,1.16,0,0,0,.9-1.27C451.64,234.13,451.19,233.89,450.23,233.91Zm23.45-1c-.94,0-1.4.28-1.32.74s.83,1,1.84,1c.77,0,1.29-.19,1.31-.77S474.69,232.93,473.68,233Zm35.46-12.12c.29-.56.26-1.1.54-1.62a2.63,2.63,0,0,0,.08-1.23c0-.23,0-.49-.44-.53a.93.93,0,0,0-.8.34,1.33,1.33,0,0,0-.15,1.84C508.7,220,508.76,220.45,509.14,220.84ZM279,135.18c.11,0,.31-.11.31-.13-.33-.84.06-1.67.05-2.51,0-.31.09-1-.82-.89-.7.06-.62.63-.86,1a.22.22,0,0,0,0,.26c.67.57.53,1.3.75,2A.5.5,0,0,0,279,135.18ZM153.41,248.53a12.18,12.18,0,0,0-2.26.24c-.53.21-.6.5-.05.73a4.07,4.07,0,0,0,3.26,0c.35-.14.75-.26.73-.57,0-.47-.63-.37-1-.43A3.56,3.56,0,0,0,153.41,248.53Zm227.44-9.78a2.65,2.65,0,0,0,1.44.64,2.86,2.86,0,0,0,2.31-.4.6.6,0,0,0,.31-.48c0-.19-.27-.3-.55-.31C383.15,238.18,381.89,238,380.85,238.75Zm54.34-2c.5,0,1.68-.8,1.7-1.21,0-.59-.73-.58-1.23-.63-.86-.09-1.83.49-1.76,1S434.63,236.55,435.19,236.71ZM118.1,166.33c.09.69.15,1.23.25,1.77a.5.5,0,0,0,.36.28.79.79,0,0,0,.5-.16,2,2,0,0,0,.27-2.35.81.81,0,0,0-.79-.29.57.57,0,0,0-.51.36A3,3,0,0,0,118.1,166.33Zm289.06,16.18c1.35-.07,2.59.79,4.07.27C409.31,181.3,408.93,181.27,407.15,182.51Zm74.44,52.23,1.51-.79c.55-.29.3-.66.17-1s-.62-.44-1.09-.44c-.64,0-.93.29-1,.69A1.53,1.53,0,0,0,481.59,234.74Zm-178.42,2.6a13.58,13.58,0,0,0,4.77-.13C306.29,235.65,304.74,236.78,303.17,237.34Zm118.65-78.93a4.5,4.5,0,0,0,.59-.05c.58-.13,1.48-.11,1.34-.73s-.91-.59-1.58-.6a2.38,2.38,0,0,0-.75.12c-.51.16-.91.45-.84.84S421.35,158.35,421.82,158.41Zm54.83,16.9c.7-.45.53-1,.76-1.47s-.12-.6-.46-.84a1.07,1.07,0,0,0-1.21-.05c-.39.2-.45.4-.23.7C475.88,174.16,475.87,174.81,476.65,175.3Zm-70.19-16.58a1,1,0,0,0-1.34-.63c-1.31.3-2.77.26-3.93.93a1.55,1.55,0,0,0,1.11.33C403.56,158.76,405.12,159.26,406.47,158.72ZM110,136.89c-.69.46-1.59.9-.6,1.63.1.07.07.28,0,.4-.48.91.26,1.65.64,2.45.41-.71-.06-1.43.08-2.14S109.88,137.69,110,136.89Zm385.27,95.74c0,.57.06,1.27,1,1.29s.89-.69,1-1.16-.25-.94-1.05-.95S495.13,232.11,495.25,232.63Zm-42.44-76.27a3,3,0,0,0-1.47.31c-.4.21-.62.48-.41.83a1,1,0,0,0,1,.3,15.14,15.14,0,0,0,1.87-.36c.58-.16.62-.59.12-.86A2.73,2.73,0,0,0,452.81,156.36ZM254.64,82.11c.81-1.28.83-2.34.15-4.19C254,79.62,253.92,80.85,254.64,82.11ZM164,248.23c0,.45.68.93,1.4,1s1.57-.36,1.51-.81c-.09-.68-1-.62-1.62-.74A1.07,1.07,0,0,0,164,248.23ZM198.2,62.44c-.44,1.78,1,3,1.25,4.38C199.25,65.42,199.49,64,198.2,62.44Zm78.94-3.58c-.12.24-.12.46.28.55a.41.41,0,0,0,.18,0c.41-.12.38-.36.23-.57a.88.88,0,0,1-.23-.79c.14-.44-.05-1.11,1.21-.78.39.1.83-.52.55-.76a2.08,2.08,0,0,0-1.45-.28.58.58,0,0,0-.65.58C277.21,57.49,277.18,58.18,277.14,58.86Zm177.68,162a3.69,3.69,0,0,0,.56,1.76c.68-.14.39-.79.73-.76,1.77.15.89-.68,1-1.21A5.44,5.44,0,0,1,454.82,220.83Zm-296.21-106c0-.32-.12-.52-.44-.47s-1.08-.08-1.25.2a3.38,3.38,0,0,0-.45,1.52c0,.19.57.36.78.19C157.83,115.81,158,115.17,158.61,114.83ZM328.2,28.24c1.17-1,1.15-1.62.06-1.89a1.32,1.32,0,0,0-1.22.22c-.32.27-.12.5.13.73ZM141.31,167c.88-.14,1.34-.31,1.46-.7a2.81,2.81,0,0,0,.13-1.08c0-.31-.43-.43-.85-.45s-.71.2-.73.49C141.29,165.8,141.31,166.35,141.31,167Zm363.85,17.63c.29-.87.74-1.71.25-2.58a.63.63,0,0,0-.68-.39c-.41,0-.6.28-.48.49C504.7,183,504.53,183.86,505.16,184.63ZM397,194.87c.56-1.21.31-2.5.71-3.72.08-.25-.21-.61-.75-.85C397.2,191.86,396.32,193.35,397,194.87ZM124.8,243.63c-.39,0-.64.08-.9.09-.54,0-.9.19-.75.6a.62.62,0,0,0,1,.34,2.33,2.33,0,0,1,1.3-.1c.37,0,.61-.12.64-.39s-.21-.32-.46-.38S125,243.67,124.8,243.63Zm53.38-121.28c.66-.14.57-.52.55-.88,0-.53-.55-.68-1.18-.66s-1,.14-1.08.6C176.45,121.71,177.69,122.38,178.18,122.35Zm247.43-13.71c4,.8,4.42.78,5-.32Zm75.11,111.83c.19-.68,1.08-.74,1.7-1.22-.78-.17-.88-1-1.85-.63C499.94,218.86,500,219.51,500.72,220.47ZM398.48,123.69c1.39.31,2.64-.26,3.64.43.2.14.71-.19.52-.52a1.09,1.09,0,0,0-1.24-.48A10.56,10.56,0,0,0,398.48,123.69Zm67.85,112.44c.27-.73,1.23-1.31.83-2.15-.1-.21-.19-.46-.56-.49s-.52.21-.66.42C465.4,234.69,466.17,235.37,466.32,236.12Zm9.31-79.62a.69.69,0,0,0-.82-.62,1.44,1.44,0,0,0-1.41.79c-.13.35.54.71,1.2.67A.94.94,0,0,0,475.63,156.5Zm-7.88.83c.5-.24,1.33.15,1.71-.36.22-.29-.8-.76-1.62-.75-.63,0-1,.22-.95.68S467.25,157.36,467.75,157.33ZM330.29,161c.49-.1,1.14.07,1.28-.45s-.62-.8-1.34-.72c-.55.06-1.38.1-1.4.57C328.81,161.05,329.73,160.9,330.29,161Zm170.33,68.82c-.89,0-1.77,0-2.65,0-.32,0-.63.26-.34.48.48.38,1.21.23,1.83.28S500.61,230.49,500.62,229.83Zm-344.47,19c0,.39.4.62.75.88a.87.87,0,0,0,1,.1c.32-.17.61-.35.53-.66s-.35-.47-.79-.49A2.7,2.7,0,0,0,156.15,248.8Zm135.55-7.14a1,1,0,0,0-1-.88,1.09,1.09,0,0,0-.89.14c-.44.41.17.64.39.93l.1.11c.21.21.3.59.78.49S291.67,242,291.7,241.66Zm192.25-21.51c.57.86,1.73.16,2.4.61l1.2-1A18.64,18.64,0,0,0,483.95,220.15Zm57.47-42.79c-.86.88-1,1.42-.44,1.76a.5.5,0,0,0,.52,0c.74-.56.56-1.16.08-1.75C541.56,177.38,541.47,177.37,541.42,177.36ZM540,154.52a1.81,1.81,0,0,0,2.43.65c.46-.2.36-.45,0-.65A3.35,3.35,0,0,0,540,154.52Zm-237.82,71.8c1.28.39,2.44.89,3.59-.06A4.7,4.7,0,0,0,302.19,226.32Zm99.28,7.22a.74.74,0,0,0-.9-.57c-.58.08-1.15.28-1.13.78,0,.31.42.47.82.45C400.83,234.16,401.41,234.06,401.47,233.54ZM225.28,122.76c1-.28,1.88-.54,2.12-1.3a.26.26,0,0,0-.18-.35.56.56,0,0,0-.35,0C226.35,121.63,225,121.72,225.28,122.76Zm19.45-60.23c.33,1.14.17,2.38,1.26,3.68A7.14,7.14,0,0,0,244.74,62.53Zm5.12,67.35c-1.18.68-.34,1.52-.89,2.13-.1.11.24.3.52.31s.32-.1.34-.26A6.79,6.79,0,0,0,249.86,129.88Zm-25.63-3.72c1-1,0-1.88,0-2.75C224.34,124.28,223.19,125.1,224.22,126.16ZM376,223.56a15.07,15.07,0,0,0-3.17,0C375.19,224.32,375.19,224.32,376,223.56Zm71.44-2.36-.65,1.1c2.21.09,2.31,0,2.14-1.35C448.39,222,448.39,222,447.48,221.2Zm78.17,52.24c.05.29,0,.72.7.78a.55.55,0,0,0,.66-.55c0-.41-.22-.74-.86-.77C525.78,272.87,525.64,273.11,525.65,273.44Zm-37.11-42.71.1.38c1-.21,2.28.55,3.16-.73ZM186.07,122.55a2,2,0,0,0,.15-1.19.58.58,0,0,0-.48-.55.82.82,0,0,0-.71.12c-.25.21-.26.46,0,.62C185.47,121.81,185.34,122.35,186.07,122.55ZM406,233.63a7,7,0,0,0,2.8-.09C407.16,232.46,407,232.47,406,233.63Zm-245.53,9.18c0-.4-.23-.74-.91-.71-.5,0-.87.24-.83.64s.52.63,1.07.64S160.45,243.13,160.46,242.81ZM190,231.87c.16-.79-.13-1.57.3-2.31.12-.21,0-.37-.25-.41a.66.66,0,0,0-.61.27.48.48,0,0,0,.07.64A2.84,2.84,0,0,1,190,231.87ZM326,160.77a1,1,0,0,0-1.11-.37,1.77,1.77,0,0,1-1.46-.12c-.27-.16-.57-.31-.8,0s.15.49.48.62A4.78,4.78,0,0,0,326,160.77Zm120.6,71.34c-1.34-.45-2.63,0-3.93.23A11.22,11.22,0,0,0,446.63,232.11Zm-21.27-57c.5-.14.94-.34.92-.76s-.41-.43-.83-.43c-.57,0-1.11.21-1.17.58S425,174.88,425.36,175.07ZM242.43,245.22c.43.68,1.15.66,1.84.58.37,0,.75-.21.67-.54s-.46-.31-.76-.27A4.84,4.84,0,0,0,242.43,245.22Zm95.35-115c.54-.09.68-.39.65-.72a.61.61,0,0,0-.79-.6c-.52.08-.57.46-.55.78S337.3,130.22,337.78,130.25ZM306,59.75a1.06,1.06,0,0,0,1,.76c.6.05.76-.42.9-.74s-.19-.4-.57-.41A1.54,1.54,0,0,0,306,59.75Zm139.85,97.72c0-.31-.27-.49-.63-.6a1.51,1.51,0,0,0-1.35.31c-.14.09-.23.23-.11.36.36.38.78.12,1.19,0S445.62,157.66,445.89,157.48Zm83.76,62.32c.6-.46.28-.92.2-1.34s-.45-.31-.72-.14-1.07.11-.21.47C529.4,219,529,219.52,529.64,219.8ZM471,173.6c.52,0,.95-.06,1-.46s-.35-.31-.65-.32c-.54,0-1.15,0-1.24.45S470.61,173.58,471,173.6ZM249.49,128.06c-.38-.11.32-.69-.45-.68-.58,0-.56.45-.56.76s0,.63.51.63S249.54,128.44,249.49,128.06Zm47.07,187.51c.54-.17,1.22-.26,1.53-.71.08-.12-.08-.35-.2-.5a5.53,5.53,0,0,0-1.85.69c-.1.2,0,.35.28.46A1.5,1.5,0,0,0,296.56,315.57Zm-36.9-175.39c.73-1.15.73-1.15,0-1.83C259,138.91,259.23,139.47,259.66,140.18Zm216.49-32.9a2.28,2.28,0,0,0-1.83-.33c-.36,0-.61.2-.55.47s.37.36.73.27C475,107.57,475.56,107.43,476.14,107.28ZM243.88,304.2c.1-1.27.1-1.27-1.31-1.22a.76.76,0,0,0,.14.24C243,303.5,243.36,303.77,243.88,304.2ZM194.54,42.57c.69-.82.69-.82,0-2.38Zm320.92,176.7a.81.81,0,0,0,.77-.82.39.39,0,0,0-.49-.33,1.06,1.06,0,0,0-.82.84C514.87,219.18,515.19,219.24,515.45,219.27Zm-399-34.6c.22-1.63.22-1.63-1.55-1.42A3.19,3.19,0,0,1,116.45,184.67ZM415.21,57.76a3.57,3.57,0,0,0-.59.89c-.09.37.15.76.73.76s.44-.38.45-.64A1.11,1.11,0,0,0,415.21,57.76Zm-117.58,268a2.18,2.18,0,0,0,1.11-.5c.23-.29.25-.63-.27-.8a.61.61,0,0,0-.82.36C297.53,325.06,297.29,325.3,297.63,325.75ZM338.8,27.58a1.57,1.57,0,0,0,2,.12c.1-.06.12-.32,0-.37a1.82,1.82,0,0,0-1.88.12S338.85,27.52,338.8,27.58ZM224.92,163.43c0,.34.22.58.54.52a1,1,0,0,0,1-.76c0-.26-.23-.44-.58-.42C225.23,162.81,225,163.11,224.92,163.43ZM235,228.29a1.84,1.84,0,0,0,.48.1c.67-.11,1.42.21,2-.21,0,0,0-.2-.1-.23a3.88,3.88,0,0,0-2,.06C235.27,228,235.2,228.13,235,228.29Zm49.64-67.58c-.38,1.35-.38,1.35,1,1.12A3.88,3.88,0,0,1,284.64,160.71ZM157.78,58.25c.11-.64.21-1.12.26-1.6,0-.2-.18-.33-.49-.31s-.26.17-.29.3C157.14,57.15,157.51,57.6,157.78,58.25ZM417.42,221.69c.2.43.68.58,1.31.56.2,0,.37-.08.39-.24s-.74-.76-1.21-.72A.52.52,0,0,0,417.42,221.69Zm33.73,10.41a2.59,2.59,0,0,0,2.21-.29C452.28,231.44,452.28,231.44,451.15,232.1ZM249,190.07c.09-.79.54-1.64,0-2.5Zm13.09-77.49c0,.47.44.6,1,.62.2,0,.48-.16.44-.18a3.38,3.38,0,0,1-.93-.88C262.45,112,262.18,112.38,262.06,112.58Zm79.39,112.18c1.64.29,1.64.29,2.4-.18ZM239.71,164a.58.58,0,0,0,.59-.47c.08-.38-.23-.6-.72-.66s-.59.15-.54.41A.82.82,0,0,0,239.71,164ZM344.58,27.79a6.33,6.33,0,0,0,2.21.27.52.52,0,0,0,.33-.3c0-.14-.14-.26-.34-.26A5.06,5.06,0,0,0,344.58,27.79Zm7.6,1c.55-.44.8-.82.15-1.22a.59.59,0,0,0-.68,0C351.12,28.07,351.58,28.39,352.18,28.76Zm32,250.55a14.84,14.84,0,0,1,.35,2.5C384.45,281,384.76,280.11,384.14,279.31Zm6-40.85a2.31,2.31,0,0,0,2.21-.09C391.59,238.11,391.59,238.11,390.12,238.46Zm40.29-80.64c-1.36-.59-1.36-.59-1.9.15A4,4,0,0,0,430.41,157.82Zm-303-82.35c-.53.63-.77,1.24.06,1.94A2.12,2.12,0,0,0,127.4,75.47Zm-3.48,64.47-.42.06.28,2.21C123.84,141.46,124.52,140.69,123.92,139.94ZM201,280.8c.12-.5.41-1-.27-1.63A1.28,1.28,0,0,0,201,280.8ZM493.2,220a.8.8,0,0,0,.71-.73c0-.18-.22-.37-.5-.34-.53.06-.75.36-.73.71C492.7,219.87,492.87,220,493.2,220Zm-334.55-93.6c.35-.11.34-.35.39-.56s.14-.46-.24-.57a.92.92,0,0,0-.54.06c-.31.15-.26.39-.14.59S158.24,126.41,158.64,126.44Zm167.2,110.33a2.54,2.54,0,0,0-2.31,0A3.12,3.12,0,0,0,325.85,236.77Zm-204.7-70.19c.94-.52.56-1,.1-1.57C120.6,165.59,120.81,166,121.15,166.58ZM120.9,245c.36-.62.52-1-.21-1.49C120.07,244.09,120.36,244.48,120.9,245ZM276,59.16a.48.48,0,0,0-.5-.51c-.4,0-.57.18-.55.44a.51.51,0,0,0,.49.54C275.87,59.66,276,59.39,276,59.16Zm64.4,176.94c-1.67-.45-1.67-.45-2.53.17A7.39,7.39,0,0,0,340.44,236.1Zm190.25-17.61c-.08.38-.16.52-.12.63.14.4.54.58,1.11.57a.37.37,0,0,0,.25-.18c.26-.52-.74-.19-.76-.55C531.16,218.86,531,218.76,530.69,218.49ZM131.3,149.73c-.51.59-.59,1,0,1.52C131.88,150.76,132,150.33,131.3,149.73Zm77.62,13.86a2.4,2.4,0,0,0,.23,1.78C209.45,164.61,209.6,164.18,208.91,163.6Zm41.21,33.2h.12v-2.17h-.12ZM432,58.89c.45-.16.6-.44.54-.77s-.31-.25-.59-.23c-.48,0-.67.24-.57.55A.56.56,0,0,0,432,58.89Zm17.59,122.55a2.15,2.15,0,0,0,1.82.06c.06,0,.06-.22,0-.24a2,2,0,0,0-1.74,0S449.66,181.3,449.61,181.44ZM200.22,71c0,.57-.22,1.13.14,1.66Zm43.65,230.84-.36-1.41C243.51,300.94,243.22,301.44,243.86,301.85ZM155,58.68c0-.69.47-1.38,0-2.29A3.25,3.25,0,0,0,155,58.68Zm40.25-12.15c-.43.24-.41.47-.34.69s-.05.48.46.48C195.7,47.33,195.75,47,195.22,46.54ZM483.25,231c.88.5,1.28,0,1.85-.26A2.86,2.86,0,0,0,483.25,231Zm-204.5,7.49c1,.2,1.66.35,2.33-.14A2.3,2.3,0,0,0,278.75,238.51ZM116.51,165.33c.22-.41.54-.83-.1-1.18a.79.79,0,0,0-.5,0C115.59,164.62,116.06,165,116.51,165.33ZM295.4,191.27c.49-.4,1-.84,0-1.35ZM488.59,30.89c-.14-.43-.49-.6-1.11-.45-.09,0-.21.16-.18.22.17.44.77.17,1.13.33C488.44,31,488.51,30.93,488.59,30.89ZM249.08,182.78c0,.33-.4.72.3.9a.25.25,0,0,0,.17,0C249.94,183.23,249.24,183.07,249.08,182.78Zm-143-31a4,4,0,0,0,0,2A3.29,3.29,0,0,0,106.09,151.78Zm385.69-44.53c-1.32-.41-1.32-.41-1.94.08A3.63,3.63,0,0,0,491.79,107.24ZM470.06,221.89c.81.18,1.35.13,1.73-.25.05-.05-.09-.3-.2-.32C470.93,221.18,470.56,221.49,470.06,221.89ZM120.41,115.44a.72.72,0,0,0,.64.23c.28,0,.49-.09.48-.3a.34.34,0,0,0-.45-.31C120.82,115.13,120.46,115.18,120.41,115.44Zm7.73,74.66c0,.35-.83.67,0,1.12A.74.74,0,0,0,128.14,190.11Zm-.55-35.6c-.09-.22-.2-.21-.21-.08,0,.4,0,.79,0,1.19a1.33,1.33,0,0,0,.08.23ZM358,235.39c.85.15,1.35.39,1.86,0,0,0,0-.2,0-.23A2.07,2.07,0,0,0,358,235.39Zm3.17-50.11c.12-1,.1-1-.35-1.49A2.58,2.58,0,0,0,361.22,185.27ZM192.05,70a.32.32,0,0,0-.29.41c0,.16,0,.4.35.39s.28-.24.29-.4S192.38,70.06,192.05,70ZM156.67,164.7c-.38.32-.42.56-.38.78s0,.46.5.57C157.31,165.63,157.3,165.23,156.67,164.7Zm387.18,54.14a.69.69,0,0,0,.47-.62c0-.18,0-.41-.24-.46-.45-.07-.48.21-.51.42S543.41,218.64,543.84,218.84ZM274.67,139.65l.27,1.18C275,140.43,275.23,140,274.67,139.65Zm63.91,21.07c1,.25,1.43.06,1.07-.78C339.44,160.37,338.82,160.41,338.57,160.72ZM288,305.89a2.08,2.08,0,0,0-1.35.09.29.29,0,0,0,.11.22A1,1,0,0,0,288,305.89Zm238.9-150.74a1.12,1.12,0,0,0,1.36.28c.09,0,.2-.19.16-.23a1.36,1.36,0,0,0-1.34-.23S527,155,526.87,155.15ZM254,89.67a.91.91,0,0,0,.28-1c0-.16-.19-.2-.41-.11A.77.77,0,0,0,254,89.67ZM165,130.16c.26-.09.46-.23.4-.42s-.34-.29-.6-.29-.39.21-.3.4S164.64,130.21,165,130.16ZM141.1,186.48c-.14.43-.35.89.09,1.39C141.68,187.34,141.33,186.92,141.1,186.48Zm318.77-30a.63.63,0,0,0-.63.56c0,.19.24.31.51.31a.59.59,0,0,0,.67-.54C460.43,156.65,460.18,156.51,459.86,156.49ZM430.1,236.22c-.05-.25-.29-.31-.55-.31s-.57.14-.45.41.13.37.46.33A.57.57,0,0,0,430.1,236.22ZM377.38,40a1.44,1.44,0,0,0-.1-1.75A2.14,2.14,0,0,0,377.38,40Zm12.75,137.57H390l-.12,1.14H390ZM194.77,43.62c0,.38,0,.51,0,.64a.38.38,0,0,0,.5.42c.63-.13.23-.39,0-.6S195.09,43.89,194.77,43.62Zm154.31,140.7a1,1,0,0,0,0,1.19C349.65,185,349.29,184.69,349.09,184.32Zm147.95-29c-.27,0-.5.15-.44.34a.64.64,0,0,0,.65.4c.39,0,.55-.17.49-.43S497.37,155.35,497,155.35ZM122.92,308.4c.4-.09.32-.33.28-.53s.13-.44-.3-.31a.5.5,0,0,0-.32.58C122.59,308.28,122.69,308.38,122.92,308.4Zm112.7-144.7c0,.15.09.32.32.27s.39-.32.46-.53-.06-.29-.26-.29C235.58,163.15,235.68,163.47,235.62,163.7Zm-84,67.94c.29,0,.48-.15.46-.35a.47.47,0,0,0-.45-.38c-.41,0-.56.17-.53.41S151.36,231.64,151.66,231.64Zm132.79,59.68c.27-.08.37-.22.29-.41a.44.44,0,0,0-.51-.29c-.29,0-.3.25-.29.42S284.16,291.33,284.45,291.32Zm89.61-2.9.1,1.24C374.32,289.23,374.57,288.8,374.06,288.42Zm-190.29-194h-.12l-.08,1.16h.2Zm-50.34,22.14c.29,0,.42-.09.4-.22a.45.45,0,0,0-.23-.33.27.27,0,0,0-.39.16C133.16,116.35,133.19,116.52,133.43,116.56Zm416.94,59.22c.06.08.12.24.26.29a.28.28,0,0,0,.4-.18c0-.18,0-.37-.31-.41S550.41,175.59,550.37,175.78ZM259.43,150.32c.26,0,.37-.08.42-.22s.12-.48-.2-.61a.32.32,0,0,0-.49.25C259.13,150,259.09,150.19,259.43,150.32Zm138.8-40.64a.72.72,0,0,0-.8-.3c-.37,0-.62.22-.48.46s.55.16.84.13S398.3,109.88,398.23,109.69ZM541.56,231.06a2.71,2.71,0,0,0,.1-.37c0-.21.19-.44-.08-.62a.46.46,0,0,0-.32,0c-.36.22-.2.47,0,.7A2.79,2.79,0,0,0,541.56,231.06Zm-208.25-171c0-.2,0-.39-.29-.44s-.37.18-.37.34,0,.4.27.44S333.24,60.19,333.31,60.05ZM123,189.07c.2-.39.27-.65,0-.93C123,188.43,122.47,188.65,123,189.07Zm97.93-25.36c0-.17,0-.39-.31-.41s-.42.17-.41.37,0,.51.44.48C220.88,164.14,220.86,163.89,220.89,163.72Zm133.75,19.75c.11,0,.28,0,.31-.09a.34.34,0,0,0-.11-.49c-.12-.08-.25,0-.27.08S354.44,183.31,354.64,183.47ZM153.7,58c0,.36-.52.74.2,1.12C154.1,58.65,154.21,58.29,153.7,58Zm106.07,75.31-.16,0v1.13h.16Zm24.68,174.39c.28-.06.42-.19.37-.4a.37.37,0,0,0-.38-.26c-.29,0-.46.14-.47.34S284.15,307.65,284.45,307.65ZM406.39,236.4h.29c0-.17.09-.35.13-.52s.09-.43-.22-.45-.5.23-.43.47A3,3,0,0,0,406.39,236.4Zm-26.12-12c-.18-.09-.22-.13-.27-.13-.34,0-.61-.4-1-.09-.07.06-.11.2-.06.24.3.29.69.11,1,.08A1.86,1.86,0,0,0,380.28,224.41Zm-95,84.29c0,.21.22.34.48.35s.48-.11.47-.32-.18-.24-.38-.26S285.32,308.46,285.26,308.7ZM160.13,124.57c-.1-.08.13-.28-.16-.25-.09,0-.16.22-.19.34s0,.28.25.25C160.08,124.91,160.09,124.69,160.13,124.57ZM130.8,156a.36.36,0,0,0,.32.44c.37.07.39-.16.43-.32a.34.34,0,0,0-.32-.42C130.87,155.67,130.85,155.89,130.8,156Zm142.44,6.12c0,.21.26.3.52.32s.39-.16.37-.35-.17-.33-.47-.33A.37.37,0,0,0,273.24,162.15Zm27.82,143.93a.9.9,0,0,0-.78-.32.21.21,0,0,0-.16.34.76.76,0,0,0,.64.26C301,306.36,301.07,306.25,301.05,306.09Zm64.48-70.89a.72.72,0,0,0,.66.13c.23,0,.6,0,.59-.23s-.42-.28-.71-.24S365.58,235,365.53,235.2Zm112.28-49.12c-.17.28-.3.52-.08.75ZM400.53,30c-.11,0-.31,0-.32.09-.07.24.18.3.44.32s.31,0,.32-.06C401,30.13,400.79,30.05,400.53,30ZM116.35,34.68c-.05.38-.29.65.3.86C116.69,35.24,116.82,35,116.35,34.68ZM394,315.67a.46.46,0,0,0,.5.11c.19,0,.41-.14.36-.28s-.33-.11-.51-.11S393.95,315.5,394,315.67Zm-9.72-139.56c.2,0,.33-.12.35-.26s-.15-.23-.35-.24-.5,0-.39.29A.39.39,0,0,0,384.24,176.11ZM137.48,122.69c.05-.07.15-.14.14-.19s-.14-.1-.22-.15-.16.14-.14.19S137.4,122.64,137.48,122.69ZM286.72,325.56a.46.46,0,0,0,.58.25c.09,0,.2-.13.19-.2s-.18-.34-.48-.34S286.7,325.4,286.72,325.56ZM524.53,228a.45.45,0,0,0-.29.49c0,.2.34.32.59.29s.25-.27.15-.42S524.88,228,524.53,228Zm-394.28,3.72c0,.17.14.23.33.24s.46-.08.46-.29a.25.25,0,0,0-.29-.26A.48.48,0,0,0,130.25,231.71Zm165.48,67.71c.07.22.35.21.58.25s.58.06.64-.13-.3-.31-.59-.32A.77.77,0,0,0,295.72,299.41ZM114.46,244.55c-.08-.06-.16-.17-.24-.18-.33,0-.45.16-.45.36s.06.3.3.25A.5.5,0,0,0,114.46,244.55ZM346,235.76a1.29,1.29,0,0,0,1.36,0A1.58,1.58,0,0,0,346,235.76ZM249.18,133.31c-.06-.09-.09-.23-.22-.3s-.2.06-.15.18.12.24.18.36Zm-.07,2.54c.21,0,.33-.11.27-.26a.37.37,0,0,0-.27-.13.37.37,0,0,0-.27.13C248.77,135.74,248.89,135.83,249.1,135.85ZM196.35,247.46a2.07,2.07,0,0,0,.45.16c.09,0,.3-.09.3-.13,0-.3-.35-.13-.54-.17S196.32,247.34,196.35,247.46Zm-6.39,0c0,.2.13.27.34.27s.39,0,.42-.2-.15-.24-.35-.26A.38.38,0,0,0,190,247.48ZM337.73,131.32c.09-.05.23-.1.24-.16s-.09-.14-.14-.21-.23.1-.25.16S337.68,131.24,337.73,131.32ZM300,324.82c.2,0,.35-.12.33-.26s-.23-.31-.51-.3-.35.11-.32.26S299.7,324.83,300,324.82Zm141.3-150.24c.21-.14.3-.3.16-.48a.45.45,0,0,0-.31-.09c-.25.12-.22.3-.14.48S441.15,174.63,441.29,174.58ZM253.39,95.07c-.24.59-.48,1-.07,1.36C253.79,96.06,253.57,95.69,253.39,95.07ZM366.47,198.19c.13-.13.35-.25.2-.44a.38.38,0,0,0-.46-.1c-.18.08-.2.21-.12.34A.32.32,0,0,0,366.47,198.19ZM259.75,136.6c.24,0,.39-.07.41-.22a.27.27,0,0,0-.15-.23.3.3,0,0,0-.44.1C259.49,136.39,259.57,136.52,259.75,136.6Zm-2.32,1.51c.09-.05.23-.1.26-.16s0-.28-.23-.31a.32.32,0,0,0-.24.14A.25.25,0,0,0,257.43,138.11ZM257.7,162c-.29.26-.14.52,0,.77,0,.09.26.07.29,0A.53.53,0,0,0,257.7,162Zm175.78,61.83c.06-.09.19-.2.2-.32s-.15-.27-.34-.17-.1.23-.12.36S433.3,223.86,433.48,223.83Zm-60.07,60.79c.12,0,.17,0,.16-.15a1.35,1.35,0,0,0-.08-.4s-.13,0-.12.15S373.4,284.5,373.41,284.63ZM285.25,123.12a.53.53,0,0,0,.51-.12c.09-.08,0-.18-.1-.22s-.4,0-.49.11S285.23,123,285.25,123.12Zm55.4,8.83c.18.05.33,0,.32-.08a.46.46,0,0,0-.2-.32c-.13-.08-.36-.07-.34.1S340.58,131.86,340.65,131.94ZM119,79c0,.12,0,.28.25.26a.47.47,0,0,0,.43-.38c0-.17-.09-.25-.29-.25S119,78.83,119,79Zm140.53,33.94.3-.11a3.74,3.74,0,0,0-.37-.3c-.12-.07-.21,0-.22.11S259.26,112.91,259.49,112.95ZM248,163c-.12-.21-.22-.41-.52-.39s-.29.23-.25.4a.4.4,0,0,0,.52.27C247.9,163.29,248,163.12,248,163Zm.7-26c0,.1,0,.17.17.18a.16.16,0,0,0,.12-.07c0-.1,0-.17-.17-.17S248.77,137.05,248.73,137.08Zm.35,49.26a.62.62,0,0,0,.14,0,.57.57,0,0,0-.06-.26c-.08-.12-.16-.1-.15,0A.94.94,0,0,0,249.09,186.34Zm299.82-.55a2.61,2.61,0,0,0-.33-.27c-.13-.08-.3,0-.27.06a.7.7,0,0,0,.29.32C548.71,186,548.84,185.93,548.91,185.79Zm-2.15,44.61a1.49,1.49,0,0,0,.3-.06c0-.12,0-.26-.1-.34a.26.26,0,0,0-.39.09C546.51,230.21,546.58,230.33,546.76,230.4ZM296.84,177.66c.19-.08.42-.19.24-.39s-.3-.11-.45-.16a1.09,1.09,0,0,0-.19.36C296.43,177.6,296.55,177.71,296.84,177.66Zm36.89,58.72a1.7,1.7,0,0,0,1.19-.15C334.49,236.21,334.16,236.06,333.73,236.37ZM113.65,155.22a.21.21,0,0,0,.15-.32c0-.06-.12-.11-.19-.17a1.21,1.21,0,0,0-.16.33S113.58,155.17,113.65,155.22Zm145.61-.79c.39-.37.3-.65-.12-1.14C259.08,153.79,258.78,154.06,259.26,154.43Zm-7.77-79.34a1.29,1.29,0,0,0,0-.37c0-.14-.15-.15-.22,0a.47.47,0,0,0,0,.26C251.26,75.08,251.34,75.13,251.49,75.09ZM253,101.28c.05-.24.32-.51-.09-.75A.48.48,0,0,0,253,101.28Zm-144,30c-.14,0-.24,0-.25.12a.34.34,0,0,0,0,.25.19.19,0,0,0,.29,0C109.25,131.54,109.21,131.42,109.07,131.31Zm363,44.45c.06-.06.19-.12.18-.17a.29.29,0,0,0-.21-.17c-.23,0-.31.09-.24.22S472,175.72,472.09,175.76Zm-363.28,69c.21,0,.51.09.53-.18,0,0-.16-.13-.25-.13s-.5,0-.59.21A2.48,2.48,0,0,0,108.81,244.73ZM153.42,56.65c.09,0,.22-.06.27-.12s.1-.21.06-.23a.25.25,0,0,0-.39.12C153.33,56.49,153.4,56.57,153.42,56.65ZM521.49,172.14c0,.08.06.19.15.23a.37.37,0,0,0,.48-.08c0-.05,0-.19-.13-.23A.41.41,0,0,0,521.49,172.14Zm-138.57-61.4c.24,0,.37-.08.41-.21s0-.16-.07-.23a3.71,3.71,0,0,0-.4.26C382.77,110.63,382.82,110.71,382.92,110.74Zm1.69,123.9a.87.87,0,0,0-.3-.09c-.19,0-.44-.09-.56.11A1.35,1.35,0,0,0,384.61,234.64Zm-13.88-9.49c.25,0,.5,0,.59-.22a.67.67,0,0,0-.3-.1c-.23,0-.52,0-.57.2C370.44,225.06,370.63,225.11,370.73,225.15ZM172.35,122.79a1.62,1.62,0,0,0,.07-.37c0-.14-.13-.16-.23-.05a.45.45,0,0,0-.06.26C172.12,122.75,172.19,122.8,172.35,122.79ZM467.26,231c-.09,0-.23.07-.25.13s0,.25.27.24.28-.06.29-.11S467.46,231,467.26,231Zm-96.4,44.8c.15,0,.24,0,.23-.15a.14.14,0,0,0-.09-.11.26.26,0,0,0-.17,0C370.73,275.65,370.74,275.73,370.86,275.8Zm-4.18-82.13a1.2,1.2,0,0,0,.07-.23.12.12,0,0,0-.07-.11c-.15,0-.23,0-.19.13A.91.91,0,0,0,366.68,193.67Zm-.42,2.12a1,1,0,0,0,.3-.12c.13-.13.07-.26-.11-.34a.2.2,0,0,0-.28.1C366.12,195.56,366.08,195.69,366.26,195.8Zm-67.88,47.09c.31,0,.43-.13.46-.32s-.14-.23-.33-.25-.44.12-.45.3S298.19,242.85,298.38,242.89Zm-114.93-122c0,.08.07.19.15.23a.34.34,0,0,0,.46-.09c0-.05,0-.18-.12-.22A.43.43,0,0,0,183.45,120.88ZM128,118.31c.08-.05.22-.1.24-.16a.23.23,0,0,0-.13-.22c-.21,0-.37.06-.34.22S128,118.26,128,118.31ZM189.51,79.7a1.76,1.76,0,0,0-.23.14s0,.08.08.1.25.06.28,0S189.56,79.77,189.51,79.7ZM126.25,90.57A3.71,3.71,0,0,0,126,91a.26.26,0,0,0,.13.35c.25-.05.22-.2.21-.33A3.07,3.07,0,0,0,126.25,90.57ZM203,163.68c-.29,0-.43.11-.37.25a.53.53,0,0,0,.34.28.25.25,0,0,0,.3-.26A.26.26,0,0,0,203,163.68Zm-77.22-31.55-.21-.16c-.07.05-.19.11-.19.16s.12.11.18.16Zm83.74-1.8a2,2,0,0,0,.18.25.22.22,0,0,0,.18-.32.92.92,0,0,0-.16-.23Zm16.24-2.54c.06.08.08.18.16.21a.37.37,0,0,0,.28-.09c.08-.13,0-.24-.22-.26S225.81,127.74,225.74,127.79Zm238.54,92.52c.19,0,.27-.15.23-.42,0-.09.06-.34-.24-.18s-.18.31-.23.47S464.2,220.26,464.28,220.31Z"/><path d="M97.08,286.88a17.1,17.1,0,0,1,.51,6.61C96.42,291.33,96.76,289.1,97.08,286.88Z"/><path d="M136.23,284.87c-.09,1.44.59,2.85.34,4.29-.77-1.19-.74-2.48-1.07-3.72-.11-.42.21-.58.78-.53Z"/><path d="M93.17,281.29c-.68,0-1.35-.43-1.38-.93,0-.26.14-.43.52-.47.66-.06,1.41.37,1.48.85C93.83,281.06,93.65,281.26,93.17,281.29Z"/><path d="M118.72,285.21a1.25,1.25,0,0,1,.42,1.14.18.18,0,0,1-.29,0A.9.9,0,0,1,118.72,285.21Z"/><path d="M119.5,290.14a.69.69,0,0,1,0-.86C119.76,289.6,119.51,289.89,119.5,290.14Z"/><path d="M201.22,276.38a1.4,1.4,0,0,1,.13-.22c.24,0,.19.19.17.32a.76.76,0,0,1-.13.24C201.19,276.65,201.26,276.5,201.22,276.38Z"/><path d="M137.18,29.52c.36-.9.19-1.87,1.21-1.9s1.29.92,1.6,1.54a9.89,9.89,0,0,1,.71,2.15c.67,2.85,1.64,5.66,1.77,8.56.23,5.06.59,10.12.39,15.18,0,1-.37,1.22-1.75,1s-2.82-.4-4.23-.59c-.77-.11-1.06-.42-1.08-1a8.76,8.76,0,0,0-.13-2.6c-.55.84.17,1.8-.37,2.79a2.52,2.52,0,0,1-1.2-1.78c0-.18,0-.49-.28-.41-1.22.29-.92-.3-.92-.72,0-1.87,0-3.74,0-5.74.9.38.26,1.12,1.06,1.49a6.13,6.13,0,0,0,.46-3.37c-.05-.37-.47-.7-.41-1.14.17-1.13.26-2.26.39-3.43.89.15.34.79.89,1,.09-.05.28-.11.27-.15-.09-.69.36-1.44-1.15-1.83-.79-.2-.54-2.16.36-2.77.75-.51.84-1,.58-1.62a11.58,11.58,0,0,1-.76-2.12,3.38,3.38,0,0,1,.95-3.5c.73-.66.89-.62,1.33.19C136.94,28.93,137,29.06,137.18,29.52Zm-1.76,13.27c.5.62-.91,1.33.21,2.13A3,3,0,0,0,135.43,42.79Zm-1.34,6.72c.23,0,.35-.09.38-.23s-.12-.24-.31-.29-.4,0-.44.12S133.84,49.44,134.09,49.51Zm1.64-1.59h-.13l.07.72Z"/><path d="M125,35.73c-.45-.55-1-.86-1.69-.41-1,.61-.17,1.15.17,1.72.78.11.94-.52,1.53-.55.1.05.28.09.29.15a81.37,81.37,0,0,1,1,8.92c.24,2.35-.08,4.68.16,7,.11,1.05-.14,1.25-1.55,1.35a9.81,9.81,0,0,1-3.85-.28c-.64-.21-.86-.49-.83-1,.26-3.69.41-7.39.38-11.08,0-.69-.07-1.38-.13-2.07a1.72,1.72,0,0,1,.17-1.23c1-1.38.16-2.74-.05-4.1a7.67,7.67,0,0,1,.91-2.91c.77-.55,1.19-.52,1.5.19a7.1,7.1,0,0,0,1.5,2.06A2,2,0,0,1,125,35.73Z"/><path d="M127.83,47.21l.34,4.14c1.79-1.7,1-3.67,2.2-5.35a1.42,1.42,0,0,1,.75,1.13c.32,1.82.66,3.64.93,5.46.14,1-.06,1.1-1.31,1-3.88-.24-3.47.39-3.66-2.59a13.8,13.8,0,0,1,.3-3.8Z"/><path d="M132.94,43.1c.16.42.64.85.09,1.5A1.36,1.36,0,0,1,132.94,43.1Z"/><path d="M125.78,129.49c-.25,0-.4-.16-.36-.36a.29.29,0,0,1,.39-.17.57.57,0,0,1,.32.29C126.2,129.39,126,129.48,125.78,129.49Z"/><path d="M125.38,126.48c.39.17.34.64.28.65-.47.07-.32-.25-.4-.42S125.33,126.56,125.38,126.48Z"/><path d="M142.94,127.7c-.15,0-.22-.08-.17-.19a.17.17,0,0,1,.12-.07c.15,0,.22.08.17.19S143,127.67,142.94,127.7Z"/><path d="M188.12,74.64a2.44,2.44,0,0,1-.69,1.72c-.75-.81,0-1.24.73-1.69Z"/><path d="M187.52,77.74c.5.39.06.74.06,1.25C187.06,78.29,187.06,78.29,187.52,77.74Z"/><path d="M185.72,81.15a1.35,1.35,0,0,1-.09-1.27c.27-.06.41.05.39.19A10.21,10.21,0,0,1,185.72,81.15Z"/><path d="M185,68.7c-.06-.06-.18-.13-.17-.18s.2-.22.39-.21.18.12.16.17S185.2,68.7,185,68.7Z"/><path d="M187.52,72.51c-.09,0-.22-.08-.24-.14s.09-.12.15-.18.21.08.23.14S187.57,72.44,187.52,72.51Z"/><path d="M147.32,182.73a5.32,5.32,0,0,1-.1,1.92c-.09.25-.08.6-.64.56a.71.71,0,0,1-.71-.58,2,2,0,0,1,0-.82,4.48,4.48,0,0,0,0-3c-.12-.29.06-.43.46-.47s.69.1.73.33C147.2,181.36,147.24,182,147.32,182.73Z"/><path d="M121.62,183c-.32,0-.32-.21-.3-.38s.16-.33.48-.27.46.17.4.37S121.91,182.95,121.62,183Z"/><path d="M257.11,124.14a5,5,0,0,1,1,2.65.39.39,0,0,1-.34.44c-.31.06-.5-.13-.5-.31C257.23,126.09,256.71,125.26,257.11,124.14Z"/><path d="M216,184.89c-.31-.38-.85-.71-.37-.9s.46.25.51.49C216.16,184.55,216.1,184.64,216,184.89Z"/><path d="M226,182.66c.56.32.53.6.31.9C225.88,183.35,225.86,183.07,226,182.66Z"/><path d="M218.12,180.79c0,.13-.08.3-.29.3s-.36-.21-.34-.39.16-.27.38-.23A.28.28,0,0,1,218.12,180.79Z"/><path d="M212.27,181c-.2-.06-.27-.18-.21-.32a.34.34,0,0,1,.25-.13c.2,0,.26.19.21.32S212.36,181,212.27,181Z"/><path d="M483.27,188.16v-1.65C483.86,187.06,483.29,187.61,483.27,188.16Z"/><path d="M359.35,177.15a8,8,0,0,1,1.11,3.48C358.5,180.23,358.15,179.12,359.35,177.15Z"/><path d="M193.85,121.12a2.54,2.54,0,0,1-2,.18c-.33-.07-.87-.11-.71-.5s.54-.36,1-.39a2.62,2.62,0,0,1,1.78.74Z"/><path d="M198.46,128.74s0,.09,0,.14c-.07.37-.15.81-.86.67-.38-.07-.29-.52-.17-.74.26-.46.72,0,1.09,0Z"/><path d="M296.58,185c-.59-.49-1.78-.3-1.49-1,.16-.4.88-.72,1.19-1.22C296.88,183.53,296.88,183.53,296.58,185Z"/><path d="M309.15,181.75c1.1-.07,1.74-.1,1.82.55,0,.25-.25.46-.58.46C309.31,182.79,309.89,182.1,309.15,181.75Z"/><path d="M307.23,182.72c-.66-.46-.84-.79-.23-1.14a.59.59,0,0,1,.68,0C308.18,182,307.44,182.28,307.23,182.72Z"/><path d="M310.54,180.46c-.32,0-.5-.13-.44-.35.11-.38.45-.53,1-.46.25,0,.61.09.59.27C311.61,180.39,311,180.36,310.54,180.46Z"/><path d="M314.44,179.33c-.11.68-.53.87-1.08,1.1C313.39,179.94,313.7,179.68,314.44,179.33Z"/><path d="M315.31,180.18a1,1,0,0,1-.21.22c-.14.08-.28,0-.26-.07s.11-.17.2-.22S315.28,180.07,315.31,180.18Z"/><path d="M317.67,122.41c.18-.35.69-.33,1.08-.35s.34.22.31.41c0,.36-.38.42-.8.38S317.69,122.7,317.67,122.41Z"/><path d="M183.62,242.18a1.4,1.4,0,0,0,.06-.27c0-.49-.19-1.19.7-1.22.67,0,.18.44,0,.67s-.3.3-.43.45-.19.24-.28.36Z"/><path d="M175.67,232.66a1.48,1.48,0,0,1-.15-.34.43.43,0,0,1,.27-.1.24.24,0,0,1,.18.34C175.93,232.68,175.85,232.72,175.67,232.66Z"/><path d="M280.66,29.53a.62.62,0,0,1-.22-.77C280.89,28.9,280.7,29.15,280.66,29.53Z"/><path d="M180,249.85c.23-.18,0-.32-.07-.48-.12-.31.19-.4.52-.42a.84.84,0,0,1,.51.12c.29.26,0,.39-.31.51l-.66.28Z"/><path d="M392.85,177.32c-.25,0-.31-.12-.31-.25a.27.27,0,0,1,.27-.29c.23,0,.33.09.32.24A.31.31,0,0,1,392.85,177.32Z"/><path d="M297.39,121.52c-.32,0-.44-.12-.47-.31a.24.24,0,0,1,.25-.3.64.64,0,0,1,.62.23C297.88,121.35,297.64,121.46,297.39,121.52Z"/><rect class="cls-2" y="1.36" width="552.75" height="333"/></g></g></g></svg>