<svg xmlns="http://www.w3.org/2000/svg" viewBox="0 0 1440 1566.64"><defs><style>.cls-1,.cls-112,.cls-29,.cls-3,.cls-62,.cls-65,.cls-66,.cls-72,.cls-76{fill:none;}.cls-1,.cls-112,.cls-114,.cls-29,.cls-3{stroke:#fff;}.cls-1,.cls-112,.cls-114,.cls-29,.cls-3,.cls-62,.cls-65,.cls-66,.cls-72,.cls-76{stroke-miterlimit:10;}.cls-2{fill:#f498a8;}.cls-3{stroke-width:1.3px;}.cls-30,.cls-4,.cls-8{fill:#fff;}.cls-14,.cls-5{fill:#728ab4;}.cls-6{fill:#2b2b2b;}.cls-7{fill:#96d8ef;}.cls-8{font-size:25px;}.cls-14,.cls-8{font-family:WorkSans-Medium, Work Sans Medium;}.cls-9{letter-spacing:-0.01em;}.cls-10{letter-spacing:0em;}.cls-11{letter-spacing:-0.01em;}.cls-12{letter-spacing:-0.02em;}.cls-13{letter-spacing:-0.02em;}.cls-14{font-size:31.74px;}.cls-15{letter-spacing:-0.01em;}.cls-16{letter-spacing:-0.01em;}.cls-17{letter-spacing:0em;}.cls-18{letter-spacing:0em;}.cls-19{letter-spacing:-0.01em;}.cls-20{letter-spacing:-0.01em;}.cls-21{letter-spacing:-0.02em;}.cls-22{letter-spacing:0em;}.cls-23{letter-spacing:-0.02em;}.cls-24{letter-spacing:-0.01em;}.cls-25{letter-spacing:0em;}.cls-26{letter-spacing:-0.02em;}.cls-27{letter-spacing:-0.02em;}.cls-28{letter-spacing:0em;}.cls-29{stroke-width:0.96px;}.cls-30{font-size:17.38px;font-family:WorkSans-Regular, Work Sans;}.cls-31{letter-spacing:-0.03em;}.cls-32{letter-spacing:-0.02em;}.cls-33{letter-spacing:-0.02em;}.cls-34{letter-spacing:-0.02em;}.cls-35{letter-spacing:-0.01em;}.cls-36{letter-spacing:-0.02em;}.cls-37{letter-spacing:0em;}.cls-38{letter-spacing:-0.02em;}.cls-39{letter-spacing:-0.01em;}.cls-40{letter-spacing:-0.03em;}.cls-41{letter-spacing:-0.02em;}.cls-42{letter-spacing:0em;}.cls-43{letter-spacing:-0.02em;}.cls-44{letter-spacing:-0.01em;}.cls-45{letter-spacing:-0.02em;}.cls-46{fill:#f6b978;}.cls-47{fill:#a46227;}.cls-48{fill:#bfe6f2;}.cls-49{fill:#7288b4;}.cls-50{fill:#647a9c;}.cls-51{fill:#99d0dd;}.cls-52{fill:#231f20;}.cls-53{fill:#afbfe2;}.cls-54{fill:#d6ac96;}.cls-55{fill:#d2a895;}.cls-56{fill:#9e7668;}.cls-57{fill:#e1e7e7;}.cls-58{fill:#f8f0e5;}.cls-59{fill:#7c513e;}.cls-60{fill:#7f5441;}.cls-61{fill:#543a35;}.cls-62{stroke:#728ab4;stroke-width:0.22px;}.cls-63{fill:#907470;}.cls-64{fill:#d8ab93;}.cls-65{stroke:#7f8cab;stroke-width:1.34px;}.cls-66{stroke:#7597ce;stroke-width:0.64px;}.cls-67{fill:#7597ce;}.cls-68{fill:#f9b798;}.cls-69{fill:#c6725b;}.cls-70{fill:#cb7054;}.cls-71{fill:#76c5d9;}.cls-72{stroke:#7288b4;stroke-width:1.05px;}.cls-73{fill:#49c7ef;}.cls-74{fill:#89aad8;}.cls-75{fill:#fabc98;}.cls-76{stroke:#89aad8;stroke-width:0.2px;}.cls-77{fill:#96d7e6;}.cls-78{letter-spacing:-0.01em;}.cls-79{letter-spacing:-0.02em;}.cls-80{letter-spacing:-0.02em;}.cls-81{letter-spacing:-0.02em;}.cls-82{letter-spacing:-0.03em;}.cls-83{letter-spacing:-0.04em;}.cls-84{letter-spacing:-0.01em;}.cls-85{letter-spacing:-0.04em;}.cls-86{letter-spacing:-0.02em;}.cls-87{letter-spacing:-0.01em;}.cls-88{letter-spacing:-0.02em;}.cls-89{letter-spacing:-0.03em;}.cls-90{letter-spacing:-0.01em;}.cls-91{letter-spacing:-0.02em;}.cls-92{letter-spacing:-0.02em;}.cls-93{letter-spacing:-0.01em;}.cls-94{letter-spacing:-0.02em;}.cls-95{letter-spacing:-0.02em;}.cls-96{letter-spacing:-0.01em;}.cls-97{letter-spacing:-0.02em;}.cls-98{letter-spacing:-0.01em;}.cls-99{letter-spacing:-0.02em;}.cls-100{fill:#f7efe6;}.cls-101{fill:#2f2b28;}.cls-102{fill:#f499a8;}.cls-103{fill:#c1e6f1;}.cls-104,.cls-114{fill:#eee1d2;}.cls-105{fill:#f9ebad;}.cls-106{fill:#505e77;}.cls-107{fill:#52688d;}.cls-108{fill:#986e44;}.cls-109{fill:#2a1e15;}.cls-110{fill:#f5e0c2;}.cls-111{fill:#e2c158;}.cls-112,.cls-114{stroke-width:0.6px;}.cls-113{fill:#916f49;}.cls-115{fill:#eed6b8;}.cls-116{fill:#4a4743;}.cls-117{fill:#738bb3;}</style></defs><title>fixedjourney</title><g id="Layer_2" data-name="Layer 2"><g id="_1200" data-name="1200"><polygon class="cls-1" points="271.48 67.82 271.48 223.08 585.23 223.08 585.23 64.11 532.63 36.62 480.77 63.11 271.48 63.31 271.48 67.82"/><polygon class="cls-2" points="585.23 65.86 608.81 65.06 582.74 16.68 271.48 16.68 246.5 65.06 271.48 65.06 480.77 64.86 532.63 38.37 585.23 65.86"/><polyline class="cls-2" points="324.44 16.68 324.44 0 342.89 0 342.89 16.68"/><polyline class="cls-3" points="450.77 64.11 450.77 121.18 585.23 121.18"/><rect class="cls-4" x="538.72" y="72" width="30.05" height="49.18"/><rect class="cls-4" x="465.72" y="72" width="23.64" height="19.94"/><rect class="cls-4" x="498.77" y="72" width="23.64" height="19.94"/><rect class="cls-4" x="484.02" y="167.56" width="76.78" height="54.93"/><rect class="cls-4" x="450.77" y="167.56" width="26.78" height="55.52"/><rect class="cls-4" x="288.54" y="76.06" width="29.95" height="38.52"/><rect class="cls-4" x="333.67" y="76.06" width="29.95" height="38.52"/><rect class="cls-4" x="377.72" y="76.06" width="29.95" height="38.52"/><rect class="cls-4" x="289.08" y="136.3" width="29.95" height="38.52"/><rect class="cls-4" x="334.2" y="136.3" width="29.95" height="38.52"/><rect class="cls-4" x="378.25" y="136.3" width="29.95" height="38.52"/><path class="cls-5" d="M492.45,151.93a3,3,0,0,1-2.29-.74,3.25,3.25,0,0,1-.72-2.34v-7.52h-1.5c-.17,0-.28,0-.32-.09a.65.65,0,0,1-.07-.37v-.61a.67.67,0,0,1,.07-.37c0-.06.15-.09.32-.09h1.5v-2.94a.49.49,0,0,1,.11-.37.6.6,0,0,1,.38-.09h.86a.6.6,0,0,1,.38.09.5.5,0,0,1,.1.37v2.94h2.39c.17,0,.28,0,.32.09a.67.67,0,0,1,.07.37v.61a.65.65,0,0,1-.07.37c0,.06-.15.09-.32.09h-2.39v7.22a2.24,2.24,0,0,0,.32,1.36,1.21,1.21,0,0,0,1,.4h1.08c.17,0,.28,0,.33.1a.72.72,0,0,1,.07.37v.69a.72.72,0,0,1-.07.37.43.43,0,0,1-.33.09Z"/><path class="cls-5" d="M499,141a4,4,0,0,1,1.5-1.15,4.84,4.84,0,0,1,2-.4,4,4,0,0,1,3,1,4.16,4.16,0,0,1,1,3v7.92a.48.48,0,0,1-.11.37.59.59,0,0,1-.38.09h-.86a.6.6,0,0,1-.38-.09.48.48,0,0,1-.1-.37V144a3.14,3.14,0,0,0-.63-2.17,2.62,2.62,0,0,0-2-.68,2.87,2.87,0,0,0-2.21.89,3.35,3.35,0,0,0-.82,2.37v7.11a.48.48,0,0,1-.11.37.59.59,0,0,1-.38.09h-.86a.6.6,0,0,1-.38-.09.48.48,0,0,1-.1-.37V135.91a.5.5,0,0,1,.1-.37.6.6,0,0,1,.38-.09h.86a.59.59,0,0,1,.38.09.49.49,0,0,1,.11.37Z"/><path class="cls-5" d="M512.06,142a3.64,3.64,0,0,1,1.33-1.6,3.43,3.43,0,0,1,2-.62h.3c.17,0,.28,0,.32.09a.67.67,0,0,1,.07.37v.84a.65.65,0,0,1-.07.37c0,.06-.15.09-.32.09h-.6a2.53,2.53,0,0,0-1.24.3,2.81,2.81,0,0,0-.94.85,4,4,0,0,0-.6,1.27,5.77,5.77,0,0,0-.21,1.59v5.9a.48.48,0,0,1-.1.37.6.6,0,0,1-.38.09h-.86a.59.59,0,0,1-.38-.09.48.48,0,0,1-.11-.37V140.26a.51.51,0,0,1,.11-.37.59.59,0,0,1,.38-.09h.81a.59.59,0,0,1,.38.09.51.51,0,0,1,.11.37Z"/><path class="cls-5" d="M519.74,137.65a1.21,1.21,0,0,1-.85-.28,1,1,0,0,1-.31-.76v-.37a1,1,0,0,1,.31-.74,1.21,1.21,0,0,1,.85-.28,1.29,1.29,0,0,1,.88.28.9.9,0,0,1,.32.74v.37a.93.93,0,0,1-.32.76A1.29,1.29,0,0,1,519.74,137.65Zm.9,13.82a.48.48,0,0,1-.1.37.6.6,0,0,1-.38.09h-.86a.59.59,0,0,1-.38-.09.48.48,0,0,1-.11-.37V140.26a.51.51,0,0,1,.11-.37.59.59,0,0,1,.38-.09h.86a.6.6,0,0,1,.38.09.51.51,0,0,1,.1.37Z"/><path class="cls-5" d="M524.53,139.8a.48.48,0,0,1,.34.11,1.09,1.09,0,0,1,.19.38l3.22,9.81,3.13-9.81a1,1,0,0,1,.19-.4.51.51,0,0,1,.34-.09h1c.25,0,.37.09.37.28a1.43,1.43,0,0,1-.07.28l-3.73,11.06a1,1,0,0,1-.23.41.53.53,0,0,1-.37.1h-1.34a.55.55,0,0,1-.37-.1,1,1,0,0,1-.23-.41l-3.71-11.06c0-.16-.07-.25-.07-.28,0-.19.13-.28.37-.28Z"/><path class="cls-5" d="M537.17,146.42v.44q0,3.82,3.1,3.82a2.57,2.57,0,0,0,2.62-1.5.85.85,0,0,1,.19-.34.66.66,0,0,1,.34-.06h.83a.91.91,0,0,1,.42.06c.06,0,.09.15.09.32a2,2,0,0,1-.25.83,4.47,4.47,0,0,1-.58.88,4,4,0,0,1-1.57,1,6.19,6.19,0,0,1-2.16.37,4.66,4.66,0,0,1-3.6-1.37,5.53,5.53,0,0,1-1.26-3.89v-1.73a6.51,6.51,0,0,1,1.25-4.3,4.47,4.47,0,0,1,3.63-1.49q4.77,0,4.77,5.3V146a.48.48,0,0,1-.1.37.6.6,0,0,1-.38.09Zm3.05-5.51q-3,0-3.05,4h6a5.16,5.16,0,0,0-.71-3A2.54,2.54,0,0,0,540.22,140.91Z"/><path class="cls-6" d="M504.9,152.7s0-.12,0-.2-.06-.42-.09-.69c0-.09,0-.34-.07-.68s0-.26,0-.7c0-.14,0-.26,0-.34l-.14,2.27Z"/><path class="cls-6" d="M520.66,150.61c0,.23,0,.46-.06.71s-.05.47-.09.7l.2-.28Z"/><path class="cls-5" d="M520.63,149.2v1.6c0,.27,0,.47,0,.6-.06.47-.09.7-.11.8a5.46,5.46,0,0,1-.33,1.07,4.94,4.94,0,0,1-.42.84,4,4,0,0,1-.81.94,4.63,4.63,0,0,1-1.1.68c-.11,0-.29.11-.5.17l-.46.12-.6.13c-.28,0-.49.07-.72.09l-.84,0h-4.38a7.52,7.52,0,0,1-1-.07,8.24,8.24,0,0,1-.9-.16,5.82,5.82,0,0,1-1.07-.37,5.65,5.65,0,0,1-.6-.34,5.44,5.44,0,0,1-.53-.43,4.3,4.3,0,0,1-.86-1.15A4.62,4.62,0,0,1,505,153a4.26,4.26,0,0,1-.16-.56,6.32,6.32,0,0,1-.1-.67c0-.25,0-.45,0-.52s0-.35,0-.5v-1.31h1.83v1.42a4.64,4.64,0,0,0,0,.57,3.41,3.41,0,0,0,.13.59,2.93,2.93,0,0,0,.37.86,3.24,3.24,0,0,0,.64.68,3.58,3.58,0,0,0,.56.43,2,2,0,0,0,.26.13l.27.11c.06,0,.17,0,.62.12a3.35,3.35,0,0,0,.45.07l.39,0h4.69a7.8,7.8,0,0,0,1-.1,6.14,6.14,0,0,0,.71-.15,3.85,3.85,0,0,0,.64-.24,1.76,1.76,0,0,0,1-.95,4.36,4.36,0,0,0,.36-.79,4,4,0,0,0,.15-.75,2.45,2.45,0,0,0,0-.46v-1.41Z"/><rect class="cls-7" x="258.01" y="219.4" width="338.6" height="13.34"/><text class="cls-8" transform="translate(318.49 316.9)">Visit us</text><circle class="cls-5" cx="273.12" cy="301.99" r="21.22"/><text class="cls-8" transform="translate(266.62 310.57)">1</text><text class="cls-8" transform="translate(906.35 589.05)"><tspan class="cls-9">M</tspan><tspan class="cls-10" x="21.6" y="0">e</tspan><tspan class="cls-11" x="36.13" y="0">e</tspan><tspan class="cls-10" x="50.35" y="0">t ou</tspan><tspan class="cls-12" x="99.7" y="0">r</tspan><tspan class="cls-13" x="109.52" y="0"> </tspan><tspan x="117.25" y="0">team</tspan></text><text class="cls-14" transform="translate(846.05 589.05)">2</text><circle class="cls-5" cx="855.13" cy="577.83" r="21.22"/><text class="cls-8" transform="translate(847.63 586.41)">2</text><text class="cls-8" transform="translate(321.79 851.25)"><tspan class="cls-15">R</tspan><tspan x="16.45" y="0">eci</tspan><tspan class="cls-16" x="51.97" y="0">e</tspan><tspan class="cls-17" x="66.12" y="0">v</tspan><tspan x="79.35" y="0">e </tspan><tspan class="cls-18" x="102" y="0">S</tspan><tspan x="117.95" y="0">pecialist ca</tspan><tspan class="cls-19" x="258.45" y="0">r</tspan><tspan x="268.47" y="0">e</tspan></text><circle class="cls-5" cx="270.57" cy="842.89" r="21.22"/><text class="cls-8" transform="translate(263.07 851.46)">3</text><text class="cls-8" transform="translate(917.34 1183.11)">G<tspan class="cls-20" x="18.1" y="0">e</tspan><tspan x="32.33" y="0">t ca</tspan><tspan class="cls-19" x="79.45" y="0">r</tspan><tspan x="89.47" y="0">e on</tspan><tspan class="cls-21" x="142.75" y="0"> </tspan><tspan class="cls-22" x="150.47" y="0">t</tspan><tspan x="161.17" y="0">he go</tspan><tspan x="0" y="32">wi</tspan><tspan class="cls-22" x="28.62" y="32">t</tspan><tspan x="39.32" y="32">h ou</tspan><tspan class="cls-23" x="93.55" y="32">r</tspan><tspan x="103.37" y="32" xml:space="preserve"> app</tspan></text><circle class="cls-5" cx="862.51" cy="1177.78" r="21.22"/><text class="cls-8" transform="translate(855 1186.36)">4</text><text class="cls-8" transform="translate(412.49 1467.43)"><tspan class="cls-9">M</tspan><tspan class="cls-10" x="21.6" y="0">e</tspan><tspan class="cls-11" x="36.13" y="0">e</tspan><tspan class="cls-10" x="50.35" y="0">t </tspan><tspan class="cls-24" x="69.07" y="0">o</tspan><tspan class="cls-25" x="84.05" y="0">t</tspan><tspan class="cls-10" x="94.75" y="0">he</tspan><tspan class="cls-26" x="124.75" y="0">r</tspan><tspan x="134.67" y="0">s</tspan><tspan class="cls-27" x="147.9" y="0"> </tspan><tspan x="155.47" y="0">who</tspan><tspan x="0" y="32">unde</tspan><tspan class="cls-26" x="61.2" y="32">r</tspan><tspan x="71.12" y="32">s</tspan><tspan class="cls-28" x="84.35" y="32">t</tspan><tspan x="95.02" y="32">and</tspan></text><text class="cls-14" transform="translate(356.2 1474.43)">2</text><circle class="cls-5" cx="365.28" cy="1463.2" r="21.22"/><text class="cls-8" transform="translate(357.77 1471.78)">5</text><path class="cls-29" d="M342.86,1055.12c78.78-35.93,149.32-47.66,208.23-48.3,3.5,0,7,0,10.45,0H1170.2l7.78-.15,5.19-.37,4.74-.53,5.26-.82,7.7-1.63,6.07-1.67,5.74-1.9,6.74-2.66,4.95-2.27,5.39-2.8,5-2.9,5.8-3.82,3.5-2.56,3.49-2.76,4.5-3.89,3-2.79,4.76-4.95,3.36-3.88,3.46-4.41,4.67-6.78,2.49-4.12,2.15-3.91,2.62-5.4,1.41-3.24,1.78-4.6,1.51-4.53,1-3.48,1-3.9.81-3.83.73-4.26.36-2.69.46-4.48.33-4.6v-9l-.19-4.82-.41-4.93-.56-4.36-.67-4-.81-3.83-1-3.83-1-3.35-1.65-5-1.33-3.49-1.52-3.61-2.19-4.64-1.6-3.05-1.64-2.92-2.1-3.45L1269,832.5l-1.38-2-2.6-3.46-2.18-2.69-2.5-2.9-2.6-2.82-2.39-2.43-2.53-2.42-2.48-2.24-2.73-2.31-4.34-3.4-4-2.88-3-2-4.63-2.8-5.47-3-4-1.92-4.33-1.88-6.66-2.52-5.14-1.64-4.35-1.19-3.86-.91-4.43-.88-3.21-.53-4.63-.61-3.75-.36-3.34-.22-2.92-.12-5.19-.05h-50.91l-102-.26H304.93l-6.75,0-5.91-.23-4.76-.37-3.7-.41-4.63-.66-3.7-.64-3.31-.67-4-.91L263.59,777l-5-1.54-4.72-1.65-7.93-3.22-7.23-3.47-4.43-2.41-3.94-2.33-4.46-2.87-8.36-6.11-4.42-3.67-4.6-4.19L204.94,742l-5.13-5.62-3.24-3.93-3-4L190,723.43l-3.69-6-2.28-4.13L182,709.08l-2.6-5.85-1.82-4.68-1.71-5-1.07-3.62-1.5-5.94-.69-3.27-.7-4-.52-3.68-.45-4.08-.34-4.77-.15-3.82,0-5.69.25-4.88.4-4.46.47-3.72.88-5.27,1.82-8.08,1.45-5.06,2-5.74,1.77-4.54,2.42-5.42,2.13-4.27,2.73-4.92,2.43-4,2.93-4.39,3.08-4.22,2.79-3.52,3.28-3.84,2.52-2.75,4.45-4.49,4.22-3.88,3.16-2.69,3.71-2.94,5-3.64,4.31-2.87,4.65-2.82,5.3-2.91,6.16-3,6.33-2.69,5.32-2,4.59-1.5,6.25-1.75,6-1.38,5.14-1,3.38-.51,4.74-.58,5.37-.45,4.26-.21,4.52-.07h813.63l6.82-.16h3.57l4.65-.27,4-.33,8.14-1,8.7-1.52,7.91-1.79,7.23-2,5.56-1.79,8.64-3.24,7.55-3.3,5.93-2.93,6-3.29,6.64-4,7.45-5.07,9.66-7.56,6.76-6.07,5.5-5.5,6.24-6.95,6.13-7.77,3.33-4.69,5.45-8.59,4.23-7.71,2.92-6.06,2.76-6.51,2.85-7.83,2.52-8.45,1.91-8.13,1.5-8.81.81-7.08.31-4.27.2-4.64v-7.25l-.09-2.78-.27-4.55-.24-2.78-.54-4.89-.64-4.39-.62-3.58-1.39-6.57-.78-3.14-1.75-6.14-1.34-4.13L1266.8,332l-1.11-2.83-1.47-3.5-1.86-4.09-1.53-3.16-2-3.93-2.42-4.31-2-3.32-2.84-4.42-2.21-3.22-2.63-3.62-2-2.56-3.86-4.73-3.17-3.61-2.64-2.85-3.33-3.39-4.21-4-4.1-3.64-2.07-1.74-2.59-2.1-3.13-2.42-3.39-2.48-4.13-2.84-3-2-3.46-2.13-2.88-1.69-3.52-1.95-3.52-1.84-3.5-1.73-3.06-1.43-3.49-1.53-3.05-1.26-5.2-2-4.78-1.64-4.94-1.53-4.32-1.2-3.86-1-4.31-1-3.67-.72-4.91-.83-4.11-.58-3.91-.45-4-.37-3.88-.26-3.07-.15-2.32-.07-2.09,0H0"/><text class="cls-30" transform="translate(250.44 356.65)"><tspan class="cls-31">W</tspan><tspan x="16.11" y="0">e h</tspan><tspan class="cls-32" x="42.88" y="0">a</tspan><tspan x="52.42" y="0">ve</tspan><tspan class="cls-33" x="71.55" y="0"> </tspan><tspan x="77.13" y="0">th</tspan><tspan class="cls-34" x="95.17" y="0">r</tspan><tspan x="101.98" y="0">ee ce</tspan><tspan class="cls-35" x="147.99" y="0">n</tspan><tspan x="158.62" y="0">t</tspan><tspan class="cls-36" x="165.9" y="0">r</tspan><tspan class="cls-37" x="172.71" y="0">es, in Dublin,</tspan><tspan x="0" y="24">Cor</tspan><tspan class="cls-38" x="29.57" y="24">k</tspan><tspan x="39.04" y="24" xml:space="preserve"> and </tspan><tspan class="cls-39" x="82.43" y="24">M</tspan><tspan class="cls-40" x="97.16" y="24">a</tspan><tspan x="106.49" y="24">y</tspan><tspan class="cls-41" x="115.79" y="24">o</tspan><tspan class="cls-42" x="126.01" y="24">. See</tspan><tspan class="cls-33" x="167.88" y="24"> </tspan><tspan x="173.46" y="24">thrive.ie</tspan><tspan class="cls-43" x="241.67" y="24"> </tspan><tspan class="cls-44" x="247.27" y="24">f</tspan><tspan x="253.85" y="24">o</tspan><tspan class="cls-45" x="264.42" y="24">r</tspan><tspan x="271.11" y="24" xml:space="preserve"> mo</tspan><tspan class="cls-36" x="304.16" y="24">r</tspan><tspan class="cls-37" x="310.97" y="24">e.</tspan></text><path class="cls-29" d="M342.77,1055c-12.11,8.9-24.36,17.68-35.69,27.58l-6.31,6-8.56,9-5.67,6.65-5.61,7.25-5.09,7.31-4.66,7.45-3.39,6-3.69,7.31-3,6.73-2.37,6-1.89,5.4-1.57,5.07-1.67,6.18-1.45,6.51-1.16,6.48-.76,5.57-.6,6.22-.22,3.46-.19,5.56v4.84l.2,5.69.34,4.88.39,3.92.55,4.36.83,5.2,1.16,5.85,1.26,5.32,1.92,6.88,1.83,5.65,2.1,5.73,2.8,6.79,1.84,4,1.37,2.85,4.08,7.79,2.07,3.62,2,3.28,2.14,3.4,3.57,5.32,2.51,3.53,2.08,2.81,2.55,3.3,2.73,3.39,4.3,5,3,3.32,2.19,2.35,2.7,2.82,8.41,8.15,2.75,2.48,2.71,2.39,2.27,1.94,2.27,1.89,2,1.61,2.44,1.95,2.39,1.84,3.93,3,3.16,2.28,2.66,1.86,3.16,2.15,2.63,1.75,2.66,1.71,3,1.85,2.64,1.61,2.47,1.48,2.33,1.35,2.16,1.22,2.34,1.31,2.9,1.57,2.08,1.1,3.88,2,4.33,2.14,3.65,1.74,5.4,2.45,3,1.32,3.15,1.33,2.95,1.21,2.86,1.14,3,1.15,2.5.93,3,1.08,3.55,1.25,2.42.82,2.62.87,3.4,1.08,2.78.86,3,.89,2.47.71,2.54.71,5,1.32,4.51,1.12,4.51,1.06,3.76.83,7.53,1.53c60.64,10.91,121,8.73,182.37,8.2,218.25-1.87,436.49-2.33,654.75-2.8H1440"/><ellipse class="cls-46" cx="996.98" cy="837.4" rx="19.06" ry="19.08"/><path class="cls-47" d="M977,830.81c.82.55,2,.18,4.13-.52s2.81-1.36,3.62-1c1.09.44.67,1.82,1.81,3.1,1.73,1.95,4.18.41,5.93,2.07,2,1.92.28,5.45,2.07,6.46,1.36.76,3.45-.67,3.61-.78,2.79-1.94,1.85-5.31,3.88-6.2,1.74-.77,4.67.74,5.93,2.84,1.69,2.81-.35,5.43,1.3,7,1.39,1.31,4.53,1,5.93-.52.95-1,.31-1.78.78-6.72.27-2.87.76-5.49,1-7a14.15,14.15,0,0,0,.52-2.59c0-.39,0-1.68-1.48-4.55a13.81,13.81,0,0,0-2.59-4.07,9.08,9.08,0,0,0-4.48-2.59c-1.22-.25-1.56,0-2.58-.4-1.57-.63-2-1.73-2.85-2.45-2-1.7-5.45-.64-9.78.68-3.1,1-6.27,1.91-8.55,4.48a20.92,20.92,0,0,1-2.31,2.59c-1.78,1.57-2.83,1.72-3.4,3.12-.27.68-.26,1.24-.81,1.63s-1.21.1-1.77.41C975.76,826.47,975.59,829.85,977,830.81Z"/><path class="cls-48" d="M1019,854.38c-1.44-.42-2.75.26-4.89,1.39-.81.44-2.38,1.34-6.29,4.9-4.51,4.11-5,5.25-7,5.59-.69.11-1.76.16-2.22.92s-.07,1.92.37,2.77c-.63,1.19-1.54,2.9-2.59,5-4.88,9.71-7.32,14.56-8.31,20-.06.31,0,4.77,0,13.67.06,13.85.17,14.2-.18,16.46-.63,4.09-.79,6.36-1.11,10.9a13,13,0,0,0,.18,4.62,8.21,8.21,0,0,1,.6,2.63,17.54,17.54,0,0,1-.57,2.87c-.07.37,0,.3-.35,3.1-.21,2-.23,2.12-.11,2.41.55,1.32,2.27,1.31,2.29,2.07s-1.3.83-2.18,2a4.7,4.7,0,0,0-.68,3.55c1.11-.18,2.78-.43,4.81-.57,5.86-.41,8.25.46,12.16.23,4.07-.24,7-1.51,10.31-3,4.41-1.94,7.29-4.14,12.85-8.38,2.68-2.05,4.85-3.85,6.35-5.15,0-1.16,0-2.77,0-4.7,0-4.06.13-7.56.21-9.39.22-5.57.63-7.05,1.22-13.9.46-5.38.22-4.55.82-13.9.77-12,1.15-12.93.81-17.16-.57-7.25-2.24-11.3-3.06-13.08a21.9,21.9,0,0,0-4.9-7.35c-1.64-1.56-2.15-1.46-3.88-3.27C1020.94,856.63,1020.85,854.9,1019,854.38Z"/><path class="cls-49" d="M1036.65,948.62a21.38,21.38,0,0,1,2.55,10.22c-.06,3.73-1.2,6.48-7.15,17.89-5.18,9.95-5.08,9.32-6.12,11.75-3.24,7.58-2.4,9.39-5.11,17.89-1.69,5.29-4.36,10.69-9.7,21.47-3.11,6.27-5.8,11.37-7.66,14.82l-6.11-3.07L974.86,1037l-8.17-2c.61-4.61,1.19-8.58,1.66-11.72,1.45-9.45,2-11.71,2.88-14.09s1.3-3,2.29-6a68.06,68.06,0,0,0,2.3-9.2c2.38-12.46,0-16,3.16-19.26.9-.91,2.78-2.36,3.22-4.84.24-1.32-.09-2.06.37-3.17.7-1.68,2.5-2.52,3.91-3l1.14-5.84,8-.31a28.93,28.93,0,0,0,7.33.31c1.73-.15,7.38-.79,21-8.93,2.09-1.25,5.09-3.11,8.61-5.54Z"/><path class="cls-50" d="M1010.17,1029l5.81,9.57a70.68,70.68,0,0,0,14.43-2.82,71.6,71.6,0,0,0,16.31-7.31,13.79,13.79,0,0,0-2.81-5.25c-4.08-4.65-9.7-4.08-10.5-7.32-.41-1.68,1.11-1.81,1.87-5.62.54-2.65,0-3.47,0-8.82,0-3.8.3-3.24.19-5.25a31.06,31.06,0,0,0-2.62-10.32,51.8,51.8,0,0,0-3.73-7.64"/><path class="cls-46" d="M997.35,1039.8a93,93,0,0,1-1.36,10.47c-1.13,6-1.81,6.39-3.57,14.46a76.18,76.18,0,0,0-2.06,14.83c-.05,1.63,0,3,0,4a4.31,4.31,0,0,0-1.22.63,5.49,5.49,0,0,0-1.95,4h-3.58l-3.9-2.61a7.1,7.1,0,0,0-4.77-6.29,16.64,16.64,0,0,0,1.3-2.28,19.13,19.13,0,0,0,1.63-7.7,98.91,98.91,0,0,0-.22-10c-.08-1.5-.23-3.89-.54-8.68-.22-3.36-.3-4.56-.43-6.07-.23-2.63-.47-4.79-.65-6.3l-.21-.89Z"/><path class="cls-46" d="M1024.28,1037.71l4.28,3.61,8,5.89,9.71,7.48,4.93,4.3,10.5,13.06,4.14-2.71a3.09,3.09,0,0,0,1.75-1.43c.7-1.44-.1-3.67-2.23-5.1l2.48-4.14-10.28-11.3-10.65-13.86-3.08-4Z"/><path class="cls-51" d="M1000.85,878.29c.56-1.68,1.12-3.35,1.67-5a15.7,15.7,0,0,1,2.53-.84,16.74,16.74,0,0,1,15.12,4.13,14.29,14.29,0,0,1,4,15L1020.72,913a16.37,16.37,0,0,0-2.2-1.51c-5.75-3.33-12-2.45-14.57-2.07a27.89,27.89,0,0,0-4.12,1V895.12Z"/><path class="cls-46" d="M1020.18,914a73.33,73.33,0,0,1-3.52,11.22c-2.52,6.23-4.09,7.6-5.68,8a6.38,6.38,0,0,1-3.85-.5c-7.68-2.62-11.51-3.92-12.87-4.69-5-2.8-8.57-4.83-10.37-8.2a6.86,6.86,0,0,0-2.68-3,6.71,6.71,0,0,0-4.18-.67l-1.55,1.42-2.34.69-4.5-.6-1.12-2.24V913.4l-2.14,1.68-.92,1.4-.67.48-.9-.66.54-2,2-3.44,5.78-4.64,3.07.6,1.87.67a19.43,19.43,0,0,1,4,.36c3,.57,3.9,1.45,8.49,3.43A34.09,34.09,0,0,0,996.5,914a23.67,23.67,0,0,0,4.46.3l-.18-4.16c.59-.1,1.52-.24,2.65-.36,4-.45,7.24-.82,10.78.12a17.63,17.63,0,0,1,4.94,2.17Z"/><path class="cls-46" d="M969.36,921.15a2.1,2.1,0,0,1-1.4-.5c-.56-.52-.43-1.16-1-1.45a1.1,1.1,0,0,0-1.21.1,1.07,1.07,0,0,0-.3.8l-.7-.05-.24-2.88a1.47,1.47,0,0,0-1.84,0c-.11.08-.24.2-.67,1s-.48,1-.69,1a1.12,1.12,0,0,1-1.09-.46c-.22-.27-.18-.44-.35-1s-.37-1.22-.81-1.5a1.3,1.3,0,0,0-1.38,0,1.09,1.09,0,0,0-.36.45,3,3,0,0,0-.39,1.29l-1.43-.32-4.27-1.36c-.05,0-.6-.19-.84.06s.12,1.06.19,1.17a2.58,2.58,0,0,0,1.62,1.1l2.27,1.07,3,.1a5.27,5.27,0,0,0,1.56,3.7c.59.5.83.37,2.2,1,2.82,1.23,3.49,2.52,5.05,2.33a3.06,3.06,0,0,0,1.43-.58l3.36-1.36,1.82-1,15.09,1v-1.92l-3.94-3.49-1.84-2-4.94-.19-1.52.63-2.41.44-2.51-.12.13,1.23-.18,1.13-.41.46Z"/><polygon class="cls-46" points="961.35 915.16 961.35 914.12 959.63 913.73 957.85 912.89 955.83 911.65 954.84 910.62 954.84 909.38 955.73 908.89 957.31 909.38 959.73 910.57 961.85 911.01 964.86 911.31 965.4 911.36 964.51 912.94 963.82 914.37 963.62 915.75 961.35 915.16"/><path class="cls-52" d="M953.15,913.07A1.31,1.31,0,0,0,952,913a1.18,1.18,0,0,0-.49.57,2.2,2.2,0,0,0,0,1.61,3,3,0,0,0,.35.77l3,1.16,2.1.56.25-1.19.42-.49,1.12,0,.67.36.39.84.21,1.26.42.35h1.05l.28-.31.32-.7.31-.67.49-.32.71-.1.66.21.35.31.25,1.09V920l.15.07h.56l.13-.8.47-.44.89,0,.63.63.21.71.26.61.48.23h1.28l.52-.11.32-.62v-2l-1.28-.28-.89-.85-2.6-.61-1-.21-.41.16-.79,0-.62-.41-.54-.49-1.78-.3Z"/><path class="cls-49" d="M1068.73,1056.65a5.87,5.87,0,0,0-3.59,2.1,3.36,3.36,0,0,0-.9,2.09c0,1.52,1.6,1.84,2,3.44.27,1.25-.39,2.36-1,3.45a9.44,9.44,0,0,1-4,3.59l-.59.33-.83-.7-1.69,1c-.47.15-1,.39-1.08.8s.44.93,2.2,2.37c2.13,1.74,2.3,1.86,2.61,2.29.82,1.14.39,1.44,1.23,2.94,1,1.84,1.9,1.77,2.28,3.18.28,1-.2,1.07,0,2.7a12.89,12.89,0,0,0,1,3.35c.53,1.24.79,1.42.82,2.12a4.32,4.32,0,0,1-.82,2.29,28,28,0,0,0-1.71,3.76l.06,1.48.38,1.65,1.11,1h1.58l1.86-.71,4.47-3.27,4.67-5.59,2-3.64,1.2-3.57.35-4.17v-3.73l.64-2.31,1.59-3.33,1.19-3.41.47-5-.71-4.12-1.59-2-3-.08-2.46.48h-3.1l-3-.48Z"/><path class="cls-53" d="M1083.55,1057.35c-.51,0-.94.48-1.24.94a34.09,34.09,0,0,0-1.15,3.43,58,58,0,0,0-1.45,8.21,26.22,26.22,0,0,1-.83,4.89c-.4,1.24-.68,1.65-1.25,3.33s-.7,2.52-1.14,4.16c-.84,3.08-1.18,2.91-2.49,7a44.45,44.45,0,0,1-1.73,5.27c-.29.63-.9,1.66-2.11,3.72a7.16,7.16,0,0,1-2.35,2.78,2.46,2.46,0,0,1-1.61.5,2.4,2.4,0,0,1-1.55-.87,2.25,2.25,0,0,0,.48,1.1,2.49,2.49,0,0,0,1.95.81,3.31,3.31,0,0,0,2-.81c5.14-4,4.94-3.74,5.28-4.09a37.57,37.57,0,0,0,6-8.29,14.68,14.68,0,0,0,1.63-3.64,25.54,25.54,0,0,0,0-7.24,5,5,0,0,1,.21-2.7,4.69,4.69,0,0,1,1.2-1.63c1.72-1.68,2.06-4.36,2.49-7.8a13.83,13.83,0,0,0,0-5C1085.82,1061.2,1085,1057.38,1083.55,1057.35Z"/><path class="cls-49" d="M973.89,1078.33c.89-.41,2.18.59,2.5.84a8.25,8.25,0,0,1,2.08,3.08,11.07,11.07,0,0,0,1.16,2.16,10.69,10.69,0,0,0,1.58,1.5,22.31,22.31,0,0,0,2.33,1.91c.91.44,2.65.88,3.57.09.67-.58.26-1.23,1-2.75.35-.72.93-1.9,2-2.17a3.28,3.28,0,0,1,2.66,1c1.11,1,1.42,2.41,2,5.16.49,2.38.34,2.91,1,4.16s1,1.29,1.58,2.33c.43.81,1.46,2.83.75,4.33-.57,1.23-2.06,1.59-4.24,2.08a30.06,30.06,0,0,1-6.4.5c-2.73.06-4.41.1-6.82,0-2.25-.09-2.49-.18-3.91-.16a36.33,36.33,0,0,0-5.57.58,36.75,36.75,0,0,1-11,.08,34.08,34.08,0,0,1-6-1.58,22.65,22.65,0,0,1-4.9-2.33,4.51,4.51,0,0,1-2-1.91,3.8,3.8,0,0,1,.25-3.5,4,4,0,0,1,2.58-1.75l8.23-.5c.65-.22,1.6-.56,2.75-1a26.21,26.21,0,0,0,2.66-1.08,13.19,13.19,0,0,0,3.16-2.49c1.54-1.54,1.27-1.76,2.49-2.83,1.7-1.5,2.29-1.13,3.08-2.25C973.6,1080.25,973,1078.77,973.89,1078.33Z"/><polygon class="cls-49" points="1088.29 471.24 1090.59 474.95 1093.95 476.9 1099.96 475.48 1099.96 484.5 1067.25 484.5 1066.01 482.73 1066.9 480.96 1075.38 477.87 1088.29 471.24"/><polygon class="cls-49" points="1141.77 470.14 1143.93 470.14 1147.85 472.1 1149.82 472.1 1155.12 467.39 1159.43 475.63 1139.02 485.84 1126.07 485.84 1125.09 483.48 1127.24 480.93 1135.1 477.87 1138.24 475.24 1141.77 470.14"/><polygon class="cls-54" points="1143.93 465.37 1143.23 470.14 1143.93 470.14 1147.85 472.1 1149.82 472.1 1155.12 467.39 1154.27 461.53 1143.93 465.37"/><polygon class="cls-54" points="1100.45 468.24 1099.96 475.48 1093.95 476.9 1092.03 475.79 1090.59 474.95 1088.29 471.24 1089.44 468.24 1100.45 468.24"/><path class="cls-55" d="M924.39,281.53c2.77,9.2-.58,18.33-7.48,20.41s-14.73-3.7-17.49-12.89.57-18.34,7.47-20.41S921.62,272.33,924.39,281.53Z"/><ellipse class="cls-56" cx="970.28" cy="250.86" rx="13.04" ry="17.39" transform="translate(-19.38 92.89) rotate(-5.43)"/><rect class="cls-57" x="902.62" y="324.73" width="51.87" height="34.92" rx="5.26" ry="5.26"/><rect class="cls-49" x="851.06" y="362.73" width="204.09" height="110.63"/><rect class="cls-58" x="838.92" y="359.65" width="222.08" height="3.08"/><path class="cls-4" d="M918.46,424.38a4.08,4.08,0,0,1-3.07-1,4.34,4.34,0,0,1-1-3.14v-10.1h-2c-.23,0-.37,0-.43-.12a.85.85,0,0,1-.1-.5v-.81a.85.85,0,0,1,.1-.5c.06-.08.2-.12.43-.12h2v-3.95a.69.69,0,0,1,.14-.5.81.81,0,0,1,.51-.12h1.15a.84.84,0,0,1,.52.12.69.69,0,0,1,.14.5v3.95h3.2c.23,0,.37,0,.43.12a.85.85,0,0,1,.1.5v.81a.85.85,0,0,1-.1.5c-.06.08-.2.12-.43.12h-3.2v9.7a3,3,0,0,0,.42,1.82,1.64,1.64,0,0,0,1.38.54h1.46c.23,0,.37,0,.44.13a.89.89,0,0,1,.09.49v.94a.91.91,0,0,1-.09.49c-.07.09-.21.13-.44.13Z"/><path class="cls-4" d="M927.29,409.74a5.32,5.32,0,0,1,2-1.54,6.58,6.58,0,0,1,2.7-.55,5.33,5.33,0,0,1,4,1.4,5.61,5.61,0,0,1,1.37,4.07v10.64a.67.67,0,0,1-.14.49.74.74,0,0,1-.51.13h-1.15a.78.78,0,0,1-.52-.13.67.67,0,0,1-.14-.49V413.65a4.2,4.2,0,0,0-.84-2.9,3.51,3.51,0,0,0-2.7-.92,3.85,3.85,0,0,0-3,1.2,4.52,4.52,0,0,0-1.1,3.18v9.55a.67.67,0,0,1-.14.49.78.78,0,0,1-.52.13h-1.15a.74.74,0,0,1-.51-.13.67.67,0,0,1-.14-.49V402.87a.68.68,0,0,1,.14-.5.81.81,0,0,1,.51-.12h1.15a.84.84,0,0,1,.52.12.68.68,0,0,1,.14.5Z"/><path class="cls-4" d="M944.78,411.07a5.1,5.1,0,0,1,1.79-2.16,4.62,4.62,0,0,1,2.69-.82h.4a.58.58,0,0,1,.44.12,1,1,0,0,1,.09.5v1.12a1,1,0,0,1-.09.5.58.58,0,0,1-.44.12h-.81a3.38,3.38,0,0,0-1.66.41,3.76,3.76,0,0,0-1.26,1.13,5.64,5.64,0,0,0-.81,1.71,8,8,0,0,0-.28,2.13v7.93a.62.62,0,0,1-.14.49.73.73,0,0,1-.51.13H943a.73.73,0,0,1-.51-.13.67.67,0,0,1-.14-.49V408.71a.69.69,0,0,1,.14-.5.79.79,0,0,1,.51-.12h1.09a.79.79,0,0,1,.51.12.65.65,0,0,1,.14.5Z"/><path class="cls-4" d="M955.1,405.2a1.7,1.7,0,0,1-1.14-.37,1.32,1.32,0,0,1-.42-1v-.5a1.26,1.26,0,0,1,.42-1,1.65,1.65,0,0,1,1.14-.38,1.74,1.74,0,0,1,1.18.38,1.24,1.24,0,0,1,.43,1v.5a1.29,1.29,0,0,1-.43,1A1.79,1.79,0,0,1,955.1,405.2Zm1.21,18.56a.67.67,0,0,1-.14.49.73.73,0,0,1-.51.13h-1.15a.78.78,0,0,1-.52-.13.67.67,0,0,1-.13-.49V408.71a.7.7,0,0,1,.13-.5.84.84,0,0,1,.52-.12h1.15a.79.79,0,0,1,.51.12.69.69,0,0,1,.14.5Z"/><path class="cls-4" d="M961.53,408.09a.62.62,0,0,1,.45.14,1.45,1.45,0,0,1,.27.51l4.32,13.18,4.19-13.18a1.16,1.16,0,0,1,.27-.53.67.67,0,0,1,.45-.12h1.3c.33,0,.5.12.5.37a2.34,2.34,0,0,1-.09.38l-5,14.85a1.56,1.56,0,0,1-.31.55.75.75,0,0,1-.5.14h-1.8a.76.76,0,0,1-.5-.14,1.73,1.73,0,0,1-.31-.55l-5-14.85a2.34,2.34,0,0,1-.09-.38c0-.25.16-.37.49-.37Z"/><path class="cls-4" d="M978.5,417v.59q0,5.13,4.16,5.13a3.44,3.44,0,0,0,3.52-2,1.14,1.14,0,0,1,.26-.45.86.86,0,0,1,.45-.08H988a1.27,1.27,0,0,1,.56.08q.12.07.12.42a2.65,2.65,0,0,1-.34,1.12,5.75,5.75,0,0,1-.78,1.18,5.1,5.1,0,0,1-2.09,1.36,8,8,0,0,1-2.91.5,6.26,6.26,0,0,1-4.83-1.83,7.4,7.4,0,0,1-1.7-5.22v-2.34a8.75,8.75,0,0,1,1.68-5.76,6,6,0,0,1,4.88-2q6.4,0,6.4,7.12v1.59c0,.25,0,.41-.14.49a.73.73,0,0,1-.51.13Zm4.1-7.4q-4.07,0-4.1,5.38h8a7,7,0,0,0-.95-4.07A3.42,3.42,0,0,0,982.6,409.58Z"/><path class="cls-5" d="M935.18,425.41c0-.07,0-.16,0-.28s-.09-.56-.13-.92c0-.11-.06-.46-.1-.91,0-.27,0-.36-.06-.93,0-.2,0-.37,0-.47l-.19,3.06Z"/><path class="cls-5" d="M956.33,422.6c0,.31,0,.62-.07.95s-.08.64-.12.94l.26-.38Z"/><path class="cls-4" d="M956.29,420.71v2.14a6.24,6.24,0,0,1,0,.8c-.08.64-.12,1-.14,1.09a8.37,8.37,0,0,1-.45,1.44,6.18,6.18,0,0,1-.57,1.12,5.71,5.71,0,0,1-1.08,1.26,5.54,5.54,0,0,1-1.48.92l-.67.23-.62.16-.8.17c-.38.07-.66.1-1,.13s-.68.05-1.13.06h-5.88a10.53,10.53,0,0,1-1.34-.1,10.75,10.75,0,0,1-1.21-.21,7.4,7.4,0,0,1-1.44-.5,5.56,5.56,0,0,1-.8-.46,6.09,6.09,0,0,1-1.27-1.17,6.42,6.42,0,0,1-.6-1,7.78,7.78,0,0,1-.46-1.06,7.25,7.25,0,0,1-.21-.74,8.3,8.3,0,0,1-.13-.91c0-.34-.06-.6-.06-.69,0-.26,0-.48,0-.68V421h2.45v1.9a6.14,6.14,0,0,0,0,.76,5.2,5.2,0,0,0,.17.8,4.4,4.4,0,0,0,.5,1.16,4.63,4.63,0,0,0,.86.91,4.56,4.56,0,0,0,.75.57l.35.18.36.14a7.81,7.81,0,0,0,.84.17l.59.09.54,0h6.3a10.66,10.66,0,0,0,1.39-.13,6.24,6.24,0,0,0,1-.21,4.79,4.79,0,0,0,.86-.32,2.83,2.83,0,0,0,.71-.44,2.65,2.65,0,0,0,.59-.84,5.52,5.52,0,0,0,.48-1.06,5.7,5.7,0,0,0,.21-1,4.29,4.29,0,0,0,0-.61v-1.9Z"/><path class="cls-48" d="M901.83,307.89a20.1,20.1,0,0,0,8.85,2.75c2.45.15,5.85.37,8.85-1.83a10.27,10.27,0,0,0,3.05-3.67l16.79,2.8,9.86,16.79H907.88l-.91.08-1.69.61-1.49,1.27-.8,1.39-.37,1.91v18.9l-6.9-.35v-4.22l-15.11-1.14,4.3-24a6.7,6.7,0,0,1,4-6.33Z"/><ellipse class="cls-54" cx="1102.54" cy="241.84" rx="13.04" ry="17.39"/><path class="cls-49" d="M1095.15,269.08a15.51,15.51,0,0,0,9.59,2.66c7-.65,10-7.08,13.86-9.06,5.9-3,18.21,2.06,45.31,32.52l-18.12,34.65-6.78-4.08,9.88-24.1-13.68-7.9-1,33.42.26,7.63-8.68,6.57.54,1.43.86,1,1.25,1,2.6-.68,4.52-2.4,1.35-.87.58,2.89-1.54,2.89h-46.46l-1.63-27-1.91,1.28-19.54,18.27-8.92-5.1,11.47-14.23,9.56-10.41,3.19-29.61,2.26-5Z"/><path class="cls-5" d="M1089.44,468.24v0Z"/><polygon class="cls-48" points="1100.45 468.24 1102.68 452.42 1105.86 432.98 1105.86 426.48 1105.86 413.06 1105.86 406.21 1108.46 397.68 1111.53 384.13 1114.19 371.55 1121.59 401.93 1127.12 419.89 1133.84 439.66 1143.93 465.37 1154.27 461.53 1150.18 437.02 1146.34 419.89 1142.49 411.07 1141.29 407.65 1141.05 391.85 1137.62 348.64 1136.2 348.64 1135.16 347.69 1135.9 346.57 1089.44 346.57 1089.44 468.24 1100.45 468.24"/><polygon class="cls-55" points="880.61 343.18 879.74 359.29 904.17 359.29 902.62 355.28 902.62 349.34 895.72 348.96 895.72 344.41 880.61 343.18"/><path class="cls-59" d="M923.48,272.57c-.65,2.4-5.63,3.36-8.74,3.37-3.94,0-6.13-1.5-7.4-.23-.75.75-.11,1.38-.67,4.71-.5,2.91-1.09,3-1.35,5.6-.2,2,0,3.18-.45,3.36-.76.28-1.71-2.4-3.58-2.46a2.58,2.58,0,0,0-2.47,1.57c-.5,1.82,3.15,3,4,6.94.19.88.46,2.8-.23,3.14-1.22.61-5.1-4-7.39-8.52-1.59-3.09-3.85-7.52-2.47-11.65.12-.36.76-1.81,2-4.71,1.11-2.55,1.67-3.83,1.79-4,2.3-3.84,8-4.55,11-4.93s6.87-.86,10.76,1.34C920.63,267.38,924.09,270.3,923.48,272.57Z"/><path class="cls-60" d="M1117.54,250.26a42.23,42.23,0,0,0,2.8-8.06c.76-3.22,1.19-5.11.73-7.62-.22-1.23-1-5.44-4.38-7.08-1.06-.52-2,.1-2.83-.65s-.49-2-1-3.21c-.88-2-3.59-2.71-5.15-3.09-1.27-.31-3.49-.66-9.78.9-6,1.48-11.05,2.8-11.72,5.86a5,5,0,0,0,0,1.75c.35,2.36,1.87,2.67,2.81,5.26.64,1.77.42,3,1,3.15s1.22-.62,1.57-1.23c1-1.7-.22-2.94.35-4.2.7-1.54,4.22-1.51,11.21-1.4,2.71,0,4,.15,4.56,1.05.75,1.25-.82,2.66-.18,4.9.48,1.65,1.47,1.42,2.28,3.16,1.38,3-.66,5.52.7,6.65a2.45,2.45,0,0,0,3-.17c1.08-1.11-.39-3.14.7-4.38a2.72,2.72,0,0,1,3.33-.35c1.19.94.94,3.87-1,7.18"/><path class="cls-61" d="M958.7,241.88c.69-.47,2.07-.34,10.83,5.52,5.32,3.56,8.11,5.73,9.28,4.86s-.61-4.5.88-5.52c.93-.64,2.83-.07,3.76,1.1,2.09,2.65-1.19,7.78-.44,8.18s4-2.78,5.08-7.29c1.28-5.46-1.53-10.14-2.21-11.27-.57-1-4.74-7.67-11.49-8.18-2.94-.22-6.38,1.4-13.26,4.64-1,.48-2.08,1.06-4.2,2.21-3,1.62-3.39,2-3.76,2.43-1.73,2.24-.8,5.49-.66,6,1,3.75,4.73,6.65,6,6C960.07,249.61,956.75,243.21,958.7,241.88Z"/><path class="cls-61" d="M975.49,225.3a13.26,13.26,0,0,1,6-.22,9.81,9.81,0,0,1,6,3.1,7.14,7.14,0,0,1,1.77,4,7,7,0,0,1-1.11,4.42l-2.21.89-3.52-4.34-8-3.84Z"/><path class="cls-2" d="M962,272a14.62,14.62,0,0,0,8.55,3.67c6.15.28,8.65-4.5,17.1-6.52,4.17-1,8.39-2,11.81,0,6.58,3.85,6.11,16.45,5.7,27.29-.36,9.65-1.78,9.31-1.22,15.88.38,4.37,1.17,6.38,4.08,20.36,1.63,7.85,2.08,10.6.4,12.62-2.41,2.92-7.55,2.31-10.18,2-7.72-.79-18.9-1.15-35,.41l3.25-14.48,6.79-22.17a33,33,0,0,1-6.79-6A33.52,33.52,0,0,1,959.58,292l-10.35,6.63,6.43,2.41a5,5,0,0,0-2.55,1.32,6,6,0,0,0-.94,6.44l-14.7.22-7.4-.57-1.51-5.6,4.16-6.26Z"/><line class="cls-62" x1="991.83" y1="288.52" x2="991.6" y2="342.19"/><rect class="cls-5" x="991.72" y="337.2" width="7.57" height="5.11"/><polygon class="cls-5" points="963.56 348.14 962.84 359.64 1008.33 359.64 1008.76 345.7 1005.88 347.51 1001.54 348.14 995.73 348.14 988.37 346.93 979.72 346.93 970.6 347.56 963.56 348.14"/><path class="cls-63" d="M991.6,342.19a14.43,14.43,0,0,1-4.3,12.44,16.52,16.52,0,0,1-2.32,1.85c-.89.57-2.15.93-2.1,2.23a12.41,12.41,0,0,1,2.11,0,3.64,3.64,0,0,0,2.49-1c.54-.43,1.07-.88,1.6-1.32a16,16,0,0,1,2.1-1.65c1.3,1.43,2.59,2.86,3.88,4.31a.8.8,0,0,0,.26.22.83.83,0,0,0,.42.07c3.29,0,6.59,0,9.88-.06h2.29a2.38,2.38,0,0,0-.56-1.39c-1.07-1.22-3.22-1.15-4.68-1.5a5.47,5.47,0,0,1-3-2.09,5.67,5.67,0,0,1-1.68-3.58c0-1.11,0-2.22,0-3.33l-.09-5.07Z"/><circle class="cls-52" cx="978.39" cy="321.22" r="1.09"/><circle class="cls-52" cx="977.3" cy="333.62" r="1.09"/><circle class="cls-52" cx="977.3" cy="307.27" r="1.09"/><circle class="cls-52" cx="974.02" cy="293.62" r="1.09"/><polygon class="cls-5" points="1135.21 293.77 1136.59 333.88 1128.25 341.04 1127.14 343.79 1117.1 342.25 1135.21 293.77"/><path class="cls-54" d="M1062.88,337.13a16.26,16.26,0,0,1-1.44,2.34,20.93,20.93,0,0,1-8,6.24c-2.1,1.06-2.06.73-4.13,1.84-1.37.74-2.75,1.61-5.07,2.68-1.4.64-2.13.89-3,.72a7,7,0,0,1-2.29-1.34,6.68,6.68,0,0,1-2.17-2.11,1.79,1.79,0,0,1,.56-2.73c1.14-.86,4.17-3.35,8.3-6.74.43-.23.51-.4.5-.51,0-.43-1.58-.3-3.07-1.33-.37-.26-1.08-.76-1-1.23s.88-.78,2-.83H1055l2.4-.11Z"/><path class="cls-56" d="M955.66,301l7.33,6.61a2.12,2.12,0,0,1,.55.54,2.26,2.26,0,0,1,.37,1.46v11.12a.53.53,0,0,1,0,.28c-.1.3-.55.43-.87.4a1.48,1.48,0,0,1-1-.73,2.24,2.24,0,0,1-.33-1.1l-.68-7.24a.74.74,0,0,0,0-.5,1,1,0,0,0-1.37-.15,1,1,0,0,0-.3.8l-.1,7.82c.06.16,0,.24,0,.28-.12.22-.68.2-1.08,0s-.41-.56-1-.86c-.37-.21-.52-.12-.82-.36s-.23-.37-.48-.65c-.4-.46-.67-.28-1.17-.72-.31-.27-.26-.37-.77-1-.23-.28-.45-.37-.6-.67a1.45,1.45,0,0,1-.16-.63V310.4a1.6,1.6,0,0,0,0-.31,1.85,1.85,0,0,0-.7-1.17l-.33-.12-.1-.27-.15-.47-.06-.24-.06-.27-.06-.36,0-.35,0-.37v-.76l0-.22.06-.4.08-.41.11-.38.15-.39.15-.33.13-.25.17-.27.16-.23.21-.25.2-.22.24-.23.32-.25.27-.17.3-.17.3-.15.39-.15.26-.09Z"/><polygon class="cls-49" points="1136.59 333.88 1137.62 345.11 1137.62 346.57 1126.4 346.57 1125.92 340.65 1136.59 333.88"/><polygon class="cls-48" points="1137.62 348.64 1137.62 346.57 1135.9 346.57 1135.23 346.62 1134.61 348.04 1135.68 349.04 1137.62 348.64"/><path class="cls-64" d="M1138.57,340.34c.3.37,0,1.25,0,1.76a6.66,6.66,0,0,1-1,3c-.52.91-.76,1.22-.76,1.76a1,1,0,0,0,.24.73,1,1,0,0,0,.9.17,1.5,1.5,0,0,0,.7-.34,11.36,11.36,0,0,0,2.77-4.4c.43-1.33.28-1.37.73-2.77a31.3,31.3,0,0,1,1.38-3.33c.75-1.57,1.12-2.35,1.18-2.49a10.13,10.13,0,0,0,.53-4.94.74.74,0,0,0-.08-.29.83.83,0,0,0-.26-.23q-2.1-1.29-4.17-2.61a2.09,2.09,0,0,0-.73-.33c-1-.15-2.48.64-3.32,1a.5.5,0,0,0-.23.17.54.54,0,0,0,0,.31c.06,2.1.14,4.21.14,6.31a2.74,2.74,0,0,1-.08.95c-.21.65-1.08,1-1.59,1.36-.8.56-1.58,1.15-2.37,1.72l-2.33,1.67a8.92,8.92,0,0,0-2,1.46,1.15,1.15,0,0,0-.16,1,1,1,0,0,0,1.43.4l7.08-5.06-5.56,4.51a2.89,2.89,0,0,0-.83,1.05c-.19.62.45.75.9.79.66.05,1.53-.11,3.33-1.43,1.24-.91,2.16-1.81,3.46-2.11C1138.24,340.14,1138.45,340.2,1138.57,340.34Z"/><polygon class="cls-65" points="669.68 686.33 684.04 705.37 680.66 686.33 669.68 686.33"/><path class="cls-49" d="M472,609.38c-1.36.84-3.3,2.09-5.57,3.71-5.13,3.68-8.9,6.38-11.75,10.31a28.4,28.4,0,0,0-4.75,12.17c-.7,3.63-1.09,8.34,5.37,32.51,3,11.32,5.25,18.29,9.65,19a4.7,4.7,0,0,0,1.51,0H675.7A19.26,19.26,0,0,0,690,681.48c4.23-4.39,3.6-8.64,5.64-22.1.83-5.51,2.75-16.82,2.74-25.27,0-2.14-.13-6.26-2.89-9.53a10.41,10.41,0,0,0-1.3-1.3l-27.58-20.22c-.51-2.84-1.28-6.88-2.36-11.7-4.06-18.06-6.21-27.2-12.31-32.54-2-1.72-5.1-3.87-17.59-6.16-9.68-1.77-24-2.2-42.23-2.2h-80a15.19,15.19,0,0,0-6.11,0c-8.34,1.78-11.8,10.38-12.09,11.13-1.21,3.16-.21,3.25-1,10-1.31,11.45-4.45,13.65-4.14,22.71.12,3.3.56,3.86,0,5.48-1.86,5.4-9.7,7.6-16.16,8.61"/><path class="cls-66" d="M661.87,602.23c-8.21-.4-14.39,1-15.25,4.07a3.11,3.11,0,0,0,0,1.58v15.76H538.38"/><line class="cls-66" x1="671.46" y1="644.39" x2="478.85" y2="644.39"/><path class="cls-67" d="M454.64,623.4c-3.31,2.69-3.72,6.89-3.8,8l-.95,4.19.24,10.15,5.13,22.36,4.41,13.69,5.24,5.31H593.3l57.33.07,25.07-.07,6.74-1,7.51-4.62,2.43-3.53L694.67,666,697.5,646l.83-11.84-1.39-7.2a9.19,9.19,0,0,0-2.8-3.63c-4.79-3.64-13.64-2-17.73,3.47a13.17,13.17,0,0,0-2.47,7.68l-.82,28.8H475.94l.65-18.84a22.21,22.21,0,0,0-.65-10.52c-.76-2.43-2.36-7.51-7.34-10.37C465.36,621.65,459.07,619.8,454.64,623.4Z"/><polygon class="cls-65" points="484.69 687.07 464.9 706.86 468.8 687.07 484.69 687.07"/><ellipse class="cls-68" cx="503.62" cy="547.5" rx="11.56" ry="14.57"/><path class="cls-2" d="M492.62,570.77c2.49,1,2.46,1.69,4.87,3,1.13.6,6.58,3.5,12.7,1.89a16.13,16.13,0,0,0,8.38-5.68,11.79,11.79,0,0,1,8.38,0,11.54,11.54,0,0,1,5.14,4.06l9.19,22.7-10,3.25-6.22-9.19-2.16,3.78-.54,3,4,3.78,13.52,14a89.94,89.94,0,0,0-14.87,0A74.62,74.62,0,0,0,502.89,620c-8.36,3.29-14,7.56-14.86,6.49s5.45-5.24,5.4-11.89c0-2.12-.65-2-2.16-7.57-.73-2.7-1.22-5.44-2.16-10.82-.53-3-1.19-6.91-1.9-11.62l-11.35,16-14.87,4,20-31.33a7,7,0,0,1,2.43-2.71C486.75,568.41,491,570.13,492.62,570.77Z"/><path class="cls-48" d="M488,626.46l-1.83,7.77a5.81,5.81,0,0,0,0,3.75c1.81,5,10.47,3.39,18.22,9.82A26.82,26.82,0,0,1,509,653a50.07,50.07,0,0,1,8.66,19.92c1.62,7.23,6.38,17.86,20.5,32.34l11-4-11.62-24.83-2.31-4.33,21.07,27.52,7.22-1.83,4-1.5v-2.32l-5.81-12.53-17.4-29.7-6.49-9.51c.77-.89,1.93-2.19,3.39-3.71,5.23-5.45,6.55-5.62,7.28-7.89,1.43-4.44-1.89-9.14-2.32-9.75a13.67,13.67,0,0,0-4-3.71l-2.36-1.84-6.65-.3-10.66.3-6.29,1-8,1.82-7.18,2.57-7.57,3.67Z"/><path class="cls-69" d="M541.75,704a45.24,45.24,0,0,0,3.68,6.7c2.29,3.44,4,6,7.21,7.37.38.17,4.46,1.91,5.89.33.3-.33.94-1.31-.49-5.24A31,31,0,0,0,551.82,703l-2.58-1.74Z"/><path class="cls-68" d="M461,604.54l-3.24,4.52a33.22,33.22,0,0,0,5.93,1.76,37.34,37.34,0,0,0,13.85-.12,53.61,53.61,0,0,0,9.31-2.79c3.78-1.37,7.64-2.54,11.41-4,1.94-.73,4.74-1.82,6.4-.58a10.38,10.38,0,0,1,1.61,1.8c1.14,1.47,1.13,2,1.65,2.53.33.37,1.47,1.45,7.09.89,3.08-.31,3.69-.73,6-1s4.21-.06,8.23.38c7.21.79,9.56,1.75,13.56.64a18,18,0,0,0,2.15-.76l-3.62-11.11-10,3.25a2.2,2.2,0,0,1,.06,1.9c-1,2-6.34,1.55-10.13.38-3.22-1-3.61-2-6.08-2-2.2,0-3,.77-5.07.38s-2.54-1.28-4.18-2c-1.48-.68-3-.83-8.11-.13-6,.84-8.12,1.63-12.66,2.28a64.33,64.33,0,0,1-7.73.64l-1.52-.86Z"/><path class="cls-70" d="M501.18,532.67c.86.32.55,1.85,1.36,4.75a17.68,17.68,0,0,0,3.26,6.52c2.82,3.21,5.13,1.75,7.73,4.75a11.44,11.44,0,0,1,2.45,7.87c-.28,3.38-2.05,3.63-2.72,7.46-.22,1.28-1,5.78,1.63,8.55,2,2.06,4.81,2.12,7.74,2.18s6.24.12,8.28-2c2.68-2.86,1.56-7.72,1.08-9.77-1-4.24-2.62-4.33-4.34-9.1-1.86-5.16-.31-6.07-2-11.13-.85-2.49-2.36-6.9-6.51-9.9s-9.12-3.17-12.62-3.26c-2.3-.06-3.4.79-5.84.41-3.27-.51-4.1-2-6.24-1.63-2.68.43-4.3,3.2-4.89,4.2-1.5,2.58-1.55,4.93-1.63,8.55-.31,13.78-.44,13.23-.27,14.39.84,5.62,1.78,3.77,3.94,12.76.64,2.68,1,4.88,2.85,5.84a5.19,5.19,0,0,0,5.56-.55c2.67-2.27,1.13-6.8,1-7.33-.92-2.72-2.52-3.17-4.61-5.7a19.12,19.12,0,0,1-4.21-15.06c.6-3.2,2.1-5.39,3.8-7.87C496.73,536.33,499.64,532.09,501.18,532.67Z"/><path class="cls-69" d="M558.94,698.92a22.13,22.13,0,0,0,.74,6.33c1.27,4.72,4.52,10.39,6.88,10,1.35-.23,2-2.4,2.49-4a16.1,16.1,0,0,0-1-11.12l-.43-3.92Z"/><polygon class="cls-71" points="357.54 686.98 351.77 725.43 363.02 727.02 365.06 718.48 364.31 715.36 362.16 686.95 357.54 686.98"/><polygon class="cls-72" points="363.32 727.46 363.32 750.14 358.36 750.14 349.13 727.46 363.32 727.46"/><polygon class="cls-72" points="266.11 727.46 257.59 750.14 250.38 750.14 250.38 727.46 266.11 727.46"/><path class="cls-2" d="M292.64,635.23l-.12-.75a43.67,43.67,0,0,0-3.73-11.62,43.19,43.19,0,0,0-11.58-14.31,40.14,40.14,0,0,0-8.06-5h-1l-3,8.67,27.5,28.52Z"/><path class="cls-73" d="M308.55,679.73l6.73,1.14h22.9l26.56-23.66a18,18,0,0,0,3.69,2.61,20.27,20.27,0,0,0,5.43,1.87c2.29.51,2.47.26,4.7.8,2.42.58,3.63.88,4.52,1.59,2.91,2.35,2,6.78,3.8,7.18,1.2.27,2.66-1.55,3.25-3a7.09,7.09,0,0,0,.36-3.59,21.19,21.19,0,0,0-1.8-6.38c-.64-1.65-1.21-4.49-2.36-10.17-1.06-5.27-.89-5.62-1.62-7.38s-2.06-4.93-5.07-6.58a9.71,9.71,0,0,0-6.51-.8c-7.33,1.14-11.61,5-17.54,8.18a52.51,52.51,0,0,1-14.29,5.18l-7.42.34-1.3,3.34L330,654.5l-6.42,8.41-7,8.82-5.37,5.84Z"/><path class="cls-73" d="M360.68,652.38l-29.84,25,21.67,2.45H366a85.22,85.22,0,0,0,0,9c.38,7.08,1.46,10.14,3.52,20.24,1.9,9.33,3.08,17,4.25,24.65.64,4.2,1.14,7.71,1.48,10.22l22.32-7.77-2.12-6.78a13.57,13.57,0,0,0,.19-5.58c-.61-3.37-2.24-4.4-3.27-7.38-1.14-3.32,0-4.5,0-9.57,0-2.55-.32-2.72-2.5-13-1.32-6.21-2-9.32-2.5-12.76a113.81,113.81,0,0,1-1.16-12l-.62-1.93-.77-.53-.62-1.52-1.05-3.24-.75-1.23-1.08-1.06-1.39-.73-2.92-.78-.77-.18-2-.36-2.25-.28-1.94-.39-1.62-.4-1.65-.54-2-.85-2.46-1.46Z"/><path class="cls-74" d="M377.67,743.91l-.53,9.3h13.5v-1.57l6.9,1.57h22.52a2.77,2.77,0,0,0,.43-1c.3-1.5-.7-3.28-2.45-4.54l-8.37-1.1-12.13-10Z"/><path class="cls-74" d="M389.06,659.25l.93,2.67.5,2.76.06,1.67-.18,1.21-.5,1.26-.81,1.22-.72.72-.85.48-.61,0,.55,1.84.27,4.38h11.84a12,12,0,0,0,2.1,0c5.24-.49,11.87-4.79,11.88-10.25,0-.68-.1-3.57-3.37-6.7-1.1-.28-2.25-.52-3.46-.71-5.12-.83-9.81,1-13.56,0A25.11,25.11,0,0,0,389.06,659.25Z"/><ellipse class="cls-75" cx="290.17" cy="560.46" rx="13.24" ry="16.52" transform="translate(-92.44 58.54) rotate(-9.95)"/><path class="cls-76" d="M302.34,600.37a81.08,81.08,0,0,0,.5,10.94c.34,3,.71,3.5,1.24,7.65a48.22,48.22,0,0,0,1,6.28,34.74,34.74,0,0,0,1.16,3.84"/><path class="cls-76" d="M276.66,606.47q3.42,7.63,6.77,15.89a107.94,107.94,0,0,0,4,10.14,63.32,63.32,0,0,0,4.06,7.15"/><path class="cls-48" d="M278,576.07c1.25-1.21,3.22-.8,5.49-.33,3.5.72,3.8,2.08,8.55,3.7a48.58,48.58,0,0,0,4.89,1.35c3.66.84,4,.56,4.88,1,2.58,1.31,2.6,5.2,4,12.45,1.82,9.58,2.72,14.37,6.11,17.85,2.62,2.7,4.22,2.13,5.8,5,2,3.68.14,5.86,2.14,10.44a19.58,19.58,0,0,0,5.19,6.73c2.33,2,3.64,2.19,5.19,4.38a14.25,14.25,0,0,1,2.13,5.38c.92,5.67-3.06,11-5.19,13.81-13.24,17.33-19.86,26-24.42,24.91-2-.47-3.78-2-11-19.52-10.58-25.75-7.24-23.67-14.05-38.72-2.61-5.8-5.42-11.21-5.49-18.86A36.38,36.38,0,0,1,274,592.57c1.21-3.42,2.15-4.09,2.75-7.41C277.66,580.27,276.37,577.64,278,576.07Z"/><path class="cls-77" d="M306,630.14c-1-.08-1.43.34-5.54,3.58-1.92,1.51-3.71,3.23-5.64,4.74-1.33,1-2.14,1.6-2.38,2.73a5.45,5.45,0,0,0,1.05,3.8,7.87,7.87,0,0,0,2.58,2.63l1.6,0,5.87-5.73,6.35-7a3.57,3.57,0,0,0,0-1.5A4.51,4.51,0,0,0,306,630.14Z"/><path class="cls-75" d="M358.73,641.87a8,8,0,0,1-2.66,0l-4.3.24a.85.85,0,0,0,.16,1.06.59.59,0,0,0,.57,0l6.1.61c0,.05.64.53.55,1s-1,.59-1.29.63a3,3,0,0,1-.74,0h-8.05a1.68,1.68,0,0,0-.79,1.27c0,.69.89,1.1,2.56,2,3.45,2,3.64,2.44,3.63,2.73,0,.58-.86,1.12-1.59,1.27-.9.18-1.45-.26-4.6-2-1.29-.73-2.09-1.17-3.1-1a3.12,3.12,0,0,0-1.24.55l-3.45.72a82.63,82.63,0,0,1-9.65,1.46,67.07,67.07,0,0,1-24.16-1.65,64,64,0,0,1-9-3.13l5.87-5.73,6.35-7c.93.53,2.24,1.26,3.85,2.07,3.94,2,7,3.5,11,4.47,3.24.78,6,1.44,9.58.81,2.13-.38,2.92-.94,6.24-1.5,2.24-.37,2.1-.15,6-.57,3.19-.34,6.45-.12,9.57-.92a7.37,7.37,0,0,1,3,.15,1.05,1.05,0,0,1,.74.45,1.52,1.52,0,0,1-.37,1.59A1.59,1.59,0,0,1,358.73,641.87Z"/><path class="cls-52" d="M293.13,540a4.52,4.52,0,0,1,3.13,4.06,4.43,4.43,0,0,1-2.76,3.85c-1.52.6-2.25-.35-2.94.2-1.95,1.55,2.6,10.09.37,12.17-.53.48-1.24.45-2.39.4-2.54-.11-3.2-1.71-5-1.42a3.48,3.48,0,0,0-2.75,2.43c-.18.86.26,1.26,1.28,4.06A10.46,10.46,0,0,1,283,569c0,1.82-1.4,4-2.94,4.26-2.33.4-4.52-3.68-6.25-6.89a20.26,20.26,0,0,1-2.94-8.72,15.74,15.74,0,0,1,1.29-8.11,13.64,13.64,0,0,1,6.61-6.49c3.29-1.33,3.92.37,8.09-1C290.21,540.93,291.19,539.4,293.13,540Z"/><polygon class="cls-49" points="366.46 645.83 366.46 727.46 250.38 727.46 250.38 611.06 264.4 611.06 299.73 647.69 366.46 645.83"/><text class="cls-30" transform="translate(830.86 631.33)"><tspan class="cls-78">O</tspan><tspan x="12.91" y="0">nce</tspan><tspan class="cls-79" x="43.56" y="0"> </tspan><tspan x="49.05" y="0">you me</tspan><tspan class="cls-80" x="112.24" y="0">e</tspan><tspan x="122.08" y="0">t</tspan><tspan class="cls-41" x="129.36" y="0"> </tspan><tspan x="134.94" y="0">the</tspan><tspan class="cls-41" x="163.07" y="0"> </tspan><tspan x="168.64" y="0">team</tspan><tspan class="cls-33" x="212.41" y="0"> </tspan><tspan x="217.99" y="0">th</tspan><tspan class="cls-81" x="236.02" y="0">e</tspan><tspan class="cls-82" x="245.7" y="0">y</tspan><tspan class="cls-38" x="254.56" y="0"> </tspan><tspan x="260.11" y="0">wil</tspan><tspan class="cls-83" x="284.92" y="0">l</tspan><tspan x="289.63" y="0" xml:space="preserve"> discuss </tspan><tspan x="0" y="24">a</tspan><tspan class="cls-84" x="9.83" y="24">n</tspan><tspan class="cls-82" x="20.35" y="24">y</tspan><tspan x="29.21" y="24" xml:space="preserve"> questions</tspan><tspan class="cls-79" x="118.48" y="24"> </tspan><tspan x="123.97" y="24">you h</tspan><tspan class="cls-32" x="171.27" y="24">a</tspan><tspan x="180.81" y="24">ve. I</tspan><tspan class="cls-85" x="215.63" y="24">f</tspan><tspan x="221.76" y="24" xml:space="preserve"> necessar</tspan><tspan class="cls-82" x="303.67" y="24">y </tspan><tspan x="318.02" y="24">you </tspan><tspan x="0" y="48">wil</tspan><tspan class="cls-83" x="24.81" y="48">l</tspan><tspan x="29.52" y="48" xml:space="preserve"> be </tspan><tspan class="cls-34" x="62.41" y="48">r</tspan><tspan class="cls-78" x="69.22" y="48">e</tspan><tspan class="cls-84" x="79.23" y="48">f</tspan><tspan x="85.82" y="48">er</tspan><tspan class="cls-34" x="103" y="48">r</tspan><tspan x="109.81" y="48">ed</tspan><tspan class="cls-41" x="130.85" y="48"> </tspan><tspan x="136.43" y="48">to </tspan><tspan class="cls-45" x="160.2" y="48">a</tspan><tspan x="169.63" y="48" xml:space="preserve"> specialist.</tspan></text><text class="cls-30" transform="translate(245.86 887.58)"><tspan class="cls-31">W</tspan><tspan x="16.11" y="0">e h</tspan><tspan class="cls-32" x="42.88" y="0">a</tspan><tspan x="52.42" y="0">ve </tspan><tspan class="cls-86" x="77.48" y="0">a</tspan><tspan class="cls-41" x="86.91" y="0"> </tspan><tspan x="92.49" y="0">team </tspan><tspan class="cls-87" x="142.18" y="0">o</tspan><tspan class="cls-85" x="152.59" y="0">f</tspan><tspan x="158.72" y="0"> </tspan><tspan class="cls-88" x="164.65" y="0">e</tspan><tspan x="174.42" y="0">xpe</tspan><tspan class="cls-89" x="204.72" y="0">r</tspan><tspan x="211.29" y="0">ts including hem</tspan><tspan class="cls-41" x="354.09" y="0">a</tspan><tspan x="363.58" y="0">tologists,</tspan><tspan x="0" y="24">ca</tspan><tspan class="cls-36" x="19.63" y="24">r</tspan><tspan x="26.45" y="24">diologists, endocrinologists </tspan><tspan class="cls-90" x="265.51" y="24">e</tspan><tspan x="275.35" y="24">tc,</tspan><tspan class="cls-91" x="297.05" y="24"> </tspan><tspan class="cls-37" x="302.59" y="24">who delive</tspan><tspan class="cls-92" x="394.82" y="24">r</tspan><tspan x="401.51" y="24"> </tspan><tspan x="0" y="48">ca</tspan><tspan class="cls-36" x="19.63" y="48">r</tspan><tspan class="cls-37" x="26.45" y="48">e</tspan><tspan class="cls-41" x="36.54" y="48"> </tspan><tspan x="42.12" y="48">tailo</tspan><tspan class="cls-36" x="79.74" y="48">r</tspan><tspan class="cls-37" x="86.55" y="48">ed</tspan><tspan class="cls-41" x="107.59" y="48"> </tspan><tspan x="113.17" y="48">to</tspan><tspan class="cls-79" x="131.01" y="48"> </tspan><tspan class="cls-42" x="136.5" y="48">you. See</tspan><tspan class="cls-33" x="208.99" y="48"> </tspan><tspan x="214.57" y="48">thrive.ie</tspan><tspan class="cls-43" x="282.78" y="48"> </tspan><tspan class="cls-44" x="288.38" y="48">f</tspan><tspan class="cls-42" x="294.96" y="48">o</tspan><tspan class="cls-92" x="305.53" y="48">r</tspan><tspan x="312.22" y="48"> </tspan><tspan x="0" y="72">mo</tspan><tspan class="cls-34" x="27.12" y="72">r</tspan><tspan x="33.93" y="72">e i</tspan><tspan class="cls-93" x="54.58" y="72">n</tspan><tspan class="cls-84" x="65.21" y="72">f</tspan><tspan x="71.79" y="72">orm</tspan><tspan class="cls-94" x="106.01" y="72">a</tspan><tspan x="115.49" y="72">tion.</tspan></text><text class="cls-30" transform="translate(830.86 1252.15)">Ou<tspan class="cls-45" x="23.75" y="0">r</tspan><tspan x="30.44" y="0" xml:space="preserve"> app helps</tspan><tspan class="cls-82" x="120.29" y="0"> </tspan><tspan x="125.78" y="0">you</tspan><tspan class="cls-33" x="156.4" y="0"> </tspan><tspan x="161.97" y="0">to </tspan><tspan class="cls-95" x="185.74" y="0">k</tspan><tspan x="195.28" y="0">eep</tspan><tspan class="cls-41" x="226.42" y="0"> </tspan><tspan x="232" y="0">t</tspan><tspan class="cls-84" x="239.28" y="0">r</tspan><tspan x="246.12" y="0">ac</tspan><tspan class="cls-38" x="265.76" y="0">k</tspan><tspan x="275.23" y="0"> </tspan><tspan class="cls-96" x="281.15" y="0">o</tspan><tspan class="cls-85" x="291.56" y="0">f</tspan><tspan class="cls-82" x="297.69" y="0"> </tspan><tspan x="303.18" y="0">you</tspan><tspan class="cls-45" x="333.8" y="0">r</tspan><tspan x="340.49" y="0" xml:space="preserve"> hea</tspan><tspan class="cls-41" x="377.1" y="0">l</tspan><tspan class="cls-42" x="382.07" y="0">th,</tspan><tspan x="0" y="24">while also </tspan><tspan class="cls-97" x="92.38" y="24">k</tspan><tspan class="cls-37" x="101.92" y="24">eeping in co</tspan><tspan class="cls-93" x="205.57" y="24">n</tspan><tspan x="216.2" y="24">tact</tspan><tspan class="cls-38" x="250.4" y="24"> </tspan><tspan x="255.94" y="24">with us</tspan><tspan class="cls-41" x="0" y="48">a</tspan><tspan x="9.49" y="48">t a</tspan><tspan class="cls-84" x="32.53" y="48">n</tspan><tspan class="cls-82" x="43.04" y="48">y</tspan><tspan x="51.9" y="48" xml:space="preserve"> stage.</tspan></text><text class="cls-30" transform="translate(342.86 1537.93)">Ou<tspan class="cls-45" x="23.75" y="0">r</tspan><tspan x="30.44" y="0" xml:space="preserve"> app all</tspan><tspan class="cls-36" x="94.49" y="0">o</tspan><tspan class="cls-98" x="104.77" y="0">w</tspan><tspan x="119.46" y="0">s</tspan><tspan class="cls-82" x="128.61" y="0"> </tspan><tspan x="134.1" y="0">you</tspan><tspan class="cls-33" x="164.72" y="0"> </tspan><tspan x="170.3" y="0">to connect</tspan><tspan class="cls-91" x="263.12" y="0"> </tspan><tspan class="cls-37" x="268.66" y="0">with </tspan><tspan x="0" y="22.86">ove</tspan><tspan class="cls-45" x="29.69" y="22.86">r</tspan><tspan x="36.38" y="22.86" xml:space="preserve"> 500 </tspan><tspan class="cls-96" x="79.96" y="22.86">o</tspan><tspan x="90.37" y="22.86">the</tspan><tspan class="cls-45" x="118.5" y="22.86">r</tspan><tspan x="125.19" y="22.86" xml:space="preserve"> childhood cance</tspan><tspan class="cls-45" x="271.59" y="22.86">r</tspan><tspan x="278.28" y="22.86" xml:space="preserve"> survivo</tspan><tspan class="cls-99" x="344.47" y="22.86">r</tspan><tspan class="cls-42" x="351.19" y="22.86">s.</tspan></text><ellipse class="cls-100" cx="431.25" cy="1032.65" rx="18.11" ry="20.81"/><path class="cls-101" d="M410.85,1024.26c.72,1.76,4.57,2.65,7.3,1.39,4.07-1.88,2.4-7.05,6.61-10.43,4.9-3.94,12.58-1.28,13.22-1.05,1.09.4,6.8,2.46,9,8.35a13.83,13.83,0,0,1,.7,7,16.29,16.29,0,0,0,1.36-9.94c-1.52-7.62-8.91-12.33-15.28-13.42a17.38,17.38,0,0,0-11.35,1.65c-1.19.68-1.35,1-9.08,11.36C411.34,1021.85,410.38,1023.12,410.85,1024.26Z"/><path class="cls-102" d="M407.05,1053.46a36.31,36.31,0,0,0,7.34,4.45c3.18,1.45,9.89,4.49,17,2.89,1.8-.41,2-.75,3.4-.79s4.34.26,10.22,5.5c4.64,4.14,7,6.2,8.64,10a28.2,28.2,0,0,1,2.1,12,37.58,37.58,0,0,1-.26,3.93l-3.93,3.41c0,1.5.07,3.78,0,6.55a130.15,130.15,0,0,1-3.15,24.36,187.88,187.88,0,0,0-3.4,28.55v1.36c-.81,0-2.07.07-3.61,0-9.46-.42-11.81-3.86-18.17-4.08-5.93-.2-6.09,2.71-14.07,3.45A35.1,35.1,0,0,1,397,1154l-8.33-6.13-8.45-11,8.22-11.51-2.35-36.64-16-15a30.28,30.28,0,0,1,6.1-9.16,31.81,31.81,0,0,1,17.15-8.92Z"/><path class="cls-100" d="M386.25,1091.59,368,1109.36l-.47,1.9,12.63,25.56,8.45,11,9.51,9.26a3,3,0,0,1,.91,1.62,2.48,2.48,0,0,1-.91,2.59c-.89.43-2.4-.15-3.11-1.68l-4.73-4.86,0,8.86a3.45,3.45,0,0,1-.71,1c-1.89,1.74-5.64.68-7.72-.45a10.73,10.73,0,0,1-4.44-4.83,12.36,12.36,0,0,1-.71-8.43l-25-33.19-.76-2.91v-11.26l4.18-8.74,14.94-21.16,16,15Z"/><path class="cls-103" d="M445,1155.67l16.61,71.17v2.34c0,5.36-.15,9.43-.17,10A88.13,88.13,0,0,1,459,1255c-2.72,11.7-5.06,19.91-8.59,33.88-1.64,6.52-2.65,10.76-3,16.71a69.32,69.32,0,0,0,.62,13.58,12.07,12.07,0,0,1-2,1.88c-6.38,4.63-15.47,1.34-17.33.62a127.94,127.94,0,0,1-1.25-13.27c-.09-2.2-.12-4.3-.1-6.33a173.49,173.49,0,0,1,2.13-23.34c1.23-8.77,2.65-15.48,3.75-20.61,1.45-6.77,2.89-12.49,4.06-16.87l-17.16-36.89H419l-.83,41a142.18,142.18,0,0,0,4.36,43.2L426.4,1299l.35,1.74v1.3l0,3.87.15,2.84.31,4.63.42,4,.54,4.33-3,1.68-13.35,4.81a4.4,4.4,0,0,1-2.15,0,5.36,5.36,0,0,1-3.34-3.46,233.71,233.71,0,0,1-7.87-41.39c-1.31-13.57-1.64-30.07-5.23-53.43-.81-5.29-1.27-7.55-1.7-9.46-1.49-6.55-3.32-11.72-11.78-33.17-2.15-5.45-3.28-8.28-4-12.71a48.44,48.44,0,0,1-.31-14l.19-9.56.41-1.22.77,1-.4,2.53V1155l.23,1.69.52,1.75.69,1.49.57.93,1,1.3.82.78.95.72.74.46,1.58.7,1.06.34,1.12.23.95.09,1.32-.09,1.05-.38.64-.44.71-1v-3.39l0-5.47,2.22,2.27,1.44,1.49,1.07,1.1.62.92.87.66.82.23.8-.13.56-.52.4-1-.05-1.08-.35-.92-.56-.7-1.44-1.4-2.06-2-2.55-2.49-3.46-3.37,3.92,2.89L397,1154l1.15.28,2.13.43,2,.28,1.94.16,2.5,0,1.38,0,2.05-.19,1.51-.23,1.8-.41,1.77-.58,2.09-.89,1.47-.6,1.07-.33,1.34-.24,1.43-.08,1.44.06,1.62.21,1.24.27,1.27.36,1.51.52,1.17.43,1.15.42,1.34.45,1.47.42,1.84.41,2.32.35,2,.16,2,.07Z"/><circle class="cls-104" cx="481.63" cy="1048.06" r="18.11"/><path class="cls-105" d="M478.45,1031a12.72,12.72,0,0,0-6.68,3.85,11,11,0,0,0-2.83,5.46c-.64,3.64,1.11,6.31.2,6.88s-2.95-1.92-3.64-1.41,1,4.4,2.22,6.68a33,33,0,0,0,2.84,4.25l-4.68-1.78a22.56,22.56,0,0,1-4.34-7.15,23.81,23.81,0,0,1-.2-15.5l10.18-8.78a13.76,13.76,0,0,1,3-1.06c8.71-2,16.35,5.14,17,5.8a18.53,18.53,0,0,1,5.62,9.3,18.11,18.11,0,0,1-.52,10l-4.22-7.37-5.79-6.71Z"/><path class="cls-103" d="M474.39,1068a17.5,17.5,0,0,0,3.65,6.28,18.67,18.67,0,0,0,5.87,4.25c2.47,1.25,5.13,2.59,8.7,2.43a14.53,14.53,0,0,0,8.5-3.44,9.5,9.5,0,0,1,6.21,2.52,9.81,9.81,0,0,1,2.86,7.7,29.61,29.61,0,0,1,0,13.2c-.83,3.49-1.76,4.22-3.77,10.13a74.82,74.82,0,0,0-3.08,11.44,46.14,46.14,0,0,0-.66,15.62,43.3,43.3,0,0,0,7.92,19.37l.31,3-9.72.71c-26,1.89-31.57,2.34-35.69.66a22.18,22.18,0,0,0-8.1-1.82,21.77,21.77,0,0,0-3.31.16v1.71a7.65,7.65,0,0,1-1.77-.38,7.54,7.54,0,0,1-3.19-2.2,128.91,128.91,0,0,1,1.51-28c.77-4.62,1.94-9.86,2.82-18.31.62-5.89.82-10.76.9-14l-.24-6.35,1.38-1.2.16-1.58.09-1.85v-1.64l-.06-2.06-.11-1.39-.21-1.59-.16-.87-.38-1.66-.45-1.5-.73-1.84-.59-1.2-.69-1.16-.94-1.31-.85-1,2.89-2.37,1.88-1.24h18.55Z"/><path class="cls-106" d="M454.11,1161.88l-.06,1q-.32,4.8-.48,9.88c-.14,4.56-.16,9-.1,13.18l0,5.73,1.73,7.43,1.66,7.11,2.47,10.6,2.35,10v4.07l-.07,4.42-.14,4.63-.18,2.4-.27,2.18-.28,1.9-.55,3-.89,4.23-.73,3.1.57,9.66,2.54,36.54h3.45l3.55-.59h4.72l2.7,1.18h1.69l-.42-27.42.42-29.26,1.55-17.7,2-26.08,1.44-10.76.26-1.51,1.67-.07.33,22v29.84l-1.62,26.15L482,1293.47l3.61.16,2-.77,2.15-.54,3.3.54,2.15.15,2.6-.46,4.59-45.45,1.05-20.09,1.4-6.82,4.72-18.35,1.33-9v-32.36l-18.55,1.35-9.21.63-6.41.34-4.36.09-3-.15-2.47-.43-3.16-1.14-3.17-.69-3.16-.45-3.31.16Z"/><path class="cls-107" d="M454.11,1161.88v-1.71c-.34,0-.7-.1-1.06-.16a25.13,25.13,0,0,1-3.21-.79l-.7-.22v.3l.7.71.9.7.81.46.78.33.72.21Z"/><ellipse class="cls-108" cx="544.37" cy="1025.94" rx="20.05" ry="15.22" transform="translate(-571.75 1347.15) rotate(-78.11)"/><path class="cls-109" d="M529.81,1018.5a7.26,7.26,0,0,0,1.9,3.6l4.43-7.41a13.63,13.63,0,0,1,2.22-5.06c.78-1.09,1.45-2,2.53-2.22,1.6-.31,3.1,1.11,3.65,1.58,1.86,1.63,5.36,3.3,12.51,3.49l1,17.57,2.21-4v-10.3l-1.11-4.75-3.16-3.68a13.75,13.75,0,0,0-5.23-3.6c-5.59-2.15-10.66.28-11.72.79a17.05,17.05,0,0,0-7.76,8.08C529.42,1016.06,529.71,1018,529.81,1018.5Z"/><path class="cls-106" d="M501.11,1077.51l.92.07,1.66.36.89.31,1.44.76,1.3,1,1,1.08.83,1.33.44,1L510,1085l.18,2.72.29,1.52.29,2.18.17,2.82v2l-.33,2.67-.39,2-1.49,4.27,2,2.78a40.45,40.45,0,0,1,2.87,11.65,29.68,29.68,0,0,1-.56,11.22c-1.44,5.4-4.39,9.51-6.54,12.51-.78,1.08-1.46,2-1.94,2.54l.94,2.5,2,4.24,3.08,4.85,2.93,1.58a84,84,0,0,0,15,5.47c1.16.3,2.31.57,3.44.82l3.65-8.92-.41,8.5a37.62,37.62,0,0,0,4.46.41c1,0,24.56.5,30.78-13.77,3.06-7,.61-14.48-1-18.23l-1.22-4.25a72.82,72.82,0,0,1-2.63-10.74c-.32-1.94-.37-2.75-1-14.38-.45-8.17-.66-12.3.2-14.78,1-2.77,2-3.68,2-6.28.08-3.18-1.35-4.11-3-8.91-1.74-5-2.77-7.87-1.82-11.14.85-3,2.68-4,3.24-7.9a15.17,15.17,0,0,0,0-4.08l-14.49-3.26a12.31,12.31,0,0,1-19.71,6.46,13.82,13.82,0,0,1-5.17-9l-23.25,7.33-3.85,1.64-1.09,8.45V1080l1.85-1.28Z"/><path class="cls-103" d="M510.62,1157.49l.31,15.94v19.39l-.88,6c.34,6.11.66,11.06.88,14.47.32,4.73.45,6.33.47,9a88.31,88.31,0,0,1-.78,12.49c-1.58,13-3.68,30,1.17,43.91,1.7,4.86,4.62,10.34,4.1,16.39a16.89,16.89,0,0,0,.5,6.42,16.67,16.67,0,0,0,3,5.78c2.61-1.49,4.66-2.74,6.05-3.6,1.84-1.15,2.79-1.78,4.07-1.65a5.31,5.31,0,0,1,3.55,2.49v-11.83l-1.58-2.49-1.31-5.39.13-20.9-.13-13.54,1.18-13.28,2.24-12.88,5.52-18.53,1.44,2.63.92,30.89v38l-.65,13.41-1.71,2.63-.53,3.15-.26,4.87,3.15.92,4.34.13,1.32-1.32,4.6-.13,1.44,1.71,2.5-2.36.66-3.95v-4.47l.92-7.09c.23-1.18.64-3.34,1.05-6,2.23-14.73.36-18.47,2.46-29.49a49.67,49.67,0,0,0,1.4-10c0-1.85-.08-3.58.18-6.65.09-1,.28-3,.7-5.26a69.59,69.59,0,0,1,2.1-8.06,79.62,79.62,0,0,0,2.28-11.56,109.48,109.48,0,0,0,1-11.92l1.4-20.67,1.05-8.64V1160l.42-11-1.43,3.71-1,1.73-1.23,1.57-1,1.09-1.92,1.63-1.64,1.13-2.82,1.54-2.45,1-2.44.83-1.85.51-2.18.5-3.26.56-2.95.34-2.08.15-2.31.08-5.5-.42.38-8,0-.54-3.65,8.92-3.44-.82-2.2-.6-2-.6-2.36-.78-3.2-1.19-3.24-1.36-2-.94Z"/><ellipse class="cls-110" cx="584.64" cy="1056.72" rx="16.45" ry="18.11"/><path class="cls-111" d="M576.8,1035.18c.49.25.12,1.09.7,2.22s1.67,1.3,1.73,2.06-1.15,1.26-2.35,2.41-1.21,1.75-2.62,4.93c-2.17,4.89-2.28,4.1-2.77,5.81-.7,2.47-.57,4.44-.37,7.57s.31,4.79,1.2,6.55c1.09,2.16,2,2,3,4.43a17.21,17.21,0,0,1,1.2,5.17c.35,2.75.53,4.12-.1,4.61-1.37,1.08-5.36-2.08-6.52-3a26.87,26.87,0,0,1-6-6.54l-1.83-2.29-.33-1.41-.2-1.33,0-1.1.08-1.14.28-1.27.43-1.2.64-1.26.37-.64.55-1,.56-1.2.33-1,.23-.91.17-1.13.09-1.1v-1.08l-.13-1.52a11.26,11.26,0,0,1,0-2c.51-5.47,4.59-9.08,5.55-9.92,1.36-1.2,1.17-.64,3.88-2.71C575.58,1035.55,576.31,1034.94,576.8,1035.18Z"/><path class="cls-102" d="M577.16,1083l7.48,10.78,5.9-10.78,8.59-6.19h12.38a12.71,12.71,0,0,0-1.27,3c-1.78,6.32,2.23,11.13,5.46,22.37.12.42.92,3.22,1.6,6.59,2.12,10.5.86,15.63,1.2,25,.6,16.34,5.12,18.67,2,23.77-3.4,5.54-11.06,6.58-20,7.79a73.13,73.13,0,0,1-26.76-1.4l-2.41-.7.56-12.66-.07-4.64.07-2.71-.56-3.9v-7a19,19,0,0,0-3.58-17.78l-1.79-3.74-1.24-3.81-.43-8.25-.12-4.78.59-4.73,1.39-3.31.64-3Z"/><path class="cls-111" d="M578.18,1036.41c0,1.37,1.7,2.53,3,3,2.22.8,3.26-.52,5.79-.1a8.62,8.62,0,0,1,5.17,3.31c1.47,2,.62,3,1.86,7.44,1,3.51,1.72,3.57,2.49,6.83a23,23,0,0,1,.62,6.41c-.22,3.84-1.59,5.88-3.31,9.93-.45,1-1.54,4.56-3.73,11.58-3.47,11.19-3.77,13.35-2.68,15.72a13.26,13.26,0,0,0,5,5.17c2.87,2,6.84,3.5,7.65,2.48s-1.51-3.49-.83-4.14,2.36,1.34,4.76,1.24c2.58-.1,4.42-2.46,4.76-2.89,2.66-3.42,1.33-8.26.41-13.24-2-11,.51-9.07-1.45-19.65-1.75-9.48-4.58-15.49-8.68-24.19a25.75,25.75,0,0,0-6.21-8.69c-1.89-1.69-5.29-4.73-9.3-4.14C581,1032.85,578.13,1034.58,578.18,1036.41Z"/><path class="cls-106" d="M619,1159.38c.14,1.62.33,4,.48,6.94.42,7.8.8,15-.1,22-.87,6.75-2.65,11.28-6.11,20.06-4.22,10.74-6,11.51-8.06,19.15-.87,3.25-1.35,8-2.28,17.29-1.06,10.77-1.61,19.62-1.93,26-.31,6.1-.46,11.23-.55,14.92v1.3h.85l-.16,6.12-4.79,3.68v9l-1.58,2.63H581.59a8.18,8.18,0,0,1-1.85-1.19,9.2,9.2,0,0,1-3-6.58,8.43,8.43,0,0,1,.53-2.9l1.71-2.5,1.72-9.84-.55-12.43-.18-9-.37-9.87L576.71,1244l-.63-14.84-1.89-9.15-5.77-22.63.81-12.68.66-9.69.59-4.88.46-3.76.42-3.16,4.68,1.2,3.37.62,4.32.56,4,.29,4.49.07,5.58-.33,5.26-.67,5.27-.86,4.39-1.11,2.37-.92Z"/><polygon class="cls-104" points="504.31 1118.09 510.23 1137.7 512.36 1133.08 513.38 1129.45 513.86 1125.66 513.86 1121.9 513.86 1118.09 512.92 1115.03 512.18 1112.06 511.37 1109.59 510.75 1107.98 508.72 1105.2 507.6 1107.88 506.66 1110.43 505.87 1112.76 505.15 1115.03 504.31 1118.09"/><path class="cls-110" d="M621.49,1162.89c.25-2,.57-4.94.77-8.49a138.72,138.72,0,0,0-1.28-27c-.55-4.28-1.42-9.94-2.88-16.57l-.69-3.47-1.25-5-1.66-5.13-1.27-3.43-1.14-3-1-2.75-.59-2.29-.24-1.82,0-2,.37-2,.43-1.27L612,1077a11.46,11.46,0,0,1,4.29,0,12.79,12.79,0,0,1,7.4,4.64c2,2.37,2.53,4.83,3.61,9.63a63.29,63.29,0,0,1,1.38,9.64c.93,6.18,1.51,11.31,1.87,14.87a214.44,214.44,0,0,1,1,38.63c-.32,4.45-.75,8-1,10.3l1.49,5.21,2.33,5.41,1.45,5.4-4.75,4.62-8,4.61-2.27-.79-.66-4.48-1.32-3.82-.79-1.45.66-7.78.53-5Z"/><path class="cls-112" d="M372.68,1072.6a30.55,30.55,0,0,1,7.25-8.79,32.67,32.67,0,0,1,19.77-7.25h6.59a64,64,0,0,0,6,2.86,43.72,43.72,0,0,0,10.48,3.29,31.91,31.91,0,0,0,11.86-.44l1.63-.27a41.76,41.76,0,0,1,4.31,2.58c2.39,1.64,6.73,4.61,9.78,9.48a26.83,26.83,0,0,1,3.81,15.11l0,1.45-4,3,.09,5.17c0,1.47-.11,3.72-.33,6.44-.86,10.78-3.09,17.69-4.49,23.79a103.37,103.37,0,0,0-2.54,24,1.21,1.21,0,0,1,0,1c-.69,1-4-.45-8.78-2-5-1.61-7.45-2.42-9.7-2.45-1.9,0-4.38.63-9.32,1.94s-5.43,1.76-7.85,1.89a20.53,20.53,0,0,1-7.45-1,22.43,22.43,0,0,1-5.16-2.59,39.15,39.15,0,0,1-6.56-5.16,43.15,43.15,0,0,1-5.07-5.86l-.91-1.57,7.92-10.84-.93-18.42-.66-19.81Z"/><line class="cls-112" x1="383.53" y1="1061.24" x2="388.42" y2="1088.1"/><path class="cls-112" d="M390,1126.33a15,15,0,0,1,5.05,0c1.39.23,3.57.81,9.12,4.6,5.17,3.53,5.74,4.71,8.48,5.52a14.16,14.16,0,0,0,6.79.21"/><path class="cls-112" d="M379.36,1166.8c1.1,4.73,2.93,12,5.71,20.64,4.89,15.22,7.24,17.82,10.17,29.22,2.41,9.42,3.14,16.77,4.12,26.67.51,5.08.88,12.77,1.59,28,.85,18,.77,19,1.27,22.86a116.15,116.15,0,0,0,7.31,27.95"/><path class="cls-112" d="M431.78,1316.67c.17-3.57.49-8.75,1.17-15,.37-3.45.72-6,2.8-19.18,3.09-19.51,4.21-25.8,5.15-30.88.55-3,1-5.38,1.34-7a118.8,118.8,0,0,0-3.5-18.42A120.29,120.29,0,0,0,421.91,1190l-2.46-2.8"/><line class="cls-112" x1="419.04" y1="1204.31" x2="419.45" y2="1178.11"/><path class="cls-112" d="M428.7,1176.41a55.85,55.85,0,0,1,12-2,57.1,57.1,0,0,1,6,0"/><path class="cls-112" d="M410.13,1154.94a41.27,41.27,0,0,0,5.19,1.78,36.35,36.35,0,0,0,12.35,1.42,32.67,32.67,0,0,0,6-1l3-2.06"/><path class="cls-112" d="M445.09,1162.58a7.68,7.68,0,0,1-4.59-2.54,7.16,7.16,0,0,1-1.43-2.69"/><path class="cls-112" d="M423.08,1153.55a38.28,38.28,0,0,1-.32,14.09,37.56,37.56,0,0,1-2.69,8.08"/><line class="cls-112" x1="395.05" y1="1159.64" x2="390.29" y2="1163.64"/><path class="cls-113" d="M410.66,1328.37v5.16a5.36,5.36,0,0,0,0,3c1.43,4.62,9.67,5.23,12.29,5.43,4.71.35,6.09-.87,6.53-1.33a5.62,5.62,0,0,0,1.33-3.43c.54-5-.8-10.15-1.88-13.4l-.8-2-3,1.68Z"/><path class="cls-113" d="M430.5,1330l2.66-.71H435l1.37,3.64,3.44,3.44,3.44,1h10.16a3.52,3.52,0,0,0,3.41-1,3.74,3.74,0,0,0-.49-5l-4.13-7-4.18-5.23-2,1.88-2,1.15-2.43.84-2.85.41-3.35-.11-3.12-.55-3.61-1.12-.56.13,1,2.65,1.26,4.95"/><path class="cls-112" d="M456.92,1163.9a43.1,43.1,0,0,0,11,3.59c3.53.64,6.68.61,12.83.51,7.38-.11,11.15-.19,15.66-1.28a44.93,44.93,0,0,0,9.23-3.34"/><path class="cls-112" d="M470.47,1164.29a9.67,9.67,0,0,1-1,5.67,10.19,10.19,0,0,1-5.27,4.6,13.08,13.08,0,0,1-8.65.54"/><path class="cls-112" d="M472.5,1164.15a11.75,11.75,0,0,1-5.68,12,13.35,13.35,0,0,1-10.13,1.35"/><line class="cls-112" x1="481.3" y1="1188.21" x2="473.71" y2="1185.37"/><line class="cls-112" x1="489.52" y1="1188.21" x2="497.09" y2="1183.34"/><path class="cls-112" d="M501.28,1162.26a8.76,8.76,0,0,0,.4,4.46,7.77,7.77,0,0,0,2.44,3.51,7.56,7.56,0,0,0,4.59,1.62"/><path class="cls-112" d="M498.71,1162.53a13.19,13.19,0,0,0,1.08,5.68,9.56,9.56,0,0,0,3.52,4.59,8.65,8.65,0,0,0,5,1.35"/><path class="cls-112" d="M490.6,1169.83a17.53,17.53,0,0,1-3.91,17.16"/><polyline class="cls-112" points="487.89 1169.94 488.23 1175.59 487.89 1182.45"/><circle class="cls-4" cx="426.1" cy="1156.08" r="0.85"/><circle class="cls-4" cx="489.04" cy="1165.36" r="0.85"/><path class="cls-114" d="M464.42,1237.66c1.11-.14,1.49.41,3.77,1.38,2.05.88,2.65.83,4,1.76.76.52,1.75,1.21,1.63,1.88,0,.18-.18.63-1.75,1.13-1.4.44-4.52,1.43-7.4-.38a5.67,5.67,0,0,1-2-1.88,2.88,2.88,0,0,1-.39-2.51A2.82,2.82,0,0,1,464.42,1237.66Z"/><polygon class="cls-115" points="460.85 1291.55 476.92 1291.55 477.76 1303.61 476.07 1303.61 473.37 1302.43 468.65 1302.43 465.11 1303.02 461.65 1303.02 460.85 1291.55"/><polygon class="cls-115" points="482.71 1281.54 498.9 1282.11 497.84 1292.55 495.24 1293.01 489.79 1292.32 485.65 1293.63 482.04 1293.47 482.71 1281.54"/><path class="cls-116" d="M465.1,1303a5.83,5.83,0,0,1,3.55-.59h4.72l2.7,1.18c0,1,0,2.5,0,4.34.09,5.09.13,7.63.75,9.24,1.16,3,2.59,2.92,3.73,6.53.51,1.62,1,3.33.26,5s-2.38,2.34-4,3a15.86,15.86,0,0,1-5.76,1.19c-3.74.24-5.59.49-6.7-.43-1.79-1.46-1.68-4.42-1.61-6.44.06-1.78.39-1.79.84-4.92a54.49,54.49,0,0,0,.51-6.27,29.66,29.66,0,0,0,0-5.85c-.47-2.12-1.33-3.3-.67-4.58A3.61,3.61,0,0,1,465.1,1303Z"/><path class="cls-116" d="M499.59,1318.06c-1,2.72-3.71,3.87-4.79,4.33-.92.39-4.46,1.9-7.65.06a7.49,7.49,0,0,1-3.07-3.53,7.88,7.88,0,0,1-.53-4.32l-.67-8.79v-6l.94-4.92,1.83-1.27,4.14-1.31,4.39.63c0,1.26,0,3.08.12,5.27.19,3.93.3,5.93,1,7.67,1,2.51,1.92,2.16,3.21,4.92C499.37,1312.61,500.63,1315.32,499.59,1318.06Z"/><polyline class="cls-112" points="537.56 1059.72 535.9 1130.91 536.73 1154.16"/><circle class="cls-4" cx="537.87" cy="1140.69" r="1.15"/><circle class="cls-4" cx="538.22" cy="1124.76" r="1.15"/><circle class="cls-4" cx="539.37" cy="1108.51" r="1.15"/><circle class="cls-4" cx="540.16" cy="1092.94" r="1.15"/><circle class="cls-4" cx="540.16" cy="1078.36" r="1.15"/><circle class="cls-4" cx="540.46" cy="1063.78" r="1.15"/><polyline class="cls-112" points="564.08 1074.83 550.78 1074.83 550.33 1095.57 557.21 1100.26 564.08 1097.56"/><line class="cls-112" x1="551.15" y1="1080.05" x2="566.37" y2="1080.05"/><path class="cls-112" d="M506.51,1057.29a51.21,51.21,0,0,0-2.08,18.76"/><path class="cls-117" d="M533.08,1302.12l1.14,8.4a31.26,31.26,0,0,1,2,11c0,3,0,5.87-1.33,8.33-2.75,5-9.75,5.92-14,2a11.09,11.09,0,0,1-3.54-6.73c-.27-2.53.62-3.87,1.11-7.6a31.57,31.57,0,0,0,0-7.9l.91-3.88,6.05-4.76,1.32-1.07,1.35-.88,1.4-.23,2,.85Z"/><path class="cls-117" d="M538.34,1301.17c.51-.27,1.42-.29,3.15.92l5.66-1.19,4.6-.13,1.44,1.71a33.53,33.53,0,0,0-1.43,5.35,49.66,49.66,0,0,0-.67,6.92c-.2,4.61.18,4.75-.33,6-1.34,3.23-5,4.55-6.13,5-1.88.68-4.73,1.76-7.62.33a8,8,0,0,1-4.35-7.27c.06-1.12.39-1.14,2.16-5.46a45.18,45.18,0,0,0,1.93-5.12C537.83,1304.06,537.09,1301.81,538.34,1301.17Z"/><path class="cls-103" d="M576.93,1300.63c.26,0,.53.52.58,2.49l2.49,3,1.87,1h13.34a22.86,22.86,0,0,0-.6,4.47c-.1,2.41.25,3-.23,3.9-.69,1.27-3,1.85-7.74,3-8.14,1.9-9.93,2.3-12.2,3.68-1.69,1-1.53,1.32-2.83,1.85-3.22,1.31-8.59,1.31-11.15-1.48a6.14,6.14,0,0,1-1.19-5.53,7,7,0,0,1,3.27-5c1.46-.8,2.16-.39,4.61-1.23a18.41,18.41,0,0,0,4.61-2.45C575.88,1305.09,576.12,1300.53,576.93,1300.63Z"/><polygon class="cls-103" points="601.13 1293.13 601.13 1300.91 596.34 1304.21 596.34 1296.81 601.13 1293.13"/></g></g></svg>