<svg xmlns="http://www.w3.org/2000/svg" viewBox="0 0 1137.58 1060.54"><defs><style>.cls-1{font-size:30px;font-family:Apercu-Bold, Apercu;}.cls-1,.cls-14,.cls-16,.cls-64{fill:#fff;}.cls-1,.cls-65{font-weight:700;}.cls-2{letter-spacing:0em;}.cls-3{letter-spacing:-0.01em;}.cls-4{letter-spacing:-0.02em;}.cls-5{letter-spacing:0.01em;}.cls-6{letter-spacing:0em;}.cls-7{letter-spacing:0.01em;}.cls-8{letter-spacing:0em;}.cls-9{letter-spacing:-0.02em;}.cls-10{letter-spacing:-0.01em;}.cls-11{letter-spacing:-0.01em;}.cls-12{letter-spacing:0em;}.cls-13{letter-spacing:0em;}.cls-14{font-size:143.48px;}.cls-14,.cls-16{font-family:Apercu-Regular, Apercu;}.cls-15{letter-spacing:-0.01em;}.cls-16{font-size:22px;}.cls-17{letter-spacing:-0.01em;}.cls-18{letter-spacing:-0.01em;}.cls-19{letter-spacing:-0.02em;}.cls-20{letter-spacing:0.03em;}.cls-21{letter-spacing:-0.01em;}.cls-22{letter-spacing:0.01em;}.cls-23{letter-spacing:-0.01em;}.cls-24{letter-spacing:-0.02em;}.cls-25{letter-spacing:-0.03em;}.cls-26{letter-spacing:-0.01em;}.cls-27{letter-spacing:-0.03em;}.cls-28{letter-spacing:-0.01em;}.cls-29{letter-spacing:-0.01em;}.cls-30{letter-spacing:-0.01em;}.cls-31{letter-spacing:0em;}.cls-32{letter-spacing:-0.02em;}.cls-33{letter-spacing:-0.01em;}.cls-34{letter-spacing:0em;}.cls-35{letter-spacing:-0.01em;}.cls-36{letter-spacing:-0.03em;}.cls-37{letter-spacing:-0.02em;}.cls-38{letter-spacing:0.01em;}.cls-39{letter-spacing:0.01em;}.cls-40{letter-spacing:0em;}.cls-41{letter-spacing:0em;}.cls-42{letter-spacing:-0.01em;}.cls-43{letter-spacing:-0.01em;}.cls-44{fill:#f0e8de;}.cls-45{fill:#f1c394;}.cls-46{fill:#504339;}.cls-47{fill:#92d3e7;}.cls-48,.cls-49,.cls-55,.cls-56,.cls-60,.cls-63,.cls-66,.cls-69,.cls-73{fill:none;}.cls-48,.cls-49,.cls-55,.cls-56,.cls-63,.cls-69,.cls-73{stroke:#fff;}.cls-48,.cls-49,.cls-55,.cls-56,.cls-60,.cls-63,.cls-66,.cls-69,.cls-71,.cls-73{stroke-miterlimit:10;}.cls-48{stroke-width:0.72px;}.cls-49{stroke-width:0.74px;}.cls-50{fill:#ed95a4;}.cls-51{fill:#f2eae1;}.cls-52{fill:#8896af;}.cls-53{fill:#221f1f;}.cls-54{fill:#ace5f3;}.cls-55{stroke-width:0.84px;}.cls-56{stroke-width:0.86px;}.cls-57{fill:#a4bad9;}.cls-58{fill:#e1b6a7;}.cls-59{fill:#242224;}.cls-60{stroke:#7384ad;}.cls-61{fill:#a5d4d6;}.cls-62,.cls-65{fill:#7384ad;}.cls-63{stroke-width:0.2px;}.cls-65{font-size:27.14px;font-family:WorkSans-Bold, Work Sans;}.cls-66{stroke:#92d3e7;}.cls-67{fill:#f5b3c1;}.cls-68{fill:#7386ae;}.cls-69{stroke-width:0.74px;}.cls-70{fill:#e5aa80;}.cls-71{fill:#1d1d1b;stroke:#1d1d1b;stroke-width:1.09px;}.cls-72{fill:#ed96a5;}.cls-73{stroke-width:0.41px;}</style></defs><title>illustrationstyle</title><g id="Layer_2" data-name="Layer 2"><g id="_1200" data-name="1200"><text class="cls-1" transform="translate(7.37 504.15)"><tspan class="cls-2">A</tspan><tspan class="cls-3" x="18.3" y="0">u</tspan><tspan class="cls-4" x="35.67" y="0">d</tspan><tspan class="cls-5" x="53.13" y="0">i</tspan><tspan class="cls-6" x="61.2" y="0">e</tspan><tspan class="cls-2" x="77.79" y="0">n</tspan><tspan class="cls-7" x="95.28" y="0">c</tspan><tspan class="cls-8" x="112.05" y="0">e </tspan><tspan class="cls-9" x="136.17" y="0">i</tspan><tspan class="cls-10" x="143.31" y="0">n</tspan><tspan class="cls-11" x="160.65" y="0">s</tspan><tspan class="cls-12" x="173.94" y="0">i</tspan><tspan class="cls-13" x="181.59" y="0">g</tspan><tspan x="197.1" y="0">hts</tspan></text><text class="cls-14" transform="translate(778.71 779.39)"><tspan class="cls-15">7</tspan><tspan x="67.58" y="0">5%</tspan></text><text class="cls-16" transform="translate(782.56 846.47)"><tspan class="cls-17">o</tspan><tspan x="12.72" y="0">f </tspan><tspan class="cls-18" x="26.62" y="0">s</tspan><tspan class="cls-19" x="36.52" y="0">u</tspan><tspan class="cls-20" x="48.71" y="0">r</tspan><tspan class="cls-21" x="58.54" y="0">v</tspan><tspan class="cls-22" x="68.38" y="0">i</tspan><tspan class="cls-23" x="74.54" y="0">v</tspan><tspan class="cls-24" x="84.41" y="0">o</tspan><tspan class="cls-25" x="97" y="0">r</tspan><tspan x="105.38" y="0">s </tspan><tspan class="cls-26" x="121.42" y="0">h</tspan><tspan x="134.13" y="0">a</tspan><tspan class="cls-23" x="145.53" y="0">v</tspan><tspan x="155.41" y="0">e </tspan><tspan class="cls-27" x="173.62" y="0">q</tspan><tspan class="cls-28" x="186.27" y="0">u</tspan><tspan class="cls-29" x="198.79" y="0">e</tspan><tspan class="cls-30" x="210.98" y="0">s</tspan><tspan class="cls-31" x="220.92" y="0">t</tspan><tspan class="cls-17" x="229.19" y="0">i</tspan><tspan class="cls-26" x="234.83" y="0">o</tspan><tspan class="cls-32" x="247.7" y="0">n</tspan><tspan x="259.99" y="0">s </tspan><tspan class="cls-33" x="0" y="29">a</tspan><tspan class="cls-31" x="11.13" y="29">b</tspan><tspan class="cls-23" x="24.31" y="29">o</tspan><tspan class="cls-34" x="37.18" y="29">u</tspan><tspan x="49.94" y="29">t </tspan><tspan class="cls-23" x="64.15" y="29">t</tspan><tspan class="cls-35" x="72.31" y="29">h</tspan><tspan x="84.9" y="29">e</tspan><tspan class="cls-36" x="97.22" y="29">i</tspan><tspan x="102.56" y="29">r t</tspan><tspan class="cls-37" x="125.86" y="29">r</tspan><tspan class="cls-38" x="134.5" y="29">e</tspan><tspan class="cls-39" x="146.96" y="29">a</tspan><tspan class="cls-31" x="158.53" y="29">t</tspan><tspan class="cls-18" x="166.8" y="29">m</tspan><tspan class="cls-40" x="185.52" y="29">e</tspan><tspan class="cls-41" x="197.89" y="29">n</tspan><tspan x="210.52" y="29">t </tspan><tspan class="cls-23" x="224.73" y="29">b</tspan><tspan class="cls-34" x="237.79" y="29">u</tspan><tspan x="250.55" y="29">t </tspan><tspan class="cls-42" x="0" y="58">d</tspan><tspan class="cls-26" x="12.94" y="58">o</tspan><tspan class="cls-41" x="25.81" y="58">n</tspan><tspan x="38.43" y="58">t </tspan><tspan class="cls-29" x="52.65" y="58">k</tspan><tspan class="cls-43" x="63.76" y="58">n</tspan><tspan class="cls-35" x="76.19" y="58">o</tspan><tspan x="88.92" y="58">w w</tspan><tspan class="cls-42" x="127.29" y="58">h</tspan><tspan class="cls-17" x="139.87" y="58">e</tspan><tspan class="cls-24" x="151.89" y="58">r</tspan><tspan x="160.53" y="58">e </tspan><tspan class="cls-30" x="178.75" y="58">t</tspan><tspan x="186.87" y="58">o </tspan><tspan class="cls-38" x="205.79" y="58">g</tspan><tspan x="217.07" y="58">o</tspan></text><rect class="cls-44" width="552.42" height="516.21"/><ellipse class="cls-45" cx="192.17" cy="184.39" rx="52.78" ry="62.12"/><path class="cls-46" d="M169.74,112.21c3.65-.34,3.65-.83,12-2.18a48.92,48.92,0,0,1,5.65-.77c5.49,0,6.57,2.3,12,3.3,7.31,1.37,9.85-2,13.78.6,2.58,1.73,2.06,3.59,5.07,5.06,3.31,1.61,5.46.13,7.4,2,1.66,1.6.5,3.09,2.38,5.43,1.54,1.9,2.64,1.33,4.86,3.45,1.9,1.81,1.62,2.72,3.42,5,2.69,3.42,4.37,2.73,5.88,5,2.73,4,.51,11.19-3.1,15.49a17.28,17.28,0,0,1-6.48,4.72,12.73,12.73,0,0,0,.68-5,13.1,13.1,0,0,0-2.9-7.28,9.19,9.19,0,0,1-.7,2.58,10.28,10.28,0,0,1-5.15,5.05l1.74-4.59.28-3.39-.54-1.29-2.66,2.35-3.54,1.13-4.93-.35-2.12.9-.87,2.57-4.13,2.59-1.62,3.08a18.49,18.49,0,0,0-.89,5.4c0,2.12.33,2.94.2,4.47a10.37,10.37,0,0,1-3,6.11l-1.23-4.52-2.73,3.84-4.55,5.5a5.32,5.32,0,0,0-1.82,7.58l-4.89-3-5.94-7.09L175,171.69A6.42,6.42,0,0,0,171,170.3c-3.06.15-5.27,2.92-6.11,5.11-.65,1.69-.33,4.22.29,9.29.32,2.51.39,2.29.5,3.63a26.6,26.6,0,0,1-.69,9.23c-.83,3.16-2,5.13-4.09,8.52-2.44,4-3.73,4.87-4.53,5.29a9.12,9.12,0,0,1-5.13.89l-.56-4.09-5.52-.17-4.18-3.82-1.38-2-1.94,1.91-3-3.43-.37-2.7-3.4-2.1-1.59-2.35c3.2-.52,4.18-2,4.42-2.43,1.63-2.82-.5-8.27-6.44-12.31l-2.17-24a28.24,28.24,0,0,0,3.29-4.11,24.14,24.14,0,0,0,3.51-7.8c1.33-6-1.76-7.48-.18-10.78,1.81-3.79,5.84-1.72,10.41-6.91,1.75-2,2.42-3.71,5.25-5.84a36.26,36.26,0,0,1,3.89-2.36c6.59-3.81,6.15-3.81,7.29-4.29C162.19,111.08,162.69,112.87,169.74,112.21Z"/><path class="cls-47" d="M150.45,247c12.76,2.38,20.09,13.43,35.46,22.3,12.5,7.21,14,3.57,22.3,10.13,10.85,8.59,15.07,20.2,17.22,26.35,5.64,16.1,1.26,20.76,4.06,39.52,2.15,14.45,7.51,25.85,18.24,48.64A384.25,384.25,0,0,0,268,431.39l2.9,4.13H78c-.66-3.12-1.5-7.45-2.27-12.64a201.58,201.58,0,0,1-1.29-49.94c.45-4.16,4.51-19.52,12.64-50.25,3.4-12.84,5.55-20.67,10.38-30.81a108.13,108.13,0,0,1,15.24-24,105.06,105.06,0,0,1,16.86-15.24c4-2.9,7.52-5,12.32-5.84A25.32,25.32,0,0,1,150.45,247Z"/><path class="cls-48" d="M218.42,290.74a34.89,34.89,0,0,0-8.58-2.3c-18.47-2.48-33.08,10.86-36.31,13.81-3.88,3.55-12.83,12-15.34,25.57a40.31,40.31,0,0,0-.51,10.74l22,52.16,30.17,42.45"/><ellipse class="cls-45" cx="373.52" cy="183.35" rx="44.74" ry="55.66"/><path class="cls-47" d="M343.07,246.27a78.66,78.66,0,0,0,11.62,5.49A77.23,77.23,0,0,0,412,250.52a59.26,59.26,0,0,1,26.11,6.15c16.35,8.24,24,22.19,28.39,30.54,13.23,25,12.54,49.35,11.68,80.1-.38,13.34-2,37.28-3.38,56.61-.35,5-.65,9.12-.85,11.82L264.1,434.29c-.31-1.37-.75-3.45-1.07-6-2.2-17.49,4.29-28.79,8.29-45.26,3.09-12.72.07-9.52,3.42-28.91a247.17,247.17,0,0,1,17.12-56.68c3.54-8.09,6.93-14.68,9.51-19.4l36.13-32.74Z"/><path class="cls-49" d="M422.3,269.67A81.86,81.86,0,0,1,430,282a69,69,0,0,1,8,26.44,61.87,61.87,0,0,1-1.69,20.64,58.54,58.54,0,0,1-7.16,16.42,5.18,5.18,0,0,0-.65,1.46,7.26,7.26,0,0,0,.91,5.23s2.23,4.31,4.32,9.29a24,24,0,0,1,1.48,12.61,22.56,22.56,0,0,1-4.7,10.39l-17.31,33.15-2.69,16.65"/><polyline class="cls-49" points="354.69 254.99 362.44 293.75 363 297.99 359.1 334.1 357.46 347.06 342.44 388.2"/><polyline class="cls-49" points="354.69 251.76 363 297.99 357.46 347.06 339.11 398.7 331.35 415.67 325.88 435.9 410.8 435.9 416.41 377.77 416.95 339.68 414.64 309.08 409.09 280.49 409.71 270.07 409.09 280.49 414.25 306.19 416.95 339.68 416.37 380.6 413.18 417.64"/><path class="cls-50" d="M354.44,253.22l7.75,42.34-1.9,31.2-2,19.79-7.17,17.51-9.89,30.06-9.13,20.93-4.19,14.08-2.09,5.31h84.53l2.6-21.83L415.8,382,417,356.05V338.13l-3.3-31.81L409.21,282,409,271l.47-5.42-2.62-7.69-1.52-3.46c-1.56.48-3.81,1.13-6.56,1.74a79.64,79.64,0,0,1-27.69,1.34,72,72,0,0,1-15.18-3.87Z"/><path class="cls-51" d="M335.59,358.2l2.15,2c6.82,6.17,13.3,12,22.09,17.49a71.35,71.35,0,0,0,12.65,6.4,47.73,47.73,0,0,0,7,2.13,42.77,42.77,0,0,0,12.95.76,4.4,4.4,0,0,1,.7-1.21,4.31,4.31,0,0,1,4.42-1.58,4.38,4.38,0,0,1,2.53,3.08c.38,1.45.25,3.71-1.19,4.58a4.24,4.24,0,0,1-3.16.08,3.25,3.25,0,0,1-1.89-.95,2.65,2.65,0,0,1-.56-1.1,48.31,48.31,0,0,1-5.6.18c-10.06-.25-17.45-3.65-22.62-6.09-9.46-4.46-15.9-9.86-22.63-15.51-2.85-2.4-5.12-4.49-6.67-5.95l-1.89-2.31"/><path class="cls-52" d="M348.94,297.4a102,102,0,0,1-6.79-24c-1.72-11.26-.53-16.49,1.21-20.35a25.68,25.68,0,0,1,3-5l-3.29-1.79-3.8-.67a39.23,39.23,0,0,0-1.93,4.27,45.6,45.6,0,0,0-2.55,18.84c.29,4.88,1.18,8.23,2.95,14.92a159.33,159.33,0,0,0,5.1,15.91,28.32,28.32,0,0,0-4.91,2.35c-10.14,6.11-13.48,16.79-14.33,19.63a38.93,38.93,0,0,0-.78,18.26,47.08,47.08,0,0,0,4.51,13.15,48.83,48.83,0,0,0,5.5,8.44l3.92-4.51a41.12,41.12,0,0,1-4.51-7.46c-1.27-2.72-6.62-14.19-2.55-27.09,1-3.31,2.89-9.19,8.64-13.35a21.55,21.55,0,0,1,10.4-3.93,23.42,23.42,0,0,1,14.33,3.54,28.48,28.48,0,0,1,10.6,10.79,31,31,0,0,1,4.12,15.51l7.46-2.75c-.42-1.46-1.07-3.58-2-6.08-3.22-9-4.83-13.54-8.64-17.47-4.13-4.27-9.05-6.16-12.95-7.66a46.59,46.59,0,0,0-8.45-2.36Z"/><path class="cls-51" d="M383.27,332.85c.14.6.36,1.54.6,2.68,6.22,30.78-10.91,56.18-12.16,58a73.29,73.29,0,0,1-11,12.46,2.62,2.62,0,0,1,0,1.8,2.86,2.86,0,0,1-3.49,1.39c-.75-.28-1.1-.89-1.64-1.82a4.1,4.1,0,0,1-.85-2.91,2.92,2.92,0,0,1,1.58-2.06,2.82,2.82,0,0,1,1.94.06,3.47,3.47,0,0,1,1.45,1c.51-.46,1.32-1.23,2.29-2.21,14.41-14.69,17.79-33.15,19.1-40.31a72.25,72.25,0,0,0,1.24-13.56,66.71,66.71,0,0,0-.62-8.64c-.25-1.72-.55-3.17-.79-4.27l-.21-.62Z"/><path class="cls-52" d="M412,270.07c.69,2.63,1.34,5.38,1.91,8.26a132.38,132.38,0,0,1,2.5,27.06,8.84,8.84,0,0,0-2.2.8c-4.51,2.34-5.73,7.92-6.25,10.31a15.91,15.91,0,0,0-.34,6,16.42,16.42,0,0,0,1.59,4.87,24.72,24.72,0,0,0,4.3,6.23c2.09,2.36,3.13,3.54,4.53,4.08a8.42,8.42,0,0,0,8.05-1.36c.54-.45,2-1.76,3.05-6a25.16,25.16,0,0,0-1.36-17.56,24.07,24.07,0,0,0-5.43-7.25c0-.81.09-2.08.11-3.62a122,122,0,0,0-2.27-23.45c-.31-1.73-.79-4.14-1.47-7l-.26-1.34Z"/><path class="cls-51" d="M420.57,314.1c3,2.92,2.66,8.09,2.64,8.42-.16,2-.44,5.41-2.77,6.41s-5.16-1.3-5.4-1.51c-3.09-2.65-2.66-7.08-2.51-8.67s.44-4.56,2.51-5.65a4.73,4.73,0,0,1,3.52-.25A5.16,5.16,0,0,1,420.57,314.1Z"/><path class="cls-53" d="M403.73,148.65a50.11,50.11,0,0,0-10.09,8.47c-3.26,3.58-4.11,5.59-6.86,7.26-2.53,1.54-6.59,2.74-13.31,1.21l-17.34-3.23L363,143.81a3.13,3.13,0,0,0,.87-2.19c0-.23,0-1.36-.66-1.72-1.21-.69-3.86,2-4.09,2.25a15,15,0,0,0-3.83,8c-.69,3.94.47,4.44-.53,7.4s-3.34,5.88-4.89,5.54a2.11,2.11,0,0,1-1.18-1c-.7-1.24.28-2.07-.14-3.3-.57-1.69-2.85-1.41-3.43-3.17-.39-1.19.36-2.14,0-2.38s-2.25,1.18-3.56,2.9c-.72.94-2.71,3.79-3.31,9.25s.84,7-.79,9.64c-.92,1.52-2.83,3.37-4.49,3-2.68-.54-3.45-6.58-3.83-9.5a45.85,45.85,0,0,1,1.06-16.64c1.67-7,3.28-13.8,8.58-20.47,5.86-7.37,13-10.54,17-12.28,17.67-7.6,42.74-6.6,59.15,7.13,7.48,6.26,12.2,14.37,17.3,23.11a95,95,0,0,1,8.11,17.32c2.09,6.2,4.36,12.91,4.13,21.67-.18,6.82-1.67,7.51-2.06,17-.25,5.94.29,6.76.25,13.93,0,6.23-.06,11.73-1.29,18.32a61.18,61.18,0,0,1-8.51,21.93c-4.94,7.73-8.67,9.42-10.58,10.06-2.08.69-4,.64-7.74.52-7.14-.25-9-1.53-20.12-3.62-6.52-1.22-9.26-1.41-9.55-2.83-.22-1.09,1.21-1.87,7.23-7,4.76-4,6.07-5.43,7.22-7.48a21.51,21.51,0,0,0,2.06-5.42,17.17,17.17,0,0,0,.52-6.45c-.35-2.68-1.18-2.93-1.81-5.42s-.19-5.21.78-10.32c1.19-6.3,1.76-5.82,1.8-8.51.07-3.71-1-4.08-1.54-9.55a32.93,32.93,0,0,1,0-8c.36-2.73,1.19-5,2.83-9.55,2.13-5.84,2.34-5.29,3.1-8a38.94,38.94,0,0,0,1.29-11.35,47.72,47.72,0,0,0-1.29-10.58Z"/><path class="cls-49" d="M345.79,305.54v13.7a36.89,36.89,0,0,0-3.92,6.34c-1.64,3.36-2.85,5.84-2.71,8.73.17,3.54,2.18,3.72,5,9.52a31.77,31.77,0,0,1,3.44,13.49,26.65,26.65,0,0,1-.79,6.61l-4.4,24.27"/><path class="cls-49" d="M341.73,296.52l-9.88-8.09a4.82,4.82,0,0,1-1.26-1.43,5.32,5.32,0,0,1-.34-4.09H327.3a11.78,11.78,0,0,1,.91-4,12.19,12.19,0,0,1,3.29-4.55l3-3.64"/><rect class="cls-54" x="585.16" y="0.65" width="552.42" height="516.21"/><path class="cls-47" d="M949.74,99.61A20.77,20.77,0,0,1,952,86.47c5.17-9.16,15.73-10.17,17.13-10.28,12.31-1,20,9,20.55,9.71l4.78,6a16.49,16.49,0,0,1,0-10,17.21,17.21,0,0,1,7.56-9.07c9.59-6.14,21.08-1.85,23.59-.91,3.06,1.15,11.9,4.45,13.31,11.49a10.51,10.51,0,0,1,0,3.94l-1.31,2.36a16.6,16.6,0,0,1,3.45.2,18.18,18.18,0,0,1,8.91,4.46c4.67,4,6.52,8.91,7.69,12.15,1.39,3.84,3.78,10.46,1.62,18.42a26.57,26.57,0,0,1-6.48,11.34l3,5.87a22,22,0,0,1,1.42,1.83c.42.62,3,4.54,3.24,8.7.23,5.09-3.25,9-4.86,10.74-3.66,4-8,5.68-15,8.3-2.86,1.07-5.28,1.79-6.88,2.23a21.23,21.23,0,0,1-1.62,6.88c-.71,1.66-3.72,8.74-11.2,11.13-8.94,2.86-16.56-3.41-17.05-3.83a20,20,0,0,1-2.87,4.58c-1.06,1.26-5.93,7.05-11.87,6.53-2.35-.21-4.38-1.48-8.43-4-1.64-1-2.94-2-3.83-2.68-1.11-.07-2.69-.18-4.6-.39-5.24-.57-7.86-.86-10-1.91-3.83-1.92-5.44-6.36-6.71-9.39a27,27,0,0,1-.95-2.68l-1.34-2.87a16.76,16.76,0,0,1-4.79.38c-7.92-.48-16.76-6.7-16.85-13.59a10.43,10.43,0,0,1,3.44-7.85,9,9,0,0,1,2.68-1.54,34.61,34.61,0,0,1-5.41-1.52c-3-1.13-4.54-1.69-5.6-3-2.38-2.88-1.2-7.35-.77-9a15.12,15.12,0,0,1,9-10,10.27,10.27,0,0,1-4.24-2.8c-3.73-4.2-2.4-10.32-1.93-12.49a16.08,16.08,0,0,1,5-9.13,14.19,14.19,0,0,1,8.83-3.66,13.88,13.88,0,0,1,7.2,1.73Z"/><path class="cls-47" d="M934.55,179c3.19,3.45,4.28,9.31,1.43,13.51-.17.24-3.27,4.66-8.18,4.27s-7.36-5.43-7.82-6.4a12,12,0,0,1-.36-9.24c.46-1.13,1.65-4.13,4.62-5.34C928,174.21,932.31,176.53,934.55,179Z"/><path class="cls-47" d="M908.5,189.75c2.55,2.76,3.42,7.45,1.14,10.82-.13.19-2.62,3.72-6.55,3.41s-5.89-4.34-6.26-5.12a9.6,9.6,0,0,1-.28-7.4,7.24,7.24,0,0,1,3.7-4.27C903.28,186,906.71,187.81,908.5,189.75Z"/><ellipse class="cls-45" cx="805.87" cy="186" rx="44.79" ry="52.72"/><path class="cls-53" d="M784.46,141.51a28.92,28.92,0,0,1,9.93-.47c5.18.68,7.1,2.48,11,3.8,9.29,3.13,14.33-1.65,22.06,0,4.51,1,10.56,4.23,16,15.22V190.5l7.17-6.19-2.76-38.52a19.51,19.51,0,0,0-.42-5c-3-14.21-22.06-26.43-40.07-25.86a38.29,38.29,0,0,0-9.38,1.47l-15.63,1-4,7.35a23.37,23.37,0,0,0-11.09.73C756,129.25,753.79,141,753.69,141.65l6.54.25-4,6.13a8.38,8.38,0,0,0-2.56,4.68,8.58,8.58,0,0,0,2.56,7.08l4.83,26.7a46.73,46.73,0,0,0,3.41-10c1.56-7.27.47-11.1,2.84-17.89a35.23,35.23,0,0,1,3.13-6.61Z"/><path class="cls-50" d="M685.93,400.56v-36.7L691.71,305a40.82,40.82,0,0,1,7.89-22.71,37.93,37.93,0,0,1,5-5.4l34.07-9.28,23.46-9L773.59,241c-.64,6.15-.4,14.26,4.69,19.69,3.84,4.1,7.25,3.25,12.19,6.56,12.45,8.35,8.71,25.76,14.6,26.91,6.57,1.29,17.42-19.17,21.95-37.31a96.25,96.25,0,0,0,2.19-12.07l53.15,22.83,22.34,15.49L914,320.79l7,41.84,4.39,31.55v41.28H685.93Z"/><path class="cls-55" d="M773.59,241l-11.44,17.61L765.83,286l1.44,3.74c4.66-2.4,6.57-5.17,7.47-7.19,1.66-3.74.75-7,3.45-10.92a13.81,13.81,0,0,1,3.45-3.45"/><polyline class="cls-55" points="825.38 270.49 843.7 287.67 843.7 254.84"/><polyline class="cls-55" points="699.6 282.31 724.57 345.9 724.57 410.48"/><polyline class="cls-55" points="899.27 294.19 884.99 343.18 876.15 435.46"/><polyline class="cls-56" points="804.17 294.19 798.87 316.7 791.68 435.46"/><rect class="cls-57" x="1.86" y="539.85" width="552.42" height="516.21"/><ellipse class="cls-58" cx="173.4" cy="704.31" rx="48.48" ry="56.26"/><path class="cls-59" d="M166.36,662.73c2.52-.42,4.48.84,11.34,5.88,9.88,7.25,10.05,7.76,12.18,8.4,5.63,1.69,8-.79,12.6,1.26,4,1.76,6.29,5.37,7.56,8,.41,1.49,1,3.78,1.52,6.6A81.27,81.27,0,0,1,208.43,736a76.57,76.57,0,0,1-9,17.39,2.53,2.53,0,0,0-.8,1.36c-.42,2.25,3.11,4.38,3.52,4.63a10.85,10.85,0,0,0,8.15.77,14.54,14.54,0,0,1-2.42-3.52,13.14,13.14,0,0,1-1.32-8.26,14.76,14.76,0,0,1,10.9-10.69,18,18,0,0,1,4.4-.14c4.72.13,7.08.19,7.93,0,4.35-.92,7.52-4.7,7.08-5.52-.26-.49-1.73.22-5.66.43-2.52.13-5.29.28-5.66-.71-.31-.83,1.15-2.17,2.12-2.83,2-1.35,3.44-.93,4.81-1.56,2.88-1.33,3.28-6.36,3.4-8.64a90.61,90.61,0,0,0-2.05-25.48c-2.11-8-4.4-16.71-10.62-27.11a91.48,91.48,0,0,0-18.53-21.92c-8.33-7.54-13.21-9.55-15.59-10.4-3.39-1.2-8-2.84-13.78-2-4.53.64-5.55,2.21-11.3,2.71-4.25.38-5.18-.35-8.81.23a26.1,26.1,0,0,0-9.49,3.61c-7.83,4.67-11.49,12.63-14,18.31a72.12,72.12,0,0,0-6.56,23.27,64.7,64.7,0,0,1-4.29,16.27c-.74,1.83-1.7,4-3.61,4.52-3.34,1-6.59-3.76-8.14-2.71-1.11.75-.84,4.12.91,6.1s3.76,1.25,4.51,2.71c1.08,2.06-2.61,4.19-3.84,9.26-1,4.19.3,7.75,1.36,10.62.9,2.44,2.06,5.48,4.74,6.33a4.87,4.87,0,0,0,1.63.22,23.27,23.27,0,0,1-1.63-4c-1.56-5.21-1.16-10.76-.15-11s.91,3.93,4.74,8c1.32,1.4,2.39,2.06,2.81,3.7a5.72,5.72,0,0,1-1,4.88c-2.46,2.94-7.66,1.49-7.84,2.51-.14.84,3.25,2.7,6.95,3.11,2.47.27,3.16-.3,4.44.44,2,1.19,1.41,3.3,3.4,5.18s5.2,1.85,6.07,1.77a9.5,9.5,0,0,0,7.69-5.91c0-2.88-.06-7.6-.29-13.41-.8-19.66-2.58-22.91-.85-31.54a54.84,54.84,0,0,1,8.24-19.32c2.57-3.79,4.84-6,9.37-10.51C163.87,663.59,165,663,166.36,662.73Z"/><path class="cls-47" d="M202.29,768.29c-4.6,10.63-11.1,15.48-14.51,17.56-14.33,8.76-31.41,3.64-43.52,0a92.67,92.67,0,0,1-24.44-11.45,65.58,65.58,0,0,0-36.65,16.28A64.88,64.88,0,0,0,65.6,817.16L44,874.43l-7.4,40.47,39.7,3.31,13-30.8,6.11-7.63,9.16,32.07,2.29,18.33-.34,15.87-8.39,32.1H247.39l-8.3-23.53-4.89-15.07-.63-28.88c1.49-.42,3.36-1,5.52-1.62,12-3.65,16.61-6,21.36-3.86a10.33,10.33,0,0,1,2.14,1.29l1.05.48,1.45-1V820.22a38.42,38.42,0,0,0,0-5.88,40.73,40.73,0,0,0-7.83-20.53l-10.93-7.11Z"/><path class="cls-58" d="M74.08,918q-.08,3,0,6a130.77,130.77,0,0,0,7.09,39.24l1.9,5.26H55.7q-1-2.76-2.06-5.57C48.77,950.15,44.73,946,42.09,936.4a58.86,58.86,0,0,1-1.74-9.34V915.22Z"/><polygon class="cls-58" points="233.57 910.66 234.2 939.55 244.73 959.15 249.49 968.55 271.97 968.55 267.47 938 263.64 906.96 260.45 905.19 256.89 904.41 254.26 904.6 251.16 905.3 239.09 909.05 233.57 910.66"/><polyline class="cls-60" points="391.11 862.14 391.11 823.78 421.01 783.72 494.92 822.93 494.92 862.14"/><polyline class="cls-50" points="421.01 782.83 474.61 794.11 494.92 822.04"/><rect class="cls-61" x="457.96" y="823.82" width="22.92" height="18.85"/><rect class="cls-61" x="402.16" y="823.82" width="22.92" height="18.85"/><polyline class="cls-60" points="433.04 858.57 433.04 822.93 449.78 822.93 449.78 858.57"/><polyline class="cls-62" points="396.97 815.03 396.97 788.6 406.04 788.6 406.04 802.88"/><rect class="cls-62" x="457.96" y="823.82" width="22.92" height="18.85"/><rect class="cls-62" x="402.16" y="823.82" width="22.92" height="18.85"/><path class="cls-62" d="M430.46,648.94c2.17,5.06,18.63,25,22.28,29.87.46.62,10.86,15,9.62,32.91-1.17,16.94-12.11,28.56-16.71,32.91l-3.06,1.71H387.06a38.64,38.64,0,0,1-4.22-3.57c-10.94-10.67-15-27.24-13-41.24,1.36-9.66,5.27-16,11.69-26.31a124.68,124.68,0,0,1,20.13-24.68,10.82,10.82,0,0,0,.24-1.6,11.6,11.6,0,0,0-.88-5.32c-.46-1-.79-1.18-4.41-4.7-2.79-2.72-3.43-3.42-3.24-4.12.31-1.09,2.41-1.38,3.09-1.47,4.07-.56,5.19,2,8.23,1.47,1.67-.32,1.24-1.09,6.18-3.82a11,11,0,0,1,3.38-1.47,9.28,9.28,0,0,1,5.58.73c2.32,1.13,2,2.3,4.56,3.53a8.91,8.91,0,0,0,4.27,1,20.35,20.35,0,0,0,4.41-.88,5.5,5.5,0,0,1,2.5-.44c.23,0,1.87.24,2.2,1.17.12.33.14.93-1.91,3.24-1.72,1.94-2.47,2.34-4,4.11a7.72,7.72,0,0,0-1.91,2.94A6.17,6.17,0,0,0,430.46,648.94Z"/><path class="cls-63" d="M401.7,649.49a30.91,30.91,0,0,0,7.43,2.18,32.32,32.32,0,0,0,11.36-.22,36.6,36.6,0,0,0,8.08-2.4"/><circle class="cls-64" cx="415.91" cy="688.63" r="21.71"/><text class="cls-65" transform="translate(405.69 697.56)">€</text><rect class="cls-66" x="387.06" y="718.16" width="19.61" height="4.7"/><rect class="cls-66" x="384.16" y="723.79" width="19.61" height="4.7"/><rect class="cls-66" x="385.66" y="729.43" width="19.61" height="4.7"/><rect class="cls-66" x="385.66" y="735.07" width="19.61" height="4.7"/><rect class="cls-66" x="388.42" y="740.7" width="19.61" height="4.7"/><rect class="cls-66" x="387.06" y="746.34" width="19.61" height="4.7"/><rect class="cls-66" x="358.98" y="735.07" width="19.61" height="4.7"/><rect class="cls-66" x="356.45" y="740.7" width="19.61" height="4.7"/><rect class="cls-66" x="357.71" y="746.34" width="19.61" height="4.7"/><rect class="cls-67" x="584.65" y="544.32" width="552.42" height="516.21"/><path class="cls-68" d="M749.71,789.19c2,2.88,12.3,17.23,31,20.08,18.13,2.72,37-6.5,47.59-23.52,5.59.25,29.76,2,48.17,21.62a68.69,68.69,0,0,1,16.64,31.74l13.76,79.72v39H682c-.59-17.93-.65-36.89,0-56.78.91-28.35,3.23-54.82,6.35-79.14a27.93,27.93,0,0,1,2.87-6.35,28.59,28.59,0,0,1,9.14-9.17Z"/><polyline class="cls-69" points="699.2 827.15 712.89 863.07 718.01 871.77 718.01 931.48"/><polyline class="cls-69" points="879.63 827.15 869.57 871.77 860.82 950.29"/><ellipse class="cls-70" cx="785.64" cy="714.25" rx="40.26" ry="58.97"/><path class="cls-71" d="M795.4,678.12c3.35-1.3,4.67-2.52,8.31-3a19.25,19.25,0,0,1,10,1.32c2.3,1,6.35,2.72,7.64,6.65a8.58,8.58,0,0,1,.33,3.63l-2.31,13a37.26,37.26,0,0,1,4.31,8.31,37.85,37.85,0,0,1,2,17.62l3.63-34.58a21.44,21.44,0,0,0,0-5.31c-1.4-11-10.93-14.15-26.57-29.28-2-1.93-3.86-3.83-7-4.65-4-1.07-6.25.67-10.31-1-3.18-1.3-3-2.85-5-3-3.46-.26-4.71,4.22-10.64,8-4,2.54-4.24,1-8,3.32-4.9,3.06-4.82,6-11.63,13.3-4.05,4.36-4.24,3.53-5.65,5.66-3.78,5.67-2.82,12.22-2,19,.79,6.46,1.82,15.95,2.66,28.59l3-5.65,1-9.31,2.66-10,.67-11.63,5-9a14.5,14.5,0,0,1,5-2c4-.77,7,.54,9.65,1.33C783.22,682.7,794.65,678.41,795.4,678.12Z"/><circle class="cls-68" cx="961.25" cy="699.98" r="44.69"/><circle class="cls-68" cx="1061.18" cy="744.67" r="44.69" transform="translate(156.14 1672.86) rotate(-80.78)"/><circle class="cls-68" cx="966.25" cy="802.82" r="44.69"/><path class="cls-72" d="M962.34,688.56h0a19.44,19.44,0,0,0-4.54-3.31,11.29,11.29,0,0,0-5.22-1.74,9.72,9.72,0,0,0-6.27,2.27,10.36,10.36,0,0,0-3.48,5.56,12.31,12.31,0,0,0,.39,6.59c.91,3.08,2.67,5.69,8,10.79a118.81,118.81,0,0,0,11.14,9.4c.8-.58,2-1.49,3.49-2.61,6.94-5.3,10.46-8,12.69-11.13,1.82-2.58,3.86-5.45,3.83-9.41a11.7,11.7,0,0,0-3.31-8.52c-.45-.44-3.86-3.63-8.16-3-3.06.47-5.26,2.66-6.61,4a15.27,15.27,0,0,0-1.51,1.71Z"/><path class="cls-72" d="M1061,728.6a4.81,4.81,0,0,0-1.15-1.6,5.62,5.62,0,0,0-3.26-1.22,14.57,14.57,0,0,0-5.69.41,12.56,12.56,0,0,0-4.89,2.36,6.88,6.88,0,0,0-2.42,3.16,5.54,5.54,0,0,0-.31,1.61l-.29.15a8.37,8.37,0,0,0-3.37,2,9.22,9.22,0,0,0-2.73,5.93,9.36,9.36,0,0,0,.07,2.18,5.58,5.58,0,0,0-2.09,3.93c-.08,2.41,1.77,4.1,2.37,4.65a7.62,7.62,0,0,0,1.06.81c6.09,2.32,14,3.9,21.19.76l1-.48.9-.83a21.15,21.15,0,0,0,11.33,1.88h2.72l6.21-.5,3-1.16c1.46-1.49,3.06-3.63,2.72-6-.14-1.1-.58-1.18-1.38-3-1.64-3.88-.57-5.37-2.13-7.16-1.26-1.47-2.11-.66-4-2.3-2.1-1.81-1.5-3.31-3.2-5.18-2.29-2.5-5.91-2.66-7.63-2.72a14.43,14.43,0,0,0-7.63,1.82Z"/><path class="cls-73" d="M1053.86,726a3.82,3.82,0,0,0-2.93,1c-.78.78-1.48,2.25-.91,3.33s2.59,1.11,2.78,1.1c1.42-.08,1.68-.91,3.08-.91a3.38,3.38,0,0,1,2.46.91,3.54,3.54,0,0,1,.32,3.63c-.7,1.53-2,1.39-2.46,2.86a4.22,4.22,0,0,0,.32,3c.61,1.42,1.34,1.33,2,2.61a4.67,4.67,0,0,1,0,4.36,5,5,0,0,1-3.16,2c-1.12.24-1.61,0-2.38.39a3.43,3.43,0,0,0-1.58,2.22,3.38,3.38,0,0,0,.11,1.81"/><path class="cls-73" d="M1051.14,731.26a3.44,3.44,0,0,1-.91,1.13,4.43,4.43,0,0,1-3.75.83"/><path class="cls-73" d="M1043.26,733.3a3.87,3.87,0,0,0,.85,1.75c.86,1,2.08,1.2,3.81,1.53,2.06.39,2.45.12,3.48.67.47.26,1.82,1,1.87,2.2a2.34,2.34,0,0,1-1.2,2.15c-1.1.54-1.88-.51-3.88-.2a2.64,2.64,0,0,0-1.81.79,2.92,2.92,0,0,0-.14,2.62,3.9,3.9,0,0,0,2,1.93,3.44,3.44,0,0,0,4.77-.92,3.7,3.7,0,0,0,.31-.55"/><path class="cls-73" d="M1048.66,747a3.55,3.55,0,0,0-1.15.85,3.4,3.4,0,0,0-1,2.87,3.2,3.2,0,0,0,1.14,1.82"/><path class="cls-73" d="M1044.11,735.11a6.84,6.84,0,0,0-1.17.75,3.33,3.33,0,0,0-1.44,1.74,2.77,2.77,0,0,0,1,2.28"/><path class="cls-73" d="M1037,743.54a4.91,4.91,0,0,0,1.47,1c1.24.5,1.82.11,2.88.59a3.06,3.06,0,0,1,1.86,2,2.38,2.38,0,0,1-1,2.4,2,2,0,0,1-1.09.29"/><line class="cls-73" x1="1060.98" y1="728.6" x2="1061.44" y2="752.38"/><path class="cls-73" d="M1064.9,753.25a5.76,5.76,0,0,1,0-2.19c.15-.8.46-2.37,1.67-2.82a2,2,0,0,1,2,.35c.47.45.35,1,.74,2.25s.39,1.45.7,1.67a1.78,1.78,0,0,0,1.43.1,2,2,0,0,0,1.1-.69,2.37,2.37,0,0,0,.06-2.58"/><path class="cls-73" d="M1064.8,726.71a7.34,7.34,0,0,0-.56,1.89c-.15,1.06-.31,2.13.33,2.89a2.49,2.49,0,0,0,2.19.76c1.2-.17,1.29-1.17,2.94-2a3.34,3.34,0,0,1,2.52-.45,3.23,3.23,0,0,1,1.74,3.63,3.46,3.46,0,0,1-1.74,2.18c-.87.44-1.27.16-3.63.43-1.91.23-2.23.48-2.4.66a3.16,3.16,0,0,0-.44,2.72,3.62,3.62,0,0,0,1.63,2.72,3.25,3.25,0,0,0,3.49-.32c.78-.65.53-1.25,1.54-2.3a3.33,3.33,0,0,1,1.81-1.19c1-.15,1.39.59,3.38,1.42,1.39.57,2.23.91,3,.54a2.48,2.48,0,0,0,.91-2.83,2.85,2.85,0,0,0-2.51-1.82,2.91,2.91,0,0,0-1.53.33"/><path class="cls-73" d="M1066.37,741.19a3.36,3.36,0,0,0-.73.82,2.7,2.7,0,0,0-.42,2.35,2.29,2.29,0,0,0,.9,1.09"/><path class="cls-73" d="M1072.6,746a2.68,2.68,0,0,1,1.67-1,3.25,3.25,0,0,1,2.93,1.81c.74,1.3.11,2.06.91,3.1a3.28,3.28,0,0,0,2.26,1.17,3.1,3.1,0,0,0,3-1.5,3.25,3.25,0,0,0-.08-2.61c-.58-1.27-1.57-1.27-1.76-2.34a2.13,2.13,0,0,1,.75-2,2.26,2.26,0,0,1,2-.33l1.35.28"/><path class="cls-73" d="M1078.46,743.1a2,2,0,0,1,1.43-.5,1.87,1.87,0,0,1,.91.34l1,.38"/><path class="cls-72" d="M961.83,768.34a2.5,2.5,0,0,1,.45-1.61,4.39,4.39,0,0,1,1.44-1.2,5.9,5.9,0,0,1,1.5-.86,3.24,3.24,0,0,1,3.1,1.08c.8,1,.37,2,1.21,3.45a2.3,2.3,0,0,1,.28.81,2.72,2.72,0,0,1-.28,1.43s-.24.8-.69,2.36c-.36,1.22-.41,1.5-.29,1.81a1.94,1.94,0,0,0,.86,1c1.7,1.15,2.78.91,4.25,1.73a6.45,6.45,0,0,1,2.13,2.06,7.86,7.86,0,0,1,.9,3.86c.2,2.4-.19,2.84.07,5.11.13,1.26.24,1,.57,3a26.08,26.08,0,0,1,.46,5.44,20.85,20.85,0,0,1-.41,3.44,11.08,11.08,0,0,1,.42,1.6,11.48,11.48,0,0,1,.11,3.26c-.13.18-.26.36-.4.53a3.26,3.26,0,0,1-2.23,1.26c-.1,0-.38,0-.43-.13s.06-.21.53-.64a5.85,5.85,0,0,0,.9-.82,2.21,2.21,0,0,0,.34-.77,1.15,1.15,0,0,0,0-1,.51.51,0,0,0-.46-.24.53.53,0,0,0-.3.36c-.23.58.06.91-.14,1.37-.11.27-.35.54-.5.5s-.14-1.36-.12-1.47c.07-.7.2-.65.19-1.12a4.28,4.28,0,0,1-.09-1.4,2.47,2.47,0,0,1,.22-.53,2.79,2.79,0,0,0,0-1.93c-.43-1.76-.9-3.4-1.26-4.78-.22-.9-.27-1.27-.3-1.43a23.57,23.57,0,0,1-.13-2.66,16.9,16.9,0,0,0-.3-2.45,22.57,22.57,0,0,0-.83-3.26l.2,9.93.15,1.46c.15.45.34,1,.53,1.82a26.74,26.74,0,0,1,.76,3.87,21.59,21.59,0,0,1,0,5.9c-.2,1.41-.83,4.54-1.24,6.23a5.19,5.19,0,0,0-.16,1.62,6,6,0,0,0,.33,1.55,12.29,12.29,0,0,1,.31,2.64,19.65,19.65,0,0,1-.8,6.6c-.11.37-.39,1.23-.75,2.52-.24.91-.37,1.31-.43,1.67a18.86,18.86,0,0,0-.22,3.27v1.62l2.48,3.14a.88.88,0,0,1,.21.42,1.51,1.51,0,0,1-.37,1.22,2.9,2.9,0,0,1-2.72,1,2,2,0,0,1-1-.62c-.3-.38-.21-.6-.42-1.47a4.18,4.18,0,0,0-.91-2.1,1.8,1.8,0,0,1-.67-1.54,4.94,4.94,0,0,1,.33-1.18,5.89,5.89,0,0,0,.18-1.25,26.72,26.72,0,0,0,0-3.1c-.1-1.26-.2-1.38-.3-2.4a27.41,27.41,0,0,1,0-3.51c.06-2.34-.11-2.67-.08-5.79a11.34,11.34,0,0,0,0-2.18,16.07,16.07,0,0,0-.37-1.67,17.09,17.09,0,0,1-.21-2.85c-.1-3.09-.1-3.08-.13-3.23-.23-1.22-.51-1.38-.84-3.07-.15-.83-.17-1.24-.29-1.25s-.64,1.87-.8,3.44c0,.4,0,.7-.08,1.3-.11,2.27,0,2.57-.08,3.9-.13,1.76-.39,1.69-.42,3.18a19,19,0,0,0,.2,2.72c.15,1.51.16,2.57.19,4.53,0,2.86,0,4.29-.28,5.15a6.42,6.42,0,0,0-.61,2.1,6.83,6.83,0,0,0,.24,2.2c.38,1.67.84,1.87.74,2.72-.07.69-.36.59-.91,1.92-.49,1.16-.39,1.51-1,2.85s-.82,1.37-1,1.45c-.51.17-1-.1-1.69-.47s-1.64-.91-1.73-1.73c0-.44.17-.78.56-1.36,1-1.49,1.71-1.38,2.11-2.34.26-.63-.11-.53,0-2.65a6.54,6.54,0,0,0,0-2.25,5.72,5.72,0,0,0-.51-1.22,15.29,15.29,0,0,1-1.07-3.55,29.46,29.46,0,0,1-.57-3.09,14.75,14.75,0,0,1-.28-3.32c.13-1.29.48-1.53.61-3a10.78,10.78,0,0,0,0-2.2c-.24-2.15-.9-2.72-1.26-4.91a20.38,20.38,0,0,1-.19-2.47,24.92,24.92,0,0,1,0-4.73c.25-1.81.71-2.72,1.17-5.14,0-.21.14-.71.24-1.35a16.93,16.93,0,0,0,.23-1.88,18.08,18.08,0,0,0-.19-2.43c0-.68,0-.9,0-2.24,0-2.66,0-4.09-.14-4.12s-.5,1.27-.65,2.11a20,20,0,0,0-.24,3.46,23.78,23.78,0,0,1,0,2.67c-.17,1.33-.51,1.4-1,3.36a12.35,12.35,0,0,0-.52,3.13c0,.91.24,1.21.23,2.39a14.23,14.23,0,0,0,0,1.6c.05.35.06.7.09,1.06s.13.75,0,.9a.26.26,0,0,1-.31.07c-.1-.06-.08-.22-.09-.39a5.66,5.66,0,0,0-.23-.9c-.18-.58-.28-.91-.45-.91s-.39.34-.44.43a1.31,1.31,0,0,0-.12.78,1.55,1.55,0,0,0,.26.57,2.55,2.55,0,0,0,.72.78,4.22,4.22,0,0,1,.71.48c.21.18.24.28.24.36s-.25.26-.39.3-.43,0-1.19-.48a3.23,3.23,0,0,1-1.14-.82,2.57,2.57,0,0,1-.26-.41,2.51,2.51,0,0,1-.13-1.33c.11-1.58,0-1.35.11-2a11.51,11.51,0,0,0,.23-1.43,5.89,5.89,0,0,0,0-.84,7.45,7.45,0,0,0-.34-1.94,8.63,8.63,0,0,1-.11-2.73,31.17,31.17,0,0,1,.52-3.62c.18-1.2.24-1.62.3-2.17s.13-1.22.16-2.15c.07-1.9-.15-2.12,0-3.85a11,11,0,0,1,.3-2.15,5,5,0,0,1,.61-1.74,4.69,4.69,0,0,1,1.64-1.46,17.46,17.46,0,0,1,2.54-1.14c.75-.31,1.44-.77,2.2-1a1.38,1.38,0,0,0,.68-.46,1.11,1.11,0,0,0,.22-.9c-.06-.25-.2-.27-.42-.55s-.17-.31-.56-1.32a4.66,4.66,0,0,1-.39-1.14,1.89,1.89,0,0,0-.06-.67c-.13-.32-.29-.31-.39-.61a1.71,1.71,0,0,1,0-.78,4.58,4.58,0,0,1,.14-.53C962.15,769.16,961.88,768.87,961.83,768.34Z"/></g></g></svg>