<svg xmlns="http://www.w3.org/2000/svg" viewBox="0 0 1293.23 1507.87"><defs><style>.cls-1,.cls-3,.cls-30,.cls-58,.cls-76,.cls-79,.cls-80,.cls-86,.cls-90{fill:none;}.cls-1,.cls-3,.cls-30,.cls-58,.cls-60{stroke:#fff;}.cls-1,.cls-3,.cls-30,.cls-58,.cls-60,.cls-76,.cls-79,.cls-80,.cls-86,.cls-90{stroke-miterlimit:10;}.cls-2{fill:#f498a8;}.cls-3{stroke-width:1.3px;}.cls-31,.cls-4,.cls-8,.cls-9{fill:#fff;}.cls-15,.cls-5{fill:#728ab4;}.cls-6{fill:#f8f0e5;}.cls-7{fill:#96d8ef;}.cls-8{font-size:25px;}.cls-15,.cls-8,.cls-9{font-family:WorkSans-Medium, Work Sans Medium;}.cls-9{font-size:29.21px;}.cls-10{letter-spacing:-0.01em;}.cls-11{letter-spacing:0em;}.cls-12{letter-spacing:-0.01em;}.cls-13{letter-spacing:-0.02em;}.cls-14{letter-spacing:-0.02em;}.cls-15{font-size:31.74px;}.cls-16{letter-spacing:-0.01em;}.cls-17{letter-spacing:-0.01em;}.cls-18{letter-spacing:0em;}.cls-19{letter-spacing:0em;}.cls-20{letter-spacing:-0.01em;}.cls-21{letter-spacing:-0.01em;}.cls-22{letter-spacing:-0.02em;}.cls-23{letter-spacing:0em;}.cls-24{letter-spacing:-0.02em;}.cls-25{letter-spacing:-0.01em;}.cls-26{letter-spacing:0em;}.cls-27{letter-spacing:-0.02em;}.cls-28{letter-spacing:-0.02em;}.cls-29{letter-spacing:0em;}.cls-30{stroke-width:0.96px;}.cls-31{font-size:17.38px;font-family:WorkSans-Regular, Work Sans;}.cls-32{letter-spacing:-0.03em;}.cls-33{letter-spacing:-0.02em;}.cls-34{letter-spacing:-0.02em;}.cls-35{letter-spacing:-0.02em;}.cls-36{letter-spacing:-0.01em;}.cls-37{letter-spacing:-0.02em;}.cls-38{letter-spacing:0em;}.cls-39{letter-spacing:-0.02em;}.cls-40{letter-spacing:-0.01em;}.cls-41{letter-spacing:-0.03em;}.cls-42{letter-spacing:-0.02em;}.cls-43{letter-spacing:0em;}.cls-44{letter-spacing:-0.02em;}.cls-45{letter-spacing:-0.01em;}.cls-46{letter-spacing:-0.02em;}.cls-47{fill:#2f2b28;}.cls-48{fill:#2a1e14;}.cls-49{fill:#f6e0c1;}.cls-50{fill:#bfe6f2;}.cls-51{fill:#f7c89e;}.cls-52{fill:#faedaa;}.cls-53{fill:#7288b4;}.cls-54{fill:#51678f;}.cls-55{fill:#9a6f41;}.cls-56{fill:#e3c24e;}.cls-57,.cls-60{fill:#eee1d1;}.cls-58,.cls-60{stroke-width:0.64px;}.cls-59{fill:#927046;}.cls-61{fill:#efd7b7;}.cls-62{fill:#4b4743;}.cls-63{fill:#f6b978;}.cls-64{fill:#a46227;}.cls-65{fill:#647a9c;}.cls-66{fill:#99d0dd;}.cls-67{fill:#231f20;}.cls-68{fill:#afbfe2;}.cls-69{fill:#d6ac96;}.cls-70{fill:#d2a895;}.cls-71{fill:#9e7668;}.cls-72{fill:#e1e7e7;}.cls-73{fill:#7c513e;}.cls-74{fill:#7f5441;}.cls-75{fill:#543a35;}.cls-76{stroke:#728ab4;stroke-width:0.22px;}.cls-77{fill:#907470;}.cls-78{fill:#d8ab93;}.cls-79{stroke:#7f8cab;stroke-width:1.34px;}.cls-80{stroke:#7597ce;stroke-width:0.64px;}.cls-81{fill:#7597ce;}.cls-82{fill:#f9b798;}.cls-83{fill:#c6725b;}.cls-84{fill:#cb7054;}.cls-85{fill:#76c5d9;}.cls-86{stroke:#7288b4;stroke-width:1.05px;}.cls-87{fill:#49c7ef;}.cls-88{fill:#89aad8;}.cls-89{fill:#fabc98;}.cls-90{stroke:#89aad8;stroke-width:0.2px;}.cls-91{fill:#96d7e6;}</style></defs><title>journey_2</title><g id="Layer_2" data-name="Layer 2"><g id="_1200" data-name="1200"><polygon class="cls-1" points="153.62 67.82 153.62 223.08 467.37 223.08 467.37 64.11 414.77 36.62 362.91 63.11 153.62 63.31 153.62 67.82"/><polygon class="cls-2" points="467.37 65.86 490.95 65.06 464.88 16.68 153.62 16.68 128.64 65.06 153.62 65.06 362.91 64.86 414.77 38.37 467.37 65.86"/><polyline class="cls-2" points="206.59 16.68 206.59 0 225.03 0 225.03 16.68"/><polyline class="cls-3" points="332.91 64.11 332.91 121.18 467.37 121.18"/><rect class="cls-4" x="420.86" y="72" width="30.05" height="49.18"/><rect class="cls-4" x="347.87" y="72" width="23.64" height="19.94"/><rect class="cls-4" x="380.91" y="72" width="23.64" height="19.94"/><rect class="cls-4" x="366.16" y="167.56" width="76.78" height="54.93"/><rect class="cls-4" x="332.91" y="167.56" width="26.78" height="55.52"/><rect class="cls-4" x="170.69" y="76.06" width="29.95" height="38.52"/><rect class="cls-4" x="215.81" y="76.06" width="29.95" height="38.52"/><rect class="cls-4" x="259.86" y="76.06" width="29.95" height="38.52"/><rect class="cls-4" x="171.22" y="136.3" width="29.95" height="38.52"/><rect class="cls-4" x="216.35" y="136.3" width="29.95" height="38.52"/><rect class="cls-4" x="260.4" y="136.3" width="29.95" height="38.52"/><path class="cls-5" d="M374.6,151.93a3,3,0,0,1-2.29-.74,3.25,3.25,0,0,1-.72-2.34v-7.52h-1.51c-.17,0-.27,0-.32-.09a.65.65,0,0,1-.07-.37v-.61a.67.67,0,0,1,.07-.37c.05-.06.15-.09.32-.09h1.51v-2.94a.5.5,0,0,1,.1-.37.6.6,0,0,1,.38-.09h.86a.59.59,0,0,1,.38.09.49.49,0,0,1,.11.37v2.94h2.38a.43.43,0,0,1,.33.09.77.77,0,0,1,.07.37v.61a.74.74,0,0,1-.07.37.43.43,0,0,1-.33.09h-2.38v7.22a2.25,2.25,0,0,0,.31,1.36,1.22,1.22,0,0,0,1,.4h1.09c.17,0,.28,0,.32.1a.62.62,0,0,1,.07.37v.69a.62.62,0,0,1-.07.37c0,.06-.15.09-.32.09Z"/><path class="cls-5" d="M381.17,141a4,4,0,0,1,1.5-1.15,4.92,4.92,0,0,1,2-.4,4,4,0,0,1,3,1,4.16,4.16,0,0,1,1,3v7.92a.48.48,0,0,1-.1.37.62.62,0,0,1-.39.09h-.85a.59.59,0,0,1-.38-.09.48.48,0,0,1-.11-.37V144a3.19,3.19,0,0,0-.62-2.17,2.65,2.65,0,0,0-2-.68A2.88,2.88,0,0,0,382,142a3.35,3.35,0,0,0-.82,2.37v7.11a.48.48,0,0,1-.1.37.62.62,0,0,1-.39.09h-.85a.57.57,0,0,1-.38-.09.48.48,0,0,1-.11-.37V135.91a.49.49,0,0,1,.11-.37.57.57,0,0,1,.38-.09h.85a.62.62,0,0,1,.39.09.5.5,0,0,1,.1.37Z"/><path class="cls-5" d="M394.2,142a3.71,3.71,0,0,1,1.33-1.6,3.46,3.46,0,0,1,2-.62h.3a.43.43,0,0,1,.33.09.77.77,0,0,1,.07.37v.84a.74.74,0,0,1-.07.37.43.43,0,0,1-.33.09h-.6a2.56,2.56,0,0,0-1.24.3,2.78,2.78,0,0,0-.93.85,3.84,3.84,0,0,0-.61,1.27,6.18,6.18,0,0,0-.2,1.59v5.9a.48.48,0,0,1-.11.37.59.59,0,0,1-.38.09h-.86a.6.6,0,0,1-.38-.09.48.48,0,0,1-.1-.37V140.26a.51.51,0,0,1,.1-.37.6.6,0,0,1,.38-.09h.81a.62.62,0,0,1,.39.09.51.51,0,0,1,.1.37Z"/><path class="cls-5" d="M401.88,137.65a1.2,1.2,0,0,1-.84-.28,1,1,0,0,1-.31-.76v-.37a.92.92,0,0,1,.31-.74,1.2,1.2,0,0,1,.84-.28,1.27,1.27,0,0,1,.88.28.91.91,0,0,1,.33.74v.37a.94.94,0,0,1-.33.76A1.27,1.27,0,0,1,401.88,137.65Zm.91,13.82a.48.48,0,0,1-.11.37.59.59,0,0,1-.38.09h-.86a.6.6,0,0,1-.38-.09.48.48,0,0,1-.1-.37V140.26a.51.51,0,0,1,.1-.37.6.6,0,0,1,.38-.09h.86a.59.59,0,0,1,.38.09.51.51,0,0,1,.11.37Z"/><path class="cls-5" d="M406.67,139.8a.46.46,0,0,1,.34.11,1.07,1.07,0,0,1,.2.38l3.21,9.81,3.13-9.81a1,1,0,0,1,.2-.4.5.5,0,0,1,.33-.09h1c.25,0,.37.09.37.28a2,2,0,0,1-.06.28l-3.73,11.06a1.31,1.31,0,0,1-.23.41.55.55,0,0,1-.37.1h-1.35a.55.55,0,0,1-.37-.1,1.31,1.31,0,0,1-.23-.41l-3.7-11.06a1.43,1.43,0,0,1-.07-.28c0-.19.12-.28.37-.28Z"/><path class="cls-5" d="M419.31,146.42v.44q0,3.82,3.1,3.82a2.56,2.56,0,0,0,2.62-1.5.83.83,0,0,1,.2-.34.59.59,0,0,1,.33-.06h.84a.88.88,0,0,1,.41.06c.06,0,.09.15.09.32a2,2,0,0,1-.25.83,4.07,4.07,0,0,1-.58.88,3.93,3.93,0,0,1-1.56,1,6.29,6.29,0,0,1-2.17.37,4.66,4.66,0,0,1-3.6-1.37,5.53,5.53,0,0,1-1.26-3.89v-1.73a6.56,6.56,0,0,1,1.25-4.3,4.51,4.51,0,0,1,3.64-1.49q4.77,0,4.77,5.3V146a.48.48,0,0,1-.11.37.6.6,0,0,1-.38.09Zm3.06-5.51c-2,0-3,1.34-3.06,4h6a5.17,5.17,0,0,0-.7-3A2.55,2.55,0,0,0,422.37,140.91Z"/><path class="cls-6" d="M387.05,152.7s0-.12,0-.2-.07-.42-.1-.69c0-.09,0-.34-.07-.68s0-.26-.05-.7c0-.14,0-.26,0-.34l-.14,2.27Z"/><path class="cls-6" d="M402.8,150.61c0,.23,0,.46-.05.71l-.09.7.19-.28Z"/><path class="cls-5" d="M402.77,149.2v1.6a4,4,0,0,1,0,.6c-.05.47-.08.7-.1.8a6.3,6.3,0,0,1-.33,1.07,5.16,5.16,0,0,1-.43.84,4.15,4.15,0,0,1-.8.94,4.55,4.55,0,0,1-1.11.68c-.11,0-.29.11-.5.17L399,156l-.6.13a6.73,6.73,0,0,1-.72.09c-.22,0-.5,0-.84,0h-4.38a7.4,7.4,0,0,1-1-.07,8.92,8.92,0,0,1-.91-.16,5.82,5.82,0,0,1-1.07-.37,5.65,5.65,0,0,1-.6-.34c-.06,0-.28-.2-.53-.43a4.14,4.14,0,0,1-.41-.45,5,5,0,0,1-.45-.7,7.38,7.38,0,0,1-.34-.79c-.09-.27-.14-.48-.16-.56a6.32,6.32,0,0,1-.1-.67c0-.25,0-.45,0-.52s0-.35,0-.5v-1.31h1.82v1.42a4.64,4.64,0,0,0,0,.57,3.65,3.65,0,0,0,.12.59,2.69,2.69,0,0,0,1,1.54,3.58,3.58,0,0,0,.56.43c.05,0,.13.08.26.13l.27.11c.06,0,.18,0,.63.12a3.24,3.24,0,0,0,.44.07l.4,0h4.69a7.8,7.8,0,0,0,1-.1,6.61,6.61,0,0,0,.71-.15,3.81,3.81,0,0,0,.63-.24,2.11,2.11,0,0,0,.54-.33,2,2,0,0,0,.43-.62,4.36,4.36,0,0,0,.36-.79,4,4,0,0,0,.15-.75,2.45,2.45,0,0,0,0-.46v-1.41Z"/><rect class="cls-7" x="140.16" y="219.4" width="338.6" height="13.34"/><text class="cls-8" transform="translate(200.64 316.9)">Visit us</text><circle class="cls-5" cx="155.27" cy="301.99" r="21.22"/><text class="cls-9" transform="translate(147.76 310.57)">1</text><text class="cls-8" transform="translate(788.49 589.05)"><tspan class="cls-10">M</tspan><tspan class="cls-11" x="21.6" y="0">e</tspan><tspan class="cls-12" x="36.13" y="0">e</tspan><tspan class="cls-11" x="50.35" y="0">t ou</tspan><tspan class="cls-13" x="99.7" y="0">r</tspan><tspan class="cls-14" x="109.52" y="0"> </tspan><tspan x="117.25" y="0">team</tspan></text><text class="cls-15" transform="translate(728.2 589.05)">2</text><circle class="cls-5" cx="737.28" cy="577.83" r="21.22"/><text class="cls-9" transform="translate(729.77 586.41)">2</text><text class="cls-8" transform="translate(203.93 874.13)"><tspan class="cls-16">R</tspan><tspan x="16.45" y="0">eci</tspan><tspan class="cls-17" x="51.97" y="0">e</tspan><tspan class="cls-18" x="66.12" y="0">v</tspan><tspan x="79.35" y="0">e </tspan><tspan class="cls-19" x="102" y="0">S</tspan><tspan x="117.95" y="0">pecialist ca</tspan><tspan class="cls-20" x="258.45" y="0">r</tspan><tspan x="268.47" y="0">e</tspan></text><text class="cls-15" transform="translate(143.64 874.13)">2</text><circle class="cls-5" cx="152.72" cy="862.9" r="21.22"/><text class="cls-9" transform="translate(145.21 871.48)">3</text><text class="cls-8" transform="translate(799.49 1183.11)">G<tspan class="cls-21" x="18.1" y="0">e</tspan><tspan x="32.33" y="0">t ca</tspan><tspan class="cls-20" x="79.45" y="0">r</tspan><tspan x="89.47" y="0">e on</tspan><tspan class="cls-22" x="142.75" y="0"> </tspan><tspan class="cls-23" x="150.47" y="0">t</tspan><tspan x="161.17" y="0">he go</tspan><tspan x="0" y="32">wi</tspan><tspan class="cls-23" x="28.62" y="32">t</tspan><tspan x="39.32" y="32">h ou</tspan><tspan class="cls-24" x="93.55" y="32">r</tspan><tspan x="103.37" y="32" xml:space="preserve"> app</tspan></text><circle class="cls-5" cx="744.65" cy="1177.78" r="21.22"/><text class="cls-9" transform="translate(737.15 1186.36)">4</text><text class="cls-8" transform="translate(294.63 1467.43)"><tspan class="cls-10">M</tspan><tspan class="cls-11" x="21.6" y="0">e</tspan><tspan class="cls-12" x="36.13" y="0">e</tspan><tspan class="cls-11" x="50.35" y="0">t </tspan><tspan class="cls-25" x="69.07" y="0">o</tspan><tspan class="cls-26" x="84.05" y="0">t</tspan><tspan class="cls-11" x="94.75" y="0">he</tspan><tspan class="cls-27" x="124.75" y="0">r</tspan><tspan x="134.67" y="0">s</tspan><tspan class="cls-28" x="147.9" y="0"> </tspan><tspan x="155.47" y="0">who</tspan><tspan x="0" y="32">unde</tspan><tspan class="cls-27" x="61.2" y="32">r</tspan><tspan x="71.12" y="32">s</tspan><tspan class="cls-29" x="84.35" y="32">t</tspan><tspan x="95.02" y="32">and</tspan></text><text class="cls-15" transform="translate(238.34 1474.43)">2</text><circle class="cls-5" cx="247.42" cy="1463.2" r="21.22"/><text class="cls-9" transform="translate(239.91 1471.78)">5</text><path class="cls-30" d="M0,232H1001.36l2.1,0,2.31.07,3.07.15,3.88.26,4,.37,3.91.45,4.11.58,4.91.83,3.68.72,4.3,1,3.86,1,4.32,1.2,4.94,1.53,4.79,1.64,5.19,2,3,1.26,3.49,1.53,3.07,1.43,3.5,1.73,3.52,1.84,3.52,1.95,2.87,1.69,3.46,2.13,3,2,4.13,2.84,3.39,2.48,3.13,2.42,2.6,2.1,2.06,1.74,4.1,3.64,4.22,4,3.33,3.39,2.64,2.85,3.17,3.61,3.86,4.73,2,2.56,2.63,3.62,2.21,3.22,2.84,4.42,2,3.32,2.42,4.31,2,3.93,1.54,3.16,1.86,4.09,1.46,3.5,1.11,2.83,1.72,4.74,1.34,4.13,1.74,6.14.78,3.14,1.39,6.57.62,3.58.64,4.39.55,4.89.23,2.78.27,4.55.09,2.78v7.25l-.19,4.64-.32,4.27-.81,7.08-1.5,8.81-1.91,8.13-2.51,8.45-2.85,7.83-2.77,6.51-2.92,6.06-4.22,7.71-5.45,8.59-3.33,4.69-6.14,7.77-6.24,6.95-5.49,5.5-6.77,6.07-9.66,7.56-7.44,5.07-6.65,4-6,3.29-5.93,2.93-7.56,3.3-8.64,3.24-5.55,1.79-7.24,2-7.91,1.79-8.69,1.52-8.15,1-4,.33-4.66.27h-3.56l-6.82.16H182.77l-4.53.07-4.26.21-5.36.45-4.75.58-3.38.51-5.13,1-6,1.38-6.25,1.75-4.6,1.5-5.31,2-6.33,2.69-6.17,3-5.3,2.91-4.64,2.82L106.44,558l-5,3.64-3.71,2.94-3.15,2.69-4.23,3.88-4.44,4.49-2.53,2.75-3.27,3.84-2.79,3.52-3.08,4.22-2.93,4.39-2.44,4-2.72,4.92L64,607.49l-2.41,5.42-1.78,4.54-2,5.74-1.45,5.06-1.83,8.08-.87,5.27-.47,3.72-.4,4.46-.25,4.88-.05,5.69.15,3.82.33,4.77.45,4.08L54,676.7l.71,4,.68,3.27,1.5,5.94L58,693.51l1.72,5,1.82,4.68,2.6,5.85,2.11,4.21,2.27,4.13,3.7,6,3.52,5.09,3,4L82,736.42,87.09,742l3.51,3.49,4.6,4.19,4.42,3.67L108,759.5l4.46,2.87,3.94,2.33,4.44,2.41,7.22,3.47L136,773.8l4.72,1.65,5,1.54,4.62,1.22,4,.91,3.31.67,3.7.64,4.63.66,3.71.41,4.76.37,5.9.23,6.76,0H899.47l102,.26h50.91l5.18.05,2.93.12,3.34.22,3.74.36,4.63.61,3.22.53,4.43.88,3.86.91,4.34,1.19,5.15,1.64,6.65,2.52,4.33,1.88,4,1.92,5.47,3,4.62,2.8,3,2,4,2.88,4.34,3.4,2.73,2.31,2.48,2.24,2.53,2.42,2.39,2.43,2.6,2.82,2.51,2.9,2.17,2.69,2.6,3.46,1.39,2,2.32,3.52,2.1,3.45,1.65,2.92,1.59,3.05,2.19,4.64,1.53,3.61,1.32,3.49,1.65,5,1,3.35,1,3.83.8,3.83.68,4,.56,4.36.4,4.93.19,4.82v9l-.33,4.6-.45,4.48-.37,2.69-.72,4.26-.81,3.83-1,3.9-1,3.48-1.51,4.53-1.78,4.6-1.4,3.24-2.63,5.4-2.14,3.91-2.5,4.12-4.67,6.78-3.46,4.41-3.36,3.88-4.75,4.95-3,2.79-4.49,3.89-3.5,2.76-3.5,2.56-5.79,3.82-5,2.9-5.39,2.8-4.94,2.27-6.75,2.66-5.74,1.9-6.07,1.67-7.7,1.63-5.26.82-4.74.53-5.19.37-7.78.15H443.68q-5.19-.06-10.44,0c-58.92.64-129.46,12.37-208.24,48.3"/><text class="cls-31" transform="translate(132.58 356.65)"><tspan class="cls-32">W</tspan><tspan x="16.11" y="0">e h</tspan><tspan class="cls-33" x="42.88" y="0">a</tspan><tspan x="52.42" y="0">ve</tspan><tspan class="cls-34" x="71.55" y="0"> </tspan><tspan x="77.13" y="0">th</tspan><tspan class="cls-35" x="95.17" y="0">r</tspan><tspan x="101.98" y="0">ee ce</tspan><tspan class="cls-36" x="147.99" y="0">n</tspan><tspan x="158.62" y="0">t</tspan><tspan class="cls-37" x="165.9" y="0">r</tspan><tspan class="cls-38" x="172.71" y="0">es, in Dublin,</tspan><tspan x="0" y="22.86">Cor</tspan><tspan class="cls-39" x="29.57" y="22.86">k</tspan><tspan x="39.04" y="22.86" xml:space="preserve"> and </tspan><tspan class="cls-40" x="82.43" y="22.86">M</tspan><tspan class="cls-41" x="97.16" y="22.86">a</tspan><tspan x="106.49" y="22.86">y</tspan><tspan class="cls-42" x="115.79" y="22.86">o</tspan><tspan class="cls-43" x="126.01" y="22.86">. See</tspan><tspan class="cls-34" x="167.88" y="22.86"> </tspan><tspan x="173.46" y="22.86">thrive.ie</tspan><tspan class="cls-44" x="241.67" y="22.86"> </tspan><tspan class="cls-45" x="247.27" y="22.86">f</tspan><tspan x="253.85" y="22.86">o</tspan><tspan class="cls-46" x="264.42" y="22.86">r</tspan><tspan x="271.11" y="22.86" xml:space="preserve"> mo</tspan><tspan class="cls-37" x="304.16" y="22.86">r</tspan><tspan class="cls-38" x="310.97" y="22.86">e.</tspan></text><path class="cls-30" d="M224.91,1055c-12.11,8.9-24.35,17.68-35.68,27.58l-6.31,6-8.56,9-5.67,6.65-5.62,7.25-5.09,7.31-4.66,7.45-3.38,6-3.69,7.31-3,6.73-2.36,6-1.89,5.4-1.58,5.07-1.66,6.18-1.46,6.51-1.15,6.48-.76,5.57-.6,6.22-.23,3.46-.19,5.56v4.84l.2,5.69.34,4.88.39,3.92.56,4.36.83,5.2,1.15,5.85,1.26,5.32,1.92,6.88,1.83,5.65L142,1261l2.8,6.79,1.84,4,1.37,2.85,4.09,7.79,2.07,3.62,2,3.28,2.14,3.4,3.57,5.32,2.51,3.53,2.08,2.81,2.55,3.3,2.73,3.39,4.3,5,3,3.32,2.19,2.35,2.71,2.82,8.41,8.15,2.74,2.48,2.72,2.39,2.27,1.94,2.27,1.89,2,1.61,2.45,1.95,2.38,1.84,3.94,3,3.15,2.28,2.67,1.86,3.15,2.15,2.64,1.75,2.66,1.71,2.95,1.85,2.64,1.61,2.48,1.48,2.32,1.35,2.16,1.22,2.34,1.31,2.9,1.57,2.08,1.1,3.88,2,4.34,2.14L259,1377l5.4,2.45,3,1.32,3.15,1.33,2.94,1.21,2.87,1.14,3,1.15,2.51.93,2.95,1.08,3.56,1.25,2.41.82,2.62.87,3.41,1.08,2.78.86,3,.89,2.47.71,2.55.71,5,1.32,4.5,1.12,4.51,1.06,3.77.83,7.53,1.53c60.64,10.91,121,8.73,182.36,8.2,218.26-1.87,436.49-2.33,654.75-2.8h123.23"/><path class="cls-47" d="M275.84,1003.28c.77,1.89,4.9,2.84,7.82,1.49,4.36-2,2.57-7.56,7.08-11.18,5.25-4.21,13.48-1.36,14.16-1.11,1.17.42,7.28,2.63,9.69,8.94a14.7,14.7,0,0,1,.74,7.45,17.37,17.37,0,0,0,1.46-10.64c-1.63-8.16-9.54-13.22-16.36-14.38a18.6,18.6,0,0,0-12.17,1.77c-1.27.72-1.45,1.07-9.73,12.16C276.36,1000.7,275.34,1002.06,275.84,1003.28Z"/><path class="cls-48" d="M403.27,997.11a7.83,7.83,0,0,0,2,3.86l4.75-7.93a14.65,14.65,0,0,1,2.37-5.43c.84-1.17,1.56-2.15,2.72-2.38,1.71-.33,3.32,1.19,3.9,1.7,2,1.74,5.75,3.53,13.4,3.73l1,18.83,2.37-4.24v-11l-1.18-5.09-3.4-4a14.78,14.78,0,0,0-5.59-3.85c-6-2.3-11.43.31-12.56.85a18.25,18.25,0,0,0-8.31,8.65C402.85,994.5,403.17,996.56,403.27,997.11Z"/><ellipse class="cls-49" cx="297.69" cy="1012.27" rx="19.4" ry="22.29"/><path class="cls-2" d="M271.77,1034.56a38.56,38.56,0,0,0,7.86,4.77c3.41,1.55,10.59,4.81,18.24,3.09,1.93-.43,2.17-.8,3.65-.84s4.64.28,10.94,5.89c5,4.43,7.46,6.65,9.26,10.67A30.22,30.22,0,0,1,324,1071a39.21,39.21,0,0,1-.28,4.21l-4.21,3.65c0,1.61.08,4,0,7a139.85,139.85,0,0,1-3.37,26.09,201.39,201.39,0,0,0-3.65,30.59v1.45c-.86,0-2.21.08-3.86,0-10.14-.45-12.66-4.13-19.47-4.36-6.35-.22-6.53,2.9-15.07,3.69a37.77,37.77,0,0,1-13.08-1.13l-8.92-6.57L243,1123.86l8.8-12.33-2.51-39.25-17.11-16.1a32.72,32.72,0,0,1,6.54-9.81,34,34,0,0,1,18.37-9.56Z"/><path class="cls-49" d="M249.49,1075.41l-19.51,19-.5,2L243,1123.86l9.06,11.82,10.18,9.92a3.12,3.12,0,0,1,1,1.73c.17,1-.08,2.34-1,2.78s-2.57-.16-3.33-1.8l-5.07-5.21,0,9.5a3.53,3.53,0,0,1-.76,1c-2,1.86-6,.73-8.27-.48A11.48,11.48,0,0,1,240,1148a13.23,13.23,0,0,1-.76-9l-26.75-35.56-.82-3.12v-12.06l4.48-9.36,16-22.67,17.11,16.1Z"/><path class="cls-50" d="M312.46,1144.05l17.79,76.25c0,.59,0,1.46,0,2.51,0,5.74-.15,10.1-.17,10.7a95.75,95.75,0,0,1-2.68,16.9c-2.92,12.54-5.43,21.33-9.2,36.3-1.76,7-2.84,11.52-3.18,17.89a74.59,74.59,0,0,0,.67,14.56,12.78,12.78,0,0,1-2.17,2c-6.84,5-16.58,1.44-18.57.67a133.47,133.47,0,0,1-1.34-14.22c-.1-2.35-.13-4.61-.11-6.78a185.82,185.82,0,0,1,2.28-25c1.32-9.4,2.84-16.58,4-22.08,1.55-7.24,3.09-13.38,4.35-18.06l-18.39-39.52h-1.14l-.89,44a150.55,150.55,0,0,0,0,16,152.86,152.86,0,0,0,4.66,30.23l4.11,11.2.37,1.87v1.39l0,4.14.16,3,.33,5,.45,4.31.58,4.64-3.24,1.8-14.31,5.15a4.64,4.64,0,0,1-2.3,0c-2.57-.68-3.5-3.44-3.58-3.71a250.2,250.2,0,0,1-8.43-44.33c-1.4-14.54-1.76-32.21-5.6-57.24-.87-5.67-1.36-8.09-1.82-10.13-1.6-7-3.56-12.56-12.63-35.54-2.3-5.83-3.51-8.87-4.31-13.62a51.72,51.72,0,0,1-.33-14.94l.2-10.25.44-1.31.83,1.1-.44,2.7v1.73l.25,1.81.56,1.88.74,1.59.61,1,1.1,1.39.89.84,1,.77.79.49,1.7.76,1.13.35,1.2.25,1,.1,1.42-.1,1.13-.4.68-.48.76-1V1149l0-5.86,2.38,2.44,1.55,1.59,1.14,1.18.67,1,.93.7.88.25.85-.14.61-.56.42-1.06,0-1.16-.37-1-.61-.75-1.54-1.5-2.2-2.15-2.74-2.66-3.7-3.61,4.19,3.09,4.73,3.48,1.23.3,2.28.46,2.15.3,2.07.17,2.68,0,1.48-.06,2.2-.2,1.61-.24,1.94-.44,1.89-.62,2.24-1,1.58-.64,1.13-.35,1.44-.25,1.54-.09,1.54.06,1.73.22,1.33.29,1.36.39,1.62.56,1.25.46,1.24.45,1.43.47,1.58.46,2,.44,2.48.37,2.14.18,2.13.07Z"/><circle class="cls-51" cx="351.67" cy="1028.78" r="19.4"/><path class="cls-52" d="M348.26,1010.52a13.52,13.52,0,0,0-7.16,4.12,11.75,11.75,0,0,0-3,5.85c-.69,3.9,1.19,6.76.21,7.37s-3.15-2.06-3.9-1.52,1,4.72,2.38,7.16a34.19,34.19,0,0,0,3,4.55l-5-1.9a24.16,24.16,0,0,1-4.66-7.67,25.62,25.62,0,0,1-.21-16.6l10.92-9.41a15.8,15.8,0,0,1,3.19-1.13c9.33-2.14,17.52,5.51,18.25,6.21a19.88,19.88,0,0,1,6,10,19.41,19.41,0,0,1-.56,10.73l-4.52-7.9-6.2-7.19Z"/><path class="cls-50" d="M343.91,1050.13a18.62,18.62,0,0,0,3.9,6.72,20.17,20.17,0,0,0,6.29,4.56c2.65,1.33,5.5,2.78,9.33,2.6a15.55,15.55,0,0,0,9.1-3.69,10.19,10.19,0,0,1,6.65,2.71,10.52,10.52,0,0,1,3.07,8.25,31.66,31.66,0,0,1,0,14.14c-.88,3.73-1.87,4.52-4,10.84a80.84,80.84,0,0,0-3.3,12.26,49.62,49.62,0,0,0-.71,16.74,46.43,46.43,0,0,0,5.19,15.56,44.8,44.8,0,0,0,3.3,5.18l.33,3.19-10.42.75c-27.9,2-33.81,2.52-38.23.71a23.84,23.84,0,0,0-8.67-2,23.06,23.06,0,0,0-3.55.18v1.82a7.36,7.36,0,0,1-1.9-.4,8,8,0,0,1-3.41-2.36,138.18,138.18,0,0,1,1.61-30c.83-5,2.09-10.57,3-19.61.66-6.32.88-11.53,1-15l-.26-6.81,1.48-1.28.17-1.7.1-2v-1.75l-.07-2.21-.11-1.49-.23-1.7-.16-.93-.42-1.79-.48-1.59-.78-2-.63-1.29-.74-1.25-1-1.4-.9-1.07,3.08-2.54,2-1.32h19.87Z"/><path class="cls-53" d="M322.18,1150.7c0,.36,0,.71-.07,1.07q-.33,5.13-.5,10.58c-.16,4.88-.18,9.6-.11,14.13l0,6.14,1.86,7.94,1.77,7.63,2.65,11.35,2.51,10.76v4.36l-.08,4.73-.14,5-.2,2.57-.29,2.34-.3,2-.59,3.26-1,4.53-.77,3.33.61,10.34,2.72,39.14H334l3.8-.63h5.06l2.89,1.26h1.81l-.46-29.37.46-31.34,1.65-19,2.18-27.94,1.54-11.53.28-1.62,1.79-.07.35,23.62v32l-1.73,28-1.48,26.38,3.87.16,2.13-.82,2.3-.57,3.54.57,2.3.17,2.79-.5L374,1242l1.12-21.52,1.5-7.3,5.05-19.66,1.43-9.66v-34.67l-19.88,1.44-9.86.68-6.86.36-4.67.1-3.24-.16-2.65-.46-3.38-1.22-3.4-.74-3.38-.49-3.55.18Z"/><path class="cls-54" d="M322.18,1150.7v-1.82l-1.14-.18a26.67,26.67,0,0,1-3.44-.84l-.75-.23,0,.31.74.76,1,.75.87.5.83.35.78.22Z"/><ellipse class="cls-55" cx="418.87" cy="1005.08" rx="21.48" ry="16.3" transform="translate(-650.97 1207.79) rotate(-78.11)"/><path class="cls-53" d="M372.53,1060.32l1,.08,1.78.38.94.34,1.55.82,1.39,1.09,1,1.15.89,1.42.47,1.06.48,1.7.19,2.92.3,1.63.32,2.32.18,3v2.18l-.36,2.87-.42,2.11-1.59,4.57,2.17,3a43.48,43.48,0,0,1,3.09,12.49,32.18,32.18,0,0,1-.61,12c-1.54,5.78-4.7,10.19-7,13.4-.83,1.16-1.56,2.09-2.08,2.72l1,2.67,2.17,4.56,3.3,5.18,3.14,1.7a90.45,90.45,0,0,0,16.05,5.86q1.88.48,3.69.87l3.91-9.55-.44,9.11a42.11,42.11,0,0,0,4.77.44c1.11,0,26.31.53,33-14.76,3.27-7.5.65-15.5-1.08-19.53l-1.3-4.55a76.14,76.14,0,0,1-2.82-11.5c-.35-2.08-.4-2.95-1.09-15.41-.48-8.75-.7-13.17.22-15.84,1-2.95,2.09-3.93,2.17-6.72.09-3.41-1.45-4.4-3.26-9.55s-3-8.43-2-11.93c.92-3.17,2.87-4.28,3.47-8.46a15.65,15.65,0,0,0,0-4.37l-15.52-3.5a13.18,13.18,0,0,1-21.11,6.93,14.83,14.83,0,0,1-5.54-9.7l-24.9,7.86-4.13,1.75-1.17,9V1063l2-1.37Z"/><path class="cls-50" d="M382.72,1146l.33,17.08v20.78l-.94,6.36c.36,6.56.7,11.86.94,15.51.34,5.07.48,6.78.51,9.61a97.51,97.51,0,0,1-.84,13.38c-1.7,13.88-3.94,32.2,1.26,47,1.82,5.21,4.94,11.08,4.39,17.56a17.34,17.34,0,0,0,3.76,13.08c2.8-1.6,5-2.94,6.48-3.87,2-1.23,3-1.9,4.37-1.76a5.72,5.72,0,0,1,3.8,2.67v-12.67l-1.69-2.68-1.41-5.77.14-22.39-.14-14.5,1.27-14.22,2.39-13.8,5.92-19.86,1.55,2.82,1,33.09v40.69l-.7,14.37-1.83,2.81-.57,3.38-.28,5.21,3.38,1,4.65.14,1.41-1.41,4.92-.14,1.55,1.83,2.68-2.54.7-4.22v-4.79l1-7.6c.25-1.26.68-3.57,1.12-6.48,2.39-15.78.4-19.79,2.64-31.59.67-3.52,1.44-6.26,1.5-10.7,0-2-.09-3.84.19-7.13.1-1.12.3-3.16.75-5.63a75.7,75.7,0,0,1,2.25-8.63,83.54,83.54,0,0,0,2.44-12.39,114.74,114.74,0,0,0,1.13-12.77l1.5-22.14,1.13-9.26v-6.76l.44-11.84-1.52,4-1.12,1.85-1.32,1.68-1.11,1.17-2.06,1.76-1.75,1.2-3,1.65-2.62,1.11-2.61.88-2,.55-2.34.54-3.48.6-3.17.36-2.22.16-2.47.08-5.9-.44.41-8.53,0-.58-3.91,9.55-3.69-.87-2.35-.65-2.09-.63-2.53-.85-3.42-1.27L388,1148.7l-2.18-1Z"/><ellipse class="cls-49" cx="462.01" cy="1038.05" rx="17.62" ry="19.4"/><path class="cls-56" d="M453.61,1015c.53.27.13,1.17.75,2.38.7,1.37,1.79,1.4,1.86,2.2s-1.24,1.36-2.53,2.59-1.29,1.88-2.8,5.28c-2.33,5.23-2.44,4.39-3,6.23-.75,2.64-.61,4.75-.39,8.1s.33,5.14,1.28,7c1.17,2.31,2.11,2.17,3.27,4.75a17.89,17.89,0,0,1,1.28,5.53c.38,3,.57,4.42-.1,5-1.47,1.15-5.75-2.23-7-3.21a28.87,28.87,0,0,1-6.36-7l-2-2.46-.35-1.5-.21-1.43-.05-1.18.09-1.22.29-1.36.47-1.28.68-1.35.4-.69.59-1,.6-1.28.35-1,.24-1,.19-1.2.09-1.18v-1.16l-.15-1.63a13.11,13.11,0,0,1,0-2.14c.54-5.86,4.92-9.73,5.94-10.63,1.46-1.29,1.26-.68,4.16-2.91C452.3,1015.37,453.09,1014.72,453.61,1015Z"/><path class="cls-2" d="M454,1066.18l8,11.56,6.32-11.56,9.2-6.63H490.8a14.07,14.07,0,0,0-1.37,3.21c-1.9,6.77,2.4,11.92,5.86,24,.13.45,1,3.45,1.71,7.06,2.26,11.25.92,16.74,1.28,26.74.65,17.5,5.49,20,2.14,25.46-3.63,5.94-11.84,7-21.39,8.35a78.29,78.29,0,0,1-28.67-1.5l-2.58-.75.6-13.57-.07-5,.07-2.91-.6-4.18V1119a20.37,20.37,0,0,0-3.83-19l-1.92-4-1.32-4.09-.47-8.83-.12-5.12.63-5.08,1.48-3.54.69-3.18Z"/><path class="cls-56" d="M455.1,1016.3c0,1.47,1.81,2.71,3.18,3.21,2.38.86,3.5-.55,6.21-.11A9.32,9.32,0,0,1,470,1023c1.57,2.17.66,3.24,2,8,1.06,3.76,1.84,3.82,2.66,7.32a24.11,24.11,0,0,1,.66,6.86c-.23,4.11-1.69,6.31-3.54,10.64-.48,1.13-1.65,4.89-4,12.41-3.72,12-4,14.3-2.88,16.83,1.25,2.72,3.56,4.32,5.32,5.54,3.07,2.13,7.33,3.75,8.2,2.66s-1.63-3.73-.89-4.43,2.53,1.43,5.1,1.33c2.76-.11,4.73-2.64,5.09-3.1,2.86-3.67,1.42-8.85.44-14.18-2.16-11.8.55-9.72-1.55-21-1.87-10.16-4.91-16.6-9.3-25.92a27.73,27.73,0,0,0-6.65-9.31c-2-1.81-5.66-5.06-10-4.43C458.1,1012.48,455,1014.34,455.1,1016.3Z"/><path class="cls-53" d="M498.81,1148c.15,1.74.35,4.31.52,7.43.44,8.36.85,16-.12,23.56-.92,7.23-2.83,12.08-6.54,21.5-4.52,11.49-6.43,12.32-8.63,20.51-.94,3.48-1.45,8.54-2.44,18.51-1.14,11.55-1.73,21-2.07,27.84-.33,6.54-.5,12-.6,16v1.38h.91l-.16,6.56-5.13,3.94v9.6l-1.69,2.82H458.74a8.8,8.8,0,0,1-2-1.27,9.83,9.83,0,0,1-3.25-7.05,9,9,0,0,1,.56-3.11l1.84-2.68,1.84-10.54-.59-13.32-.19-9.6-.39-10.58-3.07-10.89-.68-15.9-2-9.81-6.17-24.24.87-13.58.7-10.38.64-5.22.49-4,.44-3.38,5,1.29,3.61.66,4.63.6,4.32.31,4.8.08,6-.36,5.63-.71,5.66-.92,4.7-1.2,2.53-1Z"/><polygon class="cls-57" points="375.96 1103.8 382.3 1124.81 384.58 1119.85 385.68 1115.97 386.19 1111.91 386.19 1107.88 386.19 1103.8 385.18 1100.52 384.38 1097.34 383.52 1094.69 382.85 1092.96 380.68 1089.99 379.48 1092.86 378.47 1095.59 377.63 1098.09 376.86 1100.52 375.96 1103.8"/><path class="cls-49" d="M501.49,1151.8c.27-2.15.61-5.3.83-9.11a149.13,149.13,0,0,0-1.38-29c-.59-4.58-1.52-10.64-3.08-17.74l-.74-3.72-1.35-5.32-1.77-5.5-1.36-3.67-1.23-3.19-1-3-.63-2.44-.26-2,0-2.13.4-2.12.46-1.36.9-1.85a12.68,12.68,0,0,1,4.6,0,13.77,13.77,0,0,1,7.92,5c2.09,2.54,2.71,5.17,3.87,10.32a66.4,66.4,0,0,1,1.47,10.32c1,6.63,1.62,12.12,2,15.93a230.74,230.74,0,0,1,1.1,41.38c-.34,4.77-.8,8.63-1.1,11l1.6,5.58,2.49,5.8,1.55,5.79-5.08,4.94-8.57,4.94-2.44-.85-.7-4.8-1.42-4.09-.84-1.56.7-8.32.57-5.37Z"/><path class="cls-58" d="M234.94,1055.06a33.4,33.4,0,0,1,7.77-9.41,34.93,34.93,0,0,1,21.18-7.76H271c1.54.83,3.72,1.93,6.42,3.06a47.31,47.31,0,0,0,11.23,3.53,34.42,34.42,0,0,0,12.7-.48l1.74-.29a42.29,42.29,0,0,1,4.63,2.77c2.56,1.75,7.2,4.93,10.47,10.15a28.62,28.62,0,0,1,4.08,16.18l0,1.56-4.27,3.19.09,5.53c0,1.58-.11,4-.34,6.9-.93,11.55-3.31,19-4.82,25.49a111.42,111.42,0,0,0-2.72,25.66,1.26,1.26,0,0,1,0,1.09c-.74,1-4.24-.48-9.4-2.15-5.33-1.73-8-2.59-10.4-2.62-2,0-4.68.67-10,2.08s-5.82,1.88-8.41,2a22,22,0,0,1-8-1.06,24.64,24.64,0,0,1-5.53-2.77,42.41,42.41,0,0,1-7-5.53,45.89,45.89,0,0,1-5.42-6.28l-1-1.69,8.49-11.61-1-19.72-.72-21.23Z"/><line class="cls-58" x1="246.57" y1="1042.9" x2="251.8" y2="1071.67"/><path class="cls-58" d="M253.52,1112.62a16.3,16.3,0,0,1,5.4,0c1.49.26,3.83.88,9.77,4.94,5.54,3.78,6.15,5,9.09,5.91a15.27,15.27,0,0,0,7.27.22"/><path class="cls-58" d="M242.1,1156c1.18,5.07,3.14,12.81,6.12,22.11,5.24,16.3,7.76,19.09,10.89,31.3,2.59,10.09,3.37,18,4.42,28.57.54,5.44.94,13.68,1.7,29.94.91,19.24.82,20.31,1.36,24.5a124.71,124.71,0,0,0,7.83,29.93"/><path class="cls-58" d="M298.26,1316.53c.18-3.83.53-9.38,1.25-16,.4-3.71.77-6.43,3-20.56,3.3-20.89,4.5-27.63,5.51-33.08.59-3.15,1.09-5.76,1.43-7.53a127.44,127.44,0,0,0-21.77-58.54l-2.64-3"/><line class="cls-58" x1="284.62" y1="1196.17" x2="285.05" y2="1168.1"/><path class="cls-58" d="M295,1166.27a60.21,60.21,0,0,1,12.85-2.14,62.41,62.41,0,0,1,6.42,0"/><path class="cls-58" d="M275.07,1143.27a42.36,42.36,0,0,0,5.56,1.91,39.21,39.21,0,0,0,13.23,1.53,35.8,35.8,0,0,0,6.44-1l3.19-2.21"/><path class="cls-58" d="M312.51,1151.46a8.25,8.25,0,0,1-4.91-2.72,7.81,7.81,0,0,1-1.53-2.88"/><path class="cls-58" d="M288.94,1141.79a40.68,40.68,0,0,1-3.22,23.74"/><line class="cls-58" x1="258.91" y1="1148.31" x2="253.81" y2="1152.6"/><path class="cls-59" d="M275.63,1329.06v5.53a5.82,5.82,0,0,0,0,3.2c1.54,5,10.37,5.61,13.17,5.82,5,.37,6.52-.93,7-1.43a6,6,0,0,0,1.42-3.67c.58-5.37-.85-10.88-2-14.35l-.85-2.19-3.24,1.8Z"/><path class="cls-59" d="M296.89,1330.77l2.85-.75h2l1.47,3.9,3.69,3.68,3.68,1.05h10.88a3.78,3.78,0,0,0,3.66-1.05,4,4,0,0,0-.53-5.37l-4.42-7.48-4.48-5.59-2.17,2-2.12,1.24-2.6.9-3.05.43-3.59-.11-3.34-.59-3.87-1.2-.6.14,1.07,2.84,1.35,5.31"/><path class="cls-58" d="M325.19,1152.87a46.65,46.65,0,0,0,11.82,3.85c3.78.68,7.16.65,13.74.55,7.9-.12,11.95-.21,16.77-1.38a48.5,48.5,0,0,0,9.9-3.57"/><path class="cls-58" d="M339.71,1153.29a10.45,10.45,0,0,1-1,6.08,11,11,0,0,1-5.64,4.92,14,14,0,0,1-9.27.58"/><path class="cls-58" d="M341.88,1153.14A12.61,12.61,0,0,1,335.8,1166a14.33,14.33,0,0,1-10.86,1.44"/><line class="cls-58" x1="351.3" y1="1178.91" x2="343.18" y2="1175.87"/><line class="cls-58" x1="360.12" y1="1178.91" x2="368.22" y2="1173.7"/><path class="cls-58" d="M372.71,1151.12a9.4,9.4,0,0,0,.44,4.77,7.92,7.92,0,0,0,7.52,5.5"/><path class="cls-58" d="M370,1151.4a14.14,14.14,0,0,0,1.16,6.08,10.21,10.21,0,0,0,3.76,4.93,9.33,9.33,0,0,0,5.36,1.44"/><path class="cls-58" d="M361.27,1159.22a18.78,18.78,0,0,1-4.19,18.39"/><polyline class="cls-58" points="358.37 1159.34 358.73 1165.4 358.37 1172.75"/><circle class="cls-4" cx="292.17" cy="1144.49" r="0.91"/><circle class="cls-4" cx="359.6" cy="1154.43" r="0.91"/><path class="cls-60" d="M333.23,1231.89c1.18-.16,1.59.43,4,1.48,2.2.94,2.84.89,4.3,1.88.82.56,1.87,1.29,1.75,2,0,.19-.2.67-1.88,1.21-1.5.47-4.84,1.53-7.93-.41a6.2,6.2,0,0,1-2.15-2,3.1,3.1,0,0,1-.42-2.69A3,3,0,0,1,333.23,1231.89Z"/><polygon class="cls-61" points="329.4 1289.62 346.61 1289.62 347.52 1302.54 345.71 1302.54 342.82 1301.27 337.75 1301.27 333.96 1301.9 330.26 1301.9 329.4 1289.62"/><polygon class="cls-61" points="352.82 1278.9 370.16 1279.5 369.03 1290.69 366.24 1291.19 360.4 1290.45 355.97 1291.84 352.11 1291.68 352.82 1278.9"/><path class="cls-62" d="M334,1301.9a6.32,6.32,0,0,1,3.8-.63h5.06l2.89,1.26c0,1.07,0,2.68,0,4.65.09,5.46.14,8.18.8,9.9,1.24,3.23,2.77,3.13,4,7,.55,1.73,1.1,3.57.27,5.36s-2.55,2.51-4.27,3.27a17.14,17.14,0,0,1-6.18,1.27c-4,.25-6,.52-7.17-.46-1.91-1.57-1.8-4.73-1.73-6.9.07-1.91.42-1.92.91-5.27a60.34,60.34,0,0,0,.55-6.72c.14-3.52.22-5.28,0-6.26-.51-2.28-1.43-3.54-.73-4.91A3.88,3.88,0,0,1,334,1301.9Z"/><path class="cls-62" d="M370.9,1318c-1.1,2.91-4,4.14-5.13,4.63-1,.43-4.77,2-8.2.07a7.94,7.94,0,0,1-3.28-3.78,8.42,8.42,0,0,1-.57-4.63l-.71-9.41v-6.42l1-5.28,2-1.36,4.43-1.39,4.71.67c0,1.35,0,3.29.12,5.64.21,4.21.33,6.36,1.11,8.22,1.12,2.68,2.06,2.31,3.43,5.27C370.66,1312.18,372,1315.09,370.9,1318Z"/><polyline class="cls-58" points="411.58 1041.27 409.8 1117.53 410.69 1142.44"/><circle class="cls-4" cx="411.91" cy="1128.01" r="1.24"/><circle class="cls-4" cx="412.28" cy="1110.94" r="1.24"/><circle class="cls-4" cx="413.52" cy="1093.53" r="1.24"/><circle class="cls-4" cx="414.37" cy="1076.85" r="1.24"/><circle class="cls-4" cx="414.37" cy="1061.24" r="1.24"/><circle class="cls-4" cx="414.69" cy="1045.62" r="1.24"/><polyline class="cls-58" points="439.99 1057.45 425.74 1057.45 425.26 1079.67 432.62 1084.7 439.99 1081.8"/><line class="cls-58" x1="426.13" y1="1063.05" x2="442.44" y2="1063.05"/><path class="cls-58" d="M378.32,1038.66a53.8,53.8,0,0,0-2,9.75,54.93,54.93,0,0,0-.21,10.35"/><ellipse class="cls-63" cx="879.13" cy="837.4" rx="19.06" ry="19.08"/><path class="cls-64" d="M859.17,830.81c.82.55,2,.18,4.13-.52s2.8-1.36,3.61-1c1.09.44.67,1.82,1.81,3.1,1.73,1.95,4.19.41,5.94,2.07,2,1.92.28,5.45,2.06,6.46,1.36.76,3.45-.67,3.62-.78,2.79-1.94,1.85-5.31,3.87-6.2,1.74-.77,4.67.74,5.94,2.84,1.69,2.81-.35,5.43,1.29,7,1.39,1.31,4.53,1,5.94-.52.94-1,.31-1.78.77-6.72.27-2.87.76-5.49,1-7a12.65,12.65,0,0,0,.52-2.59c0-.39,0-1.68-1.48-4.55a14,14,0,0,0-2.58-4.07,9.13,9.13,0,0,0-4.48-2.59c-1.22-.25-1.57,0-2.58-.4-1.58-.63-2-1.73-2.86-2.45-2-1.7-5.44-.64-9.77.68-3.11,1-6.27,1.91-8.56,4.48a20.13,20.13,0,0,1-2.31,2.59c-1.77,1.57-2.83,1.72-3.39,3.12-.27.68-.27,1.24-.82,1.63s-1.21.1-1.76.41C857.91,826.47,857.74,829.85,859.17,830.81Z"/><path class="cls-50" d="M901.17,854.38c-1.44-.42-2.75.26-4.89,1.39-.81.44-2.38,1.34-6.28,4.9-4.52,4.11-5,5.25-7,5.59-.7.11-1.76.16-2.23.92s-.06,1.92.37,2.77c-.63,1.19-1.53,2.9-2.58,5-4.88,9.71-7.32,14.56-8.31,20-.06.31,0,4.77,0,13.67.06,13.85.16,14.2-.19,16.46-.63,4.09-.79,6.36-1.11,10.9a12.69,12.69,0,0,0,.19,4.62,8.78,8.78,0,0,1,.6,2.63,16.8,16.8,0,0,1-.58,2.87c-.06.37,0,.3-.34,3.1-.21,2-.24,2.12-.12,2.41.56,1.32,2.27,1.31,2.3,2.07s-1.31.83-2.18,2a4.66,4.66,0,0,0-.69,3.55c1.11-.18,2.78-.43,4.82-.57,5.85-.41,8.24.46,12.15.23,4.07-.24,7-1.51,10.32-3,4.4-1.94,7.28-4.14,12.84-8.38,2.69-2.05,4.85-3.85,6.35-5.15,0-1.16,0-2.77,0-4.7,0-4.06.14-7.56.21-9.39.22-5.57.63-7.05,1.22-13.9.47-5.38.22-4.55.82-13.9.77-12,1.15-12.93.82-17.16-.58-7.25-2.25-11.3-3.07-13.08a21.9,21.9,0,0,0-4.9-7.35c-1.64-1.56-2.15-1.46-3.87-3.27C903.08,856.63,903,854.9,901.17,854.38Z"/><path class="cls-53" d="M918.79,948.62a21.37,21.37,0,0,1,2.56,10.22c-.06,3.73-1.2,6.48-7.15,17.89-5.19,9.95-5.09,9.32-6.13,11.75-3.24,7.58-2.39,9.39-5.11,17.89-1.69,5.29-4.36,10.69-9.7,21.47-3.11,6.27-5.8,11.37-7.66,14.82l-6.11-3.07L857,1037l-8.17-2c.61-4.61,1.19-8.58,1.67-11.72,1.44-9.45,2-11.71,2.87-14.09s1.3-3,2.3-6A71.23,71.23,0,0,0,858,994c2.37-12.46,0-16,3.16-19.26.89-.91,2.78-2.36,3.22-4.84.23-1.32-.09-2.06.37-3.17.7-1.68,2.5-2.52,3.9-3l1.14-5.84,8-.31a29,29,0,0,0,7.33.31c1.73-.15,7.38-.79,21-8.93,2.1-1.25,5.09-3.11,8.62-5.54Z"/><path class="cls-65" d="M892.32,1029l5.81,9.57a71.4,71.4,0,0,0,30.73-10.13,13.65,13.65,0,0,0-2.81-5.25c-4.08-4.65-9.7-4.08-10.5-7.32-.41-1.68,1.11-1.81,1.88-5.62.53-2.65,0-3.47,0-8.82,0-3.8.29-3.24.19-5.25A31.3,31.3,0,0,0,915,985.84a51.8,51.8,0,0,0-3.73-7.64"/><path class="cls-63" d="M879.49,1039.8a93,93,0,0,1-1.36,10.47c-1.12,6-1.8,6.39-3.56,14.46a76.33,76.33,0,0,0-2.07,14.83c0,1.63,0,3,0,4a4.27,4.27,0,0,0-1.21.63,5.47,5.47,0,0,0-2,4h-3.57l-3.9-2.61a7.29,7.29,0,0,0-1.31-3.69,7.15,7.15,0,0,0-3.46-2.6,16.64,16.64,0,0,0,1.3-2.28,19,19,0,0,0,1.62-7.7,96.89,96.89,0,0,0-.21-10c-.08-1.5-.24-3.89-.55-8.68-.21-3.36-.3-4.56-.43-6.07-.23-2.63-.47-4.79-.65-6.3l-.2-.89Z"/><path class="cls-63" d="M906.42,1037.71l4.28,3.61,8,5.89,9.7,7.48,4.94,4.3,10.5,13.06,4.13-2.71a3.05,3.05,0,0,0,1.75-1.43c.7-1.44-.09-3.67-2.23-5.1l2.48-4.14-10.27-11.3L929,1033.51l-3.08-4Z"/><path class="cls-66" d="M883,878.29l1.68-5a15.37,15.37,0,0,1,2.53-.84,16.75,16.75,0,0,1,15.12,4.13,14.34,14.34,0,0,1,4,15L902.87,913a17.82,17.82,0,0,0-2.2-1.51c-5.76-3.33-12.06-2.45-14.57-2.07a27.68,27.68,0,0,0-4.13,1V895.12Z"/><path class="cls-63" d="M902.32,914a74.62,74.62,0,0,1-3.51,11.22c-2.52,6.23-4.09,7.6-5.69,8a6.35,6.35,0,0,1-3.84-.5c-7.68-2.62-11.52-3.92-12.88-4.69-5-2.8-8.57-4.83-10.37-8.2a6.82,6.82,0,0,0-2.67-3,6.72,6.72,0,0,0-4.18-.67l-1.56,1.42-2.34.69-4.49-.6-1.12-2.24V913.4l-2.14,1.68-.93,1.4-.66.48-.91-.66.55-2,2-3.44,5.79-4.64,3.07.6,1.87.67a19.35,19.35,0,0,1,4,.36c3,.57,3.91,1.45,8.49,3.43a33.91,33.91,0,0,0,7.9,2.66,23.58,23.58,0,0,0,4.45.3l-.18-4.16c.6-.1,1.52-.24,2.65-.36,4-.45,7.24-.82,10.79.12A17.76,17.76,0,0,1,901.3,912Z"/><path class="cls-63" d="M851.5,921.15a2.12,2.12,0,0,1-1.4-.5c-.56-.52-.43-1.16-1-1.45a1.08,1.08,0,0,0-1.2.1,1.07,1.07,0,0,0-.3.8l-.7-.05-.24-2.88a1.57,1.57,0,0,0-.84-.32,1.59,1.59,0,0,0-1,.32,3.12,3.12,0,0,0-.66,1c-.46.8-.48,1-.69,1a1.13,1.13,0,0,1-1.1-.46c-.22-.27-.18-.44-.35-1s-.37-1.22-.8-1.5a1.32,1.32,0,0,0-1.39,0,1.28,1.28,0,0,0-.36.45,3,3,0,0,0-.39,1.29l-1.42-.32-4.28-1.36s-.6-.19-.84.06.13,1.06.19,1.17a2.63,2.63,0,0,0,1.62,1.1l2.27,1.07,3,.1a5.27,5.27,0,0,0,1.56,3.7c.59.5.83.37,2.2,1,2.82,1.23,3.49,2.52,5.05,2.33a3,3,0,0,0,1.43-.58l3.37-1.36,1.81-1,15.09,1v-1.92l-3.94-3.49-1.84-2-4.94-.19-1.52.63-2.4.44-2.52-.12.14,1.23-.18,1.13-.41.46Z"/><polygon class="cls-63" points="843.5 915.16 843.5 914.12 841.77 913.73 839.99 912.89 837.97 911.65 836.98 910.62 836.98 909.38 837.87 908.89 839.45 909.38 841.87 910.57 843.99 911.01 847 911.31 847.54 911.36 846.66 912.94 845.97 914.37 845.77 915.75 843.5 915.16"/><path class="cls-67" d="M835.29,913.07a1.3,1.3,0,0,0-1.12-.07,1.21,1.21,0,0,0-.5.57,2.2,2.2,0,0,0,0,1.61,2.93,2.93,0,0,0,.36.77l2.94,1.16,2.11.56.24-1.19.43-.49,1.12,0,.66.36.39.84.21,1.26.42.35h1.06l.28-.31.31-.7.32-.67.49-.32.7-.1.67.21.35.31.24,1.09V920l.15.07h.57l.13-.8.47-.44.88,0,.63.63.21.71.26.61.49.23H852l.52-.11.32-.62v-2l-1.28-.28-.89-.85-2.6-.61-1-.21-.4.16-.79,0-.63-.41-.53-.49-1.79-.3Z"/><path class="cls-53" d="M950.88,1056.65a5.84,5.84,0,0,0-3.59,2.1,3.3,3.3,0,0,0-.9,2.09c0,1.52,1.6,1.84,1.94,3.44.27,1.25-.39,2.36-1,3.45a9.55,9.55,0,0,1-4,3.59l-.59.33-.83-.7-1.7,1c-.46.15-1,.39-1.08.8s.44.93,2.2,2.37c2.13,1.74,2.31,1.86,2.61,2.29.82,1.14.39,1.44,1.23,2.94,1,1.84,1.91,1.77,2.28,3.18.28,1-.2,1.07,0,2.7a12.89,12.89,0,0,0,1,3.35c.53,1.24.8,1.42.82,2.12a4.24,4.24,0,0,1-.82,2.29,29.29,29.29,0,0,0-1.71,3.76l.07,1.48.37,1.65,1.12,1h1.57l1.86-.71,4.47-3.27,4.68-5.59,2-3.64,1.2-3.57.35-4.17v-3.73l.63-2.31,1.59-3.33,1.19-3.41.48-5-.72-4.12-1.59-2-3-.08-2.46.48h-3.09l-3-.48Z"/><path class="cls-68" d="M965.7,1057.35c-.51,0-1,.48-1.25.94a32.12,32.12,0,0,0-1.14,3.43,56.51,56.51,0,0,0-1.46,8.21,25.39,25.39,0,0,1-.83,4.89c-.39,1.24-.67,1.65-1.25,3.33s-.69,2.52-1.14,4.16c-.83,3.08-1.17,2.91-2.49,7a42.66,42.66,0,0,1-1.73,5.27c-.29.63-.89,1.66-2.1,3.72A7.26,7.26,0,0,1,950,1101a2.45,2.45,0,0,1-1.61.5,2.37,2.37,0,0,1-1.54-.87,2.13,2.13,0,0,0,.47,1.1,2.49,2.49,0,0,0,2,.81,3.37,3.37,0,0,0,2-.81c5.14-4,4.93-3.74,5.28-4.09a37.92,37.92,0,0,0,6-8.29,15,15,0,0,0,1.62-3.64,25.29,25.29,0,0,0,0-7.24,4.8,4.8,0,0,1,.21-2.7,4.57,4.57,0,0,1,1.2-1.63c1.71-1.68,2.05-4.36,2.48-7.8a13.4,13.4,0,0,0,0-5C968,1061.2,967.11,1057.38,965.7,1057.35Z"/><path class="cls-53" d="M856,1078.33c.89-.41,2.17.59,2.49.84a8.13,8.13,0,0,1,2.08,3.08,11.64,11.64,0,0,0,1.16,2.16,12,12,0,0,0,1.58,1.5,23.56,23.56,0,0,0,2.33,1.91c.91.44,2.65.88,3.58.09.67-.58.25-1.23,1-2.75.35-.72.93-1.9,2-2.17a3.27,3.27,0,0,1,2.66,1c1.12,1,1.43,2.41,2,5.16.49,2.38.35,2.91,1,4.16s1,1.29,1.58,2.33c.42.81,1.45,2.83.75,4.33-.58,1.23-2.07,1.59-4.25,2.08a30.06,30.06,0,0,1-6.4.5c-2.73.06-4.41.1-6.82,0-2.24-.09-2.48-.18-3.91-.16a36.33,36.33,0,0,0-5.57.58,36.67,36.67,0,0,1-11,.08,33.84,33.84,0,0,1-6-1.58,22.88,22.88,0,0,1-4.91-2.33c-1.21-.77-1.7-1.25-2-1.91a3.77,3.77,0,0,1,.25-3.5,4,4,0,0,1,2.57-1.75l8.24-.5c.64-.22,1.59-.56,2.74-1a25.21,25.21,0,0,0,2.66-1.08,12.81,12.81,0,0,0,3.16-2.49c1.54-1.54,1.28-1.76,2.5-2.83,1.69-1.5,2.28-1.13,3.07-2.25C855.74,1080.25,855.1,1078.77,856,1078.33Z"/><polygon class="cls-53" points="970.43 471.24 972.73 474.95 976.09 476.9 982.11 475.48 982.11 484.5 949.39 484.5 948.15 482.73 949.04 480.96 957.53 477.87 970.43 471.24"/><polygon class="cls-53" points="1023.91 470.14 1026.07 470.14 1030 472.1 1031.96 472.1 1037.26 467.39 1041.58 475.63 1021.16 485.84 1008.21 485.84 1007.23 483.48 1009.39 480.93 1017.24 477.87 1020.38 475.24 1023.91 470.14"/><polygon class="cls-69" points="1026.08 465.37 1025.37 470.14 1026.07 470.14 1030 472.1 1031.96 472.1 1037.26 467.39 1036.41 461.53 1026.08 465.37"/><polygon class="cls-69" points="982.59 468.24 982.11 475.48 976.09 476.9 974.18 475.79 972.73 474.95 970.43 471.24 971.58 468.24 982.59 468.24"/><path class="cls-70" d="M806.54,281.53c2.76,9.2-.58,18.33-7.48,20.41s-14.73-3.7-17.5-12.89.58-18.34,7.48-20.41S803.77,272.33,806.54,281.53Z"/><ellipse class="cls-71" cx="852.42" cy="250.86" rx="13.04" ry="17.39" transform="translate(-19.9 81.74) rotate(-5.43)"/><rect class="cls-72" x="784.76" y="324.73" width="51.87" height="34.92" rx="5.26" ry="5.26"/><rect class="cls-53" x="733.2" y="362.73" width="204.09" height="110.63"/><rect class="cls-6" x="721.06" y="359.65" width="222.08" height="3.08"/><path class="cls-4" d="M800.61,424.38a4.1,4.1,0,0,1-3.08-1,4.39,4.39,0,0,1-1-3.14v-10.1h-2c-.23,0-.38,0-.44-.12a1,1,0,0,1-.09-.5v-.81a1,1,0,0,1,.09-.5c.06-.08.21-.12.44-.12h2v-3.95a.65.65,0,0,1,.14-.5.79.79,0,0,1,.51-.12h1.15a.79.79,0,0,1,.51.12.69.69,0,0,1,.14.5v3.95h3.2c.23,0,.38,0,.44.12a1,1,0,0,1,.09.5v.81a1,1,0,0,1-.09.5c-.06.08-.21.12-.44.12H799v9.7a3,3,0,0,0,.42,1.82,1.64,1.64,0,0,0,1.38.54h1.47c.22,0,.37,0,.43.13a.89.89,0,0,1,.09.49v.94a.91.91,0,0,1-.09.49c-.06.09-.21.13-.43.13Z"/><path class="cls-4" d="M809.43,409.74a5.32,5.32,0,0,1,2-1.54,6.59,6.59,0,0,1,2.71-.55,5.31,5.31,0,0,1,4,1.4,5.57,5.57,0,0,1,1.37,4.07v10.64a.62.62,0,0,1-.14.49.73.73,0,0,1-.51.13H817.7a.73.73,0,0,1-.51-.13.62.62,0,0,1-.14-.49V413.65a4.2,4.2,0,0,0-.84-2.9,3.52,3.52,0,0,0-2.71-.92,3.85,3.85,0,0,0-3,1.2,4.52,4.52,0,0,0-1.1,3.18v9.55a.67.67,0,0,1-.14.49.73.73,0,0,1-.51.13h-1.15a.73.73,0,0,1-.51-.13.62.62,0,0,1-.14-.49V402.87c0-.25,0-.42.14-.5a.79.79,0,0,1,.51-.12h1.15a.79.79,0,0,1,.51.12.68.68,0,0,1,.14.5Z"/><path class="cls-4" d="M826.93,411.07a5.07,5.07,0,0,1,1.78-2.16,4.64,4.64,0,0,1,2.69-.82h.41c.22,0,.37,0,.43.12a1,1,0,0,1,.09.5v1.12a1,1,0,0,1-.09.5c-.06.08-.21.12-.43.12H831a3.41,3.41,0,0,0-1.67.41,3.83,3.83,0,0,0-1.25,1.13,5.2,5.2,0,0,0-.81,1.71,7.57,7.57,0,0,0-.28,2.13v7.93a.67.67,0,0,1-.14.49.76.76,0,0,1-.51.13h-1.15a.78.78,0,0,1-.52-.13.67.67,0,0,1-.14-.49V408.71a.69.69,0,0,1,.14-.5.84.84,0,0,1,.52-.12h1.08a.84.84,0,0,1,.52.12.69.69,0,0,1,.14.5Z"/><path class="cls-4" d="M837.24,405.2a1.69,1.69,0,0,1-1.13-.37,1.32,1.32,0,0,1-.42-1v-.5a1.26,1.26,0,0,1,.42-1,1.64,1.64,0,0,1,1.13-.38,1.74,1.74,0,0,1,1.18.38,1.25,1.25,0,0,1,.44,1v.5a1.3,1.3,0,0,1-.44,1A1.79,1.79,0,0,1,837.24,405.2Zm1.21,18.56a.62.62,0,0,1-.14.49.73.73,0,0,1-.51.13h-1.15a.73.73,0,0,1-.51-.13.67.67,0,0,1-.14-.49V408.71a.69.69,0,0,1,.14-.5.79.79,0,0,1,.51-.12h1.15a.79.79,0,0,1,.51.12.65.65,0,0,1,.14.5Z"/><path class="cls-4" d="M843.67,408.09a.62.62,0,0,1,.45.14,1.18,1.18,0,0,1,.27.51l4.32,13.18,4.2-13.18a1.28,1.28,0,0,1,.26-.53.67.67,0,0,1,.45-.12h1.31c.33,0,.49.12.49.37a2.34,2.34,0,0,1-.09.38l-5,14.85a1.73,1.73,0,0,1-.31.55.76.76,0,0,1-.5.14h-1.8a.75.75,0,0,1-.5-.14,1.42,1.42,0,0,1-.31-.55l-5-14.85a2.34,2.34,0,0,1-.09-.38c0-.25.17-.37.5-.37Z"/><path class="cls-4" d="M860.64,417v.59q0,5.13,4.17,5.13a3.43,3.43,0,0,0,3.51-2,1.14,1.14,0,0,1,.26-.45.92.92,0,0,1,.45-.08h1.12a1.27,1.27,0,0,1,.56.08c.09,0,.13.19.13.42a2.81,2.81,0,0,1-.34,1.12,5.75,5.75,0,0,1-.78,1.18,5.21,5.21,0,0,1-2.1,1.36,8,8,0,0,1-2.91.5,6.26,6.26,0,0,1-4.83-1.83,7.4,7.4,0,0,1-1.69-5.22v-2.34a8.81,8.81,0,0,1,1.67-5.76,6,6,0,0,1,4.88-2q6.4,0,6.41,7.12v1.59a.65.65,0,0,1-.14.49.76.76,0,0,1-.51.13Zm4.1-7.4q-4.07,0-4.1,5.38h8a6.9,6.9,0,0,0-.95-4.07A3.42,3.42,0,0,0,864.74,409.58Z"/><path class="cls-5" d="M817.32,425.41c0-.07,0-.16,0-.28s-.09-.56-.13-.92c0-.11,0-.46-.09-.91,0-.27,0-.36-.07-.93,0-.2,0-.37,0-.47l-.19,3.06Z"/><path class="cls-5" d="M838.48,422.6c0,.31-.05.62-.08.95s-.07.64-.12.94l.26-.38Z"/><path class="cls-4" d="M838.44,420.71v2.14a5.8,5.8,0,0,1-.06.8c-.07.64-.11,1-.14,1.09a7.25,7.25,0,0,1-.44,1.44,6.38,6.38,0,0,1-.58,1.12,5.59,5.59,0,0,1-1.07,1.26,5.87,5.87,0,0,1-1.49.92l-.67.23-.62.16c-.29.07-.51.12-.8.17a9.66,9.66,0,0,1-1,.13c-.29,0-.68.05-1.13.06h-5.88a10.29,10.29,0,0,1-1.33-.1,10,10,0,0,1-1.21-.21,7.34,7.34,0,0,1-1.45-.5,5.56,5.56,0,0,1-.8-.46,5.2,5.2,0,0,1-.71-.58,5.17,5.17,0,0,1-1.15-1.54,7,7,0,0,1-.47-1.06,6.33,6.33,0,0,1-.2-.74,8.26,8.26,0,0,1-.14-.91c0-.34,0-.6-.06-.69,0-.26,0-.48,0-.68V421h2.46v1.9a6.14,6.14,0,0,0,0,.76,4.22,4.22,0,0,0,.17.8,4,4,0,0,0,.49,1.16,5,5,0,0,0,.86.91,5.07,5.07,0,0,0,.75.57l.35.18.36.14a7.81,7.81,0,0,0,.84.17l.6.09.53,0h6.3a10.44,10.44,0,0,0,1.39-.13,6.59,6.59,0,0,0,1-.21,4.74,4.74,0,0,0,.85-.32,3.09,3.09,0,0,0,.72-.44,3,3,0,0,0,.59-.84,5,5,0,0,0,.47-1.06,4.36,4.36,0,0,0,.22-1.62v-1.9Z"/><path class="cls-50" d="M784,307.89a20.1,20.1,0,0,0,8.85,2.75c2.45.15,5.85.37,8.85-1.83a10.32,10.32,0,0,0,3.06-3.67l16.78,2.8,9.87,16.79H790l-.92.08-1.69.61-1.48,1.27-.81,1.39-.37,1.91v18.9l-6.9-.35v-4.22l-15.11-1.14,4.31-24a6.66,6.66,0,0,1,.79-3.34,6.88,6.88,0,0,1,3.25-3Z"/><ellipse class="cls-69" cx="984.69" cy="241.84" rx="13.04" ry="17.39"/><path class="cls-53" d="M977.29,269.08a15.54,15.54,0,0,0,9.6,2.66c7-.65,10-7.08,13.86-9.06,5.89-3,18.2,2.06,45.31,32.52l-18.13,34.65-6.78-4.08,9.88-24.1-13.68-7.9-1.05,33.42.26,7.63-8.68,6.57.54,1.43.87,1,1.25,1,2.59-.68,4.53-2.4,1.34-.87.58,2.89-1.54,2.89H971.58l-1.62-27-1.91,1.28L948.5,339.12l-8.92-5.1,11.47-14.23,9.56-10.41,3.2-29.61,2.26-5Z"/><path class="cls-5" d="M971.58,468.24v0Z"/><polygon class="cls-50" points="982.59 468.24 984.82 452.42 988.01 432.98 988.01 426.48 988.01 413.06 988.01 406.21 990.6 397.68 993.68 384.13 996.33 371.55 1003.73 401.93 1009.26 419.89 1015.99 439.66 1026.08 465.37 1036.41 461.53 1032.33 437.02 1028.48 419.89 1024.64 411.07 1023.44 407.65 1023.2 391.85 1019.76 348.64 1018.35 348.64 1017.31 347.69 1018.04 346.57 971.58 346.57 971.58 468.24 982.59 468.24"/><polygon class="cls-70" points="762.75 343.18 761.88 359.29 786.32 359.29 784.76 355.28 784.76 349.34 777.86 348.96 777.86 344.41 762.75 343.18"/><path class="cls-73" d="M805.62,272.57c-.65,2.4-5.63,3.36-8.74,3.37-3.94,0-6.12-1.5-7.4-.23-.74.75-.1,1.38-.67,4.71-.49,2.91-1.09,3-1.34,5.6-.2,2,0,3.18-.45,3.36-.77.28-1.72-2.4-3.59-2.46a2.57,2.57,0,0,0-2.46,1.57c-.51,1.82,3.15,3,4,6.94.2.88.46,2.8-.22,3.14-1.23.61-5.11-4-7.4-8.52-1.58-3.09-3.85-7.52-2.46-11.65.12-.36.75-1.81,2-4.71,1.12-2.55,1.67-3.83,1.8-4,2.29-3.84,8-4.55,11-4.93s6.86-.86,10.75,1.34C802.77,267.38,806.24,270.3,805.62,272.57Z"/><path class="cls-74" d="M999.68,250.26a41.54,41.54,0,0,0,2.8-8.06c.76-3.22,1.19-5.11.73-7.62-.22-1.23-1-5.44-4.37-7.08-1.07-.52-2,.1-2.84-.65s-.48-2-1-3.21c-.87-2-3.59-2.71-5.15-3.09-1.26-.31-3.49-.66-9.78.9-6,1.48-11,2.8-11.71,5.86a4.78,4.78,0,0,0,0,1.75c.35,2.36,1.86,2.67,2.8,5.26.64,1.77.42,3,1,3.15s1.22-.62,1.58-1.23c1-1.7-.23-2.94.35-4.2.7-1.54,4.21-1.51,11.21-1.4,2.71,0,4,.15,4.55,1.05.75,1.25-.82,2.66-.17,4.9.47,1.65,1.47,1.42,2.27,3.16,1.39,3-.65,5.52.71,6.65a2.43,2.43,0,0,0,3-.17c1.09-1.11-.38-3.14.7-4.38a2.72,2.72,0,0,1,3.33-.35c1.19.94,1,3.87-1,7.18"/><path class="cls-75" d="M840.84,241.88c.69-.47,2.08-.34,10.83,5.52,5.32,3.56,8.11,5.73,9.28,4.86s-.6-4.5.89-5.52c.92-.64,2.82-.07,3.75,1.1,2.1,2.65-1.19,7.78-.44,8.18s4-2.78,5.09-7.29c1.27-5.46-1.54-10.14-2.21-11.27-.57-1-4.74-7.67-11.5-8.18-2.94-.22-6.38,1.4-13.26,4.64-1,.48-2.08,1.06-4.2,2.21-3,1.62-3.39,2-3.75,2.43-1.73,2.24-.8,5.49-.67,6,1.06,3.75,4.74,6.65,6,6C842.21,249.61,838.9,243.21,840.84,241.88Z"/><path class="cls-75" d="M857.64,225.3a13.23,13.23,0,0,1,6-.22,9.81,9.81,0,0,1,6,3.1,6.83,6.83,0,0,1,.67,8.39l-2.21.89-3.53-4.34-8-3.84Z"/><path class="cls-2" d="M844.16,272a14.65,14.65,0,0,0,8.56,3.67c6.14.28,8.64-4.5,17.1-6.52,4.16-1,8.39-2,11.81,0,6.58,3.85,6.1,16.45,5.7,27.29-.36,9.65-1.79,9.31-1.22,15.88.37,4.37,1.16,6.38,4.07,20.36,1.63,7.85,2.08,10.6.41,12.62-2.42,2.92-7.55,2.31-10.18,2-7.73-.79-18.9-1.15-35,.41l3.24-14.48,6.79-22.17a33,33,0,0,1-6.79-6A33.66,33.66,0,0,1,841.72,292l-10.34,6.63L837.8,301a5,5,0,0,0-2.55,1.32,6,6,0,0,0-.94,6.44l-14.7.22-7.4-.57-1.51-5.6,4.17-6.26Z"/><line class="cls-76" x1="873.98" y1="288.52" x2="873.74" y2="342.19"/><rect class="cls-5" x="873.86" y="337.2" width="7.57" height="5.11"/><polygon class="cls-5" points="845.7 348.14 844.99 359.64 890.47 359.64 890.9 345.7 888.02 347.51 883.68 348.14 877.87 348.14 870.51 346.93 861.87 346.93 852.74 347.56 845.7 348.14"/><path class="cls-77" d="M873.74,342.19a14.35,14.35,0,0,1-4.3,12.44,16,16,0,0,1-2.32,1.85c-.89.57-2.14.93-2.1,2.23a12.39,12.39,0,0,1,2.11,0,3.64,3.64,0,0,0,2.49-1c.54-.43,1.08-.88,1.61-1.32a16,16,0,0,1,2.1-1.65c1.3,1.43,2.59,2.86,3.87,4.31a1.09,1.09,0,0,0,.26.22.87.87,0,0,0,.42.07c3.3,0,6.59,0,9.89-.06h2.29a2.39,2.39,0,0,0-.57-1.39c-1.06-1.22-3.22-1.15-4.68-1.5a5.55,5.55,0,0,1-3-2.09,5.67,5.67,0,0,1-1.68-3.58c0-1.11,0-2.22,0-3.33l-.09-5.07Z"/><circle class="cls-67" cx="860.53" cy="321.22" r="1.09"/><circle class="cls-67" cx="859.44" cy="333.62" r="1.09"/><circle class="cls-67" cx="859.44" cy="307.27" r="1.09"/><circle class="cls-67" cx="856.17" cy="293.62" r="1.09"/><polygon class="cls-5" points="1017.35 293.77 1018.74 333.88 1010.39 341.04 1009.29 343.79 999.24 342.25 1017.35 293.77"/><path class="cls-69" d="M945,337.13a17.23,17.23,0,0,1-1.44,2.34,21,21,0,0,1-8,6.24c-2.1,1.06-2,.73-4.12,1.84-1.38.74-2.75,1.61-5.07,2.68-1.41.64-2.14.89-3,.72a7,7,0,0,1-2.28-1.34A6.75,6.75,0,0,1,919,347.5a1.79,1.79,0,0,1,.56-2.73c1.14-.86,4.17-3.35,8.3-6.74.43-.23.51-.4.5-.51,0-.43-1.58-.3-3.06-1.33-.37-.26-1.09-.76-1-1.23s.87-.78,2-.83h10.92l2.4-.11Z"/><path class="cls-71" d="M837.8,301l7.34,6.61a2.1,2.1,0,0,1,.54.54,2.29,2.29,0,0,1,.38,1.46v11.12a.39.39,0,0,1,0,.28c-.1.3-.55.43-.86.4a1.45,1.45,0,0,1-1-.73,2.17,2.17,0,0,1-.34-1.1l-.68-7.24a.69.69,0,0,0-.05-.5,1,1,0,0,0-1.37-.15,1,1,0,0,0-.29.8l-.1,7.82a.35.35,0,0,1,0,.28c-.13.22-.68.2-1.09,0s-.41-.56-1-.86c-.37-.21-.52-.12-.82-.36s-.23-.37-.47-.65c-.4-.46-.68-.28-1.18-.72a10.21,10.21,0,0,1-.77-1c-.23-.28-.45-.37-.6-.67a1.61,1.61,0,0,1-.16-.63V310.4a1.6,1.6,0,0,0,0-.31,1.8,1.8,0,0,0-.69-1.17l-.34-.12-.1-.27-.14-.47-.07-.24-.06-.27-.06-.36,0-.35,0-.37v-.76l0-.22,0-.4.09-.41.1-.38.15-.39.15-.33.14-.25.16-.27.16-.23.21-.25.2-.22.25-.23.32-.25.26-.17.3-.17.31-.15.38-.15.26-.09Z"/><polygon class="cls-53" points="1018.74 333.88 1019.77 345.11 1019.77 346.57 1008.55 346.57 1008.07 340.65 1018.74 333.88"/><polygon class="cls-50" points="1019.76 348.64 1019.77 346.57 1018.04 346.57 1017.37 346.62 1016.76 348.04 1017.83 349.04 1019.76 348.64"/><path class="cls-78" d="M1020.71,340.34c.31.37,0,1.25,0,1.76a6.78,6.78,0,0,1-1,3c-.53.91-.77,1.22-.76,1.76a.94.94,0,0,0,.24.73,1,1,0,0,0,.9.17,1.51,1.51,0,0,0,.69-.34,11.22,11.22,0,0,0,2.77-4.4c.44-1.33.28-1.37.73-2.77a28.89,28.89,0,0,1,1.39-3.33c.74-1.57,1.12-2.35,1.17-2.49a10.13,10.13,0,0,0,.53-4.94.6.6,0,0,0-.08-.29.83.83,0,0,0-.26-.23l-4.17-2.61a2,2,0,0,0-.73-.33c-1-.15-2.47.64-3.32,1a.52.52,0,0,0-.22.17.54.54,0,0,0-.06.31c.06,2.1.15,4.21.15,6.31a3,3,0,0,1-.09.95c-.2.65-1.07,1-1.59,1.36-.8.56-1.57,1.15-2.36,1.72l-2.34,1.67a9.16,9.16,0,0,0-2,1.46,1.18,1.18,0,0,0-.16,1,1,1,0,0,0,1.43.4l7.08-5.06-5.55,4.51a2.82,2.82,0,0,0-.84,1.05c-.19.62.46.75.9.79.67.05,1.54-.11,3.33-1.43,1.24-.91,2.17-1.81,3.46-2.11C1020.39,340.14,1020.59,340.2,1020.71,340.34Z"/><polygon class="cls-79" points="551.82 686.33 566.18 705.37 562.8 686.33 551.82 686.33"/><path class="cls-53" d="M354.11,609.38c-1.36.84-3.31,2.09-5.57,3.71-5.14,3.68-8.91,6.38-11.76,10.31A28.66,28.66,0,0,0,332,635.57c-.7,3.63-1.08,8.34,5.37,32.51,3,11.32,5.25,18.29,9.65,19a4.7,4.7,0,0,0,1.51,0H557.84a19.27,19.27,0,0,0,14.26-5.59c4.22-4.39,3.6-8.64,5.63-22.1.83-5.51,2.76-16.82,2.74-25.27,0-2.14-.13-6.26-2.88-9.53a12,12,0,0,0-1.3-1.3L548.7,603.06c-.51-2.84-1.27-6.88-2.35-11.7-4.06-18.06-6.21-27.2-12.32-32.54-2-1.72-5.1-3.87-17.59-6.16-9.68-1.77-24-2.2-42.22-2.2h-80a15.14,15.14,0,0,0-6.1,0c-8.35,1.78-11.81,10.38-12.1,11.13-1.21,3.16-.2,3.25-1,10-1.32,11.45-4.45,13.65-4.14,22.71.11,3.3.56,3.86,0,5.48-1.87,5.4-9.71,7.6-16.17,8.61"/><path class="cls-80" d="M544,602.23c-8.21-.4-14.39,1-15.25,4.07a3.11,3.11,0,0,0,0,1.58v15.76H420.52"/><line class="cls-80" x1="553.61" y1="644.39" x2="361" y2="644.39"/><path class="cls-81" d="M336.78,623.4c-3.31,2.69-3.72,6.89-3.79,8l-1,4.19.24,10.15,5.13,22.36,4.41,13.69,5.24,5.31h128.4l57.32.07,25.07-.07,6.75-1,7.51-4.62,2.42-3.53,2.3-11.92L579.65,646l.82-11.84-1.39-7.2a9.16,9.16,0,0,0-2.79-3.63c-4.8-3.64-13.65-2-17.73,3.47a13.09,13.09,0,0,0-2.47,7.68l-.82,28.8H358.09l.65-18.84a22.21,22.21,0,0,0-.65-10.52c-.77-2.43-2.37-7.51-7.35-10.37C347.51,621.65,341.22,619.8,336.78,623.4Z"/><polygon class="cls-79" points="366.83 687.07 347.04 706.86 350.95 687.07 366.83 687.07"/><ellipse class="cls-82" cx="385.76" cy="547.5" rx="11.56" ry="14.57"/><path class="cls-2" d="M374.76,570.77c2.49,1,2.46,1.69,4.87,3,1.14.6,6.58,3.5,12.71,1.89a16.18,16.18,0,0,0,8.38-5.68,11.78,11.78,0,0,1,8.38,0,11.56,11.56,0,0,1,5.13,4.06l9.19,22.7-10,3.25-6.22-9.19L405,594.56l-.54,3,4.06,3.78,13.51,14a89.93,89.93,0,0,0-14.87,0A74.57,74.57,0,0,0,385,620c-8.36,3.29-14,7.56-14.87,6.49s5.45-5.24,5.41-11.89c0-2.12-.66-2-2.17-7.57-.73-2.7-1.21-5.44-2.16-10.82-.52-3-1.19-6.91-1.89-11.62l-11.36,16-14.86,4,20-31.33a7,7,0,0,1,2.43-2.71C368.9,568.41,373.16,570.13,374.76,570.77Z"/><path class="cls-50" d="M370.17,626.46l-1.83,7.77a5.88,5.88,0,0,0,0,3.75c1.82,5,10.47,3.39,18.22,9.82a26.82,26.82,0,0,1,4.62,5.19,49.76,49.76,0,0,1,8.66,19.92c1.62,7.23,6.38,17.86,20.5,32.34l11.05-4-11.63-24.83-2.31-4.33,21.08,27.52,7.22-1.83,4-1.5v-2.32l-5.8-12.53-17.4-29.7-6.5-9.51c.77-.89,1.93-2.19,3.39-3.71,5.23-5.45,6.55-5.62,7.28-7.89,1.43-4.44-1.89-9.14-2.32-9.75a13.66,13.66,0,0,0-3.94-3.71l-2.37-1.84-6.64-.3-10.67.3-6.28,1-8,1.82-7.18,2.57-7.57,3.67Z"/><path class="cls-83" d="M423.9,704a44.43,44.43,0,0,0,3.67,6.7c2.29,3.44,4,6,7.21,7.37.39.17,4.46,1.91,5.9.33.3-.33.93-1.31-.5-5.24A30.69,30.69,0,0,0,434,703l-2.57-1.74Z"/><path class="cls-82" d="M343.14,604.54l-3.24,4.52a33.33,33.33,0,0,0,5.92,1.76,37.34,37.34,0,0,0,13.85-.12,53.61,53.61,0,0,0,9.31-2.79c3.79-1.37,7.64-2.54,11.41-4,1.94-.73,4.74-1.82,6.4-.58a10.43,10.43,0,0,1,1.62,1.8c1.13,1.47,1.12,2,1.64,2.53.34.37,1.48,1.45,7.1.89,3.08-.31,3.69-.73,6-1s4.22-.06,8.23.38c7.21.79,9.57,1.75,13.56.64a18,18,0,0,0,2.15-.76l-3.62-11.11-10,3.25a2.25,2.25,0,0,1,.07,1.9c-1,2-6.35,1.55-10.14.38-3.22-1-3.6-2-6.08-2-2.19,0-3,.77-5.06.38s-2.55-1.28-4.18-2-3-.83-8.11-.13c-6.05.84-8.13,1.63-12.67,2.28a64.17,64.17,0,0,1-7.73.64l-1.52-.86Z"/><path class="cls-84" d="M383.33,532.67c.86.32.54,1.85,1.35,4.75a17.68,17.68,0,0,0,3.26,6.52c2.82,3.21,5.13,1.75,7.74,4.75a11.46,11.46,0,0,1,2.44,7.87c-.27,3.38-2,3.63-2.71,7.46-.23,1.28-1,5.78,1.63,8.55,1.95,2.06,4.8,2.12,7.73,2.18s6.25.12,8.28-2c2.69-2.86,1.56-7.72,1.09-9.77-1-4.24-2.62-4.33-4.35-9.1-1.86-5.16-.3-6.07-2-11.13-.86-2.49-2.36-6.9-6.52-9.9s-9.12-3.17-12.62-3.26c-2.3-.06-3.39.79-5.84.41-3.26-.51-4.1-2-6.24-1.63-2.68.43-4.3,3.2-4.89,4.2-1.5,2.58-1.54,4.93-1.62,8.55-.31,13.78-.45,13.23-.28,14.39.84,5.62,1.79,3.77,3.94,12.76.64,2.68,1,4.88,2.85,5.84a5.2,5.2,0,0,0,5.57-.55c2.66-2.27,1.12-6.8.95-7.33-.93-2.72-2.52-3.17-4.62-5.7a19.12,19.12,0,0,1-4.21-15.06c.6-3.2,2.1-5.39,3.8-7.87C378.87,536.33,381.78,532.09,383.33,532.67Z"/><path class="cls-83" d="M441.08,698.92a22.13,22.13,0,0,0,.74,6.33c1.27,4.72,4.52,10.39,6.88,10,1.36-.23,2-2.4,2.49-4a16.11,16.11,0,0,0-1-11.12l-.44-3.92Z"/><polygon class="cls-85" points="239.68 686.98 233.91 725.43 245.16 727.02 247.21 718.48 246.45 715.36 244.3 686.95 239.68 686.98"/><polygon class="cls-86" points="245.47 727.46 245.47 750.14 240.5 750.14 231.27 727.46 245.47 727.46"/><polygon class="cls-86" points="148.25 727.46 139.73 750.14 132.53 750.14 132.53 727.46 148.25 727.46"/><path class="cls-2" d="M174.79,635.23c0-.25-.08-.5-.13-.75a43.67,43.67,0,0,0-3.73-11.62,43,43,0,0,0-11.57-14.31,40.16,40.16,0,0,0-8.07-5h-1l-3,8.67,27.51,28.52Z"/><path class="cls-87" d="M190.69,679.73l6.74,1.14h22.89l26.56-23.66a18.54,18.54,0,0,0,3.69,2.61,20.39,20.39,0,0,0,5.43,1.87c2.29.51,2.48.26,4.7.8,2.42.58,3.63.88,4.52,1.59,2.92,2.35,2,6.78,3.8,7.18,1.2.27,2.66-1.55,3.26-3a7.32,7.32,0,0,0,.36-3.59,21.17,21.17,0,0,0-1.81-6.38c-.64-1.65-1.21-4.49-2.35-10.17-1.06-5.27-.9-5.62-1.63-7.38s-2.05-4.93-5.06-6.58a9.72,9.72,0,0,0-6.51-.8c-7.33,1.14-11.62,5-17.55,8.18a52.42,52.42,0,0,1-14.28,5.18l-7.43.34-1.3,3.34-2.54,4.09-6.42,8.41-7,8.82-5.37,5.84Z"/><path class="cls-87" d="M242.83,652.38l-29.85,25,21.67,2.45h13.47a80.06,80.06,0,0,0,0,9c.38,7.08,1.46,10.14,3.52,20.24,1.9,9.33,3.07,17,4.24,24.65.65,4.2,1.14,7.71,1.48,10.22l22.32-7.77-2.12-6.78a13.55,13.55,0,0,0,.2-5.58c-.62-3.37-2.25-4.4-3.27-7.38-1.15-3.32,0-4.5,0-9.57,0-2.55-.33-2.72-2.51-13-1.32-6.21-2-9.32-2.5-12.76a110.61,110.61,0,0,1-1.15-12l-.63-1.93-.77-.53-.62-1.52-1-3.24-.76-1.23-1.08-1.06-1.39-.73-2.91-.78-.78-.18-2-.36-2.25-.28-1.94-.39-1.62-.4-1.65-.54-2-.85-2.46-1.46Z"/><path class="cls-88" d="M259.82,743.91l-.53,9.3h13.5v-1.57l6.89,1.57H302.2a2.81,2.81,0,0,0,.44-1c.3-1.5-.7-3.28-2.46-4.54l-8.36-1.1-12.14-10Z"/><path class="cls-88" d="M271.21,659.25l.93,2.67.5,2.76.06,1.67-.19,1.21-.49,1.26-.81,1.22-.72.72-.86.48-.61,0,.56,1.84.26,4.38h11.85a12,12,0,0,0,2.1,0c5.24-.49,11.87-4.79,11.87-10.25,0-.68-.09-3.57-3.36-6.7-1.1-.28-2.26-.52-3.46-.71-5.12-.83-9.81,1-13.56,0A25.25,25.25,0,0,0,271.21,659.25Z"/><ellipse class="cls-89" cx="172.32" cy="560.46" rx="13.24" ry="16.52" transform="translate(-94.21 38.19) rotate(-9.95)"/><path class="cls-90" d="M184.49,600.37a82.61,82.61,0,0,0,.49,10.94c.35,3,.72,3.5,1.24,7.65a50,50,0,0,0,1,6.28,37.08,37.08,0,0,0,1.16,3.84"/><path class="cls-90" d="M158.8,606.47c2.28,5.09,4.55,10.39,6.77,15.89,1,2.41,1.86,5.8,4,10.14a66.62,66.62,0,0,0,4.06,7.15"/><path class="cls-50" d="M160.13,576.07c1.26-1.21,3.23-.8,5.5-.33,3.5.72,3.79,2.08,8.55,3.7a47.84,47.84,0,0,0,4.88,1.35c3.66.84,4,.56,4.89,1,2.58,1.31,2.59,5.2,4,12.45,1.81,9.58,2.72,14.37,6.1,17.85,2.63,2.7,4.23,2.13,5.8,5,2,3.68.14,5.86,2.14,10.44a19.58,19.58,0,0,0,5.19,6.73c2.33,2,3.64,2.19,5.19,4.38a14.36,14.36,0,0,1,2.14,5.38c.91,5.67-3.07,11-5.19,13.81-13.24,17.33-19.86,26-24.43,24.91-2-.47-3.77-2-11-19.52-10.58-25.75-7.24-23.67-14-38.72-2.62-5.8-5.42-11.21-5.5-18.86a36.6,36.6,0,0,1,1.83-13.13c1.22-3.42,2.15-4.09,2.75-7.41C159.8,580.27,158.51,577.64,160.13,576.07Z"/><path class="cls-91" d="M188.16,630.14c-1-.08-1.43.34-5.54,3.58-1.92,1.51-3.7,3.23-5.63,4.74-1.34,1-2.14,1.6-2.39,2.73a5.55,5.55,0,0,0,1.05,3.8,7.87,7.87,0,0,0,2.58,2.63l1.6,0,5.88-5.73,6.35-7a3.94,3.94,0,0,0,0-1.5A4.52,4.52,0,0,0,188.16,630.14Z"/><path class="cls-89" d="M240.87,641.87a7.9,7.9,0,0,1-2.65,0l-4.31.24a.86.86,0,0,0,.16,1.06.62.62,0,0,0,.58,0l6.09.61c.06.05.65.53.56,1s-1,.59-1.3.63a3,3,0,0,1-.74,0h-8a1.69,1.69,0,0,0-.8,1.27c0,.69.9,1.1,2.57,2,3.45,2,3.63,2.44,3.62,2.73,0,.58-.85,1.12-1.59,1.27-.89.18-1.44-.26-4.6-2-1.29-.73-2.09-1.17-3.1-1a3.12,3.12,0,0,0-1.24.55l-3.45.72a82.3,82.3,0,0,1-9.65,1.46,67,67,0,0,1-24.15-1.65,63.74,63.74,0,0,1-9-3.13l5.88-5.73,6.35-7c.92.53,2.24,1.26,3.85,2.07,3.94,2,7,3.5,11,4.47,3.23.78,6,1.44,9.57.81,2.13-.38,2.93-.94,6.24-1.5,2.25-.37,2.1-.15,6-.57,3.19-.34,6.45-.12,9.57-.92a7.38,7.38,0,0,1,3,.15,1,1,0,0,1,.74.45,1.52,1.52,0,0,1-.37,1.59A1.56,1.56,0,0,1,240.87,641.87Z"/><path class="cls-67" d="M175.28,540a4.52,4.52,0,0,1,3.12,4.06,4.43,4.43,0,0,1-2.76,3.85c-1.51.6-2.25-.35-2.94.2-1.95,1.55,2.6,10.09.37,12.17-.52.48-1.24.45-2.39.4-2.53-.11-3.2-1.71-5-1.42a3.5,3.5,0,0,0-2.76,2.43c-.18.86.26,1.26,1.29,4.06a10.77,10.77,0,0,1,.92,3.24c-.06,1.82-1.41,4-2.95,4.26-2.33.4-4.51-3.68-6.24-6.89a20.39,20.39,0,0,1-2.95-8.72,15.84,15.84,0,0,1,1.29-8.11,13.63,13.63,0,0,1,6.62-6.49c3.29-1.33,3.92.37,8.09-1C172.36,540.93,173.33,539.4,175.28,540Z"/><polygon class="cls-53" points="248.6 645.83 248.6 727.46 132.53 727.46 132.53 611.06 146.54 611.06 181.87 647.69 248.6 645.83"/></g></g></svg>