<svg xmlns="http://www.w3.org/2000/svg" viewBox="0 0 1377.28 694.97"><defs><style>.cls-1{fill:#f1e9df;}.cls-2,.cls-3{fill:#7283af;}.cls-3{font-size:19.73px;font-family:Apercu-Regular, Apercu;}.cls-4{letter-spacing:0.02em;}.cls-5{letter-spacing:-0.01em;}.cls-6{letter-spacing:-0.01em;}.cls-7{letter-spacing:0em;}.cls-8{letter-spacing:-0.02em;}.cls-9{letter-spacing:-0.02em;}.cls-10{letter-spacing:-0.02em;}.cls-11{letter-spacing:-0.01em;}.cls-12{letter-spacing:0em;}.cls-13{letter-spacing:0.01em;}.cls-14{letter-spacing:0.01em;}.cls-15{letter-spacing:-0.01em;}.cls-16{letter-spacing:0em;}.cls-17{letter-spacing:-0.01em;}</style></defs><title>leftlogo</title><g id="Layer_2" data-name="Layer 2"><g id="_1200" data-name="1200"><rect class="cls-1" width="1377.28" height="694.97"/><path class="cls-2" d="M431.51,407.85q-15.9,0-23.14-7.48t-7.25-23.6v-76H385.93q-2.56,0-3.27-.93c-.47-.62-.7-1.87-.7-3.74v-6.08c0-1.87.23-3.11.7-3.74s1.56-.93,3.27-.93h15.19V255.69c0-1.87.35-3.11,1.05-3.74s2-.93,3.86-.93h8.65c1.87,0,3.15.31,3.86.93s1,1.87,1,3.74v29.69h24.07q2.58,0,3.27.93a6.77,6.77,0,0,1,.71,3.74v6.08c0,1.87-.24,3.12-.71,3.74s-1.55.93-3.27.93H419.59v72.93q0,9.58,3.15,13.67t10.4,4.09h11c1.71,0,2.8.32,3.27.94s.7,1.87.7,3.74v7c0,1.87-.23,3.12-.7,3.74s-1.56.93-3.27.93Z"/><path class="cls-2" d="M497.86,297.77a40.81,40.81,0,0,1,15.19-11.58,49.27,49.27,0,0,1,20.34-4.09q19.64,0,29.92,10.52t10.28,30.62v79.94c0,1.87-.35,3.12-1.05,3.74s-2,.93-3.86.93H560c-1.87,0-3.16-.31-3.86-.93s-1-1.87-1-3.74v-76q0-15-6.32-21.85t-20.33-6.89q-14,0-22.32,9t-8.3,24v71.76c0,1.87-.35,3.12-1.05,3.74s-2,.93-3.86.93H484.3c-1.87,0-3.15-.31-3.85-.93s-1.05-1.87-1.05-3.74V246.11c0-1.87.35-3.12,1.05-3.74s2-.94,3.85-.94H493c1.87,0,3.16.32,3.86.94s1.05,1.87,1.05,3.74Z"/><path class="cls-2" d="M629.41,307.81a38,38,0,0,1,13.44-16.24,34.83,34.83,0,0,1,20.22-6.19h3q2.57,0,3.27.93c.47.63.7,1.87.7,3.74v8.42c0,1.86-.23,3.11-.7,3.73s-1.56.94-3.27.94H660a25.34,25.34,0,0,0-12.5,3,29,29,0,0,0-9.47,8.53A41,41,0,0,0,632,327.57a58.15,58.15,0,0,0-2.1,16v59.61c0,1.87-.35,3.12-1,3.74s-2,.93-3.86.93h-8.65c-1.87,0-3.15-.31-3.85-.93s-1.05-1.87-1.05-3.74V290.05c0-1.87.35-3.11,1.05-3.74s2-.93,3.85-.93h8.18c1.87,0,3.16.31,3.86.93s1,1.87,1,3.74Z"/><path class="cls-2" d="M707,263.64a12.4,12.4,0,0,1-8.54-2.81,9.78,9.78,0,0,1-3.15-7.71v-3.74a9.53,9.53,0,0,1,3.15-7.48c2.11-1.87,4.95-2.8,8.54-2.8s6.69.93,8.88,2.8a9.37,9.37,0,0,1,3.27,7.48v3.74a9.61,9.61,0,0,1-3.27,7.71C713.68,262.7,710.73,263.64,707,263.64Zm9.11,139.54c0,1.87-.35,3.12-1.05,3.74s-2,.93-3.86.93h-8.65c-1.87,0-3.15-.31-3.85-.93s-1.05-1.87-1.05-3.74V290.05c0-1.87.35-3.11,1.05-3.74s2-.93,3.85-.93h8.65c1.87,0,3.16.31,3.86.93s1.05,1.87,1.05,3.74Z"/><path class="cls-2" d="M755.35,285.38a4.67,4.67,0,0,1,3.39,1.05,10.25,10.25,0,0,1,2,3.85l32.48,99.11,31.56-99.11a9.1,9.1,0,0,1,2-4,5.05,5.05,0,0,1,3.39-.93H840q3.74,0,3.74,2.8A15.84,15.84,0,0,1,843,291L805.37,402.71A11,11,0,0,1,803,406.8a5.51,5.51,0,0,1-3.74,1.05H785.74A5.53,5.53,0,0,1,782,406.8a11,11,0,0,1-2.33-4.09L742.26,291a15.84,15.84,0,0,1-.7-2.81q0-2.81,3.74-2.8Z"/><path class="cls-2" d="M882.93,352.22v4.45q0,38.57,31.32,38.56,19.88,0,26.42-15.19a8.83,8.83,0,0,1,2-3.39,6.52,6.52,0,0,1,3.39-.59h8.42c2.18,0,3.58.2,4.2.59s.94,1.44.94,3.16q0,3.27-2.57,8.41a41.93,41.93,0,0,1-5.85,8.88,39,39,0,0,1-15.77,10.28,61.47,61.47,0,0,1-21.86,3.74q-23.61,0-36.34-13.78t-12.74-39.27V340.54q0-28.29,12.62-43.36t36.7-15.08q48.15,0,48.15,53.53v11.92c0,1.87-.36,3.12-1.06,3.74s-2,.93-3.85.93Zm30.86-55.62q-30.63,0-30.86,40.43h60.31q0-20.8-7.13-30.62T913.79,296.6Z"/><path class="cls-1" d="M557.19,415.62c-.08-.5-.19-1.21-.32-2.08-.3-2-.63-4.25-1-6.92-.1-.87-.41-3.46-.7-6.85-.17-2-.17-2.69-.47-7-.11-1.49-.2-2.71-.25-3.48l-1.44,23Z"/><path class="cls-1" d="M716.28,394.51c-.14,2.3-.33,4.68-.59,7.14s-.55,4.78-.88,7l2-2.81Z"/><path class="cls-2" d="M716,380.28V396.4a48.41,48.41,0,0,1-.41,6c-.59,4.77-.89,7.16-1.09,8.16a58.12,58.12,0,0,1-3.31,10.81,50.59,50.59,0,0,1-4.31,8.42,42.06,42.06,0,0,1-8.1,9.5,44.08,44.08,0,0,1-11.2,6.88c-1.06.43-2.9,1.11-5,1.75-1.63.48-2.87.78-4.65,1.21-2.17.52-3.87.92-6,1.31-2.82.5-4.92.7-7.27.92s-5.14.41-8.53.48h-44.2a79,79,0,0,1-10-.77,77.27,77.27,0,0,1-9.11-1.55,56.82,56.82,0,0,1-10.86-3.79,46.55,46.55,0,0,1-6-3.41,46.4,46.4,0,0,1-9.52-8.85,43.36,43.36,0,0,1-4.51-7.13,55,55,0,0,1-3.47-7.95,49.27,49.27,0,0,1-1.57-5.6,62.12,62.12,0,0,1-1-6.79c-.29-2.58-.41-4.53-.45-5.23-.11-1.9-.14-3.61-.15-5.08v-13.2h18.46v2.86L573.54,396v.8a50.68,50.68,0,0,0,.3,5.69,33.49,33.49,0,0,0,1.3,6.05,30.19,30.19,0,0,0,3.73,8.67c1.61,2.45,3.22,3.92,6.45,6.87a37.77,37.77,0,0,0,5.65,4.28,24.29,24.29,0,0,0,2.6,1.37,26.79,26.79,0,0,0,2.73,1,46.92,46.92,0,0,0,6.31,1.3c2,.34,3.11.51,4.49.66,1.62.18,3,.26,4,.31h42.21c1.28,0,3.05.06,5.15,0a83.18,83.18,0,0,0,10.49-1,54.84,54.84,0,0,0,7.16-1.58,38.6,38.6,0,0,0,6.43-2.43,21.28,21.28,0,0,0,5.39-3.33c1.9-1.7,2.83-3.36,4.43-6.25a41.05,41.05,0,0,0,3.58-8,37.17,37.17,0,0,0,1.55-7.57,34.41,34.41,0,0,0,.11-4.62V384.07Z"/><text class="cls-3" transform="translate(741.56 448.02)">A<tspan class="cls-4" x="11.68" y="0">f</tspan><tspan class="cls-5" x="19.22" y="0">t</tspan><tspan class="cls-6" x="26.5" y="0">e</tspan><tspan x="37.27" y="0">r </tspan><tspan class="cls-7" x="50.71" y="0">c</tspan><tspan class="cls-8" x="61.26" y="0">h</tspan><tspan class="cls-9" x="72.45" y="0">i</tspan><tspan class="cls-5" x="77.4" y="0">l</tspan><tspan class="cls-10" x="82.32" y="0">d</tspan><tspan class="cls-11" x="93.72" y="0">h</tspan><tspan class="cls-12" x="105.01" y="0">o</tspan><tspan class="cls-13" x="116.65" y="0">o</tspan><tspan x="128.51" y="0">d </tspan><tspan class="cls-14" x="145.65" y="0">c</tspan><tspan class="cls-11" x="156.41" y="0">a</tspan><tspan class="cls-15" x="166.37" y="0">n</tspan><tspan class="cls-16" x="177.52" y="0">c</tspan><tspan class="cls-17" x="188.21" y="0">e</tspan><tspan x="198.99" y="0">r</tspan></text><path class="cls-2" d="M969.34,271.55a7.4,7.4,0,1,1-7.37,7.5A7.28,7.28,0,0,1,969.34,271.55Zm6.2,7.45a6.17,6.17,0,1,0-6.21,6.12A6.2,6.2,0,0,0,975.54,279Z"/><path class="cls-2" d="M971.74,280.17l1.19.35a3.46,3.46,0,0,1-3.78,2.67,3.74,3.74,0,0,1-3.66-3.94,5.21,5.21,0,0,1,.46-2.47,3.51,3.51,0,0,1,3.16-2,3.37,3.37,0,0,1,3.14,1.22,7.44,7.44,0,0,1,.62,1.08c-.18,0-.28.09-.39.11s-.52.21-.73.14-.3-.36-.44-.55a2.46,2.46,0,0,0-4.15.53,4.28,4.28,0,0,0,0,3.26,2.3,2.3,0,0,0,2.22,1.46,2.49,2.49,0,0,0,2.3-1.55C971.67,280.4,971.7,280.3,971.74,280.17Z"/></g></g></svg>