<svg xmlns="http://www.w3.org/2000/svg" xmlns:xlink="http://www.w3.org/1999/xlink" viewBox="0 0 652.5 333"><defs><style>.cls-1{fill:none;}.cls-2{fill:#99d4c0;}.cls-3{clip-path:url(#clip-path);}.cls-4{fill:#231f20;}</style><clipPath id="clip-path"><rect class="cls-1" x="159" y="64.23" width="334.41" height="205.77"/></clipPath></defs><title>logo</title><g id="Layer_2" data-name="Layer 2"><g id="Layer_1-2" data-name="Layer 1"><rect class="cls-2" width="652.5" height="333"/><g class="cls-3"><path class="cls-4" d="M218.83,118.35c-1.7-1.78-2.76-4.07-4.71-5.64.4,1.33,0,2.64.07,3.94,0,.94.51,1.44,1.3,1.48a26,26,0,0,0,3.34.22M178.15,162.3c-.36.17-.45.51-.6.83-.55,1.22-.75,2.55-1.18,3.81s-.4,2.79-1.16,4a1.56,1.56,0,0,0,0,.85,1.24,1.24,0,0,1-.12.83,1.72,1.72,0,0,0-.15,1.82c.25.51-.21.86-.46,1.14s-.35-.24-.56-.37c.05,1.12.63,1.6,2.05,1.55,2.11-.06,4.21-.2,6.32-.29.65,0,.89-.34.68-.94-.37-1.09-.71-2.19-1.17-3.24-.73-1.67-1-3.47-1.84-5.11s-.87-3.37-1.79-4.9m106.11-5.62a14.81,14.81,0,0,0-1.92,0c-.55.08-1.32.19-1.33.88,0,1.36-.35,2.72.08,4.08a5.26,5.26,0,0,1,0,4.05.6.6,0,0,0-.06.46c.79,1.41.05,3,.67,4.46.38.88-.44,1.74-.14,2.52a4.59,4.59,0,0,1,0,2.72,2.77,2.77,0,0,0,0,1.52c.38.9,0,1.79.11,2.7.09.53.43,1.15.13,1.75a4.2,4.2,0,0,0-.28,2c0,1.32.25,2.64.15,3.93-.19,2.61,1,4.62,2.37,6.61a1.75,1.75,0,0,0,1,.8,9.19,9.19,0,0,0,8-1.59c2.85-2.17,4.27-5.23,5.07-8.68a51.27,51.27,0,0,0,.74-7.14,20,20,0,0,0,0-4,39.33,39.33,0,0,0-1.62-7.68A15.33,15.33,0,0,0,294,160a10,10,0,0,0-6.83-3.47c-1,0-1.91.23-2.87.19M175.1,64.23a3.19,3.19,0,0,1,1,1.11A123.87,123.87,0,0,0,188.6,79.44c1.64,1.55,2.85,3.46,4.31,5.16.85,1,1.5,1.06,2.27.08a2.33,2.33,0,0,1,1.37-.82c1.19-.28,1.59,0,1.65,1.25.1,1.92.18,3.84.25,5.75A1.89,1.89,0,0,0,199,92q2,2.5,4.12,5c1.14,1.34,2.32,2.65,3.42,4,.24.29.41.74.85.69s.33-.62.51-.92a3.58,3.58,0,0,0,.51-3.18c-.56-1.3.26-2.44,0-3.68-.19-1,0-2-.15-3-.16-1.55-.59-2-2.14-2.27-.77-.12-1.37-.68-2.18-.67-.32,0-.47-.42-.49-.75,0-.61-.06-1.21-.05-1.82s.4-.63.8-.64c.82,0,1.64-.1,2.44-.19,1.43-.16,2.85,0,4.27-.06,3-.12,6.07-.1,9.1-.22,3.45-.14,6.91-.06,10.36-.16a45.48,45.48,0,0,0,8.08-.66c.8-.17.82-.43.34-1a2.66,2.66,0,0,1-.65-1.26c1,1.09,1.93,2.18,2.87,3.29.16.19.35.55-.23.31-.24-.1-.22.15-.19.3.35,1.53.2,3.11.4,4.64.15,1.16-.24,2.52.86,3.47a.29.29,0,0,1,0,.27c-.94,1.29,0,2.68-.22,4-.09.52-.22.79-.68.83a10.93,10.93,0,0,1-1.73,0,1,1,0,0,1-.91-.76c-.52-2-1.62-3.75-2.31-5.67-1.06-2.94-3.6-3.7-6.32-4a25.21,25.21,0,0,0-7.82.27c-.46.09-.57.32-.57.72,0,1.24,0,2.47,0,3.71a.85.85,0,0,0,.26.6.68.68,0,0,1,.22.78c-.73,1.81-.37,3.71-.43,5.57,0,1.46.16,2.93.24,4.39,0,.46.34.5.67.48,1.38-.06,2.76-.12,4.13-.21.65,0,1-.55,1.36-1a15.09,15.09,0,0,0,2.57-4.61c.25-.74.6-1.63,1.77-1.6,1,0,1.4.29,1.48,1.32.16,2,.39,4.08.39,6.1s.06,4.26-.07,6.39c0,.52-.33,1.16.45,1.49.31.13.22.47,0,.63a1,1,0,0,0-.42,1.18c.1.6.12,1.28-.62,1.39s-1.63.39-2.13-.58q-1-1.87-2-3.73a10.35,10.35,0,0,0-1.81-2.23,1.61,1.61,0,0,0-1.37-.57c-1.18.21-2.36-.06-3.54.1-.45.06-.75.21-.74.69,0,1-.24,2,.31,2.92a.57.57,0,0,1,.08.45c-.9,1.72-.07,3.53-.26,5.28-.21,2,1.1,3.25,2.17,4.62s2,2.4,3,3.63a1.86,1.86,0,0,0,2,.78,27.13,27.13,0,0,0,4.58-.91c2.44-.87,3.59-2.85,4.31-5.17,0-.15,0-.37.1-.46,1.22-1.18,1.27-2.89,1.88-4.33.49-1.14,1.41-.76,2.22-.84.54-.06,1.08.15,1,.72-.07,1,.5,2-.19,3-.27.39-.13,1.13-.11,1.68.09,2.53-.52,5-.7,7.48a4.69,4.69,0,0,0,0,1,1.4,1.4,0,0,1-1.46,1.63,8.82,8.82,0,0,1-1.41.06,11.32,11.32,0,0,0-3.24,0,13.92,13.92,0,0,0-3.2.09,4,4,0,0,1-1.22-.12c-.19,0-.41,0-.51.16s.05.36.17.51c1.57,1.95,3.13,3.9,4.71,5.84,1.31,1.61,2.58,3.27,4,4.8,1.88,2,3.46,4.34,5.37,6.38a16.24,16.24,0,0,1,2.61,3.11c.81,1.47,2.22,1.93,3.95,2,2.67.06,5.33-.07,8-.05,1.32,0,1.77.4,1.65,1.7-.14,1.6-.14,1.6-1.73,2.11-1,.31-2,.61-2.93.91-.33.1-.6.25-.66.62a3.72,3.72,0,0,0,.71,3.31c2.09,2.4,4.24,4.76,6.22,7.26a20,20,0,0,0,2.44,2.3,8.2,8.2,0,0,1,1.27,1.16c.17.23.4.66.74.37s.75-.35.57-1a10.72,10.72,0,0,1,0-2.15c-.13-3.36-.19-6.72-.26-10.08,0-1.56-.47-2.16-2-2.31a10.81,10.81,0,0,1-1.94-.51c-.83-.23-1.13-1.14-1.06-2.61,0-.86.59-1.07,1.29-1.1,2.3-.11,4.62-.1,6.91-.33,2.61-.26,5.22,0,7.83-.07,3.51-.07,7-.28,10.54-.11a46.75,46.75,0,0,1,7.76,1.29,16.93,16.93,0,0,1,7.76,4.35,19.53,19.53,0,0,1,4.11,5,11.39,11.39,0,0,1,1.67,4.13,17.46,17.46,0,0,0,1.23,4,3.67,3.67,0,0,1,.21,2c-.17.92.2,1.8.11,2.66-.19,1.81.43,3.67-.43,5.44a4.25,4.25,0,0,0-.32,2.07,3.89,3.89,0,0,1-.55,2.28,1.91,1.91,0,0,0-.22,1.49,1.61,1.61,0,0,1-.88,2,3.4,3.4,0,0,0-1.7,2.44,2,2,0,0,1-1.8,1.95,1.5,1.5,0,0,0-.95.62c-.1.13-.21.32-.33.34-1.68.21-2.77,1.63-4.32,2.1s-3.13.87-4.67,1.42a12.18,12.18,0,0,1-2.66.34c-.19,0-.51,0-.54.14-.29,1-1,.52-1.55.45a1.79,1.79,0,0,0-1.3.18,1.15,1.15,0,0,1-.54.13c-.26,0-.54-.53-.78,0a1,1,0,0,0,.21,1.08c1.28,1.71,2.67,3.34,3.8,5.15.87,1.4,2.13,2.47,3,3.87.68,1.14,1.94,1.76,2.59,2.93a16.1,16.1,0,0,0,3.07,3.44c1.39,1.34,2,3.2,3.54,4.36a1.26,1.26,0,0,1,.46.6c.37,1.39,1.64,1.93,2.62,2.7a2.2,2.2,0,0,0,2.84-.75c.43.86,1.51,1.23,2.85.74a4.71,4.71,0,0,1,2.07-.25c1.06.1,2.1-.19,3.15,0a4.42,4.42,0,0,0,2.17-.3,1.87,1.87,0,0,1,2.34.78c.05.08.18.17.16.23-.4,1.78,1,3.51.14,5.3,0,.06-.06.14,0,.18.64,1.15.06,2.43.38,3.62a2.35,2.35,0,0,0,.88,1.1c-.85.22-.81.82-.72,1.39a11.72,11.72,0,0,1,0,1.82c0,.65-.29.84-.85.9-1.76.18-1.83,0-2.71-1.51a14.21,14.21,0,0,1-1-3.4,14.74,14.74,0,0,0-2-4.15,2.31,2.31,0,0,0-1.41-.78c-1.65-.4-3.25-1.24-5-.71-.83.24-.37.68-.15,1,.88,1.18,1.79,2.34,2.71,3.48q4.29,5.31,8.59,10.61,2.54,3.12,5.13,6.2c.58.69,1.52,1.05,1.72,2.07a.41.41,0,0,0,.56.26c.58-.25.6.26.81.63a1.51,1.51,0,0,0,.2-1.55,8.53,8.53,0,0,1-.19-3c.17-3.7-.06-7.38-.24-11.07-.08-1.62-.21-3.26-.15-4.89,0-.59.17-1.23-.35-1.73a.3.3,0,0,1-.07-.26c.66-1.09-.49-1.15-.91-1.31a14.06,14.06,0,0,0-3-1.08.49.49,0,0,1-.44-.33,6.27,6.27,0,0,1-.13-2.92.59.59,0,0,1,.55-.48c1,.08,1.86-.5,2.83-.18a.67.67,0,0,0,.38,0c1.89-.59,3.82-.22,5.73-.28a35,35,0,0,0,4.11-.16c2-.3,4,0,6-.26.7-.09,1.46.29,2.19-.09.17-.09.2.07.27.18a3.23,3.23,0,0,1,.6,3.07,3,3,0,0,1-2.51,2c-1.72.29-2,.61-1.88,2.39,0,1-.27,2.05.34,3.07.19.32-.3.9-.31,1.49a31.81,31.81,0,0,1-.13,5.71,2.34,2.34,0,0,0,.07.85,4.6,4.6,0,0,1,.06,2.19.79.79,0,0,0,0,.48c.66,1.64.09,3.35.29,5a15.09,15.09,0,0,1,.16,3.28c-.15,1.4-.16,2.79-.19,4.19-.05,2.55.4,5.07.47,7.62a1.13,1.13,0,0,0,.89,1.12c.85.28,1.71.57,2.57.79a1.32,1.32,0,0,1,1.2,1.42c.08,2,0,2.18-2,2.18-.71,0-1.41,0-2.12,0s-1.34,0-1.68-.8a.59.59,0,0,0-.62-.38c-1,.18-1.94-.18-3,.1a8.31,8.31,0,0,1-2.75.1,48,48,0,0,0-7.85.14,62.54,62.54,0,0,1-6.41.18c-2.3,0-4.61.18-6.91.29a.49.49,0,0,1-.5-.15,1.27,1.27,0,0,1,1.1-.34c3,0,6.09-.21,9.13-.27,5.13-.1,10.25-.4,15.37-.62.29,0,.61,0,.76-.3s-.1-.59-.32-.83c-1.37-1.49-2.59-3.1-3.83-4.69a2.94,2.94,0,0,0-2.6-1.3c-3.72.08-7.43.2-11.15.41-1.15.07-2.3,0-3.45,0a1,1,0,0,1-1-.76c-.49-1.63-.13-2.35,1.49-2.91.39-.14.74-.38,1.13-.52,1.86-.7,1.88-.69,1.86-2.62,0-2.67-.1-5.34-.16-8,0-1.46-1-2.27-1.74-3.19-4-4.93-8.08-9.79-12.11-14.69-2.5-3-5.21-5.91-7.5-9.13-.13-.18-.26-.44-.51-.38s-.27.44-.22.66c.44,1.79-.36,3.7.51,5.46a.93.93,0,0,1,0,.75,3.62,3.62,0,0,0-.23,2.54c.34,1.53,0,3.06.18,4.57.05.48-.09,1,.44,1.36.18.11.08.22,0,.32a2.68,2.68,0,0,0,0,2.31c.26.84-.29,1.65-.2,2.53.15,1.51-.21,3.07.35,4.55,0,.06.05.14,0,.19-.66,1.23,0,2.52-.16,3.78a19.7,19.7,0,0,0,.31,4.82c.07.83,0,1.66.06,2.49.15,1.43.4,1.77,1.85,2.12.87.21,1.74.46,2.6.69.63.17,1.05.48.88,1.23a1,1,0,0,0,0,.38c.25,1.56-.31,2.09-1.93,2-2.07-.13-4.15.12-6.22.05-1.88-.06-3.75.26-5.63.17-1.37-.06-2.75.13-4.12.12-1.69,0-3.38.17-5.08,0-.13,0-.3,0-.37-.07-.62-.71-.23-1.59-.35-2.39-.07-.48.27-.67.68-.77a32.83,32.83,0,0,0,3.54-1.21,1.3,1.3,0,0,0,1-1.16,11.49,11.49,0,0,0,0-2c-.07-2.74,0-5.5-.2-8.23-.37-5-.17-10-.54-15.06-.14-1.88,0-3.78-.1-5.66a28.51,28.51,0,0,0-.37-5.73c-.11-.42-.17-.71-.71-.68a22.17,22.17,0,0,0-6.29,1.48c-1.47.51-1.91,1.85-2.23,3.12a28.44,28.44,0,0,1-1.26,4.35,13,13,0,0,0-.49,1.56c-.3,1-.79,1.26-2.27,1-.95-.14-1-.83-.93-1.51.1-2.59.31-5.18.3-7.77,0-1.47.15-2.93.1-4.4,0-1,.63-1.76,1.61-1.54a29.56,29.56,0,0,0,8,.25c3.22-.16,6.44-.1,9.65-.37,1.17-.1,2.37.08,3.55,0,.3,0,.69.07.83-.33s-.15-.54-.33-.76l-4.36-5.25L288,202l-6.73-8.16a13.64,13.64,0,0,1-1.67-2.1c-.72-1.37-2-1.22-3.09-1.11s-2.47.1-3.7.17a19,19,0,0,0-4.09.21,4,4,0,0,1-2.06-.21,8.72,8.72,0,0,0-3.08.25c-1.81.16-3.62-.13-5.41.18a1.43,1.43,0,0,1-1.51-1.46c-.09-2-.06-2.07,1.9-2.61a13.19,13.19,0,0,0,1.53-.56,1.78,1.78,0,0,0,1.22-1.93c-.13-3.43-.17-6.85-.24-10.28,0-1.37,0-2.73,0-4.1a3.74,3.74,0,0,0-1-2.53c-2.81-3.33-5.55-6.73-8.36-10.06-1.15-1.36-2.29-2.74-3.52-4.37,0,1,0,1.71,0,2.43a52.17,52.17,0,0,0,.23,6.48c.24,3.11.15,6.25.32,9.36.15,2.78-.23,5.57.1,8.32a55.45,55.45,0,0,1,.22,8.68,6.34,6.34,0,0,0,.21,2.1c.28.92,0,1.41-.94,1.5a26,26,0,0,1-3.07.13c-.5,0-1,.24-1.42.17a2.54,2.54,0,0,1-1.6-1c-1.49-1.88-3.2-3.56-4.74-5.4-1.29-1.54-2.65-3-4-4.53s-2.58-3.38-4.09-4.85c-1.87-1.81-3.38-3.92-5.12-5.83-2.41-2.65-4.69-5.41-7.07-8.08a8.19,8.19,0,0,1-1.5-1.69.47.47,0,0,0-.55-.3c-.22.08-.15.33-.2.5-.34,1.05.16,2.07.13,3.12-.07,2.2.1,4.4.12,6.61a8.83,8.83,0,0,0,.5,3.08c0,.12.15.23,0,.32-.69.49-.37,1.17-.34,1.78.09,2-.07,4,.18,6,.18,1.42.26,2.86.5,4.26.14.83,1,1,1.66,1.18,1.41.29,2.83.51,4.26.72a1.27,1.27,0,0,1,1.17,1.3c0,.42,0,.83,0,1.25,0,.8-.3,1.15-1.2,1.22a25.65,25.65,0,0,1-4.87.21c-1.82-.22-3.59.4-5.4.1-.58-.1-1.1.48-1.76.34-2.34-.49-4.68.08-7,.09a7.43,7.43,0,0,0-3.39.34,1.21,1.21,0,0,1-1,0c-.94-.51-1.84.2-2.8.07-1.16-.16-2.43.1-3.54,0-2.33-.24-4.58.31-6.87.23-.27,0-.51.1-.33-.37.09-.24-.21-.1-.33-.1-1.35.1-1.75-.24-1.78-1.5,0-1.69,0-1.68,1.54-2.24.63-.22,1.26-.46,1.88-.74a1.27,1.27,0,0,0,.63-1.87,26.92,26.92,0,0,1-1.51-4.13c-.45-1.32-.64-1.47-2-1.44-3.55.09-7.1.22-10.65.31-.82,0-1.14.47-1.41,1.18-.56,1.5-.59,3.11-1.22,4.6s-.12,2.15,1.5,2.24a8.11,8.11,0,0,1,2.22.62c.5.17.47.73.56,1.15a4,4,0,0,1,0,1c-.05,1.3-.17,1.45-1.43,1.41-1,0-2,.14-2.95.2a19.18,19.18,0,0,1-2.56,0,41,41,0,0,0-4.72.07,14.31,14.31,0,0,1-3-.21c-.15,0-.36,0-.45-.11-.64-.68-.21-1.53-.3-2.3-.06-.49.28-.77.72-.89.77-.22,1.51-.54,2.26-.82a2.54,2.54,0,0,0,1.65-1.75c.95-3.42,2.36-6.69,3.34-10.11.69-2.39,1.68-4.7,2.35-7.1.78-2.8,2.06-5.42,2.8-8.23.66-2.5,1.81-4.83,2.54-7.31.81-2.74,2-5.36,2.7-8.14.24-1,.93-1.23,1.8-1.56a13.51,13.51,0,0,1,4.71-.7,2,2,0,0,1,2,1.46c.79,2.15,1.36,4.37,2.19,6.51.4,1,.78,2.09,1.26,3.11.07.14.1.41.17.42,1.21.19.55.87.46,1.48a4.23,4.23,0,0,0,.6,2.1c1,2.64,2.27,5.22,3.16,7.9a33.72,33.72,0,0,1,1.47,4.52,2.36,2.36,0,0,0,.89,1.74.68.68,0,0,1,.24.69,4.38,4.38,0,0,0,.49,2.33c.85,1.75,1.24,3.68,2.26,5.39a9.36,9.36,0,0,1,1.07,3.13,4.39,4.39,0,0,0,5,3.29c1-.27,1.94-.44,2.91-.65a1.54,1.54,0,0,0,1.35-1.53,46,46,0,0,0,.14-7.24,49.41,49.41,0,0,1-.08-5c0-3.64-.07-7.28-.15-10.93,0-2.11-.27-4.22-.25-6.34,0-1.44-.24-2.86-.14-4.29a1.64,1.64,0,0,0-1.28-1.87c-1.25-.39-2.51-.78-3.77-1.11a1.29,1.29,0,0,1-1-1.49c.09-2.62-.26-2,2.35-2.17,3.92-.29,7.86-.32,11.79-.43a22.45,22.45,0,0,1,2.49.17.83.83,0,0,1,.59.28c2,2.25,3.9,4.55,6,6.72.8.85,1.68,1.71,2.47,2.54a19.59,19.59,0,0,1,2,2.37,23.13,23.13,0,0,0,3.54,4c1.64,1.51,2.93,3.32,4.5,4.86,1.2,1.18,2.08,2.62,3.32,3.75.21.2.41.47.72.41s.3-.45.36-.71a2.3,2.3,0,0,0,.08-.76c-.46-3.95-.15-7.92-.46-11.88-.16-2-.15-4.07-.34-6.1a2,2,0,0,0-2-2c-1.37-.12-2.71-.42-4.06-.63a1.14,1.14,0,0,1-1.11-1.28c0-.38,0-.77,0-1.15,0-.66.37-.89,1-.9q1.92,0,3.83-.12c.34,0,.78.05,1-.29s-.19-.59-.38-.82c-2.18-2.64-4.42-5.24-6.55-7.93-1.61-2-3.29-4-4.93-6q-3.07-3.75-6.2-7.46c-.46-.55-1.14-.38-1.67-.44a21.15,21.15,0,0,0-3.29.15c-.8,0-1.6,0-2.39,0-2,0-4.07.11-6.11.16-1.39,0-2.78,0-4.17.07-.85,0-1.7.2-2.55.29-1.11.13-2.2-.29-3.37.15-.65.25-1.62-.35-2.44-.58-.21-.06-.27-.26-.27-.46,0-.54,0-1.09,0-1.63a1.22,1.22,0,0,1,1-1.2,18.94,18.94,0,0,0,2.44-.88,2.32,2.32,0,0,0,1.09-3.06.76.76,0,0,1-.09-.35c.17-2.72,0-5.43,0-8.15,0-2.94-.38-5.86-.16-8.81a4.31,4.31,0,0,0-1.08-3.18c-2.79-3.27-5.48-6.62-8.21-9.94a2.44,2.44,0,0,0-1-.94,3.48,3.48,0,0,0,.15,1.77,1.51,1.51,0,0,1,.19.83,24.09,24.09,0,0,0-.12,3.82.63.63,0,0,1-.54.68c-2.08.59-3-.1-3.33-2.26A16.88,16.88,0,0,0,184.44,82a6.85,6.85,0,0,0-3.89-2.49,9,9,0,0,0-5.46-.22,5.31,5.31,0,0,0-3.45,3.5c-.72,1.85-.24,3.63.15,5.37a5.12,5.12,0,0,0,2.74,3.18,12.93,12.93,0,0,1,1.15.69,11.61,11.61,0,0,0,4.56,1.68,6.78,6.78,0,0,1,2.23,1.18c.88.54,1.86.85,2.7,1.38a22,22,0,0,1,4.91,3.65,18.74,18.74,0,0,1,2.69,4,6.92,6.92,0,0,1,.47,2,22.49,22.49,0,0,1,.3,4.14,9.6,9.6,0,0,1-.5,3.08,13.48,13.48,0,0,1-5.32,7.28c-1.11.79-2.34,1.29-3.46,2s-1.89,1.41-3.17,1.29c-1.16,1.32-2.68.49-4,.63-.88.09-1.77.1-2.66.22s-1.81-.2-2.75-.07c-.43.06-.88,0-1.33.1-.6.07-1.24.21-1.74-.4a1.19,1.19,0,0,0-.8-.28,17.69,17.69,0,0,1-3.11-.59c-.35-.08-.61-.26-.77.39-.26,1.08-2.51,1.56-3.32.82-.2-.18-.11-.41-.12-.63-.16-3.16-.18-6.33-.45-9.5-.15-1.81-.34-3.63-.4-5.45,0-1.3.24-1.55,1.58-1.56,1.65,0,1.77.11,2.18,1.64a42.87,42.87,0,0,0,2.9,8c1.21,2.47,5.12,4.41,8,4,2.18-.32,4.17-1,5.43-2.87a6.3,6.3,0,0,0,1.23-4.78,17.83,17.83,0,0,0-.48-3.08,7.1,7.1,0,0,0-3.29-3.51,70.91,70.91,0,0,0-8.42-4.27A16.66,16.66,0,0,1,162.53,98a12.56,12.56,0,0,1-2.86-6.24,13.88,13.88,0,0,1,.28-6.42,11,11,0,0,1,4-5.86,25.52,25.52,0,0,1,4.36-2.6,9.83,9.83,0,0,1,4.31-1.05c1.14,0,2.29-.23,3.44-.3a18.37,18.37,0,0,1,4.54-.07,9.15,9.15,0,0,1,3.73,1.12c.11-.5-.21-.74-.41-1a39.27,39.27,0,0,0-3.37-3.95,28.94,28.94,0,0,1-1.94-2.51c-1.26-1.49-2.5-3-3.73-4.52a1.86,1.86,0,0,1-.2-.43h.39"/><path class="cls-4" d="M345.29,120.15c.05.57.08,1,.13,1.4s0,.65.42.61a.51.51,0,0,0,.45-.64,1.44,1.44,0,0,1,.46-1.29,1.14,1.14,0,0,0,.27-1c-.34-1.36.56-2.28,1.25-3.18a3.09,3.09,0,0,0,.1-3.88c-.36-.47-.74-.15-1.1-.21-.12,0,0,.6-.38.22a.37.37,0,0,1,.13-.58c.94-.49.34-1,0-1.49-.45-.68-.74.07-1.1.16a3.42,3.42,0,0,1-.46.13c-.6,0-.74.42-.67.93a30.46,30.46,0,0,0,.55,3.68c.2.76-.07,1.52.14,2.2a3,3,0,0,1,0,2,5.88,5.88,0,0,0-.21.88M300.5,98a7.33,7.33,0,0,0-1.37,3.63c-.09.86.14,1.91-.86,2.53-.22.14-.3.55-.39.86q-.89,3-1.75,6c-.23.81.19,1.29,1,1.07a10.31,10.31,0,0,1,2.23,0c1.68-.1,3.37-.06,5.06-.12.56,0,.87-.34.71-1-.55-2.07-1.33-4.05-2-6.07-.48-1.39-1.3-2.69-1.45-4.15-.12-1.11-1.1-1.73-1.17-2.8m88.84-2.94c-.65,2.22-1.17,4.26-1.87,6.23-.34,1-.27,2.14-.8,2.91-.69,1-.33,2.28-1.11,3.18a.31.31,0,0,0,0,.28,1.17,1.17,0,0,1-.4,1.65c-.21.17-.45.64,0,.68s.74.11,1.13.1q3.44-.09,6.88-.1c1.21,0,1.5-.36,1.08-1.54s-1-2.37-1.35-3.6a91.78,91.78,0,0,0-3.6-9.8m-45.06-6a1.45,1.45,0,0,0,.62,1.67.45.45,0,0,1,.13.53c-.06.16-.19.12-.32.07-.79-.31-.52.31-.48.61a26.24,26.24,0,0,1,.2,3.43,16.14,16.14,0,0,0,0,2.68c.25,1.49,0,3,.23,4.46.13.82.5,1.55,1.29,1.55a11.42,11.42,0,0,0,5.58-1.37A7.83,7.83,0,0,0,355,99.28c.89-1.94.88-4,1-6.05a12.42,12.42,0,0,0-.71-3.94,6.29,6.29,0,0,0-5.44-4.71,16.19,16.19,0,0,0-5,.37c-.45.07-.61.32-.59.81.05,1,0,2,0,3.34m-51.69,43.46a9.84,9.84,0,0,0,.13-1.3,1.51,1.51,0,0,0-1.06-1.49c-1.95-.86-3.9-.25-5.84-.35a10.88,10.88,0,0,1-4-.57c-.12-.05-.29-.11-.32-.2a5.53,5.53,0,0,1,0-2.45c.06-.54.6-.67,1.1-.77a11,11,0,0,0,1.94-.51,2.37,2.37,0,0,0,1.36-1.43c.43-1.17.81-2.36,1.22-3.54.67-1.93,1.42-3.85,2-5.81.71-2.43,1.64-4.78,2.32-7.22.41-1.46,1-2.87,1.49-4.32s1.14-3,1.64-4.5a44.47,44.47,0,0,1,1.68-4.8,18.64,18.64,0,0,0,.55-2c.8-2.43,1.86-4.77,2.53-7.24.19-.7.52-1.37.78-2.05.43-1.13,1.36-1.24,2.37-1.18a5.64,5.64,0,0,0,2.22-.23,5.35,5.35,0,0,1,2.33.22c.9.18,1.18.86,1.46,1.69s.31,2,1.21,2.73c.26.2-.19.64,0,1,.89,1.67.86,3.77,2.37,5.16a.84.84,0,0,1,.28,1,1.77,1.77,0,0,0,.3,1.89,4.72,4.72,0,0,1,.89,2.5,4.94,4.94,0,0,0,.66,1.69c.83,2.13,1.67,4.25,2.37,6.44a21.25,21.25,0,0,0,1.71,4.45,15.78,15.78,0,0,1,.69,2.74,4.9,4.9,0,0,0,1.1,2.1,1.54,1.54,0,0,1,.46.83,38.52,38.52,0,0,0,2.77,7.73c.07.17.18.42.31.46a6.77,6.77,0,0,1,3.28,2.09c.13.14.27.05.4-.08a5.61,5.61,0,0,1,2.89-1.51c.55-.12.89-.6,1.19-1.22a7.45,7.45,0,0,0,.6-4.14c-.15-1.36-.06-2.72-.08-4.08-.05-2.83,0-5.66-.09-8.49-.2-4.06-.17-8.12-.36-12.18-.1-2-.07-4-.12-6A1.66,1.66,0,0,0,330,85.85c-.76-.24-1.54-.34-2.31-.6-1-.34-1.13-1-1.21-1.79-.14-1.51-.06-1.61,1.44-1.74,2.81-.26,5.64,0,8.44-.32,1.61-.17,3.22-.1,4.8-.14,2.8-.06,5.62-.08,8.43-.11a21.74,21.74,0,0,0,3.09-.26,8.81,8.81,0,0,1,2.1.23,46.37,46.37,0,0,1,5.67.92A10.61,10.61,0,0,1,364,84a9,9,0,0,1,3.08,3.8,25.77,25.77,0,0,1,1.26,3.27c.12.4-.44,1-.35,1.6a5.39,5.39,0,0,1,0,.57A11.29,11.29,0,0,1,363,103c-1.34,1-2.56,2.24-4.34,2.55-.45.08-.56.52-.25.92.58.76.95,1.78,2.17,1.82.34,0,.49.3.18.51s-.24.43,0,.74c.82,1.31,1.58,2.67,2.4,4a8.64,8.64,0,0,0,2.06,2.84.77.77,0,0,1,.38.63,2.24,2.24,0,0,0,.58,1.3c1,1.3,2,2.59,3,3.9a1.37,1.37,0,0,0,1.13.39c.86.07,1.55.76,2.56.4a3.86,3.86,0,0,0,2.71-2.93c.87-3.45,2.42-6.67,3.43-10.08.93-3.15,2.11-6.23,3.14-9.35.75-2.28,1.45-4.6,2.36-6.85.77-1.9,1.43-3.87,2-5.85s1.2-3.78,1.94-5.62a15.09,15.09,0,0,0,.48-1.46c.65-2.24.75-1.92,2.74-2.05a16.52,16.52,0,0,0,2.84-.25,2.68,2.68,0,0,1,2.85,1.72c.64,1.32.94,2.76,1.65,4.06.34.63.43,1.38.73,2.07a39.9,39.9,0,0,1,2,5.62,45.48,45.48,0,0,0,2.3,6.05c1.07,2.53,2,5.13,2.84,7.74.71,2.14,1.37,4.3,2.21,6.39.31.76,1,1.34.88,2.32a1.79,1.79,0,0,0,.65,1.26,2.8,2.8,0,0,1,.75,2.2,4.55,4.55,0,0,0,2.49,3.66c.53.23,1,.5,1.56.75a.72.72,0,0,1,.47.57,7.89,7.89,0,0,1,.11,1.53c-.14,1.65-.19,1.59-1.85,1.59a13.54,13.54,0,0,0-3.83.29h-.1c-2.62-.4-5.22.33-7.86.07a14.11,14.11,0,0,0-4,.24,6.43,6.43,0,0,1-3.4-.44c-.72-.26-.51-1.05-.6-1.61-.21-1.32,0-1.56,1.32-1.8a4.89,4.89,0,0,0,.83-.23c2.44-.91,2.39-.93,1.55-3.36-.46-1.33-1.1-2.6-1.46-4a.85.85,0,0,0-1-.71c-3,.08-6-.09-9,.28a15.31,15.31,0,0,1-1.83-.14,1.6,1.6,0,0,0-1.9,1.37,7.69,7.69,0,0,0-.37,1.59c-.11,1.33-.95,2.48-.87,3.87,0,.7.18,1.08.9,1.2a12.69,12.69,0,0,0,2,.37,1.36,1.36,0,0,1,1.44,1.35c.34,2.15.1,2.4-2,2.52-1.45.08-2.93-.19-4.36.34-.29.11-.69,0-1-.08-2.52-.24-5,.35-7.52.26a1.78,1.78,0,0,0-1.48.45.85.85,0,0,1-1.08.08c-1.21-1-2.65-.35-3.94-.66-1.69-.41-3.34.35-5,0a3.14,3.14,0,0,1-1.71-.8,17.42,17.42,0,0,1-3.3-4.34,19.62,19.62,0,0,0-2.76-3.92c-.41-.46-.73-.5-1.14.07s-1,1.24-.57,2.15c.18.35-.14.61-.38.81a1.34,1.34,0,0,0-.24,2,5.24,5.24,0,0,1,.59,3.54c-.08.9-.76,1.24-2.16,1.22a28,28,0,0,0-7,.47,1.13,1.13,0,0,1-.57,0c-.88-.28-1.71-.53-2.32.54-.23.41-.54.12-.75-.16-.34-.46-.72-.72-1.29-.29s-1-.17-1.57,0a14.68,14.68,0,0,1-6.09-.18,13.3,13.3,0,0,0-2.82.05c-1.35.08-2.69.15-4,.14-.87,0-1.76,0-2.65.05-3.86.14-7.73.31-11.59.14-1.84-.08-2.56-1.29-1.93-3A1.29,1.29,0,0,1,306,125a8.4,8.4,0,0,1,2.38-.76c.89-.14,1.15-.64.89-1.43-.61-1.85-1.26-3.7-1.88-5.55-.14-.4-.38-.51-.8-.51-3.68,0-7.35.24-11,.09a1.82,1.82,0,0,0-1.83,1.43c-.49,1.42-.83,2.88-1.23,4.33a1.72,1.72,0,0,0,1.88,2.21c1.52-.09,2,.15,2.41,1.16a1.44,1.44,0,0,1,0,1,1,1,0,0,0,.31,1.12c.47.38.4.71-.21.84a.77.77,0,0,0-.52.39c-.32.56-.7.55-1.19.21s-.77-.16-1,.38a9,9,0,0,1-1.57,2.6"/><path class="cls-4" d="M386.2,221.65c2.24,0,4.65.1,7-.06,1.87-.13,3.71.08,5.56.07a1.23,1.23,0,0,1,1.41,1.22c.06.48.07,1,.1,1.44a1,1,0,0,1-.76,1.08,21.8,21.8,0,0,1-3.13.91,1.86,1.86,0,0,0-1.75,2.25,2.79,2.79,0,0,1-.13,1,2.36,2.36,0,0,0,.2,1.93,1.3,1.3,0,0,1-.13,1.82c-.41.35-.23.91-.22,1.38.07,3,.15,6.07.23,9.1.05,1.88.09,3.77.16,5.65a7.19,7.19,0,0,1,.12,2.57,14.88,14.88,0,0,0-.06,3.25c0,.7.86,1.4.54,1.71-.64.65-.14,1.18-.19,1.75-.15,1.79.2,3.56.17,5.36s.06,3.37.15,5.06c0,.35.08.5-.35.56-1.92.26-3.83.54-5.69-.31a3.18,3.18,0,0,1-1-.9c-2.78-3.09-5.48-6.25-8.31-9.3q-3.78-4.07-7.41-8.3c-1.14-1.32-2.27-2.67-3.41-4-2-2.28-4-4.51-6-6.77-.32-.36-.77-.57-1-1s-.36-.16-.52.06a1.24,1.24,0,0,0-.31,1c.69,2.84-.06,5.72.31,8.58.13,1,0,2,.71,2.79a.68.68,0,0,1-.15,1c-.55.44-.45,1-.43,1.56,0,1.85,0,3.71.06,5.56.06,1.42.44,2.81.44,4.24,0,.49.46.75.93.83,1.48.26,3,.52,4.45.75.55.08,1.19.08,1.37.68.25.8.63,1.65.08,2.5-.2.32-.54.32-.86.33l-13.25.43c-1.4,0-2.81.06-4.21.12-.73,0-1.09-.28-1.11-1,0-.29,0-.58,0-.86-.12-1,.28-1.42,1.29-1.58,1.26-.2,2.47-.64,3.71-1a1.3,1.3,0,0,0,1-1.19,29.32,29.32,0,0,0,.19-5.06c0-2.42-.14-4.85-.13-7.27,0-1.63-.27-3.24-.25-4.88,0-2.46-.11-4.93-.19-7.39a53.43,53.43,0,0,0-.39-5.72,33.17,33.17,0,0,1,.15-3.6c0-1.25-.29-1.64-1.5-2a11.16,11.16,0,0,0-3.31-.91,1.26,1.26,0,0,1-1.16-.9c-.25-.85-.07-1.76-.3-2.64-.08-.29.29-.48.58-.55a10,10,0,0,1,2.44-.44c2.71.12,5.42-.06,8.13-.11a24,24,0,0,0,4.65-.22,1.32,1.32,0,0,1,1.36.47,17.69,17.69,0,0,0,1.93,1.71,16.25,16.25,0,0,1,1.89,2.39c1.34,1.57,2.54,3.24,4,4.69,1.1,1.07,2,2.33,3,3.47a29.05,29.05,0,0,0,4,4.36,14.2,14.2,0,0,1,2.15,2.44c1.37,1.67,2.78,3.29,4.27,4.86.41.44.78.92,1.18,1.38.13.15.17.49.47.36s.21-.38.21-.6c0-2-.1-3.91-.12-5.86s-.28-4-.25-6.09a20.21,20.21,0,0,0-.38-5.91,5,5,0,0,1,0-1.72c.06-.67-.23-.94-.85-1.16a29.42,29.42,0,0,0-5.24-1.09,1.44,1.44,0,0,1-.47-.09c-1.21-.68-.63-1.9-.8-2.88-.11-.61.43-.93,1-1.08,1.3-.34,2.62,0,4.09-.28"/><path class="cls-4" d="M182.87,248.3c-1.09-.26-1.16,0-1.38,1a13.54,13.54,0,0,0,.07,2.82,14.31,14.31,0,0,0,.2,4.11,13.19,13.19,0,0,1,.21,3c.06,1.44.53,1.95,2,1.86a8.66,8.66,0,0,1,2.45.1A7.75,7.75,0,0,0,192,260a12,12,0,0,0,5-6.13,22.56,22.56,0,0,0,1.48-7.09,42.2,42.2,0,0,0,0-7.35,36.22,36.22,0,0,0-1.44-7.67,17,17,0,0,0-3.94-6.87,10.64,10.64,0,0,0-7.47-2.9c-1.38,0-2.68.55-4.07.56a1.08,1.08,0,0,0-1,1.13,11.79,11.79,0,0,0,.19,3.39,5.42,5.42,0,0,1,0,3.61c-.36.88.37,1.87.26,2.83a22.7,22.7,0,0,0,0,3.64c.08,2,.19,4,.15,6,0,1.23-.32,2.55.57,3.79.34.47,1.06.62,1.11,1.39M164.13,264c0-1.45,0-1.52,1.39-1.94.85-.27,1.67-.63,2.49-1a1.07,1.07,0,0,0,.63-1.11c-.12-2.84,0-5.67-.21-8.52s0-5.7-.18-8.53-.12-5.68-.3-8.52c-.19-3.06-.28-6.13-.2-9.2a1.43,1.43,0,0,0-1.27-1.63c-1-.23-2-.6-3-.91a.8.8,0,0,1-.62-.76c0-.57-.12-1.15-.16-1.72-.08-1,.73-1.06,1.36-1.08,2.33-.1,4.66-.12,7-.18a2.53,2.53,0,0,0,.29,0c3.9-.51,7.83-.46,11.74-.58a56,56,0,0,1,7.22.11,40,40,0,0,1,6.43,1.38,20.62,20.62,0,0,1,4.72,2,18.51,18.51,0,0,1,4.78,4c.59.66,1.37,1.18,1.67,2.08,0,.06.07.16.1.16,1.43-.12,1.14.77,1,1.63,0,.2.19.46.32.68a19.13,19.13,0,0,1,1.54,4.25c.41,1.26.39,2.59.87,3.82a3.57,3.57,0,0,1,0,1.33,17.93,17.93,0,0,1-.2,4.57,1.57,1.57,0,0,0,.24,1.63c.27.26,0,.43-.14.64a5.24,5.24,0,0,0-.78,2,16.86,16.86,0,0,1-1.66,4.28,18.68,18.68,0,0,1-4.06,5.88,20.77,20.77,0,0,1-4.08,3,24.48,24.48,0,0,1-6.12,2.44,22.2,22.2,0,0,1-4.55.65c-3.16,0-6.32.3-9.48.35a30.78,30.78,0,0,0-3.67.57,7.43,7.43,0,0,1-2.37-.33,1.54,1.54,0,0,0-.66-.08c-3,.75-6-.1-9.06.17-1.36.12-.93-1-1-1.6"/><path class="cls-4" d="M274.13,95.89a14.37,14.37,0,0,0-.57-3.9,7.75,7.75,0,0,0-1.87-3.68c-1.63-1.72-3.73-1.8-5.87-1.53-1.66.21-1.81.49-1.71,2.19.05.86,0,1.72,0,2.58a17.7,17.7,0,0,1,.09,2.25,28.93,28.93,0,0,0,0,6.19,41.91,41.91,0,0,1,.25,6.62c0,.55-.36,1.7.88,1.73a8.53,8.53,0,0,0,5-1.41c2.64-1.73,3.31-4.53,3.8-7.28a9.39,9.39,0,0,0,.08-3.76m-24-.9c.47,0,.55.63,1,.64.25-.23.16-.54.15-.81-.08-2-.18-4-.27-6,0-.54-.39-.76-.81-1a17.2,17.2,0,0,0-3-.95,1.24,1.24,0,0,1-1-1.33c-.11-1.71.29-2,2-2.08,1.86-.06,3.72-.07,5.57-.13,2.6-.07,5.19-.39,7.81-.24a34.57,34.57,0,0,0,5.18-.1,31.12,31.12,0,0,1,9.2.42A12,12,0,0,1,282.66,87a14.65,14.65,0,0,1,2.52,3.9c1.07,2.46.91,5,.65,7.53,0,.48,0,1-.07,1.44a12.54,12.54,0,0,1-3.41,7.73,26.84,26.84,0,0,1-2.53,2c-.34.3-.87.36-.85,1,0,.36-.46.31-.71.34-.76.09-1.6-.12-2,.82-.1.21-.39.15-.62.13-2.27-.22-4.51.26-6.77.26-.45,0-.89,0-1.34.07a.78.78,0,0,0-.72.55c-.11.34.12.51.32.73q2.8,3.09,5.57,6.21c2.63,3,5.24,5.95,7.88,8.92,2,2.21,3.85,4.47,6,6.49,1.66,1.55,3.07,3.45,5,4.55a7.35,7.35,0,0,1,2.73,3.24,43.49,43.49,0,0,0,3.56,4.52c2,2.63,4.19,5.08,6.34,7.56a24.25,24.25,0,0,0,2.7,3.12c.22.18.34.47.11,1-.47-.53-.9-1-1.28-1.44-1.78-2.27-3.86-4.27-5.75-6.46-2.68-3.11-5.45-6.13-8.18-9.19l-7-7.8q-4.39-4.91-8.77-9.82c-2.33-2.6-4.73-5.14-7-7.79a52,52,0,0,1-3.6-4c-.13-.19-.28-.38-.54-.33s-.32.34-.4.59c-.26.82.11,1.61.09,2.44a49.48,49.48,0,0,0,.25,6.49A7,7,0,0,1,265,124c-.12.67.64,1,1.25,1.08a37.39,37.39,0,0,1,4.25,1.07,1.45,1.45,0,0,1,1.18,1.86,1.28,1.28,0,0,0,0,.94c.49.76,0,.9-.59.9-2.5,0-5,.2-7.5.2a47.46,47.46,0,0,0-5,.22,23.61,23.61,0,0,1-4-.07c-.75,0-1.55.26-2.38.23a15.35,15.35,0,0,1-4.35-.35.85.85,0,0,1-.7-.89c0-.45,0-.9,0-1.35a1.2,1.2,0,0,1,.92-1.3c.77-.23,1.49-.56,2.23-.85,1.17-.47,1.4-.87,1.46-2.11.07-1.44-.09-2.86,0-4.3s-.09-2.92-.12-4.37,0-3-.08-4.51c-.08-2.53-.08-5.06-.12-7.59a45.32,45.32,0,0,1-.14-5.36c.07-.7-.43-1.11-.73-1.62-.15-.27-.43-.47-.45-.83"/><path class="cls-4" d="M458.77,119.81c.1-.41-.14-.63-.21-.9-.13-.5-.3-1.15.06-1.48.74-.67.48-1.44.53-2.19-.29-.21-.37.32-.59.13a.44.44,0,0,1,0-.54c.55-1,.11-2,.38-3.05.51-1.9,0-3.86.14-5.79a3.55,3.55,0,0,0,0-.38c-.11-4.73-.16-9.46-.37-14.19-.1-2.37-.14-4.73-.18-7.1a1.59,1.59,0,0,0-1.3-1.66c-.86-.24-1.72-.52-2.6-.68a1,1,0,0,1-.93-1c0-.13,0-.26,0-.38-.14-1.82,0-1.91,1.82-2.05,3.44-.27,6.88-.21,10.32-.35,1.67-.07,3.36-.23,5-.17,2.52.1,5-.08,7.54,0a63.58,63.58,0,0,0,7.39-.23,18.65,18.65,0,0,0,3.26-.56c1-.28,1.34.35,1.5,1.14a28,28,0,0,1,.48,5.25,21,21,0,0,0,.46,2.92c.23,1.57.08,3.14.3,4.69.12.8-.29,1-1,1-1.78,0-1.8,0-2.49-1.59-.6-1.4-1.18-2.82-1.76-4.23a6.77,6.77,0,0,0-6.07-4.54,33.6,33.6,0,0,0-8.43.39c-.7.1-.54.87-.57,1.44-.06,1.31.57,2.51.49,3.83a19.83,19.83,0,0,0-.17,3.69c.23,1.81-.21,3.65,0,5.49.09,1.08.33,1.41,1.45,1.44a25.93,25.93,0,0,0,3.26,0,3.06,3.06,0,0,0,2.28-1.73,17.65,17.65,0,0,0,2.11-4.45c.23-.95,1-1.1,2.22-.9.88.14.82.9.75,1.54-.23,2,.24,4,.25,6,0,1.35,0,2.69,0,4,0,1-.21,2.08.55,3,0,0,0,.07,0,.08-.59,1-.43,2.21-.67,3.29-.14.62-1.14.32-1.76.36s-.71-.27-.9-.71a18,18,0,0,0-3.18-5.22,2.62,2.62,0,0,0-2.18-1c-.9.05-1.8,0-2.7,0s-1.38.17-1,1.18a.7.7,0,0,1-.07.46,2.25,2.25,0,0,0,.27,2.1c.22.42.8.81-.18,1.09-.35.1-.32.61-.27,1a18.77,18.77,0,0,1,.13,5,18.67,18.67,0,0,0,.35,2.52,11,11,0,0,1,0,2.54c-.34,1.82.29,2.35,2.16,2.47a21.44,21.44,0,0,0,5.26-.07c1.31-.23,2.62-.42,3.91-.79,2.56-.72,3.54-2.72,4.5-4.87a39.49,39.49,0,0,0,2-5.38.72.72,0,0,1,.62-.53,5.33,5.33,0,0,1,.76-.12c1.64-.06,2,.48,1.68,2.13a37.58,37.58,0,0,0-.48,5.83,19.73,19.73,0,0,1-.36,3.42,12.92,12.92,0,0,1-.36,2.55s0,.07,0,.09c-.18.41.86.87.05,1.14a3.84,3.84,0,0,1-1.27.19c-2.12-.08-4.24,0-6.34.16a64.58,64.58,0,0,0-6.76.32,18.42,18.42,0,0,1-3.32-.09c-1.4,0-2.79.17-4.2.18-1.86,0-3.75.07-5.59.23-1.64.14-3.45-.19-5,.87-.85-.38-1.81-.14-2.67-.5a3.85,3.85,0,0,0-.63-.23c-1.62-.37-1.8-.62-1.78-2.26a1.5,1.5,0,0,1,1.14-1.65c.79-.25,1.69-.37,2-1.39.16-.47.62-.06,1-.06"/><path class="cls-4" d="M240.25,261c0-3.23-.41-6.44-.47-9.66,0-1.09-.25-2.16-.22-3.26a1,1,0,0,1,1-1.1c1.87-.17,2.38.15,2.84,2a37.38,37.38,0,0,0,3,8.13,6.18,6.18,0,0,0,1.88,1.88,8,8,0,0,0,9.17.87,6.5,6.5,0,0,0,3.32-4.53,8.59,8.59,0,0,0-.64-5.67,7.75,7.75,0,0,0-3.21-3.33c-3.07-1.87-6.47-3-9.62-4.7a16.12,16.12,0,0,1-6.06-5.36,12.45,12.45,0,0,1-1.73-5.25,15.8,15.8,0,0,1,.13-5,12.31,12.31,0,0,1,3.09-5.7,12,12,0,0,1,2.47-1.8,17.28,17.28,0,0,0,2.32-1.48c.56-.53,1.55-.47,2.35-.66a34.47,34.47,0,0,1,13.23-.37,15.77,15.77,0,0,1,2.73.91c.45.15.72.16,1-.34a1.93,1.93,0,0,1,1.7-1.08c1.26,0,1.28.08,1.49,1.29.25,1.48,0,3,.36,4.47s0,3,.24,4.48,0,2.74.1,4.1a.9.9,0,0,1-.93,1.09c-.35,0-.71,0-1.06,0-1,.13-1.48-.45-1.61-1.35a34.21,34.21,0,0,0-1.47-5.36,7.38,7.38,0,0,0-5.83-5.12,9.15,9.15,0,0,0-5.21.15,4.77,4.77,0,0,0-2.8,2.87,7,7,0,0,0-.51,3.76c0,.16,0,.42.1.45.94.38.63,1.07.62,1.81a3.09,3.09,0,0,0,1.6,2.48,36.89,36.89,0,0,0,8.09,3.91c1.68.62,3.07,1.74,4.7,2.39a6.3,6.3,0,0,1,2.24,1.51c1.42,1.58,3.19,3,3.83,5.15.1.35.14.7.6.76.08,0,.15.1.22.16-.45.38.13.72,0,1.05-.35,1.37.1,2.72.08,4.08,0,.18.14.37,0,.55-.69,1.17-.5,2.55-.88,3.81a8.77,8.77,0,0,1-1,2.06,13.81,13.81,0,0,1-5.74,5.24,16.92,16.92,0,0,1-3.92,1.51,2.21,2.21,0,0,0-.89.34,4.06,4.06,0,0,1-3.08.67c-.56-.06-.91.32-1.37.43a9.67,9.67,0,0,1-2.69.13,58.77,58.77,0,0,1-8.52-1.16,4.1,4.1,0,0,1-.83-.23c-.7-.3-1-.22-1.11.67-.1,1.28-.88,1.41-2,.91s-1.08-1.32-1.06-2.25c0-.41,0-.83-.06-1.25"/><path class="cls-4" d="M411.76,79a8.36,8.36,0,0,1,2.92.37,13.49,13.49,0,0,0,3.54.06c2.84,0,5.68-.12,8.52-.18a21.53,21.53,0,0,1,3.44-.28c1.85.28,3.63-.27,5.43-.09a43.12,43.12,0,0,0,5.08,0c1.85,0,3.7-.05,5.54-.17a18,18,0,0,0,3-.53c1.7-.41,2.46.42,2.36,2a4.25,4.25,0,0,0,.18,1.8c.38,1-.33,2,.09,3,.35.84.12,1.83.66,2.66a1.48,1.48,0,0,1-.08,1.11c-.09.23-.35.48-.23.68.52.89,0,1.84.19,2.74a.65.65,0,0,1-.49.88c-1.45.51-2.57.31-3.07-1.57a34.07,34.07,0,0,0-2.53-7c-.49-1-1.53-1.06-2.35-1.34a6.69,6.69,0,0,0-4-.43c-.44.13-.8-.19-1.2-.27-1.09-.21-1.41.1-1.37,1.21a31.15,31.15,0,0,0,.5,4.86.93.93,0,0,1,0,.47c-.82,2.15-.51,4.42-.36,6.58.22,3.19.12,6.38.33,9.55.24,3.46-.18,6.93.2,10.38a26.2,26.2,0,0,1,.18,3.63c0,1.37.4,1.86,1.76,2a14.26,14.26,0,0,1,2.79.71,1.13,1.13,0,0,1,.85,1.23,12.36,12.36,0,0,0,0,1.63c.08.68-.31,1-.83.82a7.34,7.34,0,0,0-2.69,0c-1.58.09-3.18.11-4.74.09-2,0-4.06.47-6.13.18a12.21,12.21,0,0,0-2.26.11,4.14,4.14,0,0,0-2.28.41.2.2,0,0,1-.19,0c-1.16-.87-2.58-.14-3.82-.63-.41-.16-.64-.31-.73-.75-.34-1.71,0-2.34,1.75-2.84.86-.25,1.71-.54,2.56-.81a1.49,1.49,0,0,0,1.09-1.69c-.09-1.95-.16-3.9-.22-5.85s-.07-3.84-.14-5.76c-.11-3.32-.25-6.64-.34-10-.07-2.27-.05-4.54-.11-6.82-.06-2.49-.32-5-.22-7.47a.87.87,0,0,0-.9-1,5,5,0,0,0-1.34,0c-2.21.43-4.49.66-6.21,2.39-1,1-.88,2.23-.92,3.4a1.71,1.71,0,0,1-.36,1.19,3.6,3.6,0,0,0-1,2.42c-.28,1.74-.91,2.35-2.69,2.12a1,1,0,0,1-1-1.06,43.49,43.49,0,0,1,.15-5.17c0-1.69.18-3.38.13-5.06,0-1.12.28-2.2.19-3.34-.07-.9.88-.68,1.3-.65"/><path class="cls-4" d="M477.3,266.44c-3.17,0-6.35-.14-9.51.09-2.88.21-5.76.07-8.63.15-.64,0-1.58.23-1.63-.84-.1-2-.11-2.21,1.2-2.56,1-.26,2-.6,2.95-.89a1.39,1.39,0,0,0,1.06-1.53c-.15-3,0-6.08-.2-9.13-.14-2.19-.1-4.4-.18-6.6-.13-3.55-.13-7.1-.19-10.64-.07-3.39-.17-6.78-.2-10.18,0-.47-.14-.56-.51-.58a15.94,15.94,0,0,0-4.91.71,5.6,5.6,0,0,0-4.41,4.65c-.08.39,0,.76-.05,1.14a13.18,13.18,0,0,1-1.73,4.51c-.44.78-1.41.38-2.14.34s-.66-.6-.66-1.1c0-1.92.2-3.83.24-5.75,0-2.33.16-4.65.28-7,.06-1.06.27-1.24,1.36-1.27a12.57,12.57,0,0,1,1.51.25,29.83,29.83,0,0,0,5-.16,5.2,5.2,0,0,1,2.27,0,6.33,6.33,0,0,0,2.57,0c5-.29,10-.13,15-.37,2.14-.1,4.29.07,6.43,0,1.84-.06,3.69-.24,5.52-.45.76-.09,1.12.17,1.18.86.18,2,.54,3.89.64,5.87a9.79,9.79,0,0,0,.35,3.4c.32.77-.12,1.5,0,2.27a5.35,5.35,0,0,1,.21,1.58c0,.22,0,.48-.17.62a3.16,3.16,0,0,1-2.23.27,1.07,1.07,0,0,1-1-.93,61.71,61.71,0,0,0-2.31-6.8,3.16,3.16,0,0,0-2-2,19.81,19.81,0,0,0-6.52-1c-.82,0-1,.4-1,1.16.11,1.4,0,2.81.2,4.2.28,2.13-.49,4.24.15,6.39.3,1-.4,2.15-.16,3.29a32.62,32.62,0,0,1,.36,4.66,1.9,1.9,0,0,1-.1,1c-.12.23-.27.52-.09.73.45.52.06,1.14.21,1.61.51,1.66-.05,3.31.13,5a26.41,26.41,0,0,1-.06,3.71c-.05,1.76.4,3.49.27,5.27a1.61,1.61,0,0,0,1.48,1.73c1,.2,1.95.41,2.91.65s1.19.72,1,2.12a1.24,1.24,0,0,1-1.33,1.23h-2.6v.21"/><path class="cls-4" d="M416.75,249.82a1.74,1.74,0,0,0-.55,2.07,28.75,28.75,0,0,0,1.34,4.46,19.93,19.93,0,0,0,2.74,4.15,11.21,11.21,0,0,0,11.81,4.07c3.12-.69,4.92-2.67,6.14-5.39.83-1.84,1.59-3.7,2.39-5.55a2.16,2.16,0,0,0,.2-.54c.23-1.71.61-1.51,2.18-1.55.66,0,.92.3.83,1-.24,1.81-.57,3.62-.65,5.44-.1,2.18-.77,4.27-.82,6.46a1.71,1.71,0,0,1-1.31,1.7,24.58,24.58,0,0,1-3.48,1.1c-.45.05-.58.43-.89.62-.79.47-1.63.14-2.43.3s-1.54.08-2.16.66a.38.38,0,0,1-.26.1c-1.44-.15-2.92.23-4.34-.34a7.57,7.57,0,0,0-2.27-.21,28.63,28.63,0,0,1-11.06-2.9,20.51,20.51,0,0,1-7.38-6.31,22.68,22.68,0,0,1-4.26-11.62,1.33,1.33,0,0,0,0-.38c-.79-2-.24-4.17-.2-6.23a21.13,21.13,0,0,1,1.7-7.23,20.08,20.08,0,0,1,2.86-4.84c2.55-3.34,6-5.27,9.74-7s7.94-1.8,12-1.91a23.43,23.43,0,0,1,6.74.83c.83.22,1.59.68,2.41,1s1.39.51,1.88-.54a2.25,2.25,0,0,1,2.28-.94.7.7,0,0,1,.72.75c0,.51.09,1,.07,1.54-.07,2.11.36,4.19.23,6.31a5.08,5.08,0,0,0,.52,2.33c0,.06.06.13,0,.18-.59,1.24-.3,2.51-.18,3.78.1,1.07-.29,1.56-1.41,1.72s-1.51-.17-1.65-1.23a14.08,14.08,0,0,0-1.38-3.77c-.39-.91-.73-1.84-1.12-2.75a8.4,8.4,0,0,0-5.76-4.83,11.37,11.37,0,0,0-10,1.24,15.23,15.23,0,0,0-3.35,3.63c-.23.3-.41.64-.63,1s-.27.4-.08.69c.49.75.32,1.21-.52,1.53a1,1,0,0,0-.62.69,17.55,17.55,0,0,0-.81,3.15,26.73,26.73,0,0,0-.62,4.72c.08,2.77-.12,5.57.54,8.3.09.38.11.38.88.66"/><path class="cls-4" d="M234.64,263.63c-1.64,0-3.27.41-4.91.31-1.37-.08-2.75.24-4.09.08-1-.12-1.94.2-2.93.11a62.34,62.34,0,0,0-7.06,0,.74.74,0,0,1-.86-.8c0-.35-.08-.7-.08-1.05a1.41,1.41,0,0,1,1.08-1.58c.89-.25,1.74-.66,2.62-.94a1.37,1.37,0,0,0,1-1.52c-.09-2.23-.27-4.47-.24-6.7,0-1.63-.07-3.25-.08-4.87,0-2.49-.15-5-.24-7.46-.07-2,0-3.92-.15-5.88-.15-2.78-.16-5.57-.25-8.36,0-.57-.15-1.14-.18-1.72a1.06,1.06,0,0,0-.94-1.06c-.88-.08-1.62-.57-2.48-.7-1.06-.16-1.91-2.62-1.26-3.5a1.1,1.1,0,0,1,1-.35c2.78-.06,5.56-.16,8.32-.35s5.22.09,7.83-.21a16.58,16.58,0,0,1,4.36,0,.89.89,0,0,1,.52.21,2.32,2.32,0,0,1-.66,3.58,12.08,12.08,0,0,1-2.57,1,1.14,1.14,0,0,0-1,1.33q.16,2.12.31,4.24a1.36,1.36,0,0,1,0,.47c-.52,1.7-.07,3.41-.11,5.11-.06,2.51.4,5,.27,7.52-.07,1.37,0,2.74,0,4.11,0,.16,0,.41.08.46,1,.58.27,1.25.14,1.91a7.84,7.84,0,0,0-.16,1.89,68.94,68.94,0,0,0,.5,7.06,8.28,8.28,0,0,1,0,1.62,1.39,1.39,0,0,0,1.16,1.59,17,17,0,0,0,2.42.59,1.27,1.27,0,0,1,1.19,1.08,10,10,0,0,1,.07,2c0,.45-.38.65-.8.69-.61,0-1.22.08-1.82.12"/><path class="cls-4" d="M371.13,133.46c.34,1.92.41,4,1.94,5.68a5.67,5.67,0,0,1,1.36,3.85c0,1.05,0,2.1,0,3.15a1.84,1.84,0,0,1-1,1.83,1.17,1.17,0,0,0-.68,1.5c.06.21.15.48-.08.62a.61.61,0,0,1-.78-.19c-.4-.45-.76-.7-1.24-.1-.12.15-.37.11-.38-.06-.06-.72-.59-.85-1.12-1.09-.36-.17-.41-.7-.48-1.11-.39-2.18-.76-4.35-1.15-6.53a1.91,1.91,0,0,1,.09-1.32,2.16,2.16,0,0,0-.34-2.58c-.06-.07-.14-.18-.12-.25.32-1.21-.14-2.45.12-3.65a1,1,0,0,1,.21-.53,2.86,2.86,0,0,0,1.08-2.6c-.05-.42.6-.67,1-.73s.36.47.51.76c.42.8,0,1.94,1,2.5.25.13.06.47,0,.83"/><path class="cls-4" d="M329.86,166.25c-.42-.3-.13-.75-.51-1.13a2.1,2.1,0,0,0,0,1.46,5.84,5.84,0,0,1,.24.82c0,.28.05.63-.36.65s-.71-.13-.71-.59c0-.28.09-.57.1-.86a.66.66,0,0,0-.27-.68c-.29-.16-.46.11-.65.26s-.49.64-.87.41-.25-.68-.1-1c.22-.54.24-.85-.52-1s-.58-.76-.43-1.19a10.4,10.4,0,0,0,.43-4.73,5.39,5.39,0,0,1,.47-2.33,1.26,1.26,0,0,1,1.24-.9c.54,0,1.07-.14,1.62-.08,1,.1,1.29.38.83,1.23s.23,1.94-.26,2.86c-.1.18.2.37.36.53a.53.53,0,0,1,.09.77,3.83,3.83,0,0,0-.42,3.14,4.38,4.38,0,0,1-.24,2.35"/><path class="cls-4" d="M334,156.86a2.73,2.73,0,0,1-.12.55c-.22.49-.21.84.38,1.05a.76.76,0,0,1,.47.95,2.65,2.65,0,0,0,.21,1.68,1.31,1.31,0,0,1-.27,1.58,2.37,2.37,0,0,0-.71,2.54,1.17,1.17,0,0,1-.11.84c-.21.46-.39.52-.85.16-1-.76-.88-2-1.59-2.9-.14-.17,0-.65.23-.62,1,.11.8-.69.78-1.08a39.71,39.71,0,0,1,.43-4.85c0-.4,0-1,.48-1s.58.65.66,1.13"/><path class="cls-4" d="M338.16,192.88c1.7,1.84,3.6,3.44,5.17,5.38s3.42,4,5.14,6a.53.53,0,0,1,.06.07c.16.29.71.58.42.84s-.65-.25-.86-.49c-.52-.6-1-1.21-1.57-1.81-2.32-2.59-4.6-5.22-6.9-7.83-.27-.31-.6-.57-.9-.86a1.32,1.32,0,0,1-.57-1.34"/><path class="cls-4" d="M304.27,269.38c-2.72.72-5.49.25-8.23.43a48.58,48.58,0,0,1,8.23-.43"/></g></g></g></svg>