<?xml version="1.0" encoding="utf-8"?>
<!-- Generator: Adobe Illustrator 22.1.0, SVG Export Plug-In . SVG Version: 6.00 Build 0)  -->
<svg version="1.1" id="Layer_1" xmlns="http://www.w3.org/2000/svg" xmlns:xlink="http://www.w3.org/1999/xlink" x="0px" y="0px"
	 viewBox="0 0 652.5 333" style="enable-background:new 0 0 652.5 333;" xml:space="preserve">
<style type="text/css">
	.st0{fill:#99D4C0;}
	.st1{clip-path:url(#SVGID_2_);}
	.st2{fill:#231F20;}
</style>
<title>logo</title>
<g id="Layer_1-2">
	<rect y="0" class="st0" width="652.5" height="333"/>
	<g>
		<defs>
			<rect id="SVGID_1_" x="159" y="64.2" width="334.4" height="205.8"/>
		</defs>
		<clipPath id="SVGID_2_">
			<use xlink:href="#SVGID_1_"  style="overflow:visible;"/>
		</clipPath>
		<g class="st1">
			<path class="st2" d="M218.8,118.3c-1.7-1.8-2.8-4.1-4.7-5.6c0.4,1.3,0,2.6,0.1,3.9c0,0.9,0.5,1.4,1.3,1.5
				C216.6,118.3,217.7,118.3,218.8,118.3 M178.1,162.3c-0.4,0.2-0.4,0.5-0.6,0.8c-0.6,1.2-0.8,2.6-1.2,3.8s-0.4,2.8-1.2,4
				c-0.1,0.3-0.1,0.6,0,0.9c0.1,0.3,0,0.6-0.1,0.8c-0.4,0.5-0.5,1.2-0.1,1.8c0.2,0.5-0.2,0.9-0.5,1.1s-0.4-0.2-0.6-0.4
				c0.1,1.1,0.6,1.6,2.1,1.6c2.1-0.1,4.2-0.2,6.3-0.3c0.6,0,0.9-0.3,0.7-0.9c-0.4-1.1-0.7-2.2-1.2-3.2c-0.7-1.7-1-3.5-1.8-5.1
				S179.1,163.8,178.1,162.3 M284.3,156.7c-0.6,0-1.3,0-1.9,0c-0.5,0.1-1.3,0.2-1.3,0.9c0,1.4-0.4,2.7,0.1,4.1
				c0.5,1.3,0.5,2.8,0,4.1c-0.1,0.1-0.1,0.3-0.1,0.5c0.8,1.4,0,3,0.7,4.5c0.4,0.9-0.4,1.7-0.1,2.5c0.3,0.9,0.3,1.8,0,2.7
				c-0.1,0.5-0.1,1,0,1.5c0.4,0.9,0,1.8,0.1,2.7c0.1,0.5,0.4,1.1,0.1,1.8c-0.3,0.6-0.4,1.3-0.3,2c0,1.3,0.2,2.6,0.1,3.9
				c-0.2,2.6,1,4.6,2.4,6.6c0.2,0.4,0.6,0.7,1,0.8c2.8,0.7,5.7,0.2,8-1.6c2.9-2.2,4.3-5.2,5.1-8.7c0.4-2.4,0.7-4.7,0.7-7.1
				c0.1-1.3,0.1-2.7,0-4c-0.3-2.6-0.8-5.2-1.6-7.7c-0.6-2.2-1.7-4.3-3.2-6.1c-1.7-2-4.2-3.3-6.8-3.5
				C286.2,156.5,285.3,156.8,284.3,156.7 M175.1,64.2c0.4,0.3,0.8,0.7,1,1.1c3.8,5,8,9.7,12.5,14.1c1.6,1.6,2.9,3.5,4.3,5.2
				c0.9,1,1.5,1.1,2.3,0.1c0.3-0.4,0.8-0.7,1.4-0.8c1.2-0.3,1.6,0,1.6,1.2c0.1,1.9,0.2,3.8,0.2,5.8c0,0.4,0.2,0.8,0.6,1.1
				c1.3,1.7,2.7,3.3,4.1,5c1.1,1.3,2.3,2.7,3.4,4c0.2,0.3,0.4,0.7,0.9,0.7s0.3-0.6,0.5-0.9c0.7-0.9,0.9-2.1,0.5-3.2
				c-0.6-1.3,0.3-2.4,0-3.7c-0.2-1,0-2-0.1-3c-0.2-1.6-0.6-2-2.1-2.3c-0.8-0.1-1.4-0.7-2.2-0.7c-0.3,0-0.5-0.4-0.5-0.8
				c0-0.6-0.1-1.2-0.1-1.8s0.4-0.6,0.8-0.6c0.8,0,1.6-0.1,2.4-0.2c1.4-0.2,2.9,0,4.3-0.1c3-0.1,6.1-0.1,9.1-0.2
				c3.4-0.1,6.9-0.1,10.4-0.2c2.7,0,5.4-0.2,8.1-0.7c0.8-0.2,0.8-0.4,0.3-1c-0.3-0.4-0.6-0.8-0.6-1.3c1,1.1,1.9,2.2,2.9,3.3
				c0.2,0.2,0.4,0.6-0.2,0.3c-0.2-0.1-0.2,0.2-0.2,0.3c0.4,1.5,0.2,3.1,0.4,4.6c0.1,1.2-0.2,2.5,0.9,3.5c0,0.1,0,0.2,0,0.3
				c-0.9,1.3,0,2.7-0.2,4c-0.1,0.5-0.2,0.8-0.7,0.8c-0.6,0-1.2,0-1.7,0c-0.4,0-0.8-0.3-0.9-0.8c-0.5-2-1.6-3.8-2.3-5.7
				c-1.1-2.9-3.6-3.7-6.3-4c-2.6-0.3-5.2-0.2-7.8,0.3c-0.5,0.1-0.6,0.3-0.6,0.7c0,1.2,0,2.5,0,3.7c0,0.2,0.1,0.4,0.3,0.6
				c0.2,0.2,0.3,0.5,0.2,0.8c-0.7,1.8-0.4,3.7-0.4,5.6c0,1.5,0.2,2.9,0.2,4.4c0,0.5,0.3,0.5,0.7,0.5c1.4-0.1,2.8-0.1,4.1-0.2
				c0.6,0,1-0.6,1.4-1c1.1-1.4,2-2.9,2.6-4.6c0.2-0.7,0.6-1.6,1.8-1.6c1,0,1.4,0.3,1.5,1.3c0.2,2,0.4,4.1,0.4,6.1s0.1,4.3-0.1,6.4
				c0,0.5-0.3,1.2,0.4,1.5c0.3,0.1,0.2,0.5,0,0.6c-0.4,0.2-0.6,0.7-0.4,1.2c0.1,0.6,0.1,1.3-0.6,1.4s-1.6,0.4-2.1-0.6
				c-0.7-1.2-1.3-2.5-2-3.7c-0.5-0.8-1.1-1.6-1.8-2.2c-0.3-0.4-0.8-0.6-1.4-0.6c-1.2,0.2-2.4-0.1-3.5,0.1c-0.4,0.1-0.8,0.2-0.7,0.7
				c0,1-0.2,2,0.3,2.9c0.1,0.1,0.1,0.3,0.1,0.4c-0.9,1.7-0.1,3.5-0.3,5.3c-0.2,2,1.1,3.2,2.2,4.6s2,2.4,3,3.6c0.4,0.7,1.2,1,2,0.8
				c1.5-0.2,3.1-0.5,4.6-0.9c2.4-0.9,3.6-2.8,4.3-5.2c0-0.2,0-0.4,0.1-0.5c1.2-1.2,1.3-2.9,1.9-4.3c0.5-1.1,1.4-0.8,2.2-0.8
				c0.5-0.1,1.1,0.2,1,0.7c-0.1,1,0.5,2-0.2,3c-0.3,0.4-0.1,1.1-0.1,1.7c0.1,2.5-0.5,5-0.7,7.5c0,0.3,0,0.7,0,1
				c0.1,0.8-0.4,1.5-1.1,1.6c-0.1,0-0.2,0-0.3,0c-0.5,0.1-0.9,0.1-1.4,0.1c-1.1-0.2-2.2-0.2-3.2,0c-1.1-0.1-2.1-0.1-3.2,0.1
				c-0.4,0-0.8,0-1.2-0.1c-0.2,0-0.4,0-0.5,0.2s0.1,0.4,0.2,0.5c1.6,1.9,3.1,3.9,4.7,5.8c1.3,1.6,2.6,3.3,4,4.8
				c1.9,2,3.5,4.3,5.4,6.4c1,0.9,1.9,2,2.6,3.1c0.8,1.5,2.2,1.9,3.9,2c2.7,0.1,5.3-0.1,8-0.1c1.3,0,1.8,0.4,1.6,1.7
				c-0.1,1.6-0.1,1.6-1.7,2.1c-1,0.3-2,0.6-2.9,0.9c-0.3,0.1-0.6,0.2-0.7,0.6c-0.3,1.2,0,2.4,0.7,3.3c2.1,2.4,4.2,4.8,6.2,7.3
				c0.7,0.8,1.6,1.6,2.4,2.3c0.5,0.3,0.9,0.7,1.3,1.2c0.2,0.2,0.4,0.7,0.7,0.4s0.8-0.4,0.6-1c-0.1-0.7-0.1-1.4,0-2.1
				c-0.1-3.4-0.2-6.7-0.3-10.1c0-1.6-0.5-2.2-2-2.3c-0.7-0.1-1.3-0.3-1.9-0.5c-0.8-0.2-1.1-1.1-1.1-2.6c0-0.9,0.6-1.1,1.3-1.1
				c2.3-0.1,4.6-0.1,6.9-0.3c2.6-0.3,5.2,0,7.8-0.1c3.5-0.1,7-0.3,10.5-0.1c2.6,0.2,5.2,0.6,7.8,1.3c2.9,0.7,5.6,2.2,7.8,4.4
				c1.6,1.4,3,3.1,4.1,5c0.8,1.3,1.4,2.7,1.7,4.1c0.2,1.4,0.7,2.7,1.2,4c0.3,0.6,0.3,1.3,0.2,2c-0.2,0.9,0.2,1.8,0.1,2.7
				c-0.2,1.8,0.4,3.7-0.4,5.4c-0.3,0.7-0.4,1.4-0.3,2.1c0.1,0.8-0.1,1.6-0.5,2.3c-0.3,0.4-0.4,1-0.2,1.5c0.3,0.8-0.1,1.7-0.9,2
				c-0.9,0.5-1.5,1.4-1.7,2.4c0,1-0.8,1.8-1.8,1.9c-0.4,0.1-0.7,0.3-1,0.6c-0.1,0.1-0.2,0.3-0.3,0.3c-1.7,0.2-2.8,1.6-4.3,2.1
				s-3.1,0.9-4.7,1.4c-0.9,0.2-1.8,0.3-2.7,0.3c-0.2,0-0.5,0-0.5,0.1c-0.3,1-1,0.5-1.5,0.4c-0.4-0.1-0.9,0-1.3,0.2
				c-0.2,0.1-0.4,0.1-0.5,0.1c-0.3,0-0.5-0.5-0.8,0c-0.2,0.4-0.1,0.8,0.2,1.1c1.3,1.7,2.7,3.3,3.8,5.1c0.9,1.4,2.1,2.5,3,3.9
				c0.7,1.1,1.9,1.8,2.6,2.9c0.9,1.3,1.9,2.4,3.1,3.4c1.4,1.3,2,3.2,3.5,4.4c0.2,0.1,0.4,0.4,0.5,0.6c0.4,1.4,1.6,1.9,2.6,2.7
				c1,0.5,2.2,0.2,2.8-0.8c0.4,0.9,1.5,1.2,2.9,0.7c0.7-0.2,1.4-0.3,2.1-0.2c1.1,0.1,2.1-0.2,3.1,0c0.7,0.1,1.5,0,2.2-0.3
				c0.9-0.4,1.9,0,2.3,0.8c0,0.1,0.2,0.2,0.2,0.2c-0.4,1.8,1,3.5,0.1,5.3c0,0.1-0.1,0.1,0,0.2c0.6,1.1,0.1,2.4,0.4,3.6
				c0.2,0.4,0.5,0.8,0.9,1.1c-0.9,0.2-0.8,0.8-0.7,1.4c0,0.6,0,1.2,0,1.8c0,0.6-0.3,0.8-0.9,0.9c-1.8,0.2-1.8,0-2.7-1.5
				c-0.5-1.1-0.8-2.2-1-3.4c-0.4-1.5-1.1-2.9-2-4.1c-0.4-0.4-0.9-0.7-1.4-0.8c-1.6-0.4-3.2-1.2-5-0.7c-0.8,0.2-0.4,0.7-0.1,1
				c0.9,1.2,1.8,2.3,2.7,3.5c2.9,3.5,5.7,7.1,8.6,10.6c1.7,2.1,3.4,4.1,5.1,6.2c0.6,0.7,1.5,1.1,1.7,2.1c0.1,0.2,0.3,0.3,0.5,0.3
				c0,0,0,0,0.1,0c0.6-0.2,0.6,0.3,0.8,0.6c0.3-0.4,0.4-1,0.2-1.6c-0.2-1-0.3-2-0.2-3c0.2-3.7-0.1-7.4-0.2-11.1
				c-0.1-1.6-0.2-3.3-0.1-4.9c0-0.6,0.2-1.2-0.4-1.7c-0.1-0.1-0.1-0.2-0.1-0.3c0.7-1.1-0.5-1.1-0.9-1.3c-1-0.5-2-0.8-3-1.1
				c-0.2,0-0.4-0.1-0.4-0.3c-0.3-0.9-0.3-2-0.1-2.9c0.1-0.3,0.3-0.5,0.5-0.5c1,0.1,1.9-0.5,2.8-0.2c0.1,0,0.3,0,0.4,0
				c1.9-0.6,3.8-0.2,5.7-0.3c1.4,0,2.7,0,4.1-0.2c2-0.3,4,0,6-0.3c0.7-0.1,1.5,0.3,2.2-0.1c0.2-0.1,0.2,0.1,0.3,0.2
				c0.7,0.9,0.9,2,0.6,3.1c-0.4,1.1-1.4,1.9-2.5,2c-1.7,0.3-2,0.6-1.9,2.4c0,1-0.3,2.1,0.3,3.1c0.2,0.3-0.3,0.9-0.3,1.5
				c0.1,1.9,0.1,3.8-0.1,5.7c0,0.3,0,0.6,0.1,0.9c0.2,0.7,0.2,1.5,0.1,2.2c0,0.2,0,0.3,0,0.5c0.7,1.6,0.1,3.4,0.3,5
				c0.2,1.1,0.2,2.2,0.2,3.3c-0.1,1.4-0.2,2.8-0.2,4.2c0,2.5,0.4,5.1,0.5,7.6c0,0.5,0.4,1,0.9,1.1c0.9,0.3,1.7,0.6,2.6,0.8
				c0.7,0.1,1.3,0.7,1.2,1.4c0.1,2,0,2.2-2,2.2c-0.7,0-1.4,0-2.1,0s-1.3,0-1.7-0.8c-0.1-0.3-0.4-0.4-0.6-0.4c-1,0.2-1.9-0.2-3,0.1
				c-0.9,0.2-1.8,0.2-2.8,0.1c-2.6-0.2-5.2-0.1-7.9,0.1c-2.1,0.2-4.3,0.2-6.4,0.2c-2.3,0-4.6,0.2-6.9,0.3c-0.2,0.1-0.4,0-0.5-0.1
				c0.3-0.3,0.7-0.4,1.1-0.3c3,0,6.1-0.2,9.1-0.3c5.1-0.1,10.2-0.4,15.4-0.6c0.3,0,0.6,0,0.8-0.3s-0.1-0.6-0.3-0.8
				c-1.4-1.5-2.6-3.1-3.8-4.7c-0.6-0.9-1.6-1.4-2.6-1.3c-3.7,0.1-7.4,0.2-11.1,0.4c-1.1,0.1-2.3,0-3.5,0c-0.5,0-0.9-0.3-1-0.8
				c-0.5-1.6-0.1-2.4,1.5-2.9c0.4-0.1,0.7-0.4,1.1-0.5c1.9-0.7,1.9-0.7,1.9-2.6c0-2.7-0.1-5.3-0.2-8c0-1.5-1-2.3-1.7-3.2
				c-4-4.9-8.1-9.8-12.1-14.7c-2.5-3-5.2-5.9-7.5-9.1c-0.1-0.2-0.3-0.4-0.5-0.4s-0.3,0.4-0.2,0.7c0.4,1.8-0.4,3.7,0.5,5.5
				c0.1,0.2,0.1,0.5,0,0.8c-0.4,0.8-0.5,1.7-0.2,2.5c0.3,1.5,0,3.1,0.2,4.6c0,0.5-0.1,1,0.4,1.4c0.2,0.1,0.1,0.2,0,0.3
				c-0.3,0.7-0.3,1.6,0,2.3c0.3,0.8-0.3,1.6-0.2,2.5c0.1,1.5-0.2,3.1,0.4,4.6c0,0.1,0,0.1,0,0.2c-0.7,1.2,0,2.5-0.2,3.8
				c-0.1,1.6,0,3.2,0.3,4.8c0.1,0.8,0,1.7,0.1,2.5c0.1,1.4,0.4,1.8,1.9,2.1c0.9,0.2,1.7,0.5,2.6,0.7c0.6,0.2,1,0.5,0.9,1.2
				c0,0.1,0,0.3,0,0.4c0.2,1.6-0.3,2.1-1.9,2c-2.1-0.1-4.1,0.1-6.2,0c-1.9-0.1-3.8,0.3-5.6,0.2c-1.4-0.1-2.8,0.1-4.1,0.1
				c-1.7,0-3.4,0.2-5.1,0c-0.1,0-0.3,0-0.4-0.1c-0.6-0.7-0.2-1.6-0.4-2.4c-0.1-0.5,0.3-0.7,0.7-0.8c1.2-0.3,2.4-0.7,3.5-1.2
				c0.5-0.1,1-0.6,1-1.2c0.1-0.7,0.1-1.3,0-2c-0.1-2.7,0-5.5-0.2-8.2c-0.4-5-0.2-10-0.5-15.1c-0.1-1.9,0-3.8-0.1-5.7
				c0.1-1.9-0.1-3.8-0.4-5.7c-0.1-0.4-0.2-0.7-0.7-0.7c-2.2,0.2-4.3,0.7-6.3,1.5c-1.5,0.5-1.9,1.9-2.2,3.1c-0.3,1.5-0.7,2.9-1.3,4.4
				c-0.2,0.5-0.4,1-0.5,1.6c-0.3,1-0.8,1.3-2.3,1c-1-0.1-1-0.8-0.9-1.5c0.1-2.6,0.3-5.2,0.3-7.8c0-1.5,0.1-2.9,0.1-4.4
				c0-1,0.6-1.8,1.6-1.5c2.6,0.4,5.3,0.5,8,0.2c3.2-0.2,6.4-0.1,9.6-0.4c1.2-0.1,2.4,0.1,3.5,0c0.3,0,0.7,0.1,0.8-0.3
				s-0.1-0.5-0.3-0.8l-4.4-5.2L288,202l-6.7-8.2c-0.6-0.6-1.2-1.3-1.7-2.1c-0.7-1.4-2-1.2-3.1-1.1s-2.5,0.1-3.7,0.2
				c-1.4-0.1-2.7,0-4.1,0.2c-0.7,0.1-1.4,0-2.1-0.2c-1-0.1-2.1,0-3.1,0.2c-1.8,0.2-3.6-0.1-5.4,0.2c-0.8,0-1.5-0.6-1.5-1.3
				c0,0,0-0.1,0-0.1c-0.1-2-0.1-2.1,1.9-2.6c0.5-0.2,1-0.3,1.5-0.6c0.8-0.3,1.3-1.1,1.2-1.9c-0.1-3.4-0.2-6.9-0.2-10.3
				c0-1.4,0-2.7,0-4.1c0-0.9-0.4-1.8-1-2.5c-2.8-3.3-5.6-6.7-8.4-10.1c-1.1-1.4-2.3-2.7-3.5-4.4c0,1,0,1.7,0,2.4
				c-0.1,2.2,0,4.3,0.2,6.5c0.2,3.1,0.1,6.2,0.3,9.4c0.1,2.8-0.2,5.6,0.1,8.3c0.3,2.9,0.4,5.8,0.2,8.7c0,0.7,0,1.4,0.2,2.1
				c0.3,0.9,0,1.4-0.9,1.5c-1,0.1-2,0.1-3.1,0.1c-0.5,0-1,0.2-1.4,0.2c-0.6-0.1-1.2-0.5-1.6-1c-1.5-1.9-3.2-3.6-4.7-5.4
				c-1.3-1.5-2.6-3-4-4.5s-2.6-3.4-4.1-4.9c-1.9-1.8-3.4-3.9-5.1-5.8c-2.4-2.6-4.7-5.4-7.1-8.1c-0.6-0.5-1.1-1.1-1.5-1.7
				c-0.1-0.2-0.3-0.4-0.6-0.3c-0.2,0.1-0.1,0.3-0.2,0.5c-0.3,1.1,0.2,2.1,0.1,3.1c-0.1,2.2,0.1,4.4,0.1,6.6c0,1,0.2,2.1,0.5,3.1
				c0,0.1,0.1,0.2,0,0.3c-0.7,0.5-0.4,1.2-0.3,1.8c0.1,2-0.1,4,0.2,6c0.2,1.4,0.3,2.9,0.5,4.3c0.1,0.8,1,1,1.7,1.2
				c1.4,0.3,2.8,0.5,4.3,0.7c0.7,0.1,1.2,0.6,1.2,1.3c0,0.4,0,0.8,0,1.2c0,0.8-0.3,1.1-1.2,1.2c-1.6,0.2-3.2,0.3-4.9,0.2
				c-1.8-0.2-3.6,0.4-5.4,0.1c-0.6-0.1-1.1,0.5-1.8,0.3c-2.3-0.5-4.7,0.1-7,0.1c-1.1-0.2-2.3,0-3.4,0.3c-0.3,0.1-0.7,0.1-1,0
				c-0.9-0.5-1.8,0.2-2.8,0.1c-1.2-0.2-2.4,0.1-3.5,0c-2.3-0.2-4.6,0.3-6.9,0.2c-0.3,0-0.5,0.1-0.3-0.4c0.1-0.2-0.2-0.1-0.3-0.1
				c-1.4,0.1-1.8-0.2-1.8-1.5c0-1.7,0-1.7,1.5-2.2c0.6-0.2,1.3-0.5,1.9-0.7c0.7-0.2,1-1,0.7-1.6c0-0.1-0.1-0.2-0.1-0.2
				c-0.6-1.3-1.1-2.7-1.5-4.1c-0.4-1.3-0.6-1.5-2-1.4c-3.6,0.1-7.1,0.2-10.6,0.3c-0.8,0-1.1,0.5-1.4,1.2c-0.6,1.5-0.6,3.1-1.2,4.6
				s-0.1,2.1,1.5,2.2c0.8,0.1,1.5,0.3,2.2,0.6c0.5,0.2,0.5,0.7,0.6,1.1c0,0.3,0,0.7,0,1c-0.1,1.3-0.2,1.4-1.4,1.4
				c-1,0-2,0.1-2.9,0.2c-0.9,0.1-1.7,0.1-2.6,0c-1.6-0.1-3.1,0-4.7,0.1c-1,0-2,0-3-0.2c-0.1,0-0.4,0-0.4-0.1
				c-0.6-0.7-0.2-1.5-0.3-2.3c-0.1-0.5,0.3-0.8,0.7-0.9c0.8-0.2,1.5-0.5,2.3-0.8c0.8-0.3,1.4-0.9,1.6-1.8c0.9-3.4,2.4-6.7,3.3-10.1
				c0.7-2.4,1.7-4.7,2.4-7.1c0.8-2.8,2.1-5.4,2.8-8.2c0.7-2.5,1.8-4.8,2.5-7.3c0.8-2.7,2-5.4,2.7-8.1c0.2-1,0.9-1.2,1.8-1.6
				c1.5-0.5,3.1-0.7,4.7-0.7c0.9,0,1.8,0.6,2,1.5c0.8,2.1,1.4,4.4,2.2,6.5c0.4,1,0.8,2.1,1.3,3.1c0.1,0.1,0.1,0.4,0.2,0.4
				c1.2,0.2,0.6,0.9,0.5,1.5c0,0.7,0.2,1.5,0.6,2.1c1,2.6,2.3,5.2,3.2,7.9c0.6,1.5,1.1,3,1.5,4.5c0,0.7,0.4,1.3,0.9,1.7
				c0.2,0.2,0.3,0.4,0.2,0.7c-0.1,0.8,0.1,1.6,0.5,2.3c0.9,1.8,1.2,3.7,2.3,5.4c0.5,1,0.9,2,1.1,3.1c0.5,2.2,2.7,3.7,5,3.3
				c1-0.3,1.9-0.4,2.9-0.6c0.8-0.1,1.4-0.8,1.4-1.5c0.2-2.4,0.3-4.8,0.1-7.2c-0.1-1.7-0.1-3.3-0.1-5c0-3.6-0.1-7.3-0.1-10.9
				c0-2.1-0.3-4.2-0.2-6.3c0-1.4-0.2-2.9-0.1-4.3c0.1-0.9-0.4-1.7-1.3-1.9c-1.2-0.4-2.5-0.8-3.8-1.1c-0.7-0.1-1.1-0.8-1-1.5
				c0.1-2.6-0.3-2,2.4-2.2c3.9-0.3,7.9-0.3,11.8-0.4c0.8,0,1.7,0.1,2.5,0.2c0.2,0,0.4,0.1,0.6,0.3c2,2.2,3.9,4.6,6,6.7
				c0.8,0.9,1.7,1.7,2.5,2.5c0.7,0.7,1.4,1.5,2,2.4c1,1.5,2.2,2.8,3.5,4c1.6,1.5,2.9,3.3,4.5,4.9c1.2,1.2,2.1,2.6,3.3,3.8
				c0.2,0.2,0.4,0.5,0.7,0.4s0.3-0.4,0.4-0.7c0.1-0.2,0.1-0.5,0.1-0.8c-0.5-3.9-0.1-7.9-0.5-11.9c-0.2-2-0.1-4.1-0.3-6.1
				c0-1.1-0.9-2-2-2c-1.4-0.1-2.7-0.4-4.1-0.6c-0.6,0-1.1-0.5-1.1-1.2c0,0,0-0.1,0-0.1c0-0.4,0-0.8,0-1.1c0-0.7,0.4-0.9,1-0.9
				c1.3,0,2.6,0,3.8-0.1c0.3,0,0.8,0.1,1-0.3s-0.2-0.6-0.4-0.8c-2.2-2.6-4.4-5.2-6.6-7.9c-1.6-2-3.3-4-4.9-6c-2-2.5-4.1-5-6.2-7.5
				c-0.5-0.6-1.1-0.4-1.7-0.4c-1.1,0-2.2,0-3.3,0.2c-0.8,0-1.6,0-2.4,0c-2,0-4.1,0.1-6.1,0.2c-1.4,0-2.8,0-4.2,0.1
				c-0.9,0-1.7,0.2-2.6,0.3c-1.1,0.1-2.2-0.3-3.4,0.2c-0.6,0.2-1.6-0.3-2.4-0.6c-0.2-0.1-0.3-0.3-0.3-0.5c0-0.5,0-1.1,0-1.6
				c0-0.6,0.4-1.1,1-1.2c0.8-0.2,1.6-0.5,2.4-0.9c1.1-0.6,1.6-1.9,1.1-3.1c-0.1-0.1-0.1-0.2-0.1-0.3c0.2-2.7,0-5.4,0-8.2
				c0-2.9-0.4-5.9-0.2-8.8c0.1-1.2-0.3-2.3-1.1-3.2c-2.8-3.3-5.5-6.6-8.2-9.9c-0.2-0.4-0.6-0.7-1-0.9c-0.1,0.6-0.1,1.2,0.1,1.8
				c0.1,0.3,0.2,0.5,0.2,0.8c-0.1,1.3-0.2,2.5-0.1,3.8c0,0.3-0.2,0.6-0.5,0.7c-2.1,0.6-3-0.1-3.3-2.3c-0.3-2.4-1.2-4.8-2.5-6.8
				c-1-1.3-2.3-2.1-3.9-2.5c-1.8-0.6-3.7-0.7-5.5-0.2c-1.7,0.5-2.9,1.8-3.4,3.5c-0.7,1.8-0.2,3.6,0.1,5.4c0.4,1.4,1.4,2.6,2.7,3.2
				c0.4,0.2,0.8,0.4,1.1,0.7c1.4,0.9,2.9,1.4,4.6,1.7c0.8,0.3,1.6,0.7,2.2,1.2c0.9,0.5,1.9,0.8,2.7,1.4c1.8,1,3.5,2.2,4.9,3.7
				c1.1,1.2,2,2.6,2.7,4c0.3,0.6,0.4,1.3,0.5,2c0.2,1.4,0.3,2.8,0.3,4.1c0,1-0.2,2.1-0.5,3.1c-0.9,3-2.8,5.5-5.3,7.3
				c-1.1,0.8-2.3,1.3-3.5,2s-1.9,1.4-3.2,1.3c-1.2,1.3-2.7,0.5-4,0.6c-0.9,0.1-1.8,0.1-2.7,0.2s-1.8-0.2-2.8-0.1
				c-0.4,0.1-0.9,0-1.3,0.1c-0.6,0.1-1.2,0.2-1.7-0.4c-0.2-0.2-0.5-0.3-0.8-0.3c-1.1-0.1-2.1-0.3-3.1-0.6c-0.4-0.1-0.6-0.3-0.8,0.4
				c-0.3,1.1-2.5,1.6-3.3,0.8c-0.2-0.2-0.1-0.4-0.1-0.6c-0.2-3.2-0.2-6.3-0.4-9.5c-0.1-1.8-0.3-3.6-0.4-5.4c0-1.3,0.2-1.6,1.6-1.6
				c1.6,0,1.8,0.1,2.2,1.6c0.7,2.8,1.7,5.4,2.9,8c1.2,2.5,5.1,4.4,8,4c2.2-0.3,4.2-1,5.4-2.9c1-1.4,1.5-3.1,1.2-4.8
				c-0.1-1-0.2-2.1-0.5-3.1c-0.7-1.5-1.8-2.8-3.3-3.5c-2.7-1.6-5.5-3-8.4-4.3c-2.4-1-4.5-2.5-6.2-4.5c-1.5-1.8-2.5-3.9-2.9-6.2
				c-0.4-2.1-0.3-4.3,0.3-6.4c0.6-2.3,2.1-4.4,4-5.9c1.4-1,2.8-1.9,4.4-2.6c1.3-0.7,2.8-1,4.3-1.1c1.1,0,2.3-0.2,3.4-0.3
				c1.5-0.2,3-0.2,4.5-0.1c1.3,0.1,2.6,0.5,3.7,1.1c0.1-0.5-0.2-0.7-0.4-1c-1-1.4-2.2-2.7-3.4-3.9c-0.7-0.8-1.3-1.6-1.9-2.5
				c-1.3-1.5-2.5-3-3.7-4.5c-0.1-0.1-0.2-0.3-0.2-0.4L175.1,64.2"/>
			<path class="st2" d="M345.3,120.1c0,0.6,0.1,1,0.1,1.4s0,0.7,0.4,0.6c0.3,0,0.5-0.3,0.5-0.6c0,0,0-0.1,0-0.1
				c-0.1-0.5,0.1-1,0.5-1.3c0.2-0.3,0.3-0.6,0.3-1c-0.3-1.4,0.6-2.3,1.2-3.2c0.9-1.1,1-2.7,0.1-3.9c-0.4-0.5-0.7-0.2-1.1-0.2
				c-0.1,0,0,0.6-0.4,0.2c-0.1-0.2-0.1-0.4,0-0.5c0,0,0.1,0,0.1-0.1c0.9-0.5,0.3-1,0-1.5c-0.5-0.7-0.7,0.1-1.1,0.2
				c-0.2,0.1-0.3,0.1-0.5,0.1c-0.6,0-0.7,0.4-0.7,0.9c0.1,1.2,0.3,2.5,0.5,3.7c0.2,0.8-0.1,1.5,0.1,2.2c0.2,0.6,0.2,1.4,0,2
				C345.4,119.5,345.3,119.8,345.3,120.1 M300.5,98c-0.8,1.1-1.2,2.3-1.4,3.6c-0.1,0.9,0.1,1.9-0.9,2.5c-0.2,0.1-0.3,0.6-0.4,0.9
				c-0.6,2-1.2,4-1.8,6c-0.2,0.8,0.2,1.3,1,1.1c0.7-0.1,1.5-0.1,2.2,0c1.7-0.1,3.4-0.1,5.1-0.1c0.6,0,0.9-0.3,0.7-1
				c-0.5-2.1-1.3-4.1-2-6.1c-0.5-1.4-1.3-2.7-1.5-4.2C301.6,99.6,300.6,99,300.5,98 M389.3,95c-0.6,2.2-1.2,4.3-1.9,6.2
				c-0.3,1-0.3,2.1-0.8,2.9c-0.7,1-0.3,2.3-1.1,3.2c0,0.1,0,0.2,0,0.3c0.4,0.5,0.2,1.3-0.3,1.6c0,0,0,0-0.1,0
				c-0.2,0.2-0.5,0.6,0,0.7s0.7,0.1,1.1,0.1c2.3-0.1,4.6-0.1,6.9-0.1c1.2,0,1.5-0.4,1.1-1.5s-1-2.4-1.4-3.6
				C391.9,101.5,390.7,98.2,389.3,95 M344.2,89c-0.2,0.6,0.1,1.3,0.6,1.7c0.2,0.1,0.2,0.3,0.1,0.5c-0.1,0.2-0.2,0.1-0.3,0.1
				c-0.8-0.3-0.5,0.3-0.5,0.6c0.1,1.1,0.2,2.3,0.2,3.4c-0.1,0.9-0.1,1.8,0,2.7c0.2,1.5,0,3,0.2,4.5c0.1,0.8,0.5,1.6,1.3,1.6
				c1.9,0,3.9-0.4,5.6-1.4c1.5-0.7,2.7-1.9,3.5-3.3c0.9-1.9,0.9-4,1-6.1c0-1.3-0.3-2.7-0.7-3.9c-0.6-2.6-2.8-4.4-5.4-4.7
				c-1.7-0.1-3.4,0-5,0.4c-0.5,0.1-0.6,0.3-0.6,0.8C344.3,86.8,344.3,87.8,344.2,89 M292.6,132.6c0.1-0.4,0.1-0.9,0.1-1.3
				c0-0.7-0.4-1.3-1.1-1.5c-2-0.9-3.9-0.2-5.8-0.4c-1.4,0.1-2.7-0.1-4-0.6c-0.1-0.1-0.3-0.1-0.3-0.2c-0.2-0.8-0.2-1.6,0-2.4
				c0.1-0.5,0.6-0.7,1.1-0.8c0.7-0.1,1.3-0.3,1.9-0.5c0.6-0.3,1.1-0.8,1.4-1.4c0.4-1.2,0.8-2.4,1.2-3.5c0.7-1.9,1.4-3.8,2-5.8
				c0.7-2.4,1.6-4.8,2.3-7.2c0.4-1.5,1-2.9,1.5-4.3s1.1-3,1.6-4.5c0.5-1.6,1-3.2,1.7-4.8c0.2-0.7,0.4-1.3,0.5-2
				c0.8-2.4,1.9-4.8,2.5-7.2c0.2-0.7,0.5-1.4,0.8-2.1c0.4-1.1,1.4-1.2,2.4-1.2c0.7,0.1,1.5,0,2.2-0.2c0.8-0.1,1.6,0,2.3,0.2
				c0.9,0.2,1.2,0.9,1.5,1.7s0.3,2,1.2,2.7c0.3,0.2-0.2,0.6,0,1c0.9,1.7,0.9,3.8,2.4,5.2c0.3,0.2,0.4,0.6,0.3,1
				c-0.3,0.6-0.2,1.4,0.3,1.9c0.5,0.7,0.8,1.6,0.9,2.5c0.1,0.6,0.3,1.2,0.7,1.7c0.8,2.1,1.7,4.2,2.4,6.4c0.4,1.5,1,3,1.7,4.4
				c0.3,0.9,0.5,1.8,0.7,2.7c0.2,0.8,0.6,1.5,1.1,2.1c0.2,0.2,0.4,0.5,0.5,0.8c0.6,2.7,1.6,5.3,2.8,7.7c0.1,0.2,0.2,0.4,0.3,0.5
				c1.3,0.4,2.4,1.1,3.3,2.1c0.1,0.1,0.3,0.1,0.4-0.1c0.8-0.8,1.8-1.3,2.9-1.5c0.5-0.1,0.9-0.6,1.2-1.2c0.6-1.3,0.8-2.7,0.6-4.1
				c-0.1-1.4-0.1-2.7-0.1-4.1c0-2.8,0-5.7-0.1-8.5c-0.2-4.1-0.2-8.1-0.4-12.2c-0.1-2-0.1-4-0.1-6c0.1-0.8-0.5-1.6-1.3-1.8
				c-0.8-0.2-1.5-0.3-2.3-0.6c-1-0.3-1.1-1-1.2-1.8c-0.1-1.5-0.1-1.6,1.4-1.7c2.8-0.3,5.6,0,8.4-0.3c1.6-0.2,3.2-0.1,4.8-0.1
				c2.8-0.1,5.6-0.1,8.4-0.1c1,0,2.1-0.1,3.1-0.3c0.7,0,1.4,0.1,2.1,0.2c1.9,0.2,3.8,0.5,5.7,0.9c1.3,0.4,2.5,1.1,3.5,2
				c1.4,1,2.4,2.3,3.1,3.8c0.5,1.1,0.9,2.2,1.3,3.3c0.1,0.4-0.4,1-0.4,1.6c0,0.2,0,0.4,0,0.6c0.1,3.9-1.8,7.6-5,9.8
				c-1.3,1-2.6,2.2-4.3,2.6c-0.5,0.1-0.6,0.5-0.2,0.9c0.6,0.8,1,1.8,2.2,1.8c0.3,0,0.5,0.3,0.2,0.5s-0.2,0.4,0,0.7
				c0.8,1.3,1.6,2.7,2.4,4c0.5,1.1,1.2,2,2.1,2.8c0.2,0.1,0.4,0.4,0.4,0.6c0,0.5,0.3,0.9,0.6,1.3c1,1.3,2,2.6,3,3.9
				c0.3,0.3,0.7,0.4,1.1,0.4c0.9,0.1,1.5,0.8,2.6,0.4c1.4-0.4,2.4-1.5,2.7-2.9c0.9-3.4,2.4-6.7,3.4-10.1c0.9-3.2,2.1-6.2,3.1-9.3
				c0.8-2.3,1.5-4.6,2.4-6.8c0.8-1.9,1.4-3.9,2-5.8s1.2-3.8,1.9-5.6c0.2-0.5,0.3-1,0.5-1.5c0.6-2.2,0.8-1.9,2.7-2.1
				c1,0,1.9-0.1,2.8-0.2c1.2-0.2,2.4,0.6,2.9,1.7c0.6,1.3,0.9,2.8,1.6,4.1c0.3,0.6,0.4,1.4,0.7,2.1c0.8,1.8,1.5,3.7,2,5.6
				c0.6,2.1,1.4,4.1,2.3,6.1c1.1,2.5,2,5.1,2.8,7.7c0.7,2.1,1.4,4.3,2.2,6.4c0.3,0.8,1,1.3,0.9,2.3c0,0.5,0.3,0.9,0.6,1.3
				c0.6,0.6,0.8,1.4,0.8,2.2c0.1,1.6,1.1,3,2.5,3.7c0.5,0.2,1,0.5,1.6,0.8c0.2,0.1,0.4,0.3,0.5,0.6c0.1,0.5,0.1,1,0.1,1.5
				c-0.1,1.7-0.2,1.6-1.9,1.6c-1.3-0.1-2.6,0-3.8,0.3h-0.1c-2.6-0.4-5.2,0.3-7.9,0.1c-1.3-0.1-2.7,0-4,0.2c-1.2,0.2-2.3,0-3.4-0.4
				c-0.7-0.3-0.5-1.1-0.6-1.6c-0.2-1.3,0-1.6,1.3-1.8c0.3-0.1,0.6-0.1,0.8-0.2c2.4-0.9,2.4-0.9,1.5-3.4c-0.5-1.3-1.1-2.6-1.5-4
				c-0.1-0.5-0.5-0.8-1-0.7c0,0,0,0,0,0c-3,0.1-6-0.1-9,0.3c-0.6,0-1.2-0.1-1.8-0.1c-0.9-0.2-1.7,0.4-1.9,1.3c0,0,0,0.1,0,0.1
				c-0.2,0.5-0.3,1-0.4,1.6c-0.1,1.3-1,2.5-0.9,3.9c0,0.7,0.2,1.1,0.9,1.2c0.7,0.2,1.3,0.3,2,0.4c0.7,0,1.4,0.5,1.4,1.3
				c0,0,0,0,0,0.1c0.3,2.2,0.1,2.4-2,2.5c-1.5,0.1-2.9-0.2-4.4,0.3c-0.3,0.1-0.7,0-1-0.1c-2.5-0.2-5,0.3-7.5,0.3
				c-0.5-0.1-1.1,0.1-1.5,0.4c-0.3,0.3-0.7,0.3-1.1,0.1c-1.2-1-2.6-0.3-3.9-0.7c-1.7-0.4-3.3,0.3-5,0c-0.6-0.1-1.2-0.4-1.7-0.8
				c-1.3-1.3-2.4-2.7-3.3-4.3c-0.8-1.4-1.7-2.7-2.8-3.9c-0.4-0.5-0.7-0.5-1.1,0.1s-1,1.2-0.6,2.2c0.2,0.3-0.1,0.6-0.4,0.8
				c-0.6,0.4-0.8,1.3-0.3,1.9c0,0,0.1,0.1,0.1,0.1c0.6,1.1,0.8,2.3,0.6,3.5c-0.1,0.9-0.8,1.2-2.2,1.2c-2.3-0.1-4.7,0-7,0.5
				c-0.2,0-0.4,0-0.6,0c-0.9-0.3-1.7-0.5-2.3,0.5c-0.2,0.4-0.5,0.1-0.8-0.2c-0.3-0.5-0.7-0.7-1.3-0.3s-1-0.2-1.6,0
				c-2,0.4-4.1,0.3-6.1-0.2c-0.9-0.1-1.9-0.1-2.8,0.1c-1.4,0.1-2.7,0.1-4,0.1c-0.9,0-1.8,0-2.6,0.1c-3.9,0.1-7.7,0.3-11.6,0.1
				c-1.8-0.1-2.6-1.3-1.9-3c0.1-0.4,0.3-0.7,0.7-0.8c0.8-0.4,1.6-0.6,2.4-0.8c0.9-0.1,1.1-0.6,0.9-1.4c-0.6-1.8-1.3-3.7-1.9-5.6
				c-0.1-0.4-0.4-0.5-0.8-0.5c-3.7,0-7.4,0.2-11,0.1c-0.9,0-1.6,0.6-1.8,1.4c-0.5,1.4-0.8,2.9-1.2,4.3c-0.3,0.9,0.2,1.9,1.1,2.2
				c0.2,0.1,0.5,0.1,0.7,0.1c1.5-0.1,2,0.2,2.4,1.2c0.1,0.3,0.1,0.7,0,1c-0.1,0.4,0,0.9,0.3,1.1c0.5,0.4,0.4,0.7-0.2,0.8
				c-0.2,0-0.4,0.2-0.5,0.4c-0.3,0.6-0.7,0.6-1.2,0.2s-0.8-0.2-1,0.4C293.8,130.9,293.3,131.7,292.6,132.6"/>
			<path class="st2" d="M386.2,221.6c2.2,0,4.6,0.1,7-0.1c1.9-0.1,3.7,0.1,5.6,0.1c0.7-0.1,1.3,0.4,1.4,1c0,0.1,0,0.1,0,0.2
				c0.1,0.5,0.1,1,0.1,1.4c0.1,0.5-0.3,1-0.8,1.1c-1,0.4-2.1,0.7-3.1,0.9c-1,0-1.8,0.9-1.8,1.9c0,0.1,0,0.2,0,0.3c0,0.3,0,0.7-0.1,1
				c-0.2,0.6-0.1,1.3,0.2,1.9c0.5,0.5,0.4,1.4-0.1,1.8c-0.4,0.4-0.2,0.9-0.2,1.4c0.1,3,0.1,6.1,0.2,9.1c0,1.9,0.1,3.8,0.2,5.6
				c0.2,0.8,0.2,1.7,0.1,2.6c-0.1,1.1-0.2,2.2-0.1,3.2c0,0.7,0.9,1.4,0.5,1.7c-0.6,0.6-0.1,1.2-0.2,1.8c-0.1,1.8,0.2,3.6,0.2,5.4
				s0.1,3.4,0.1,5.1c0,0.4,0.1,0.5-0.4,0.6c-1.9,0.3-3.8,0.5-5.7-0.3c-0.4-0.2-0.7-0.5-1-0.9c-2.8-3.1-5.5-6.2-8.3-9.3
				c-2.5-2.7-5-5.5-7.4-8.3c-1.1-1.3-2.3-2.7-3.4-4c-2-2.3-4-4.5-6-6.8c-0.3-0.4-0.8-0.6-1-1s-0.4-0.2-0.5,0.1
				c-0.2,0.3-0.4,0.6-0.3,1c0.7,2.8-0.1,5.7,0.3,8.6c0.1,1,0,2,0.7,2.8c0.2,0.3,0.2,0.7-0.1,1c0,0,0,0-0.1,0c-0.5,0.4-0.5,1-0.4,1.6
				c0,1.9,0,3.7,0.1,5.6c0.1,1.4,0.4,2.8,0.4,4.2c0,0.5,0.5,0.8,0.9,0.8c1.5,0.3,3,0.5,4.5,0.8c0.5,0.1,1.2,0.1,1.4,0.7
				c0.2,0.8,0.6,1.6,0.1,2.5c-0.2,0.3-0.5,0.3-0.9,0.3l-13.2,0.4c-1.4,0-2.8,0.1-4.2,0.1c-0.7,0-1.1-0.3-1.1-1c0-0.3,0-0.6,0-0.9
				c-0.1-1,0.3-1.4,1.3-1.6c1.3-0.2,2.5-0.6,3.7-1c0.6-0.1,1-0.6,1-1.2c0.2-1.7,0.3-3.4,0.2-5.1c0-2.4-0.1-4.9-0.1-7.3
				c0-1.6-0.3-3.2-0.2-4.9c0-2.5-0.1-4.9-0.2-7.4c0-1.9-0.2-3.8-0.4-5.7c0-1.2,0-2.4,0.1-3.6c0-1.2-0.3-1.6-1.5-2
				c-1-0.5-2.2-0.8-3.3-0.9c-0.5,0-1-0.4-1.2-0.9c-0.2-0.9-0.1-1.8-0.3-2.6c-0.1-0.3,0.3-0.5,0.6-0.6c0.8-0.2,1.6-0.4,2.4-0.4
				c2.7,0.1,5.4-0.1,8.1-0.1c1.6,0.1,3.1,0,4.6-0.2c0.5-0.1,1,0.1,1.4,0.5c0.6,0.6,1.2,1.2,1.9,1.7c0.7,0.7,1.3,1.5,1.9,2.4
				c1.3,1.6,2.5,3.2,4,4.7c1.1,1.1,2,2.3,3,3.5c1.2,1.6,2.5,3,4,4.4c0.8,0.7,1.5,1.5,2.1,2.4c1.4,1.7,2.8,3.3,4.3,4.9
				c0.4,0.4,0.8,0.9,1.2,1.4c0.1,0.1,0.2,0.5,0.5,0.4s0.2-0.4,0.2-0.6c0-2-0.1-3.9-0.1-5.9s-0.3-4-0.2-6.1c0.2-2,0-4-0.4-5.9
				c-0.1-0.6-0.1-1.2,0-1.7c0.1-0.7-0.2-0.9-0.9-1.2c-1.7-0.5-3.5-0.9-5.2-1.1c-0.2,0-0.3,0-0.5-0.1c-1.2-0.7-0.6-1.9-0.8-2.9
				c-0.1-0.6,0.4-0.9,1-1.1C383.4,221.5,384.7,221.9,386.2,221.6"/>
			<path class="st2" d="M182.9,248.3c-1.1-0.3-1.2,0-1.4,1c-0.1,0.9-0.1,1.9,0.1,2.8c-0.1,1.4-0.1,2.8,0.2,4.1c0.2,1,0.3,2,0.2,3
				c0.1,1.4,0.5,2,2,1.9c0.8-0.1,1.6,0,2.4,0.1c1.9,0.3,3.9-0.1,5.6-1.2c2.3-1.4,4.1-3.6,5-6.1c0.9-2.3,1.4-4.7,1.5-7.1
				c0.2-2.4,0.2-4.9,0-7.4c-0.2-2.6-0.7-5.2-1.4-7.7c-0.8-2.6-2.1-4.9-3.9-6.9c-2-1.9-4.7-2.9-7.5-2.9c-1.4,0-2.7,0.6-4.1,0.6
				c-0.6,0-1,0.5-1,1.1c-0.1,1.1,0,2.3,0.2,3.4c0.4,1.2,0.4,2.4,0,3.6c-0.4,0.9,0.4,1.9,0.3,2.8c-0.1,1.2-0.1,2.4,0,3.6
				c0.1,2,0.2,4,0.1,6c0,1.2-0.3,2.6,0.6,3.8C182.1,247.4,182.8,247.6,182.9,248.3 M164.1,264c0-1.5,0-1.5,1.4-1.9
				c0.9-0.3,1.7-0.6,2.5-1c0.4-0.2,0.7-0.6,0.6-1.1c-0.1-2.8,0-5.7-0.2-8.5s0-5.7-0.2-8.5s-0.1-5.7-0.3-8.5
				c-0.2-3.1-0.3-6.1-0.2-9.2c0.1-0.8-0.4-1.5-1.2-1.6c0,0,0,0-0.1,0c-1-0.2-2-0.6-3-0.9c-0.4-0.1-0.6-0.4-0.6-0.8
				c0-0.6-0.1-1.1-0.2-1.7c-0.1-1,0.7-1.1,1.4-1.1c2.3-0.1,4.7-0.1,7-0.2c0.1,0,0.2,0,0.3,0c3.9-0.5,7.8-0.5,11.7-0.6
				c2.4-0.1,4.8-0.1,7.2,0.1c2.2,0.3,4.3,0.7,6.4,1.4c1.7,0.5,3.2,1.1,4.7,2c1.8,1.1,3.4,2.4,4.8,4c0.6,0.7,1.4,1.2,1.7,2.1
				c0,0.1,0.1,0.2,0.1,0.2c1.4-0.1,1.1,0.8,1,1.6c0,0.2,0.2,0.5,0.3,0.7c0.7,1.4,1.2,2.8,1.5,4.2c0.4,1.3,0.4,2.6,0.9,3.8
				c0.1,0.4,0.1,0.9,0,1.3c0.1,1.5,0.1,3.1-0.2,4.6c-0.2,0.5-0.1,1.2,0.2,1.6c0.3,0.3,0,0.4-0.1,0.6c-0.4,0.6-0.7,1.3-0.8,2
				c-0.4,1.5-0.9,2.9-1.7,4.3c-1,2.2-2.3,4.2-4.1,5.9c-1.2,1.2-2.6,2.2-4.1,3c-1.9,1.1-4,1.9-6.1,2.4c-1.5,0.4-3,0.6-4.6,0.6
				c-3.2,0-6.3,0.3-9.5,0.4c-1.2,0.1-2.5,0.3-3.7,0.6c-0.8,0-1.6-0.1-2.4-0.3c-0.2-0.1-0.4-0.1-0.7-0.1c-3,0.8-6-0.1-9.1,0.2
				C163.8,265.7,164.2,264.5,164.1,264"/>
			<path class="st2" d="M274.1,95.9c0-1.3-0.2-2.6-0.6-3.9c-0.3-1.4-0.9-2.6-1.9-3.7c-1.6-1.7-3.7-1.8-5.9-1.5
				c-1.7,0.2-1.8,0.5-1.7,2.2c0,0.9,0,1.7,0,2.6c0.1,0.7,0.1,1.5,0.1,2.2c-0.2,2.1-0.2,4.1,0,6.2c0.3,2.2,0.3,4.4,0.2,6.6
				c0,0.6-0.4,1.7,0.9,1.7c1.8,0.1,3.5-0.4,5-1.4c2.6-1.7,3.3-4.5,3.8-7.3C274.4,98.4,274.4,97.1,274.1,95.9 M250.2,95
				c0.5,0,0.6,0.6,1,0.6c0.2-0.2,0.2-0.5,0.1-0.8c-0.1-2-0.2-4-0.3-6c0-0.5-0.4-0.8-0.8-1c-1-0.4-2-0.7-3-0.9
				c-0.6-0.1-1.1-0.7-1-1.3c-0.1-1.7,0.3-2,2-2.1c1.9-0.1,3.7-0.1,5.6-0.1c2.6-0.1,5.2-0.4,7.8-0.2c1.7,0.1,3.5,0.1,5.2-0.1
				c3.1-0.3,6.2-0.2,9.2,0.4c2.5,0.5,4.9,1.7,6.6,3.6c1,1.2,1.9,2.5,2.5,3.9c1.1,2.5,0.9,5,0.6,7.5c0,0.5,0,1-0.1,1.4
				c-0.2,2.9-1.4,5.6-3.4,7.7c-0.8,0.7-1.6,1.4-2.5,2c-0.3,0.3-0.9,0.4-0.9,1c0,0.4-0.5,0.3-0.7,0.3c-0.8,0.1-1.6-0.1-2,0.8
				c-0.1,0.2-0.4,0.2-0.6,0.1c-2.3-0.2-4.5,0.3-6.8,0.3c-0.5,0-0.9,0-1.3,0.1c-0.3,0-0.6,0.2-0.7,0.6c-0.1,0.3,0.1,0.5,0.3,0.7
				c1.9,2.1,3.7,4.1,5.6,6.2c2.6,3,5.2,5.9,7.9,8.9c2,2.2,3.9,4.5,6,6.5c1.7,1.6,3.1,3.4,5,4.6c1.2,0.8,2.2,1.9,2.7,3.2
				c1.1,1.6,2.3,3.1,3.6,4.5c2,2.6,4.2,5.1,6.3,7.6c0.8,1.1,1.7,2.2,2.7,3.1c0.2,0.2,0.3,0.5,0.1,1c-0.5-0.5-0.9-1-1.3-1.4
				c-1.8-2.3-3.9-4.3-5.8-6.5c-2.7-3.1-5.5-6.1-8.2-9.2l-7-7.8c-2.9-3.3-5.9-6.5-8.8-9.8c-2.3-2.6-4.7-5.1-7-7.8
				c-1.3-1.3-2.5-2.6-3.6-4c-0.1-0.2-0.3-0.4-0.5-0.3s-0.3,0.3-0.4,0.6c-0.3,0.8,0.1,1.6,0.1,2.4c-0.1,2.2,0,4.3,0.2,6.5
				c0.2,0.7,0.2,1.5,0.2,2.2c-0.1,0.7,0.6,1,1.2,1.1c1.4,0.3,2.9,0.6,4.2,1.1c0.8,0.1,1.3,0.8,1.2,1.6c0,0.1,0,0.1,0,0.2
				c-0.1,0.3-0.1,0.6,0,0.9c0.5,0.8,0,0.9-0.6,0.9c-2.5,0-5,0.2-7.5,0.2c-1.7,0-3.3,0.1-5,0.2c-1.3,0.1-2.7,0.1-4-0.1
				c-0.8,0-1.6,0.3-2.4,0.2c-1.5,0.1-2.9,0-4.4-0.4c-0.4-0.1-0.7-0.5-0.7-0.9c0-0.4,0-0.9,0-1.3c-0.1-0.6,0.3-1.2,0.9-1.3
				c0.8-0.2,1.5-0.6,2.2-0.8c1.2-0.5,1.4-0.9,1.5-2.1c0.1-1.4-0.1-2.9,0-4.3s-0.1-2.9-0.1-4.4s0-3-0.1-4.5c-0.1-2.5-0.1-5.1-0.1-7.6
				c-0.2-1.8-0.2-3.6-0.1-5.4c0.1-0.7-0.4-1.1-0.7-1.6C250.4,95.6,250.2,95.4,250.2,95"/>
			<path class="st2" d="M458.8,119.8c0.1-0.4-0.1-0.6-0.2-0.9c-0.1-0.5-0.3-1.2,0.1-1.5c0.7-0.7,0.5-1.4,0.5-2.2
				c-0.3-0.2-0.4,0.3-0.6,0.1c-0.1-0.2-0.1-0.4,0-0.5c0.5-1,0.1-2,0.4-3.1c0.5-1.9,0-3.9,0.1-5.8c0-0.1,0-0.3,0-0.4
				c-0.1-4.7-0.2-9.5-0.4-14.2c-0.1-2.4-0.1-4.7-0.2-7.1c0-0.8-0.5-1.5-1.3-1.7c-0.9-0.2-1.7-0.5-2.6-0.7c-0.5,0-0.9-0.5-0.9-1
				c0-0.1,0-0.3,0-0.4c-0.1-1.8,0-1.9,1.8-2.1c3.4-0.3,6.9-0.2,10.3-0.3c1.7-0.1,3.4-0.2,5-0.2c2.5,0.1,5-0.1,7.5,0
				c2.5,0.1,4.9,0,7.4-0.2c1.1-0.1,2.2-0.3,3.3-0.6c1-0.3,1.3,0.3,1.5,1.1c0.3,1.7,0.5,3.5,0.5,5.2c0.1,1,0.2,2,0.5,2.9
				c0.2,1.6,0.1,3.1,0.3,4.7c0.1,0.8-0.3,1-1,1c-1.8,0-1.8,0-2.5-1.6c-0.6-1.4-1.2-2.8-1.8-4.2c-0.9-2.6-3.3-4.4-6.1-4.5
				c-2.8-0.2-5.6-0.1-8.4,0.4c-0.7,0.1-0.5,0.9-0.6,1.4c-0.1,1.3,0.6,2.5,0.5,3.8c-0.2,1.2-0.2,2.5-0.2,3.7c0.2,1.8-0.2,3.7,0,5.5
				c0.1,1.1,0.3,1.4,1.5,1.4c1.1,0.1,2.2,0.1,3.3,0c1-0.2,1.9-0.8,2.3-1.7c0.9-1.4,1.6-2.9,2.1-4.4c0.2-0.9,1-1.1,2.2-0.9
				c0.9,0.1,0.8,0.9,0.8,1.5c-0.2,2,0.2,4,0.2,6c0,1.3,0,2.7,0,4c0,1-0.2,2.1,0.5,3c0,0,0,0.1,0,0.1c-0.6,1-0.4,2.2-0.7,3.3
				c-0.1,0.6-1.1,0.3-1.8,0.4s-0.7-0.3-0.9-0.7c-0.8-1.9-1.8-3.7-3.2-5.2c-0.5-0.7-1.3-1-2.2-1c-0.9,0.1-1.8,0-2.7,0s-1.4,0.2-1,1.2
				c0,0.2,0,0.3-0.1,0.5c-0.3,0.7-0.2,1.5,0.3,2.1c0.2,0.4,0.8,0.8-0.2,1.1c-0.4,0.1-0.3,0.6-0.3,1c0.3,1.7,0.3,3.3,0.1,5
				c0.1,0.8,0.2,1.7,0.4,2.5c0.1,0.8,0.1,1.7,0,2.5c-0.3,1.8,0.3,2.3,2.2,2.5c1.7,0.2,3.5,0.2,5.3-0.1c1.3-0.2,2.6-0.4,3.9-0.8
				c2.6-0.7,3.5-2.7,4.5-4.9c0.8-1.7,1.5-3.5,2-5.4c0.1-0.3,0.3-0.5,0.6-0.5c0.3-0.1,0.5-0.1,0.8-0.1c1.6-0.1,2,0.5,1.7,2.1
				c-0.3,1.9-0.5,3.9-0.5,5.8c0,1.1-0.1,2.3-0.4,3.4c0,0.9-0.2,1.7-0.4,2.6c0,0,0,0.1,0,0.1c-0.2,0.4,0.9,0.9,0,1.1
				c-0.4,0.1-0.8,0.2-1.3,0.2c-2.1-0.1-4.2,0-6.3,0.2c-2.3,0-4.5,0.1-6.8,0.3c-1.1,0.1-2.2,0-3.3-0.1c-1.4,0-2.8,0.2-4.2,0.2
				c-1.9,0-3.8,0.1-5.6,0.2c-1.6,0.1-3.5-0.2-5,0.9c-0.9-0.4-1.8-0.1-2.7-0.5c-0.2-0.1-0.4-0.2-0.6-0.2c-1.6-0.4-1.8-0.6-1.8-2.3
				c-0.1-0.8,0.4-1.5,1.1-1.7c0.8-0.2,1.7-0.4,2-1.4c0.2-0.5,0.6-0.1,1-0.1"/>
			<path class="st2" d="M240.2,261c0-3.2-0.4-6.4-0.5-9.7c0-1.1-0.2-2.2-0.2-3.3c-0.1-0.5,0.3-1,0.9-1.1c0,0,0.1,0,0.1,0
				c1.9-0.2,2.4,0.1,2.8,2c0.7,2.8,1.7,5.5,3,8.1c0.5,0.8,1.1,1.4,1.9,1.9c2.6,2.2,6.2,2.5,9.2,0.9c1.7-0.9,3-2.6,3.3-4.5
				c0.4-1.9,0.2-3.9-0.6-5.7c-0.7-1.4-1.8-2.6-3.2-3.3c-3.1-1.9-6.5-3-9.6-4.7c-2.4-1.2-4.5-3.1-6.1-5.4c-1-1.6-1.6-3.4-1.7-5.2
				c-0.2-1.7-0.2-3.4,0.1-5c0.5-2.1,1.6-4.1,3.1-5.7c0.7-0.7,1.6-1.3,2.5-1.8c0.8-0.4,1.6-0.9,2.3-1.5c0.6-0.5,1.6-0.5,2.4-0.7
				c4.3-1,8.8-1.1,13.2-0.4c0.9,0.2,1.8,0.5,2.7,0.9c0.5,0.1,0.7,0.2,1-0.3c0.3-0.7,1-1.1,1.7-1.1c1.3,0,1.3,0.1,1.5,1.3
				c0.2,1.5,0,3,0.4,4.5s0,3,0.2,4.5s0,2.7,0.1,4.1c0.1,0.5-0.2,1-0.7,1.1c-0.1,0-0.2,0-0.2,0c-0.4,0-0.7,0-1.1,0
				c-1,0.1-1.5-0.4-1.6-1.4c-0.3-1.8-0.8-3.6-1.5-5.4c-0.8-2.7-3.1-4.7-5.8-5.1c-1.7-0.5-3.5-0.4-5.2,0.1c-1.3,0.5-2.3,1.5-2.8,2.9
				c-0.5,1.2-0.7,2.5-0.5,3.8c0,0.2,0,0.4,0.1,0.4c0.9,0.4,0.6,1.1,0.6,1.8c0.1,1,0.7,2,1.6,2.5c2.5,1.6,5.2,2.9,8.1,3.9
				c1.7,0.6,3.1,1.7,4.7,2.4c0.8,0.3,1.6,0.9,2.2,1.5c1.4,1.6,3.2,3,3.8,5.1c0.1,0.4,0.1,0.7,0.6,0.8c0.1,0,0.1,0.1,0.2,0.2
				c-0.5,0.4,0.1,0.7,0,1.1c-0.4,1.4,0.1,2.7,0.1,4.1c0,0.2,0.1,0.4,0,0.6c-0.7,1.2-0.5,2.6-0.9,3.8c-0.2,0.7-0.6,1.4-1,2.1
				c-1.4,2.3-3.4,4.1-5.7,5.2c-1.2,0.7-2.6,1.2-3.9,1.5c-0.3,0-0.6,0.2-0.9,0.3c-0.9,0.6-2,0.9-3.1,0.7c-0.6-0.1-0.9,0.3-1.4,0.4
				c-0.9,0.2-1.8,0.2-2.7,0.1c-2.9-0.2-5.7-0.6-8.5-1.2c-0.3,0-0.6-0.1-0.8-0.2c-0.7-0.3-1-0.2-1.1,0.7c-0.1,1.3-0.9,1.4-2,0.9
				s-1.1-1.3-1.1-2.2C240.3,261.9,240.3,261.5,240.2,261"/>
			<path class="st2" d="M411.8,79c1-0.1,2,0.1,2.9,0.4c1.2,0.2,2.4,0.2,3.5,0.1c2.8,0,5.7-0.1,8.5-0.2c1.1-0.2,2.3-0.3,3.4-0.3
				c1.9,0.3,3.6-0.3,5.4-0.1c1.7,0.1,3.4,0.1,5.1,0c1.9,0,3.7-0.1,5.5-0.2c1-0.1,2-0.3,3-0.5c1.7-0.4,2.5,0.4,2.4,2
				c-0.1,0.6,0,1.2,0.2,1.8c0.4,1-0.3,2,0.1,3c0.4,0.8,0.1,1.8,0.7,2.7c0.1,0.4,0.1,0.8-0.1,1.1c-0.1,0.2-0.4,0.5-0.2,0.7
				c0.5,0.9,0,1.8,0.2,2.7c0.1,0.3,0,0.7-0.4,0.8c0,0-0.1,0-0.1,0c-1.5,0.5-2.6,0.3-3.1-1.6c-0.6-2.4-1.4-4.8-2.5-7
				c-0.5-1-1.5-1.1-2.4-1.3c-1.3-0.6-2.7-0.7-4-0.4c-0.4,0.1-0.8-0.2-1.2-0.3c-1.1-0.2-1.4,0.1-1.4,1.2c0,1.6,0.2,3.3,0.5,4.9
				c0,0.2,0,0.3,0,0.5c-0.8,2.2-0.5,4.4-0.4,6.6c0.2,3.2,0.1,6.4,0.3,9.6c0.2,3.5-0.2,6.9,0.2,10.4c0.1,1.2,0.2,2.4,0.2,3.6
				c0,1.4,0.4,1.9,1.8,2c1,0.1,1.9,0.4,2.8,0.7c0.6,0.1,0.9,0.7,0.9,1.2c0,0.5,0,1.1,0,1.6c0.1,0.7-0.3,1-0.8,0.8
				c-0.9-0.2-1.8-0.2-2.7,0c-1.6,0.1-3.2,0.1-4.7,0.1c-2,0-4.1,0.5-6.1,0.2c-0.8,0-1.5,0-2.3,0.1c-0.8-0.1-1.6,0.1-2.3,0.4
				c-0.1,0-0.1,0-0.2,0c-1.2-0.9-2.6-0.1-3.8-0.6c-0.4-0.2-0.6-0.3-0.7-0.8c-0.3-1.7,0-2.3,1.8-2.8c0.9-0.2,1.7-0.5,2.6-0.8
				c0.7-0.2,1.2-0.9,1.1-1.7c-0.1-1.9-0.2-3.9-0.2-5.8s-0.1-3.8-0.1-5.8c-0.1-3.3-0.2-6.6-0.3-10c-0.1-2.3,0-4.5-0.1-6.8
				c-0.1-2.5-0.3-5-0.2-7.5c0.1-0.5-0.3-0.9-0.7-1c-0.1,0-0.1,0-0.2,0c-0.4-0.1-0.9-0.1-1.3,0c-2.2,0.4-4.5,0.7-6.2,2.4
				c-1,1-0.9,2.2-0.9,3.4c0,0.4-0.1,0.9-0.4,1.2c-0.6,0.7-1,1.5-1,2.4c-0.3,1.7-0.9,2.3-2.7,2.1c-0.6,0-1-0.4-1-1c0,0,0,0,0-0.1
				c-0.1-1.7,0-3.5,0.1-5.2c0-1.7,0.2-3.4,0.1-5.1c0-1.1,0.3-2.2,0.2-3.3C410.3,78.7,411.3,78.9,411.8,79"/>
			<path class="st2" d="M477.3,266.4c-3.2,0-6.4-0.1-9.5,0.1c-2.9,0.2-5.8,0.1-8.6,0.1c-0.6,0-1.6,0.2-1.6-0.8
				c-0.1-2-0.1-2.2,1.2-2.6c1-0.3,2-0.6,3-0.9c0.7-0.2,1.2-0.8,1.1-1.5c-0.1-3,0-6.1-0.2-9.1c-0.1-2.2-0.1-4.4-0.2-6.6
				c-0.1-3.6-0.1-7.1-0.2-10.6c-0.1-3.4-0.2-6.8-0.2-10.2c0-0.5-0.1-0.6-0.5-0.6c-1.7,0-3.3,0.2-4.9,0.7c-2.3,0.5-4.1,2.3-4.4,4.6
				c-0.1,0.4,0,0.8,0,1.1c-0.3,1.6-0.9,3.1-1.7,4.5c-0.4,0.8-1.4,0.4-2.1,0.3s-0.7-0.6-0.7-1.1c0-1.9,0.2-3.8,0.2-5.8
				c0-2.3,0.2-4.6,0.3-7c0.1-1.1,0.3-1.2,1.4-1.3c0.5,0.1,1,0.1,1.5,0.2c1.7,0.1,3.3,0,5-0.2c0.7-0.2,1.5-0.2,2.3,0
				c0.8,0.2,1.7,0.2,2.6,0c5-0.3,10-0.1,15-0.4c2.1-0.1,4.3,0.1,6.4,0c1.8-0.1,3.7-0.2,5.5-0.4c0.8-0.1,1.1,0.2,1.2,0.9
				c0.2,2,0.5,3.9,0.6,5.9c-0.1,1.1,0,2.3,0.4,3.4c0.3,0.8-0.1,1.5,0,2.3c0.1,0.5,0.2,1,0.2,1.6c0,0.2,0,0.5-0.2,0.6
				c-0.7,0.4-1.5,0.5-2.2,0.3c-0.5,0-0.9-0.4-1-0.9c-0.6-2.3-1.4-4.6-2.3-6.8c-0.3-0.9-1.1-1.7-2-2c-2.1-0.7-4.3-1-6.5-1
				c-0.8,0-1,0.4-1,1.2c0.1,1.4,0,2.8,0.2,4.2c0.3,2.1-0.5,4.2,0.1,6.4c0.3,1-0.4,2.1-0.2,3.3c0.2,1.5,0.4,3.1,0.4,4.7
				c0.1,0.3,0,0.7-0.1,1c-0.1,0.2-0.3,0.5-0.1,0.7c0.5,0.5,0.1,1.1,0.2,1.6c0.5,1.7,0,3.3,0.1,5c0.1,1.2,0,2.5-0.1,3.7
				c0,1.8,0.4,3.5,0.3,5.3c-0.1,0.9,0.6,1.7,1.5,1.7c1,0.2,2,0.4,2.9,0.6s1.2,0.7,1,2.1c0,0.7-0.6,1.2-1.2,1.2c0,0-0.1,0-0.1,0h-2.6
				v0.2"/>
			<path class="st2" d="M416.8,249.8c-0.6,0.5-0.9,1.3-0.5,2.1c0.3,1.5,0.8,3,1.3,4.5c0.7,1.5,1.7,2.9,2.7,4.1
				c2.7,3.6,7.4,5.2,11.8,4.1c3.1-0.7,4.9-2.7,6.1-5.4c0.8-1.8,1.6-3.7,2.4-5.6c0.1-0.2,0.2-0.4,0.2-0.5c0.2-1.7,0.6-1.5,2.2-1.6
				c0.7,0,0.9,0.3,0.8,1c-0.2,1.8-0.6,3.6-0.6,5.4c-0.1,2.2-0.8,4.3-0.8,6.5c0,0.8-0.5,1.5-1.3,1.7c-1.1,0.5-2.3,0.8-3.5,1.1
				c-0.5,0-0.6,0.4-0.9,0.6c-0.8,0.5-1.6,0.1-2.4,0.3s-1.5,0.1-2.2,0.7c-0.1,0.1-0.2,0.1-0.3,0.1c-1.4-0.1-2.9,0.2-4.3-0.3
				c-0.7-0.2-1.5-0.3-2.3-0.2c-3.8-0.2-7.6-1.2-11.1-2.9c-2.9-1.5-5.5-3.6-7.4-6.3c-2.5-3.4-3.9-7.4-4.3-11.6c0-0.1,0-0.3,0-0.4
				c-0.8-2-0.2-4.2-0.2-6.2c0.1-2.5,0.7-4.9,1.7-7.2c0.7-1.7,1.7-3.4,2.9-4.8c2.5-3.3,6-5.3,9.7-7s7.9-1.8,12-1.9
				c2.3-0.1,4.5,0.2,6.7,0.8c0.8,0.2,1.6,0.7,2.4,1s1.4,0.5,1.9-0.5c0.5-0.7,1.4-1.1,2.3-0.9c0.4,0,0.7,0.3,0.7,0.7c0,0,0,0,0,0.1
				c0,0.5,0.1,1,0.1,1.5c-0.1,2.1,0.4,4.2,0.2,6.3c0,0.8,0.2,1.6,0.5,2.3c0,0.1,0.1,0.1,0,0.2c-0.6,1.2-0.3,2.5-0.2,3.8
				c0.1,1.1-0.3,1.6-1.4,1.7s-1.5-0.2-1.6-1.2c-0.3-1.3-0.7-2.6-1.4-3.8c-0.4-0.9-0.7-1.8-1.1-2.8c-1.1-2.4-3.2-4.2-5.8-4.8
				c-3.3-1.2-7-0.7-10,1.2c-1.3,1-2.4,2.2-3.4,3.6c-0.2,0.3-0.4,0.6-0.6,1s-0.3,0.4-0.1,0.7c0.5,0.8,0.3,1.2-0.5,1.5
				c-0.3,0.1-0.5,0.4-0.6,0.7c-0.4,1-0.6,2.1-0.8,3.1c-0.3,1.6-0.6,3.1-0.6,4.7c0.1,2.8-0.1,5.6,0.5,8.3c0.1,0.4,0.1,0.4,0.9,0.7"/>
			<path class="st2" d="M234.6,263.6c-1.6,0-3.3,0.4-4.9,0.3c-1.4-0.1-2.8,0.2-4.1,0.1c-1-0.1-1.9,0.2-2.9,0.1
				c-2.4-0.1-4.7-0.1-7.1,0c-0.4,0.1-0.8-0.2-0.9-0.6c0-0.1,0-0.1,0-0.2c0-0.4-0.1-0.7-0.1-1c-0.1-0.7,0.4-1.4,1.1-1.6
				c0.9-0.2,1.7-0.7,2.6-0.9c0.7-0.2,1.1-0.8,1-1.5c-0.1-2.2-0.3-4.5-0.2-6.7c0-1.6-0.1-3.2-0.1-4.9c0-2.5-0.1-5-0.2-7.5
				c-0.1-2,0-3.9-0.1-5.9c-0.1-2.8-0.2-5.6-0.2-8.4c0-0.6-0.1-1.1-0.2-1.7c0-0.5-0.4-1-0.9-1.1c-0.9-0.1-1.6-0.6-2.5-0.7
				c-1.1-0.2-1.9-2.6-1.3-3.5c0.3-0.3,0.6-0.4,1-0.4c2.8-0.1,5.6-0.2,8.3-0.4s5.2,0.1,7.8-0.2c1.4-0.2,2.9-0.2,4.4,0
				c0.2,0,0.4,0.1,0.5,0.2c0.8,1,0.7,2.4-0.2,3.3c-0.1,0.1-0.3,0.2-0.4,0.3c-0.8,0.4-1.7,0.8-2.6,1c-0.6,0.1-1.1,0.6-1,1.3
				c0,0,0,0,0,0.1c0.1,1.4,0.2,2.8,0.3,4.2c0,0.2,0,0.3,0,0.5c-0.5,1.7-0.1,3.4-0.1,5.1c-0.1,2.5,0.4,5,0.3,7.5
				c-0.1,1.4,0,2.7,0,4.1c0,0.2,0,0.4,0.1,0.5c1,0.6,0.3,1.2,0.1,1.9c-0.1,0.6-0.2,1.3-0.2,1.9c0,2.4,0.2,4.7,0.5,7.1
				c0.1,0.5,0.1,1.1,0,1.6c-0.1,0.8,0.4,1.5,1.2,1.6c0,0,0,0,0,0c0.8,0.3,1.6,0.5,2.4,0.6c0.6,0,1.1,0.5,1.2,1.1
				c0.1,0.7,0.1,1.3,0.1,2c0,0.5-0.4,0.6-0.8,0.7C235.9,263.5,235.2,263.6,234.6,263.6"/>
			<path class="st2" d="M371.1,133.5c0.3,1.9,0.4,4,1.9,5.7c0.9,1.1,1.4,2.4,1.4,3.9c0,1.1,0,2.1,0,3.1c0.1,0.8-0.3,1.5-1,1.8
				c-0.6,0.2-0.9,0.9-0.7,1.5c0.1,0.2,0.1,0.5-0.1,0.6c-0.3,0.1-0.6,0.1-0.8-0.2c-0.4-0.4-0.8-0.7-1.2-0.1c-0.1,0.1-0.4,0.1-0.4-0.1
				c-0.1-0.7-0.6-0.9-1.1-1.1c-0.4-0.2-0.4-0.7-0.5-1.1c-0.4-2.2-0.8-4.4-1.1-6.5c-0.1-0.4-0.1-0.9,0.1-1.3c0.5-0.8,0.3-1.9-0.3-2.6
				c-0.1-0.1-0.1-0.2-0.1-0.2c0.3-1.2-0.1-2.4,0.1-3.6c0-0.2,0.1-0.4,0.2-0.5c0.8-0.6,1.2-1.6,1.1-2.6c0-0.4,0.6-0.7,1-0.7
				s0.4,0.5,0.5,0.8c0.4,0.8,0,1.9,1,2.5C371.3,132.7,371.1,133.1,371.1,133.5"/>
			<path class="st2" d="M329.9,166.2c-0.4-0.3-0.1-0.8-0.5-1.1c-0.2,0.5-0.2,1,0,1.5c0.1,0.3,0.2,0.5,0.2,0.8c0,0.3,0,0.6-0.4,0.6
				s-0.7-0.1-0.7-0.6c0-0.3,0.1-0.6,0.1-0.9c0.1-0.3-0.1-0.5-0.3-0.7c-0.3-0.2-0.5,0.1-0.6,0.3s-0.5,0.6-0.9,0.4s-0.2-0.7-0.1-1
				c0.2-0.5,0.2-0.9-0.5-1s-0.6-0.8-0.4-1.2c0.5-1.5,0.7-3.1,0.4-4.7c0-0.8,0.1-1.6,0.5-2.3c0.2-0.5,0.7-0.9,1.2-0.9
				c0.5,0,1.1-0.1,1.6-0.1c1,0.1,1.3,0.4,0.8,1.2s0.2,1.9-0.3,2.9c-0.1,0.2,0.2,0.4,0.4,0.5c0.2,0.2,0.3,0.5,0.1,0.7c0,0,0,0,0,0
				c-0.6,0.9-0.7,2.1-0.4,3.1C330.3,164.7,330.2,165.5,329.9,166.2"/>
			<path class="st2" d="M334,156.9c0,0.2-0.1,0.4-0.1,0.6c-0.2,0.5-0.2,0.8,0.4,1.1c0.4,0.1,0.6,0.6,0.5,0.9c-0.1,0.6,0,1.2,0.2,1.7
				c0.3,0.5,0.2,1.2-0.3,1.6c-0.7,0.6-1,1.6-0.7,2.5c0.1,0.3,0,0.6-0.1,0.8c-0.2,0.5-0.4,0.5-0.9,0.2c-1-0.8-0.9-2-1.6-2.9
				c-0.1-0.2,0-0.6,0.2-0.6c1,0.1,0.8-0.7,0.8-1.1c0-1.6,0.2-3.2,0.4-4.9c0-0.4,0-1,0.5-1S333.9,156.4,334,156.9"/>
			<path class="st2" d="M338.2,192.9c1.7,1.8,3.6,3.4,5.2,5.4s3.4,4,5.1,6c0,0,0,0,0.1,0.1c0.2,0.3,0.7,0.6,0.4,0.8
				s-0.6-0.2-0.9-0.5c-0.5-0.6-1-1.2-1.6-1.8c-2.3-2.6-4.6-5.2-6.9-7.8c-0.3-0.3-0.6-0.6-0.9-0.9
				C338.3,193.9,338.1,193.4,338.2,192.9"/>
			<path class="st2" d="M304.3,269.4c-2.7,0.7-5.5,0.2-8.2,0.4C298.8,269.4,301.5,269.3,304.3,269.4"/>
		</g>
	</g>
</g>
</svg>
