<svg xmlns="http://www.w3.org/2000/svg" viewBox="0 0 783.79 301.93"><defs><style>.cls-1,.cls-3{fill:#fff;}.cls-2{fill:#2b2b2b;}.cls-3{font-size:26px;font-family:Apercu-Regular, Apercu;}.cls-4{letter-spacing:0.02em;}.cls-5{letter-spacing:-0.01em;}.cls-6{letter-spacing:-0.01em;}.cls-7{letter-spacing:0em;}.cls-8{letter-spacing:-0.02em;}.cls-9{letter-spacing:-0.02em;}.cls-10{letter-spacing:-0.02em;}.cls-11{letter-spacing:-0.01em;}.cls-12{letter-spacing:0em;}.cls-13{letter-spacing:0.01em;}.cls-14{letter-spacing:0.01em;}.cls-15{letter-spacing:-0.01em;}.cls-16{letter-spacing:-0.01em;}.cls-17{letter-spacing:0em;}.cls-18{letter-spacing:-0.01em;}</style></defs><title>logo@c</title><g id="Layer_2" data-name="Layer 2"><g id="_1200" data-name="1200"><path class="cls-1" d="M65.29,222.38q-20.94,0-30.49-9.86t-9.55-31.11V81.31h-20C3,81.31,1.54,80.9.92,80.08S0,77.62,0,75.15v-8c0-2.46.31-4.1.92-4.92S3,61,5.23,61h20V21.87c0-2.46.47-4.11,1.39-4.93s2.62-1.23,5.08-1.23h11.4q3.69,0,5.08,1.23c.92.82,1.39,2.47,1.39,4.93V61H81.31c2.26,0,3.69.42,4.31,1.24s.93,2.46.93,4.92v8c0,2.47-.31,4.11-.93,4.93s-2.05,1.23-4.31,1.23H49.59v96.1q0,12.63,4.15,18t13.71,5.39H81.93c2.26,0,3.69.41,4.31,1.23s.92,2.46.92,4.93v9.24c0,2.46-.31,4.11-.92,4.92s-2,1.24-4.31,1.24Z"/><path class="cls-1" d="M152.73,77.31a53.68,53.68,0,0,1,20-15.25,64.8,64.8,0,0,1,26.8-5.39q25.86,0,39.42,13.86t13.55,40.35V216.22c0,2.46-.46,4.11-1.38,4.92s-2.62,1.24-5.09,1.24H234.66c-2.46,0-4.16-.41-5.08-1.24s-1.39-2.46-1.39-4.92V116.12q0-19.71-8.32-28.8t-26.79-9.09q-18.48,0-29.41,11.86t-10.94,31.57v94.56c0,2.46-.46,4.11-1.38,4.92s-2.62,1.24-5.09,1.24H134.87c-2.47,0-4.16-.41-5.09-1.24s-1.38-2.46-1.38-4.92V9.24c0-2.46.46-4.11,1.38-4.93s2.62-1.23,5.09-1.23h11.39c2.47,0,4.16.41,5.09,1.23s1.38,2.47,1.38,4.93Z"/><path class="cls-1" d="M326.08,90.55a50,50,0,0,1,17.71-21.4A45.94,45.94,0,0,1,370.43,61h4c2.26,0,3.69.42,4.31,1.24s.92,2.46.92,4.92V78.23c0,2.47-.31,4.11-.92,4.93s-2.05,1.23-4.31,1.23h-8a33.48,33.48,0,0,0-16.48,4,38.22,38.22,0,0,0-12.47,11.24,53.85,53.85,0,0,0-8,16.94,76.49,76.49,0,0,0-2.77,21.1v78.54c0,2.46-.46,4.11-1.39,4.92s-2.62,1.24-5.08,1.24h-11.4c-2.46,0-4.16-.41-5.08-1.24s-1.38-2.46-1.38-4.92V67.14q0-3.69,1.38-4.92c.92-.82,2.62-1.24,5.08-1.24h10.78c2.47,0,4.16.42,5.09,1.24s1.38,2.46,1.38,4.92Z"/><path class="cls-1" d="M428.3,32.34q-7.08,0-11.24-3.7T412.9,18.48V13.55a12.54,12.54,0,0,1,4.16-9.85Q421.22,0,428.3,0,435.7,0,440,3.7a12.33,12.33,0,0,1,4.31,9.85v4.93q0,6.47-4.31,10.16T428.3,32.34Zm12,183.88c0,2.46-.47,4.11-1.39,4.92s-2.62,1.24-5.08,1.24h-11.4c-2.46,0-4.16-.41-5.08-1.24s-1.39-2.46-1.39-4.92V67.14c0-2.46.47-4.1,1.39-4.92S420,61,422.45,61h11.4c2.46,0,4.15.42,5.08,1.24s1.39,2.46,1.39,4.92Z"/><path class="cls-1" d="M492,61a6.15,6.15,0,0,1,4.47,1.39,13.45,13.45,0,0,1,2.62,5.08L541.93,198,583.51,67.45q1.23-4,2.62-5.23A6.63,6.63,0,0,1,590.6,61h12.93c3.29,0,4.93,1.24,4.93,3.7a21.3,21.3,0,0,1-.93,3.7L558,215.6a14.61,14.61,0,0,1-3.08,5.39q-1.54,1.39-4.93,1.39H532.08q-3.39,0-4.94-1.39a14.48,14.48,0,0,1-3.07-5.39L474.79,68.38a20.82,20.82,0,0,1-.92-3.7c0-2.46,1.64-3.7,4.92-3.7Z"/><path class="cls-1" d="M660.16,149.07v5.86q0,50.82,41.27,50.82,26.18,0,34.8-20,1.54-3.69,2.62-4.46c.72-.51,2.21-.77,4.47-.77h11.09q4.3,0,5.54.77c.82.51,1.23,1.9,1.23,4.16q0,4.32-3.39,11.09a54.89,54.89,0,0,1-7.69,11.7q-7.71,8.63-20.8,13.55a81.19,81.19,0,0,1-28.79,4.93q-31.11,0-47.9-18.17t-16.78-51.75v-23.1q0-37.26,16.63-57.13t48.35-19.87q63.45,0,63.45,70.53v15.71q0,3.71-1.38,4.93c-.93.82-2.62,1.23-5.09,1.23Zm40.65-73.3q-40.35,0-40.65,53.28h79.46q0-27.41-9.39-40.35T700.81,75.77Z"/><path class="cls-2" d="M230.91,232.61c-.1-.65-.25-1.6-.41-2.73-.4-2.65-.84-5.61-1.27-9.13-.14-1.15-.55-4.55-.93-9-.23-2.64-.23-3.53-.62-9.28-.14-2-.25-3.57-.33-4.59l-1.9,30.26Z"/><path class="cls-2" d="M440.55,204.8c-.18,3-.44,6.16-.78,9.4s-.72,6.3-1.16,9.27l2.59-3.71Z"/><path class="cls-1" d="M440.16,186.05v21.24a64.15,64.15,0,0,1-.55,7.93c-.77,6.29-1.16,9.43-1.42,10.75a77.39,77.39,0,0,1-4.37,14.24,65.84,65.84,0,0,1-5.69,11.1,55.41,55.41,0,0,1-10.66,12.52,58.48,58.48,0,0,1-14.76,9.07c-1.4.57-3.83,1.46-6.64,2.3-2.15.64-3.79,1-6.13,1.59-2.86.69-5.1,1.22-7.92,1.73-3.71.66-6.49.93-9.58,1.21s-6.77.54-11.24.64H303a106.24,106.24,0,0,1-13.22-1,100.27,100.27,0,0,1-12-2.05,75.18,75.18,0,0,1-14.31-5,61.35,61.35,0,0,1-7.92-4.5,58.34,58.34,0,0,1-7.08-5.76,57.48,57.48,0,0,1-5.46-5.9,56.35,56.35,0,0,1-5.95-9.39,73.75,73.75,0,0,1-4.58-10.48,65.65,65.65,0,0,1-2.06-7.38A79.75,79.75,0,0,1,229,220c-.38-3.4-.54-6-.59-6.89-.15-2.51-.2-4.76-.2-6.69V189h24.33v3.77l-.12,14v1.06a69.53,69.53,0,0,0,.4,7.51,46.51,46.51,0,0,0,1.71,8,40.12,40.12,0,0,0,4.92,11.43c2.12,3.23,4.25,5.17,8.5,9.05a49.64,49.64,0,0,0,7.45,5.64,32.67,32.67,0,0,0,3.42,1.8,33,33,0,0,0,3.6,1.37,59.2,59.2,0,0,0,8.32,1.71c2.7.45,4.09.68,5.91.88,2.13.24,3.93.35,5.27.4h55.62c1.69.05,4,.09,6.79,0a105,105,0,0,0,13.83-1.28,71.43,71.43,0,0,0,9.42-2.07,50.81,50.81,0,0,0,8.47-3.2,28.31,28.31,0,0,0,7.12-4.39c2.49-2.25,3.73-4.43,5.83-8.23a53.92,53.92,0,0,0,4.71-10.55,48,48,0,0,0,2.05-10,45.44,45.44,0,0,0,.15-6.09V191Z"/><text class="cls-3" transform="translate(473.87 275.31)">A<tspan class="cls-4" x="15.39" y="0">f</tspan><tspan class="cls-5" x="25.32" y="0">t</tspan><tspan class="cls-6" x="34.92" y="0">e</tspan><tspan x="49.11" y="0">r </tspan><tspan class="cls-7" x="66.82" y="0">c</tspan><tspan class="cls-8" x="80.73" y="0">h</tspan><tspan class="cls-9" x="95.47" y="0">i</tspan><tspan class="cls-5" x="102" y="0">l</tspan><tspan class="cls-10" x="108.47" y="0">d</tspan><tspan class="cls-11" x="123.5" y="0">h</tspan><tspan class="cls-12" x="138.37" y="0">o</tspan><tspan class="cls-13" x="153.71" y="0">o</tspan><tspan x="169.34" y="0">d </tspan><tspan class="cls-14" x="191.93" y="0">c</tspan><tspan class="cls-15" x="206.1" y="0">a</tspan><tspan class="cls-16" x="219.23" y="0">n</tspan><tspan class="cls-17" x="233.92" y="0">c</tspan><tspan class="cls-18" x="248.01" y="0">e</tspan><tspan x="262.21" y="0">r</tspan></text><path class="cls-1" d="M774,42.76a9.76,9.76,0,1,1-9.71,9.89A9.59,9.59,0,0,1,774,42.76Zm8.16,9.82A8.13,8.13,0,1,0,774,60.64,8.15,8.15,0,0,0,782.18,52.58Z"/><path class="cls-1" d="M777.19,54.12l1.56.46a4.56,4.56,0,0,1-5,3.52C770.84,57.89,769,56,769,52.91a6.64,6.64,0,0,1,.61-3.26,4.62,4.62,0,0,1,4.16-2.6,4.46,4.46,0,0,1,4.14,1.6,12,12,0,0,1,.81,1.42l-.51.16c-.32.08-.69.27-1,.18s-.4-.48-.59-.73a3.24,3.24,0,0,0-5.46.7,5.62,5.62,0,0,0-.07,4.3A3,3,0,0,0,774,56.6a3.24,3.24,0,0,0,3-2C777.09,54.43,777.13,54.29,777.19,54.12Z"/></g></g></svg>