<svg xmlns="http://www.w3.org/2000/svg" viewBox="0 0 1644.95 510.63"><defs><style>.cls-1{fill:#ebe3d9;}.cls-2,.cls-55{font-size:22px;fill:#fff;font-family:Apercu-Bold, Apercu;}.cls-3,.cls-36,.cls-4,.cls-47,.cls-55{font-weight:700;}.cls-32,.cls-4{letter-spacing:-0.01em;}.cls-5{fill:#b1b1b0;}.cls-10,.cls-11,.cls-12,.cls-13,.cls-14,.cls-15,.cls-16,.cls-17,.cls-18,.cls-19,.cls-20,.cls-37,.cls-38,.cls-39,.cls-40,.cls-41,.cls-42,.cls-43,.cls-44,.cls-45,.cls-46,.cls-48,.cls-49,.cls-5,.cls-50,.cls-51,.cls-52,.cls-6,.cls-7,.cls-8,.cls-9{font-family:Apercu-Regular, Apercu;}.cls-10,.cls-11,.cls-12,.cls-13,.cls-14,.cls-15,.cls-16,.cls-17,.cls-18,.cls-19,.cls-20,.cls-38,.cls-39,.cls-40,.cls-41,.cls-42,.cls-43,.cls-44,.cls-45,.cls-46,.cls-48,.cls-49,.cls-50,.cls-51,.cls-52,.cls-6,.cls-7,.cls-8,.cls-9{fill:gray;}.cls-22,.cls-6{letter-spacing:0em;}.cls-35,.cls-7{letter-spacing:-0.02em;}.cls-8{letter-spacing:-0.02em;}.cls-9{letter-spacing:-0.01em;}.cls-10,.cls-75{letter-spacing:-0.02em;}.cls-11,.cls-36{letter-spacing:-0.02em;}.cls-12{letter-spacing:0em;}.cls-14{letter-spacing:-0.02em;}.cls-15{letter-spacing:-0.02em;}.cls-16,.cls-53{letter-spacing:-0.01em;}.cls-17{letter-spacing:0.01em;}.cls-18{letter-spacing:-0.01em;}.cls-19,.cls-58{letter-spacing:0em;}.cls-20{letter-spacing:0.01em;}.cls-21{letter-spacing:-0.02em;}.cls-23{letter-spacing:-0.01em;}.cls-24{letter-spacing:0em;}.cls-25{letter-spacing:0.01em;}.cls-26,.cls-40{letter-spacing:-0.01em;}.cls-27{letter-spacing:-0.01em;}.cls-28{letter-spacing:0em;}.cls-29,.cls-38{letter-spacing:-0.01em;}.cls-30,.cls-52{letter-spacing:-0.04em;}.cls-31,.cls-48{letter-spacing:-0.02em;}.cls-33,.cls-39{letter-spacing:-0.01em;}.cls-34{letter-spacing:0.01em;}.cls-41,.cls-71{letter-spacing:-0.01em;}.cls-42,.cls-57{letter-spacing:0em;}.cls-43{letter-spacing:-0.01em;}.cls-44{letter-spacing:-0.02em;}.cls-45{letter-spacing:0.03em;}.cls-46{letter-spacing:0.01em;}.cls-47{letter-spacing:-0.05em;}.cls-49{letter-spacing:-0.03em;}.cls-50,.cls-56{letter-spacing:-0.03em;}.cls-51{letter-spacing:-0.03em;}.cls-54{letter-spacing:-0.04em;}.cls-59{letter-spacing:-0.01em;}.cls-60{letter-spacing:0em;}.cls-61{letter-spacing:0em;}.cls-62{letter-spacing:0em;}.cls-63{letter-spacing:0.02em;}.cls-64{letter-spacing:0.01em;}.cls-65{letter-spacing:0em;}.cls-66{letter-spacing:0.01em;}.cls-67{letter-spacing:0em;}.cls-68{letter-spacing:0em;}.cls-69{letter-spacing:0.01em;}.cls-70{letter-spacing:0.05em;}.cls-72{letter-spacing:-0.01em;}.cls-73{letter-spacing:0em;}.cls-74{letter-spacing:0.01em;}.cls-76{letter-spacing:-0.04em;}.cls-77,.cls-79{fill:none;stroke:#ebe3d9;stroke-miterlimit:10;}.cls-78{fill:#7280a9;}.cls-79{stroke-width:1.86px;}</style></defs><title>problem_2</title><g id="Layer_2" data-name="Layer 2"><g id="_1200" data-name="1200"><circle class="cls-1" cx="1071.48" cy="135.82" r="0.5"/><circle class="cls-1" cx="1071.48" cy="129.74" r="0.5"/><text class="cls-2" transform="translate(14.9 349.7)"><tspan class="cls-3"> </tspan><tspan class="cls-4" x="5.46" y="0">2</tspan><tspan class="cls-3" x="18.06" y="0">00</tspan><tspan class="cls-5" x="46.22" y="0"> </tspan><tspan class="cls-6" x="52.12" y="0">c</tspan><tspan class="cls-7" x="63.89" y="0">h</tspan><tspan class="cls-8" x="76.36" y="0">i</tspan><tspan class="cls-9" x="81.88" y="0">l</tspan><tspan class="cls-10" x="87.36" y="0">d</tspan><tspan class="cls-11" x="100.1" y="0">r</tspan><tspan class="cls-12" x="108.75" y="0">e</tspan><tspan class="cls-13" x="121.11" y="0">n </tspan><tspan class="cls-14" x="139.7" y="0">a</tspan><tspan class="cls-11" x="150.7" y="0">r</tspan><tspan class="cls-13" x="159.35" y="0">e </tspan><tspan class="cls-15" x="177.56" y="0">d</tspan><tspan class="cls-16" x="190.26" y="0">i</tspan><tspan class="cls-17" x="196.06" y="0">a</tspan><tspan class="cls-13" x="207.64" y="0">g</tspan><tspan class="cls-18" x="218.79" y="0">n</tspan><tspan class="cls-9" x="231.22" y="0">o</tspan><tspan class="cls-19" x="244.05" y="0">s</tspan><tspan class="cls-20" x="254.12" y="0">e</tspan><tspan class="cls-13" x="266.73" y="0">d </tspan><tspan class="cls-13"><tspan class="cls-21" x="0" y="29">w</tspan><tspan class="cls-22" x="15.86" y="29">i</tspan><tspan class="cls-23" x="21.74" y="29">t</tspan><tspan class="cls-24" x="29.9" y="29">h </tspan><tspan class="cls-25" x="48.66" y="29">c</tspan><tspan class="cls-26" x="60.65" y="29">a</tspan><tspan class="cls-27" x="71.76" y="29">n</tspan><tspan class="cls-28" x="84.19" y="29">c</tspan><tspan class="cls-29" x="96.12" y="29">e</tspan><tspan x="108.13" y="29">r </tspan><tspan class="cls-30" x="123.11" y="29">i</tspan><tspan x="128.28" y="29">n </tspan><tspan class="cls-21" x="146.87" y="29">I</tspan><tspan class="cls-31" x="152.7" y="29">r</tspan><tspan class="cls-32" x="161.35" y="29">el</tspan><tspan class="cls-26" x="179.08" y="29">a</tspan><tspan class="cls-27" x="190.19" y="29">n</tspan><tspan x="202.62" y="29">d</tspan><tspan class="cls-22" x="0" y="58">e</tspan><tspan class="cls-33" x="12.25" y="58">v</tspan><tspan class="cls-29" x="22.13" y="58">e</tspan><tspan x="34.14" y="58">r y</tspan><tspan class="cls-34" x="59.25" y="58">e</tspan><tspan class="cls-35" x="71.7" y="58">a</tspan><tspan x="82.7" y="58">r</tspan></tspan></text><text class="cls-2" transform="translate(404.96 349.7)"><tspan class="cls-36">8</tspan><tspan class="cls-3" x="12.63" y="0">0%</tspan><tspan class="cls-37" x="45.14" y="0"> </tspan><tspan class="cls-38" x="51.04" y="0">o</tspan><tspan class="cls-13" x="63.76" y="0">f </tspan><tspan class="cls-39" x="77.66" y="0">t</tspan><tspan class="cls-40" x="85.82" y="0">h</tspan><tspan class="cls-16" x="98.41" y="0">e</tspan><tspan class="cls-19" x="110.59" y="0">s</tspan><tspan class="cls-13" x="120.67" y="0">e </tspan><tspan class="cls-6" x="138.89" y="0">c</tspan><tspan class="cls-14" x="150.66" y="0">h</tspan><tspan class="cls-8" x="163.13" y="0">i</tspan><tspan class="cls-41" x="168.65" y="0">l</tspan><tspan class="cls-10" x="174.13" y="0">d</tspan><tspan class="cls-11" x="186.87" y="0">r</tspan><tspan class="cls-42" x="195.51" y="0">e</tspan><tspan class="cls-13" x="207.88" y="0">n </tspan><tspan class="cls-43" x="226.47" y="0">s</tspan><tspan class="cls-44" x="236.37" y="0">u</tspan><tspan class="cls-45" x="248.56" y="0">r</tspan><tspan class="cls-9" x="258.39" y="0">v</tspan><tspan class="cls-46" x="268.22" y="0">i</tspan><tspan class="cls-39" x="274.38" y="0">v</tspan><tspan class="cls-13" x="284.26" y="0">e</tspan></text><text class="cls-2" transform="translate(859.59 349.7)"><tspan class="cls-47">6</tspan><tspan class="cls-3" x="11.95" y="0">,000</tspan><tspan class="cls-37" x="62.17" y="0"> </tspan><tspan class="cls-43" x="68.07" y="0">s</tspan><tspan class="cls-44" x="77.97" y="0">u</tspan><tspan class="cls-45" x="90.16" y="0">r</tspan><tspan class="cls-9" x="99.99" y="0">v</tspan><tspan class="cls-46" x="109.82" y="0">i</tspan><tspan class="cls-39" x="115.98" y="0">v</tspan><tspan class="cls-48" x="125.86" y="0">o</tspan><tspan class="cls-49" x="138.45" y="0">r</tspan><tspan class="cls-13" x="146.83" y="0">s </tspan><tspan class="cls-14" x="162.87" y="0">a</tspan><tspan class="cls-48" x="173.87" y="0">r</tspan><tspan class="cls-13" x="182.51" y="0">e </tspan><tspan class="cls-50" x="200.73" y="0">l</tspan><tspan class="cls-46" x="205.83" y="0">i</tspan><tspan class="cls-9" x="211.99" y="0">v</tspan><tspan class="cls-51" x="221.83" y="0">i</tspan><tspan class="cls-40" x="227" y="0">n</tspan><tspan class="cls-13" x="239.41" y="0">g </tspan><tspan class="cls-52" x="256.46" y="0">i</tspan><tspan class="cls-13" x="261.63" y="0">n </tspan><tspan class="cls-13"><tspan class="cls-21" x="0" y="29">I</tspan><tspan class="cls-31" x="5.83" y="29">r</tspan><tspan class="cls-53" x="14.48" y="29">el</tspan><tspan class="cls-26" x="32.21" y="29">a</tspan><tspan class="cls-27" x="43.32" y="29">n</tspan><tspan class="cls-54" x="55.75" y="29">d</tspan><tspan x="68.16" y="29">.</tspan></tspan></text><text class="cls-55" transform="translate(1344.14 334.95)">C<tspan class="cls-56" x="15.4" y="0">u</tspan><tspan x="27.74" y="0">r</tspan><tspan class="cls-57" x="37.03" y="0">r</tspan><tspan class="cls-58" x="46.35" y="0">e</tspan><tspan class="cls-24" x="58.52" y="0">nt</tspan><tspan class="cls-59" x="80.06" y="0">l</tspan><tspan class="cls-24" x="85.93" y="0">y </tspan><tspan class="cls-53" x="101.97" y="0">t</tspan><tspan class="cls-60" x="110.46" y="0">h</tspan><tspan class="cls-61" x="123.62" y="0">e</tspan><tspan class="cls-57" x="135.76" y="0">r</tspan><tspan x="145.09" y="0">e </tspan><tspan class="cls-62" x="162.78" y="0">i</tspan><tspan x="168.45" y="0">s </tspan><tspan class="cls-61" x="183.94" y="0">n</tspan><tspan x="196.77" y="0">o </tspan><tspan class="cls-27" x="0" y="29">d</tspan><tspan class="cls-63" x="12.91" y="29">e</tspan><tspan class="cls-21" x="25.61" y="29">d</tspan><tspan class="cls-64" x="38.41" y="29">i</tspan><tspan class="cls-60" x="44.33" y="29">c</tspan><tspan class="cls-34" x="56.56" y="29">a</tspan><tspan class="cls-65" x="68" y="29">t</tspan><tspan class="cls-63" x="76.52" y="29">e</tspan><tspan x="89.21" y="29">d a</tspan><tspan class="cls-66" x="119.15" y="29">f</tspan><tspan class="cls-67" x="127.55" y="29">t</tspan><tspan class="cls-68" x="136.07" y="29">e</tspan><tspan class="cls-57" x="148.21" y="29">r</tspan><tspan class="cls-60" x="157.54" y="29">c</tspan><tspan class="cls-29" x="169.77" y="29">a</tspan><tspan class="cls-57" x="180.77" y="29">r</tspan><tspan x="190.1" y="29">e </tspan><tspan class="cls-69" x="207.79" y="29">c</tspan><tspan class="cls-22" x="220.09" y="29">e</tspan><tspan x="232.25" y="29">nt</tspan><tspan class="cls-57" x="253.79" y="29">r</tspan><tspan x="263.12" y="29">e </tspan><tspan class="cls-21" x="0" y="58">f</tspan><tspan class="cls-29" x="7.72" y="58">o</tspan><tspan x="20.57" y="58">r </tspan><tspan class="cls-65" x="35.31" y="58">s</tspan><tspan class="cls-56" x="45.23" y="58">u</tspan><tspan class="cls-70" x="57.57" y="58">r</tspan><tspan class="cls-25" x="67.93" y="58">v</tspan><tspan x="78.3" y="58">i</tspan><tspan class="cls-71" x="84.02" y="58">v</tspan><tspan class="cls-72" x="94.03" y="58">o</tspan><tspan x="106.87" y="58">rs </tspan><tspan class="cls-73" x="131.65" y="58">o</tspan><tspan x="144.87" y="58">f </tspan><tspan class="cls-26" x="158.42" y="58">c</tspan><tspan class="cls-72" x="170.25" y="58">h</tspan><tspan class="cls-67" x="182.99" y="58">i</tspan><tspan class="cls-68" x="188.6" y="58">l</tspan><tspan x="194.63" y="58">d</tspan><tspan class="cls-60" x="207.81" y="58">h</tspan><tspan class="cls-74" x="220.96" y="58">oo</tspan><tspan x="247.58" y="58">d </tspan><tspan class="cls-60" x="0" y="87">c</tspan><tspan class="cls-21" x="12.23" y="87">a</tspan><tspan class="cls-61" x="23.17" y="87">n</tspan><tspan class="cls-69" x="35.99" y="87">c</tspan><tspan class="cls-61" x="48.29" y="87">e</tspan><tspan x="60.43" y="87">r </tspan><tspan class="cls-75" x="75.17" y="87">i</tspan><tspan x="80.41" y="87">n </tspan><tspan class="cls-76" x="98.78" y="87">I</tspan><tspan class="cls-57" x="104.81" y="87">r</tspan><tspan class="cls-61" x="114.13" y="87">e</tspan><tspan class="cls-58" x="126.28" y="87">l</tspan><tspan class="cls-21" x="132.33" y="87">a</tspan><tspan class="cls-61" x="143.26" y="87">n</tspan><tspan x="156.09" y="87">d</tspan></text><polyline class="cls-77" points="0.5 292.64 1644.45 292.64 1644.45 319.37 1644.45 327.07"/><line class="cls-77" x1="0.5" y1="292.64" x2="0.5" y2="334.13"/><line class="cls-77" x1="390.8" y1="292.64" x2="390.8" y2="327.07"/><line class="cls-77" x1="839.7" y1="292.64" x2="839.7" y2="327.07"/><line class="cls-77" x1="1318.65" y1="292.64" x2="1318.65" y2="327.07"/><circle class="cls-78" cx="134.74" cy="192.1" r="2.86"/><circle class="cls-78" cx="153.31" cy="199.68" r="2.86"/><circle class="cls-78" cx="143.78" cy="168.44" r="2.86"/><circle class="cls-78" cx="187.51" cy="205.41" r="2.86"/><circle class="cls-78" cx="133.05" cy="222.1" r="2.86"/><circle class="cls-78" cx="180.63" cy="213.99" r="2.86"/><circle class="cls-78" cx="225.47" cy="240.28" r="2.86"/><circle class="cls-78" cx="191.59" cy="174.17" r="2.86"/><circle class="cls-78" cx="225.47" cy="205.41" r="2.86"/><circle class="cls-78" cx="165.05" cy="243.14" r="2.86"/><circle class="cls-78" cx="134.34" cy="230.98" r="2.86"/><circle class="cls-78" cx="94.11" cy="235.24" r="2.86"/><circle class="cls-78" cx="110.99" cy="214.66" r="2.86"/><circle class="cls-78" cx="199.88" cy="256.27" r="2.86"/><circle class="cls-78" cx="140.5" cy="248.68" r="2.86"/><circle class="cls-78" cx="250.94" cy="259.13" r="2.86"/><circle class="cls-78" cx="159.88" cy="225.27" r="2.86"/><circle class="cls-78" cx="157.02" cy="185.28" r="2.86"/><circle class="cls-78" cx="250.94" cy="230.77" r="2.86"/><circle class="cls-78" cx="145.62" cy="240.28" r="2.86"/><circle class="cls-78" cx="82.17" cy="207.38" r="2.86"/><circle class="cls-78" cx="93.7" cy="193.96" r="2.86"/><circle class="cls-78" cx="173.28" cy="182.42" r="2.86"/><circle class="cls-78" cx="202.75" cy="191" r="2.86"/><circle class="cls-78" cx="159.88" cy="268.32" r="2.86"/><circle class="cls-78" cx="104.52" cy="255.01" r="2.86"/><circle class="cls-78" cx="108.13" cy="250.43" r="2.86"/><circle class="cls-78" cx="117.05" cy="179.55" r="2.86"/><circle class="cls-78" cx="162.98" cy="168.26" r="2.86"/><circle class="cls-78" cx="157.02" cy="163.57" r="2.86"/><circle class="cls-78" cx="205.61" cy="222.41" r="2.86"/><circle class="cls-78" cx="180.77" cy="154.98" r="2.86"/><circle class="cls-78" cx="225.47" cy="176.85" r="2.86"/><circle class="cls-78" cx="194.45" cy="154.98" r="2.86"/><circle class="cls-78" cx="250.94" cy="202.54" r="2.86"/><circle class="cls-78" cx="159.88" cy="141.41" r="2.86"/><circle class="cls-78" cx="159.04" cy="141.41" r="2.86"/><circle class="cls-78" cx="125.64" cy="149.25" r="2.86"/><circle class="cls-78" cx="105.5" cy="152.12" r="2.86"/><circle class="cls-78" cx="90.44" cy="166.72" r="2.86"/><circle class="cls-78" cx="110.99" cy="220.38" r="2.86"/><circle class="cls-78" cx="73.07" cy="186.42" r="2.86"/><circle class="cls-78" cx="172.19" cy="131.04" r="2.86"/><circle class="cls-78" cx="149.5" cy="126.58" r="2.86"/><circle class="cls-78" cx="185.43" cy="126.17" r="2.86"/><circle class="cls-78" cx="167.29" cy="123.31" r="2.86"/><circle class="cls-78" cx="188.29" cy="104.01" r="2.86"/><circle class="cls-78" cx="187.45" cy="104.01" r="2.86"/><circle class="cls-78" cx="154.05" cy="111.86" r="2.86"/><circle class="cls-78" cx="133.91" cy="114.72" r="2.86"/><circle class="cls-78" cx="116.38" cy="131.04" r="2.86"/><path class="cls-78" d="M1070.93,98.53a5.83,5.83,0,0,0,4.61,2.1v10.06l8,12.15-4.14,2.88,3,4.28,2.23,4.84-5-1.3-.55,2.61a19.72,19.72,0,0,1,3.91,4.28c5.71,8.54,2.88,19.29,2.6,20.29-2.22,8-6.92,10.09-6.33,17.13.17,1.93.6,2.75.37,4.84-.49,4.5-3,5.13-5.21,10.61-1.83,4.55-1.36,7.24-3.54,8.19-1.75.77-3.78-.21-3.9.19s3.91,1.43,5.95,4.84a5.21,5.21,0,0,1,.93,3.72c-.48,2.31-3.21,4.17-5.58,4.1s-2.81-1.79-6.14-2.05a8.16,8.16,0,0,1-2.24-.19c-2.2-.72-2.59-2.69-3.72-2.6-.85.06-1,1.21-2.42,3.16-.55.74-2.77,3.75-4.1,3.35-1.49-.44-1.14-5-1.86-5-.52,0-.4,2.34-2,4.09-2.06,2.2-5.59,2.07-6.14,2-2.58-.09-3-1.19-5.21-.93-1.9.22-1.77,1-4.1,1.67-2.86.8-3.85-.2-6.89.75-.13,0-2.88.92-2.79,1.67s3.64.4,4.1,1.68-2.32,4.32-5.78,5.21c-3.24.84-4.61-.84-7.07.38-1.53.75-1.33,1.57-3.7,4.44-2.63,3.19-4.37,5.31-7,5.9-2.89.63-4.55-1.08-6.46.28-1.38,1-1,2.21-2.24,2.8-1.73.82-3.13-1.22-6.45-1.68-.45-.06-4.92-.64-6.74,1.68-1.53,2,.33,4.09-1.4,7.3-.35.64-1.46,2.69-3.09,2.8-2.5.18-4.25-4.35-5.33-3.93s.67,3.92-1.12,5.9c-1.32,1.46-4.17,1.68-6.17,1.12-1.77-.5-2.44-1.5-3.37-1.12-1.34.54-.93,3.06-2,3.36s-2-2.76-4.21-3.36c-3.41-.93-7.27,4.74-8.42,3.92-.9-.64,1.2-4.42.28-5.05s-3.18,2.76-7.57,3.37c-.91.13-2.63.37-3.37-.56-1-1.3.55-4,1.12-5a14,14,0,0,1,5-5.05c3.46-1.89,6.1-1.29,6.46-2.53.2-.68-.32-1.83-3.37-3.92L936.26,243l-5.61.56a9.67,9.67,0,0,1-5.33,3.93c-3.05.8-6.76-.07-7-1.41-.15-.78,1-1.39,5.05-4.49,3.62-2.73,2.86-2.33,5-3.92A108.47,108.47,0,0,1,941,229.76l-8.7.28L925,234c-1.13,2.13-2,2.58-2.53,2.52-1.6-.15-1.74-4.28-3.93-4.77-1.52-.34-2.55,1.4-3.64.85s-.31-2-1.41-3.93c-1.18-2.1-3-2.17-3.08-3.37-.06-.72.51-1.82,3.64-3.37l9.82-3.92,4.77-2,5.33-2,3.65-3.37-8.42,1.41-12.06.28h-6.74l-1.68-5.05,3.37-2.25,2.24-4.21h4.21l3.93,1.41,2.53-1.13,4.2,4.49,3.65-.84.56-4.49-3.08-5.61,3.92-4.21,4.77-3.08,9.82-2.53L952,184l1.12-2.81-3.93-.56-3.36-.56-3.93,1.12-7.3,2.81-4.76.56,2.24-5.33,5.61-1.47,4.49-4.42,3.93-.56,2.52-5.05,3.09-5.33-4.21-1.69,4.77-7.85,1.4-5.89,4.21.84,2.81-.56a25,25,0,0,1,3.08-1.12c4.8-1.42,7.23-.68,7.86-2s-.63-3.35-2.53-4.21a4.35,4.35,0,0,0-4.77.84l-7.85,1.41L948,141.11c-.53-2.06-1.12-2.6-1.6-2.65-1.09-.13-1.53,2.28-3.61,2.92-1.52.46-3.46-.16-3.76-1.12s.73-1.81,2.23-3.33c1.85-1.88,2.63-2,2.92-3.06.42-1.55-.61-3.64-1.67-3.76s-1.44,1.95-4.31,4c-1.12.81-2.2,1.57-3.2,1.25-1.19-.39-.95-1.86-2.36-2.64s-2.52.35-3.62-.42c-1.46-1-.34-3.6-1.81-4.59-1.09-.74-2.33.29-3.2-.56a2.05,2.05,0,0,1-.13-2.64c.9-.83,3.05.49,3.33,0s-1.69-1.48-2.36-3.75c-.14-.46-.6-2,.14-2.79s2,.06,3.06-.83c.75-.6.47-1.2,1.11-1.53,1-.53,2,.9,3.62.56a2.93,2.93,0,0,0,1.66-1.12c.78-1.09.25-2.23,0-5.14-.18-2.25-.28-3.37.14-4.17,1-2,3.79-2.43,5-2.64,3.61-.63,5.19.81,6.26-.28.87-.9.49-2.54-.28-5.84-.45-1.92-.83-2.38-1.25-2.51-.67-.2-1.3.46-2.37,1.25a13.14,13.14,0,0,1-5,2.51c-2.09.31-3.86-.82-5.84-2.09-1.32-.84-1.1-1-4.31-3.75-2.68-2.31-3.27-2.59-3.2-3.2.17-1.55,4.35-3.22,6.93-1.93,1,.51,1.23,1.2,3.06,2.25,1.46.84,2.31,1.33,2.86,1,1.32-.73.9-6.06-2.25-9-.4-.38-2.07-2.28-3.27-1.84s-1,2.86-2,3.06c-.71.14-1.49-.85-1.84-1.43-1.21-2-.22-4.62.21-5.72.18-.47,1.92-5,4.7-5.11,1,0,1.2.53,2.65.62s2.49-.51,3.88-1a16.43,16.43,0,0,1,7-.82c2.95.15,3,.9,5.72.82,2.34-.08,2.69-.64,4.49-.41.78.1,3.29.42,4.7,2.24,1.67,2.17.35,4.59,1.84,5.52,1,.63,2.67.16,3.67-.61,2.31-1.77,1.37-5.26,2.86-5.72,1.11-.35,1.74,1.55,4.29,2,1.65.32,1.85-.38,3.88-.2,2.5.22,2.71,1.31,4.91,1.43.53,0,3.45.11,4.69-1.84a3.07,3.07,0,0,0,.21-3.27c-1-1.25-3.21-.2-3.68-1-.6-1.08,2.1-4.77,6.13-6.54,3.52-1.54,5.1-.32,7.35-2.25,1.71-1.45,1-2.35,3.27-4.69s3.89-2.58,3.88-3.88a3,3,0,0,0-2.45-2.46c-1.13-.22-1.78.43-4.7,1.84a19.47,19.47,0,0,1-3.26,1.43c-1.92.36-2.76-.52-7.56-2.45-3.69-1.48-4.67-1.55-5.11-2.65-.58-1.47.33-3.41,1.43-4.5,1.56-1.55,2.81-.72,4.9-2.25s1.63-3.13,3.48-4.08c2.58-1.33,5.5.76,6.12-.2.25-.38,0-1.07-2-3.89-3.26-4.43-4.6-5.29-4.29-6.53.36-1.44,2.35-1,4.09-3.27,1.42-1.87.64-2.91,2-4.29.9-.89,2.24-1.2,4.9-1.84s3-.37,4.29-1c1.84-.91,1.64-1.67,3.07-2.25,2.38-1,3.5,1,5.92.21,2.22-.68,1.94-2.49,4.7-3.48,1.09-.39,1.09-.09,3.67-.61a14.94,14.94,0,0,0,4.29-1.22c.74-.4,3-1.61,3.68-3.88.42-1.41-.15-1.94.41-2.66,1-1.23,3.78-1.17,5.72,0,.87.53.83.83,3.27,3.88s2.9,3.29,3.47,3.47c1.8.58,2.93-.58,3.88.21s0,2.39,1,3.67c1.2,1.52,4,1.14,4.9,1,1.69-.23,2.83-.86,4.91-2.05,3.71-2.11,3.62-2.95,5.1-3.06,2.29-.17,2.58,1.84,6.13,2.25a26.42,26.42,0,0,0,3.88,0c2.38-.12,2.48-.35,3.27-.21,2.45.44,3.92,3.06,4.49,4.09,1.39,2.47.65,3.14,1.84,6.74a45.91,45.91,0,0,0,3.68,7.15c2.31,4,3,4.68,3.88,5.1,1.69.82,2.66.2,3.88,1.23a4.87,4.87,0,0,1,1.43,4.7c-.12.45-.47,1.46-5.31,5.1-2.24,1.69-3.15,2.22-3.47,3.48s.09,3.13,1,3.47,1.73-.92,4.7-3.06c2.44-1.77,3.69-2.65,5.31-2.66a6.15,6.15,0,0,1,4.08,1.84c1.76,1.73,1.79,3.85,1.64,12.46-.14,8.15-.24,10-1.84,11.44-.58.51-2,1.09-4.7,2.24-4.13,1.74-4.63,1.5-5.51,2.46-1.73,1.86-.38,3.37-2,6.74a15.73,15.73,0,0,1-4.49,5.1c-2.1,1.78-3.14,2.66-4.49,2.86-2.56.38-3.81-1.39-6.54-.61a5.67,5.67,0,0,0-2.25,1.23C1070.34,92.82,1069.25,96.18,1070.93,98.53Z"/><circle class="cls-78" cx="217.55" cy="146.58" r="2.86"/><circle class="cls-78" cx="229.35" cy="114.74" r="2.86"/><circle class="cls-78" cx="211.83" cy="131.07" r="2.86"/><circle class="cls-78" cx="194.45" cy="140.76" r="2.86"/><circle class="cls-78" cx="250.94" cy="152.12" r="2.86"/><circle class="cls-78" cx="252.6" cy="125.52" r="2.86"/><circle class="cls-78" cx="235.08" cy="131.84" r="2.86"/><circle class="cls-78" cx="256.59" cy="171.13" r="2.86"/><circle class="cls-78" cx="276.46" cy="253.41" r="2.86"/><circle class="cls-78" cx="273.59" cy="216.86" r="2.86"/><circle class="cls-78" cx="242.64" cy="253.08" r="2.86"/><circle class="cls-78" cx="236.91" cy="218.4" r="2.86"/><circle class="cls-78" cx="279.32" cy="191" r="2.86"/><circle class="cls-78" cx="242.64" cy="193.03" r="2.86"/><circle class="cls-78" cx="292" cy="173.99" r="2.86"/><circle class="cls-78" cx="256.67" cy="210.03" r="2.86"/><circle class="cls-78" cx="250.94" cy="172.91" r="2.86"/><circle class="cls-78" cx="270.52" cy="242.22" r="2.86"/><circle class="cls-78" cx="276.46" cy="160.7" r="2.86"/><circle class="cls-78" cx="244.66" cy="148.33" r="2.86"/><circle class="cls-78" cx="292" cy="149.99" r="2.86"/><circle class="cls-78" cx="262.31" cy="138.54" r="2.86"/><circle class="cls-78" cx="282.18" cy="134.71" r="2.86"/><circle class="cls-78" cx="253.8" cy="230.77" r="2.86"/><circle class="cls-78" cx="245.5" cy="136.18" r="2.86"/><circle class="cls-78" cx="273.59" cy="126.17" r="2.86"/><circle class="cls-78" cx="211.83" cy="109.73" r="2.86"/><circle class="cls-78" cx="292" cy="116.16" r="2.86"/><circle class="cls-78" cx="262.31" cy="104.01" r="2.86"/><circle class="cls-78" cx="232.21" cy="95.13" r="2.86"/><circle class="cls-78" cx="208.47" cy="88.4" r="2.86"/><circle class="cls-78" cx="167.29" cy="92.27" r="2.86"/><circle class="cls-78" cx="173.28" cy="182.42" r="2.86"/><circle class="cls-78" cx="184.65" cy="85.54" r="2.86"/><circle class="cls-78" cx="191.16" cy="85.54" r="2.86"/><circle class="cls-78" cx="143.78" cy="126.79" r="2.86"/><circle class="cls-78" cx="169.33" cy="98.28" r="2.86"/><circle class="cls-1" cx="1068.91" cy="122.41" r="0.5"/><circle class="cls-1" cx="1069.4" cy="127.06" r="0.5"/><circle class="cls-1" cx="1072.27" cy="124.92" r="0.5"/><circle class="cls-1" cx="1066.64" cy="125.42" r="0.5"/><circle class="cls-1" cx="1072.27" cy="127.55" r="0.5"/><circle class="cls-1" cx="1069.46" cy="124.92" r="0.5"/><circle class="cls-1" cx="1067.14" cy="128.05" r="0.5"/><circle class="cls-1" cx="1071.48" cy="122.3" r="0.5"/><circle class="cls-1" cx="1071.48" cy="129.74" r="0.5"/><circle class="cls-1" cx="1072.77" cy="133.81" r="0.5"/><circle class="cls-1" cx="1077.26" cy="137.36" r="0.5"/><circle class="cls-1" cx="1074.24" cy="136.36" r="0.5"/><circle class="cls-1" cx="1071.27" cy="137.36" r="0.5"/><circle class="cls-1" cx="1078.52" cy="147.81" r="0.5"/><circle class="cls-1" cx="1076.76" cy="148.8" r="0.5"/><circle class="cls-1" cx="1079.52" cy="153.55" r="0.5"/><circle class="cls-1" cx="955.11" cy="133.31" r="0.5"/><circle class="cls-1" cx="951.8" cy="135.33" r="0.5"/><circle class="cls-1" cx="954.61" cy="136.83" r="0.5"/><circle class="cls-1" cx="949.94" cy="119.62" r="0.5"/><circle class="cls-1" cx="929.68" cy="119.62" r="0.5"/><circle class="cls-1" cx="951.9" cy="76.35" r="0.5"/><circle class="cls-1" cx="957.47" cy="157.51" r="0.5"/><circle class="cls-1" cx="949.94" cy="166.2" r="0.5"/><circle class="cls-1" cx="947.92" cy="191.52" r="0.5"/><circle class="cls-1" cx="1000.35" cy="226.12" r="0.5"/><circle class="cls-1" cx="997.8" cy="228.21" r="0.5"/><circle class="cls-1" cx="997.3" cy="225.13" r="0.5"/><circle class="cls-1" cx="994.94" cy="228.5" r="0.5"/><circle class="cls-1" cx="958.05" cy="237.1" r="0.5"/><circle class="cls-1" cx="960.07" cy="251.29" r="0.5"/><circle class="cls-1" cx="943.94" cy="220.02" r="0.5"/><circle class="cls-1" cx="1067.64" cy="132.82" r="0.5"/><circle class="cls-1" cx="1074.52" cy="128.73" r="0.5"/><circle class="cls-1" cx="1074.52" cy="125.69" r="0.5"/><circle class="cls-1" cx="1052.74" cy="132.82" r="0.5"/><circle class="cls-1" cx="1069.46" cy="130.24" r="0.5"/><circle class="cls-1" cx="1075.02" cy="130.74" r="0.5"/><circle class="cls-1" cx="1066.14" cy="130.26" r="0.5"/><circle class="cls-1" cx="1069.46" cy="128.73" r="0.5"/><circle class="cls-1" cx="1068.91" cy="136.36" r="0.5"/><circle class="cls-1" cx="1070.78" cy="132.32" r="0.5"/><circle class="cls-1" cx="1060.35" cy="129.76" r="0.5"/><circle class="cls-1" cx="1063.8" cy="132.82" r="0.5"/><circle class="cls-1" cx="1076.26" cy="133.81" r="0.5"/><circle class="cls-1" cx="1065.65" cy="135.87" r="0.5"/><circle class="cls-1" cx="1065.15" cy="128.55" r="0.5"/><circle class="cls-1" cx="1078.52" cy="129.05" r="0.5"/><circle class="cls-1" cx="1077.76" cy="131.82" r="0.5"/><circle class="cls-1" cx="1077.26" cy="126.56" r="0.5"/><circle class="cls-1" cx="1081.27" cy="131.24" r="0.5"/><circle class="cls-1" cx="1075.77" cy="123.4" r="0.5"/><circle class="cls-1" cx="1042.99" cy="122.9" r="0.5"/><circle class="cls-1" cx="1039.33" cy="129.05" r="0.5"/><circle class="cls-1" cx="1069.95" cy="134.89" r="0.5"/><circle class="cls-1" cx="1030.97" cy="124.68" r="0.5"/><circle class="cls-1" cx="1078.26" cy="120.52" r="0.5"/><circle class="cls-1" cx="1065.65" cy="124.43" r="0.5"/><circle class="cls-1" cx="1073.27" cy="131.82" r="0.5"/><circle class="cls-1" cx="1076.26" cy="129.26" r="0.5"/><circle class="cls-1" cx="1075.27" cy="138.36" r="0.5"/><circle class="cls-1" cx="1073.76" cy="127.06" r="0.5"/><circle class="cls-1" cx="1073.27" cy="129.76" r="0.5"/><circle class="cls-1" cx="1065.4" cy="126.71" r="0.5"/><circle class="cls-1" cx="1075.54" cy="126.71" r="0.5"/><circle class="cls-1" cx="1067.8" cy="130.74" r="0.5"/><circle class="cls-1" cx="1071.13" cy="124.12" r="0.5"/><circle class="cls-1" cx="1077.26" cy="124.92" r="0.5"/><circle class="cls-1" cx="1070.78" cy="126.42" r="0.5"/><circle class="cls-1" cx="1068.63" cy="123.62" r="0.5"/><circle class="cls-1" cx="1074.02" cy="124.12" r="0.5"/><circle class="cls-1" cx="1079.02" cy="127.2" r="0.5"/><circle class="cls-1" cx="1074.77" cy="127.74" r="0.5"/><circle class="cls-1" cx="1076.53" cy="130.99" r="0.5"/><circle class="cls-1" cx="1076.76" cy="128.05" r="0.5"/><circle class="cls-1" cx="1071.77" cy="128.73" r="0.5"/><circle class="cls-1" cx="1072.77" cy="126.06" r="0.5"/><circle class="cls-1" cx="1065.9" cy="132.32" r="0.5"/><circle class="cls-1" cx="1066.42" cy="127.72" r="0.5"/><circle class="cls-1" cx="1077.53" cy="130.04" r="0.5"/><circle class="cls-1" cx="1079.68" cy="130.04" r="0.5"/><circle class="cls-1" cx="1075.02" cy="132.32" r="0.5"/><circle class="cls-1" cx="1073.15" cy="128.55" r="0.5"/><circle class="cls-1" cx="1074.77" cy="129.74" r="0.5"/><circle class="cls-1" cx="1071.87" cy="130.99" r="0.5"/><circle class="cls-1" cx="1071.48" cy="128.05" r="0.5"/><circle class="cls-1" cx="952.4" cy="132.32" r="0.5"/><circle class="cls-1" cx="952.98" cy="169.24" r="0.5"/><circle class="cls-1" cx="1067.8" cy="162.85" r="0.5"/><circle class="cls-1" cx="1029.96" cy="165.19" r="0.5"/><circle class="cls-1" cx="1029.96" cy="155.06" r="0.5"/><circle class="cls-1" cx="1042.11" cy="122.65" r="0.5"/><circle class="cls-1" cx="1053.25" cy="121.64" r="0.5"/><circle class="cls-1" cx="1074.53" cy="121.64" r="0.5"/><circle class="cls-1" cx="950.96" cy="84.17" r="0.5"/><circle class="cls-1" cx="949" cy="79.6" r="0.5"/><circle class="cls-1" cx="951.45" cy="78.41" r="0.5"/><circle class="cls-1" cx="945.85" cy="76.35" r="0.5"/><circle class="cls-1" cx="944.53" cy="80.3" r="0.5"/><circle class="cls-1" cx="950.96" cy="82.14" r="0.5"/><circle class="cls-1" cx="937.79" cy="87.21" r="0.5"/><circle class="cls-1" cx="937.79" cy="90.93" r="0.5"/><circle class="cls-1" cx="946.84" cy="82.14" r="0.5"/><circle class="cls-1" cx="940.66" cy="76.65" r="0.5"/><circle class="cls-1" cx="937.79" cy="81.29" r="0.5"/><circle class="cls-1" cx="941.16" cy="82.64" r="0.5"/><circle class="cls-1" cx="936.61" cy="75.86" r="0.5"/><circle class="cls-1" cx="1007.67" cy="194.56" r="0.5"/><circle class="cls-1" cx="1007.67" cy="184.43" r="0.5"/><circle class="cls-1" cx="1022.87" cy="178.36" r="0.5"/><circle class="cls-1" cx="1022.87" cy="208.76" r="0.5"/><circle class="cls-1" cx="979.31" cy="233.09" r="0.5"/><circle class="cls-1" cx="1066.14" cy="121.64" r="0.5"/><circle class="cls-1" cx="1056.29" cy="129.74" r="0.5"/><circle class="cls-1" cx="1066.42" cy="129.74" r="0.5"/><circle class="cls-1" cx="1072.77" cy="118.86" r="0.5"/><circle class="cls-1" cx="1069.13" cy="118.86" r="0.5"/><circle class="cls-1" cx="1072.65" cy="115.07" r="0.5"/><circle class="cls-1" cx="1069.9" cy="113.05" r="0.5"/><circle class="cls-1" cx="1064.9" cy="113.55" r="0.5"/><circle class="cls-1" cx="1013.76" cy="16.79" r="0.5"/><circle class="cls-1" cx="1007.07" cy="24.74" r="0.5"/><circle class="cls-78" cx="173.78" cy="258.44" r="2.86"/><circle class="cls-78" cx="187.02" cy="275.28" r="2.86"/><circle class="cls-78" cx="147.05" cy="269.55" r="2.86"/><circle class="cls-78" cx="187.02" cy="253.57" r="2.86"/><circle class="cls-78" cx="155.64" cy="239.25" r="2.86"/><circle class="cls-78" cx="135.5" cy="242.12" r="2.86"/><circle class="cls-78" cx="132.4" cy="246.28" r="2.86"/><circle class="cls-78" cx="179.5" cy="216.58" r="2.86"/><circle class="cls-78" cx="184.05" cy="191.85" r="2.86"/><circle class="cls-78" cx="163.91" cy="194.71" r="2.86"/><circle class="cls-78" cx="146.38" cy="211.04" r="2.86"/><circle class="cls-78" cx="173.78" cy="216.79" r="2.86"/><circle class="cls-78" cx="224.56" cy="181.93" r="2.86"/><circle class="cls-78" cx="237.8" cy="198.76" r="2.86"/><circle class="cls-78" cx="197.83" cy="193.04" r="2.86"/><circle class="cls-78" cx="237.8" cy="177.05" r="2.86"/><circle class="cls-78" cx="206.42" cy="162.74" r="2.86"/><circle class="cls-78" cx="186.28" cy="165.6" r="2.86"/><circle class="cls-78" cx="171.22" cy="180.21" r="2.86"/><circle class="cls-78" cx="230.28" cy="140.07" r="2.86"/><circle class="cls-78" cx="234.83" cy="125.34" r="2.86"/><circle class="cls-78" cx="214.69" cy="128.21" r="2.86"/><circle class="cls-78" cx="197.16" cy="134.53" r="2.86"/><circle class="cls-78" cx="224.56" cy="140.28" r="2.86"/><circle class="cls-78" cx="134.24" cy="196" r="2.86"/><circle class="cls-78" cx="147.48" cy="212.84" r="2.86"/><circle class="cls-78" cx="119.47" cy="196.67" r="2.86"/><circle class="cls-78" cx="147.48" cy="191.13" r="2.86"/><circle class="cls-78" cx="116.09" cy="176.82" r="2.86"/><circle class="cls-78" cx="95.96" cy="179.68" r="2.86"/><circle class="cls-78" cx="80.9" cy="194.29" r="2.86"/><circle class="cls-78" cx="139.95" cy="154.15" r="2.86"/><circle class="cls-78" cx="144.5" cy="129.41" r="2.86"/><circle class="cls-78" cx="124.36" cy="132.27" r="2.86"/><circle class="cls-78" cx="106.84" cy="148.6" r="2.86"/><circle class="cls-78" cx="134.24" cy="154.35" r="2.86"/><circle class="cls-1" cx="1062.61" cy="126.45" r="0.5"/><circle class="cls-1" cx="1006.9" cy="22.13" r="0.5"/><circle class="cls-1" cx="1004.88" cy="17.07" r="0.5"/><circle class="cls-1" cx="1000.06" cy="18.69" r="0.5"/><circle class="cls-1" cx="1004" cy="19.68" r="0.5"/><circle class="cls-1" cx="1010.39" cy="19.19" r="0.5"/><circle class="cls-1" cx="1006.9" cy="37.33" r="0.5"/><circle class="cls-1" cx="996.77" cy="37.33" r="0.5"/><circle class="cls-1" cx="1009.94" cy="61.63" r="0.5"/><circle class="cls-1" cx="1009.94" cy="71.77" r="0.5"/><circle class="cls-1" cx="1070.71" cy="62.66" r="0.5"/><circle class="cls-1" cx="1071.72" cy="78.86" r="0.5"/><circle class="cls-1" cx="1060.85" cy="117.86" r="0.5"/><circle class="cls-1" cx="936.11" cy="113.78" r="0.5"/><circle class="cls-1" cx="1058.61" cy="138.85" r="0.5"/><circle class="cls-1" cx="1063.91" cy="81.64" r="0.5"/><circle class="cls-1" cx="1011.97" cy="115.31" r="0.5"/><circle class="cls-1" cx="1011.97" cy="125.45" r="0.5"/><circle class="cls-1" cx="1040.33" cy="176.09" r="0.5"/><circle class="cls-1" cx="954.24" cy="151.77" r="0.5"/><circle class="cls-1" cx="957.28" cy="242.96" r="0.5"/><circle class="cls-1" cx="965.38" cy="241.91" r="0.5"/><circle class="cls-1" cx="962.34" cy="241.91" r="0.5"/><circle class="cls-1" cx="953.23" cy="203.42" r="0.5"/><circle class="cls-1" cx="943.09" cy="203.42" r="0.5"/><circle class="cls-1" cx="940.05" cy="205.45" r="0.5"/><circle class="cls-1" cx="947.14" cy="199.37" r="0.5"/><circle class="cls-1" cx="948.15" cy="205.45" r="0.5"/><circle class="cls-1" cx="943.09" cy="195.32" r="0.5"/><circle class="cls-1" cx="953.22" cy="195.32" r="0.5"/><circle class="cls-1" cx="934.98" cy="195.32" r="0.5"/><circle class="cls-1" cx="949.17" cy="202.41" r="0.5"/><circle class="cls-1" cx="947.42" cy="194.81" r="0.5"/><circle class="cls-1" cx="940.05" cy="193.81" r="0.5"/><circle class="cls-1" cx="965.37" cy="210.51" r="0.5"/><circle class="cls-1" cx="965.37" cy="236.86" r="0.5"/><circle class="cls-1" cx="1061.59" cy="197.36" r="0.5"/><circle class="cls-1" cx="1061.59" cy="201.41" r="0.5"/><circle class="cls-1" cx="1056.52" cy="198.37" r="0.5"/><circle class="cls-1" cx="1058.55" cy="195.33" r="0.5"/><circle class="cls-1" cx="1066.65" cy="195.33" r="0.5"/><circle class="cls-1" cx="1048.43" cy="156.83" r="0.5"/><circle class="cls-1" cx="997.77" cy="120.38" r="0.5"/><circle class="cls-1" cx="1007.91" cy="150.78" r="0.5"/><circle class="cls-1" cx="987.64" cy="171.05" r="0.5"/><circle class="cls-1" cx="963.34" cy="128.49" r="0.5"/><circle class="cls-1" cx="942.06" cy="108.22" r="0.5"/><circle class="cls-1" cx="953.2" cy="108.22" r="0.5"/><circle class="cls-1" cx="1010.95" cy="30.21" r="0.5"/><circle class="cls-1" cx="1000.81" cy="29.2" r="0.5"/><circle class="cls-1" cx="1052.51" cy="46.43" r="0.5"/><circle class="cls-1" cx="1046.43" cy="130.5" r="0.5"/><circle class="cls-1" cx="1036.29" cy="132.53" r="0.5"/><circle class="cls-1" cx="995.75" cy="130.5" r="0.5"/><circle class="cls-1" cx="1066.69" cy="140.64" r="0.5"/><circle class="cls-1" cx="1076.83" cy="141.65" r="0.5"/><circle class="cls-1" cx="1069.73" cy="146.72" r="0.5"/><circle class="cls-1" cx="1055.55" cy="125.44" r="0.5"/><circle class="cls-1" cx="1052.51" cy="116.32" r="0.5"/><circle class="cls-1" cx="1059.6" cy="123.41" r="0.5"/><circle class="cls-1" cx="1058.59" cy="113.28" r="0.5"/><circle class="cls-1" cx="1071.76" cy="109.22" r="0.5"/><circle class="cls-1" cx="1051.49" cy="128.48" r="0.5"/><circle class="cls-1" cx="1060.61" cy="134.56" r="0.5"/><circle class="cls-1" cx="1068.71" cy="109.22" r="0.5"/><circle class="cls-1" cx="1064.68" cy="104.16" r="0.5"/><circle class="cls-1" cx="1047.45" cy="124.43" r="0.5"/><circle class="cls-1" cx="933.99" cy="122.41" r="0.5"/><circle class="cls-1" cx="945.13" cy="112.27" r="0.5"/><circle class="cls-1" cx="1079.52" cy="138.85" r="0.5"/><circle class="cls-1" cx="1074.75" cy="142.66" r="0.5"/><circle class="cls-1" cx="1080.78" cy="143.65" r="0.5"/><circle class="cls-1" cx="1069.9" cy="142.16" r="0.5"/><circle class="cls-1" cx="1061.59" cy="143.15" r="0.5"/><circle class="cls-1" cx="1062.61" cy="137.36" r="0.5"/><circle class="cls-1" cx="1065.92" cy="86.21" r="0.5"/><circle class="cls-1" cx="1061.35" cy="86.71" r="0.5"/><circle class="cls-1" cx="1067.3" cy="115.82" r="0.5"/><circle class="cls-1" cx="1063.91" cy="119.36" r="0.5"/><circle class="cls-1" cx="1073.15" cy="146.72" r="0.5"/><circle class="cls-1" cx="1076.53" cy="151.77" r="0.5"/><circle class="cls-1" cx="1081.27" cy="150.34" r="0.5"/><circle class="cls-1" cx="1071.27" cy="181.59" r="0.5"/><circle class="cls-1" cx="964.36" cy="186.21" r="0.5"/><circle class="cls-1" cx="935.99" cy="197.35" r="0.5"/><circle class="cls-1" cx="1018.04" cy="212.56" r="0.5"/><circle class="cls-1" cx="1013.98" cy="170" r="0.5"/><circle class="cls-1" cx="1003.85" cy="170" r="0.5"/><circle class="cls-1" cx="1013.98" cy="159.87" r="0.5"/><circle class="cls-1" cx="993.72" cy="170" r="0.5"/><circle class="cls-1" cx="1003.85" cy="159.87" r="0.5"/><circle class="cls-1" cx="1024.12" cy="190.27" r="0.5"/><circle class="cls-1" cx="1045.38" cy="133.53" r="0.5"/><circle class="cls-1" cx="1023.09" cy="138.61" r="0.5"/><circle class="cls-79" cx="1453.03" cy="137.12" r="108.88"/><circle class="cls-79" cx="1453.03" cy="137.12" r="81.08"/><circle class="cls-78" cx="91.55" cy="146.46" r="2.86"/><circle class="cls-78" cx="95.44" cy="84.35" r="2.86"/><circle class="cls-78" cx="117.03" cy="131.73" r="2.86"/><circle class="cls-78" cx="118.69" cy="95.13" r="2.86"/><circle class="cls-78" cx="101.16" cy="111.46" r="2.86"/><circle class="cls-78" cx="122.67" cy="140.73" r="2.86"/><circle class="cls-78" cx="145.4" cy="160.61" r="2.86"/><circle class="cls-78" cx="158.08" cy="143.59" r="2.86"/><circle class="cls-78" cx="117.03" cy="142.51" r="2.86"/><circle class="cls-78" cx="142.54" cy="130.31" r="2.86"/><circle class="cls-78" cx="110.75" cy="127.94" r="2.86"/><circle class="cls-78" cx="158.08" cy="129.61" r="2.86"/><circle class="cls-78" cx="128.4" cy="118.16" r="2.86"/><circle class="cls-78" cx="148.27" cy="114.32" r="2.86"/><circle class="cls-78" cx="111.58" cy="105.78" r="2.86"/><circle class="cls-78" cx="139.68" cy="95.77" r="2.86"/><circle class="cls-78" cx="158.08" cy="95.77" r="2.86"/><circle class="cls-78" cx="90.65" cy="151.54" r="2.86"/><circle class="cls-78" cx="103.89" cy="146.66" r="2.86"/><circle class="cls-78" cx="96.36" cy="119.68" r="2.86"/><circle class="cls-78" cx="100.91" cy="94.95" r="2.86"/><circle class="cls-78" cx="90.65" cy="119.89" r="2.86"/><circle class="cls-78" cx="55.08" cy="240.94" r="2.86"/><circle class="cls-78" cx="47" cy="179.27" r="2.86"/><circle class="cls-78" cx="80.55" cy="216.21" r="2.86"/><circle class="cls-78" cx="70.25" cy="190.06" r="2.86"/><circle class="cls-78" cx="64.69" cy="195.93" r="2.86"/><circle class="cls-78" cx="86.2" cy="235.22" r="2.86"/><circle class="cls-78" cx="108.93" cy="255.09" r="2.86"/><circle class="cls-78" cx="121.61" cy="238.08" r="2.86"/><circle class="cls-78" cx="80.55" cy="237" r="2.86"/><circle class="cls-78" cx="106.07" cy="224.79" r="2.86"/><circle class="cls-78" cx="74.28" cy="212.42" r="2.86"/><circle class="cls-78" cx="121.61" cy="214.08" r="2.86"/><circle class="cls-78" cx="91.93" cy="202.64" r="2.86"/><circle class="cls-78" cx="111.8" cy="198.8" r="2.86"/><circle class="cls-78" cx="75.11" cy="190.26" r="2.86"/><circle class="cls-78" cx="91.24" cy="190.7" r="2.86"/><circle class="cls-78" cx="109.65" cy="190.7" r="2.86"/><circle class="cls-78" cx="54.17" cy="246.02" r="2.86"/><circle class="cls-78" cx="67.42" cy="241.14" r="2.86"/><circle class="cls-78" cx="59.89" cy="204.16" r="2.86"/><circle class="cls-78" cx="52.48" cy="189.87" r="2.86"/><circle class="cls-78" cx="54.17" cy="204.37" r="2.86"/><circle class="cls-78" cx="43.12" cy="161.49" r="2.86"/><circle class="cls-78" cx="47" cy="89.38" r="2.86"/><circle class="cls-78" cx="68.59" cy="136.76" r="2.86"/><circle class="cls-78" cx="70.25" cy="110.17" r="2.86"/><circle class="cls-78" cx="52.73" cy="116.49" r="2.86"/><circle class="cls-78" cx="74.24" cy="155.77" r="2.86"/><circle class="cls-78" cx="96.97" cy="175.65" r="2.86"/><circle class="cls-78" cx="109.65" cy="158.63" r="2.86"/><circle class="cls-78" cx="68.59" cy="157.55" r="2.86"/><circle class="cls-78" cx="94.11" cy="145.35" r="2.86"/><circle class="cls-78" cx="62.31" cy="132.98" r="2.86"/><circle class="cls-78" cx="109.65" cy="134.64" r="2.86"/><circle class="cls-78" cx="79.96" cy="133.2" r="2.86"/><circle class="cls-78" cx="99.83" cy="129.36" r="2.86"/><circle class="cls-78" cx="63.15" cy="120.82" r="2.86"/><circle class="cls-78" cx="91.24" cy="110.81" r="2.86"/><circle class="cls-78" cx="109.65" cy="110.81" r="2.86"/><circle class="cls-78" cx="42.21" cy="166.57" r="2.86"/><circle class="cls-78" cx="55.45" cy="161.7" r="2.86"/><circle class="cls-78" cx="47.93" cy="124.72" r="2.86"/><circle class="cls-78" cx="52.48" cy="99.98" r="2.86"/><circle class="cls-78" cx="42.21" cy="124.92" r="2.86"/><circle class="cls-78" cx="129.16" cy="85.35" r="2.86"/><circle class="cls-78" cx="128.32" cy="85.35" r="2.86"/><circle class="cls-78" cx="170.22" cy="96.09" r="2.86"/><circle class="cls-78" cx="152.7" cy="91.08" r="2.86"/><circle class="cls-78" cx="173.08" cy="76.48" r="2.86"/><circle class="cls-78" cx="149.34" cy="69.74" r="2.86"/><circle class="cls-78" cx="125.52" cy="66.88" r="2.86"/><circle class="cls-78" cx="132.02" cy="66.88" r="2.86"/><circle class="cls-78" cx="110.2" cy="79.63" r="2.86"/><circle class="cls-78" cx="205.08" cy="80.64" r="2.86"/><circle class="cls-78" cx="204.23" cy="80.64" r="2.86"/><circle class="cls-78" cx="246.13" cy="91.37" r="2.86"/><circle class="cls-78" cx="228.61" cy="86.36" r="2.86"/><circle class="cls-78" cx="249" cy="71.76" r="2.86"/><circle class="cls-78" cx="225.25" cy="65.03" r="2.86"/><circle class="cls-78" cx="201.43" cy="62.17" r="2.86"/><circle class="cls-78" cx="207.94" cy="62.17" r="2.86"/><circle class="cls-78" cx="186.11" cy="74.91" r="2.86"/><circle class="cls-78" cx="65.56" cy="93.28" r="2.86"/><circle class="cls-78" cx="64.71" cy="93.28" r="2.86"/><circle class="cls-78" cx="106.62" cy="104.01" r="2.86"/><circle class="cls-78" cx="89.09" cy="99" r="2.86"/><circle class="cls-78" cx="109.48" cy="84.41" r="2.86"/><circle class="cls-78" cx="85.74" cy="77.67" r="2.86"/><circle class="cls-78" cx="61.91" cy="74.81" r="2.86"/><circle class="cls-78" cx="68.42" cy="74.81" r="2.86"/><circle class="cls-78" cx="46.59" cy="77.55" r="2.86"/><circle class="cls-78" cx="188.89" cy="243.22" r="2.86"/><circle class="cls-78" cx="188.05" cy="243.22" r="2.86"/><circle class="cls-78" cx="229.95" cy="253.96" r="2.86"/><circle class="cls-78" cx="212.42" cy="248.95" r="2.86"/><circle class="cls-78" cx="232.81" cy="234.35" r="2.86"/><circle class="cls-78" cx="209.07" cy="227.61" r="2.86"/><circle class="cls-78" cx="185.25" cy="224.75" r="2.86"/><circle class="cls-78" cx="191.75" cy="224.75" r="2.86"/><circle class="cls-78" cx="169.92" cy="237.5" r="2.86"/><circle class="cls-78" cx="148.57" cy="53.56" r="2.86"/><circle class="cls-78" cx="147.72" cy="53.56" r="2.86"/><circle class="cls-78" cx="189.63" cy="64.29" r="2.86"/><circle class="cls-78" cx="172.1" cy="59.28" r="2.86"/><circle class="cls-78" cx="192.49" cy="44.68" r="2.86"/><circle class="cls-78" cx="168.75" cy="37.95" r="2.86"/><circle class="cls-78" cx="144.93" cy="35.08" r="2.86"/><circle class="cls-78" cx="151.43" cy="35.08" r="2.86"/><circle class="cls-78" cx="129.6" cy="47.83" r="2.86"/><circle class="cls-78" cx="90.16" cy="63.15" r="2.86"/><circle class="cls-78" cx="89.32" cy="63.15" r="2.86"/><circle class="cls-78" cx="131.22" cy="73.88" r="2.86"/><circle class="cls-78" cx="113.69" cy="68.87" r="2.86"/><circle class="cls-78" cx="134.08" cy="54.28" r="2.86"/><circle class="cls-78" cx="110.34" cy="47.54" r="2.86"/><circle class="cls-78" cx="86.52" cy="44.68" r="2.86"/><circle class="cls-78" cx="93.02" cy="44.68" r="2.86"/><circle class="cls-78" cx="71.19" cy="57.43" r="2.86"/><polygon class="cls-1" points="561.94 21.79 561.94 54.05 554.62 54.05 546.98 55.5 538.84 57.55 531.73 60.15 526.75 62.48 519.16 66.9 513.54 70.99 510.67 73.41 503.06 81.11 498.54 86.9 493.24 95.53 490.2 102.01 487.68 109.05 458.69 94 460.4 89.61 463.53 82.76 468.26 74.22 473.31 66.72 479.29 59.27 482.62 55.64 487.7 50.66 494.6 44.84 501.31 40.02 507.97 35.94 514.76 32.41 522.24 29.18 528.5 26.97 533.41 25.53 539.09 24.17 547.17 22.77 554.38 22.05 561.94 21.79"/><polygon class="cls-78" points="458.69 94 487.68 109.05 486.32 114.16 485.2 119.99 484.63 124.93 484.45 127.31 484.34 130.77 484.45 136.07 484.82 140.44 485.4 144.54 486.07 148.08 486.97 151.81 487.98 155.25 489.12 158.57 490.11 161.09 491.24 163.73 492.48 166.31 493.81 168.86 495.49 171.78 498.07 175.76 499.74 178.08 501.94 180.89 504.93 184.32 507.79 187.26 509.79 189.14 512.34 191.35 515.17 193.6 517.36 195.2 519.91 196.92 522.52 198.53 524.94 199.9 527.89 201.42 531.88 203.24 535.12 204.51 538.88 205.79 542.12 206.72 545.5 207.53 548.23 208.07 550.7 208.47 553.91 208.86 558.18 209.19 561.94 209.28 565.2 209.21 568.85 208.97 571.82 208.65 574.75 208.22 578.51 207.5 583.12 206.35 586.49 205.31 589.13 204.38 592.65 202.96 596.52 201.16 599.43 199.63 602.15 198.06 604.41 196.63 606.15 195.46 608.36 193.87 610.75 192.01 612.82 190.27 614.79 188.5 617.1 186.27 619.14 184.13 621.2 181.78 623.03 179.53 624.71 177.32 626.3 175.06 628.4 171.78 629.71 169.52 630.86 167.4 631.96 165.19 632.97 163 633.58 161.59 634.23 159.97 634.75 158.62 635.28 157.15 635.92 155.22 636.57 153.06 637.25 150.52 637.86 147.89 638.3 145.65 638.58 143.98 638.87 142.01 639.06 140.48 639.24 138.73 639.32 137.82 639.39 136.73 639.45 135.81 639.47 135.35 639.52 134.05 639.54 133.45 639.54 133.08 639.54 132.63 639.56 131.66 639.55 130.91 639.54 129.89 639.52 129.32 639.5 128.8 639.49 128.43 639.47 127.95 639.45 127.62 639.43 127.19 639.41 126.87 639.34 125.8 639.3 125.31 639.22 124.41 639.18 123.95 639.12 123.35 639.06 122.84 639.01 122.39 638.96 122.01 638.9 121.54 638.72 120.22 638.61 119.49 638.5 118.86 638.41 118.33 638.35 117.96 638.19 117.07 638.06 116.44 637.95 115.86 637.67 114.58 637.53 113.96 637.37 113.28 637.19 112.58 637 111.83 636.8 111.1 636.63 110.48 636.18 108.94 636 108.38 635.61 107.15 635.33 106.32 635.15 105.82 634.69 104.55 634.46 103.94 634.2 103.28 633.97 102.7 633.34 101.18 633.13 100.68 632.72 99.77 632.47 99.22 632.26 98.76 631.64 97.47 631.41 97.01 630.8 95.82 630.54 95.33 630.08 94.47 629.74 93.85 629.5 93.43 629.11 92.74 628.76 92.16 628.17 91.18 627.93 90.78 627.68 90.39 627.4 89.94 626.7 88.86 626.44 88.47 625.74 87.45 624.78 86.09 624.37 85.54 623.7 84.64 623.4 84.25 623.1 83.87 622.38 82.97 621.57 81.97 621.22 81.56 620.74 81 620.38 80.59 620.09 80.25 619.15 79.21 618.82 78.86 617.77 77.74 617.37 77.34 616.4 76.36 616 75.97 614.81 74.84 614.38 74.45 613.36 73.52 612.93 73.14 612.05 72.39 610.97 71.49 610.54 71.14 609.22 70.11 608.86 69.83 608.03 69.21 607.04 68.49 605.94 67.72 604.84 66.97 603.77 66.27 601.89 65.1 600.39 64.23 598.59 63.23 596.95 62.38 595.75 61.78 594 60.96 592.41 60.26 590.76 59.58 589.24 58.99 588.2 58.6 586.3 57.95 584.22 57.29 582.06 56.68 579.64 56.08 577.02 55.51 575.2 55.18 573.15 54.85 571.02 54.58 569 54.37 566.2 54.16 564.41 54.09 563.06 54.05 561.94 54.05 561.94 21.79 565.33 21.84 567.52 21.93 569.09 22.02 570.49 22.11 573.06 22.34 575.37 22.6 577.33 22.86 578.74 23.06 580.58 23.36 582.67 23.74 584.44 24.09 586.3 24.5 588.05 24.91 589.48 25.27 590.9 25.64 592.2 26 593.63 26.43 594.77 26.77 596.22 27.24 598.04 27.85 599.66 28.43 601.14 28.98 602.54 29.53 603.91 30.09 605.5 30.76 607.37 31.59 608.88 32.28 610.39 33.02 611.7 33.67 612.9 34.29 613.81 34.77 614.98 35.41 616.17 36.08 617.57 36.89 619.2 37.87 620.01 38.36 621.03 39.01 622.47 39.95 623.46 40.61 624.37 41.23 625.23 41.83 626.64 42.84 627.73 43.65 628.81 44.47 630.02 45.41 631.15 46.31 631.89 46.93 633.22 48.04 634.42 49.07 635.1 49.68 635.94 50.44 636.96 51.38 637.87 52.24 639.43 53.76 640.25 54.58 641.88 56.27 643.02 57.5 644.59 59.26 645.82 60.68 646.9 61.98 648.77 64.32 649.92 65.82 652.08 68.81 653.85 71.42 655.26 73.63 656.69 75.98 657.97 78.23 659.28 80.63 660.57 83.18 661.75 85.65 662.88 88.17 663.85 90.49 664.78 92.88 665.69 95.38 666.57 98 667.33 100.46 668.06 103.05 668.93 106.54 669.47 108.96 670.1 112.17 670.5 114.55 670.75 116.27 671 118.16 671.21 120.03 671.39 121.9 671.57 124.17 671.69 126.28 671.74 127.39 671.79 128.93 671.82 130.91 671.82 132.68 671.79 134.23 671.71 136.62 671.64 138.02 671.47 140.51 671.38 141.59 671.27 142.77 671.15 143.83 671.05 144.77 670.76 147.01 670.38 149.52 670.19 150.64 669.74 153.06 669.22 155.52 667.55 162.1 665.32 169 663.8 172.94 661.57 178.06 660.01 181.27 658.1 184.88 655.95 188.57 654.66 190.66 652.83 193.42 649.77 197.71 647.19 200.99 643.75 205.02 639.91 209.08 636.48 212.39 634.61 214.08 633.1 215.39 631.27 216.91 629.56 218.28 627.55 219.81 624.49 222.01 621.97 223.71 618.52 225.88 615.84 227.44 612.56 229.21 610.51 230.25 607.92 231.49 606.61 232.08 603.63 233.36 602.16 233.95 599.86 234.82 596.71 235.93 594.51 236.63 592.88 237.12 590.33 237.84 587.68 238.51 585.67 238.97 582.82 239.56 580.55 239.97 578.69 240.27 575 240.77 572.99 240.99 569.4 241.29 565.75 241.47 563.14 241.53 561.94 241.54 560.71 241.53 559.24 241.51 557.86 241.47 556.45 241.4 555.64 241.36 554.91 241.32 553.33 241.21 552.34 241.13 551.22 241.02 550.52 240.95 548.75 240.76 547.1 240.54 545.85 240.37 543.64 240.02 542.62 239.84 541.28 239.6 540.48 239.44 539.2 239.18 538.08 238.94 536.76 238.64 535.81 238.41 534.97 238.2 532.61 237.58 531.95 237.4 530.71 237.04 529.25 236.59 528.33 236.3 527.49 236.03 525.36 235.3 524.3 234.92 523.38 234.58 521.59 233.89 520.43 233.43 519.27 232.94 518.41 232.58 516.82 231.88 516.03 231.52 514.41 230.76 513.14 230.13 511.57 229.34 510.56 228.81 509.44 228.21 507.51 227.13 506.35 226.46 503.63 224.8 501.57 223.48 499.37 221.99 497.01 220.31 495.5 219.18 494.52 218.43 492.97 217.2 491.57 216.05 490.61 215.24 488.47 213.36 487.44 212.42 486.7 211.74 484.48 209.59 483.63 208.73 483.15 208.25 481.57 206.59 480.72 205.66 480.18 205.07 479.38 204.17 478.76 203.46 478.17 202.77 476.48 200.73 475.87 199.96 474.34 198 473.81 197.28 471.59 194.2 471.22 193.66 468.6 189.65 465.97 185.21 464.4 182.3 462.54 178.54 461.75 176.82 460.68 174.37 459.74 172.07 458.88 169.83 457.49 165.86 456.63 163.12 455.6 159.4 455.06 157.22 454.19 153.25 453.83 151.35 453.41 148.88 452.94 145.6 452.58 142.36 452.42 140.53 452.18 136.57 452.07 134.24 452.07 132.53 452.07 130.91 452.08 130.15 452.11 128.56 452.13 127.9 452.24 125.54 452.33 123.95 452.44 122.59 452.59 120.89 452.76 119.25 452.93 117.83 453.13 116.34 453.32 115.01 453.54 113.63 453.98 111.13 454.27 109.64 454.65 107.88 455.07 106.03 455.34 104.95 455.71 103.51 456.05 102.26 456.29 101.4 456.57 100.42 456.93 99.25 457.36 97.89 457.95 96.09 458.69 94"/></g></g></svg>