<svg xmlns="http://www.w3.org/2000/svg" viewBox="0 0 1644.45 513.5"><defs><style>.cls-1{fill:#ebe3d9;}.cls-2,.cls-55{font-size:22px;fill:#fff;font-family:Apercu-Bold, Apercu;}.cls-3,.cls-36,.cls-4,.cls-47,.cls-55{font-weight:700;}.cls-32,.cls-4{letter-spacing:-0.01em;}.cls-5{fill:#b1b1b0;}.cls-10,.cls-11,.cls-12,.cls-13,.cls-14,.cls-15,.cls-16,.cls-17,.cls-18,.cls-19,.cls-20,.cls-37,.cls-38,.cls-39,.cls-40,.cls-41,.cls-42,.cls-43,.cls-44,.cls-45,.cls-46,.cls-48,.cls-49,.cls-5,.cls-50,.cls-51,.cls-52,.cls-6,.cls-7,.cls-8,.cls-9{font-family:Apercu-Regular, Apercu;}.cls-10,.cls-11,.cls-12,.cls-13,.cls-14,.cls-15,.cls-16,.cls-17,.cls-18,.cls-19,.cls-20,.cls-38,.cls-39,.cls-40,.cls-41,.cls-42,.cls-43,.cls-44,.cls-45,.cls-46,.cls-48,.cls-49,.cls-50,.cls-51,.cls-52,.cls-6,.cls-7,.cls-8,.cls-9{fill:gray;}.cls-22,.cls-6{letter-spacing:0em;}.cls-35,.cls-7{letter-spacing:-0.02em;}.cls-8{letter-spacing:-0.02em;}.cls-9{letter-spacing:-0.01em;}.cls-10,.cls-75{letter-spacing:-0.02em;}.cls-11,.cls-36{letter-spacing:-0.02em;}.cls-12{letter-spacing:0em;}.cls-14{letter-spacing:-0.02em;}.cls-15{letter-spacing:-0.02em;}.cls-16,.cls-53{letter-spacing:-0.01em;}.cls-17{letter-spacing:0.01em;}.cls-18{letter-spacing:-0.01em;}.cls-19,.cls-58{letter-spacing:0em;}.cls-20{letter-spacing:0.01em;}.cls-21{letter-spacing:-0.02em;}.cls-23{letter-spacing:-0.01em;}.cls-24{letter-spacing:0em;}.cls-25{letter-spacing:0.01em;}.cls-26,.cls-40{letter-spacing:-0.01em;}.cls-27{letter-spacing:-0.01em;}.cls-28{letter-spacing:0em;}.cls-29,.cls-38{letter-spacing:-0.01em;}.cls-30,.cls-52{letter-spacing:-0.04em;}.cls-31,.cls-48{letter-spacing:-0.02em;}.cls-33,.cls-39{letter-spacing:-0.01em;}.cls-34{letter-spacing:0.01em;}.cls-41,.cls-71{letter-spacing:-0.01em;}.cls-42,.cls-57{letter-spacing:0em;}.cls-43{letter-spacing:-0.01em;}.cls-44{letter-spacing:-0.02em;}.cls-45{letter-spacing:0.03em;}.cls-46{letter-spacing:0.01em;}.cls-47{letter-spacing:-0.05em;}.cls-49{letter-spacing:-0.03em;}.cls-50,.cls-56{letter-spacing:-0.03em;}.cls-51{letter-spacing:-0.03em;}.cls-54{letter-spacing:-0.04em;}.cls-59{letter-spacing:-0.01em;}.cls-60{letter-spacing:0em;}.cls-61{letter-spacing:0em;}.cls-62{letter-spacing:0em;}.cls-63{letter-spacing:0.02em;}.cls-64{letter-spacing:0.01em;}.cls-65{letter-spacing:0em;}.cls-66{letter-spacing:0.01em;}.cls-67{letter-spacing:0em;}.cls-68{letter-spacing:0em;}.cls-69{letter-spacing:0.01em;}.cls-70{letter-spacing:0.05em;}.cls-72{letter-spacing:-0.01em;}.cls-73{letter-spacing:0em;}.cls-74{letter-spacing:0.01em;}.cls-76{letter-spacing:-0.04em;}.cls-77,.cls-79{fill:none;stroke:#ebe3d9;stroke-miterlimit:10;}.cls-78{fill:#7280a9;}.cls-79{stroke-width:1.86px;}</style></defs><title>problem</title><g id="Layer_2" data-name="Layer 2"><g id="_1200" data-name="1200"><circle class="cls-1" cx="1069.68" cy="137.19" r="0.49"/><circle class="cls-1" cx="1069.68" cy="131.18" r="0.49"/><text class="cls-2" transform="translate(14.9 352.58)"><tspan class="cls-3"> </tspan><tspan class="cls-4" x="5.46" y="0">2</tspan><tspan class="cls-3" x="18.06" y="0">00</tspan><tspan class="cls-5" x="46.22" y="0"> </tspan><tspan class="cls-6" x="52.12" y="0">c</tspan><tspan class="cls-7" x="63.89" y="0">h</tspan><tspan class="cls-8" x="76.36" y="0">i</tspan><tspan class="cls-9" x="81.88" y="0">l</tspan><tspan class="cls-10" x="87.36" y="0">d</tspan><tspan class="cls-11" x="100.1" y="0">r</tspan><tspan class="cls-12" x="108.75" y="0">e</tspan><tspan class="cls-13" x="121.11" y="0">n </tspan><tspan class="cls-14" x="139.7" y="0">a</tspan><tspan class="cls-11" x="150.7" y="0">r</tspan><tspan class="cls-13" x="159.35" y="0">e </tspan><tspan class="cls-15" x="177.56" y="0">d</tspan><tspan class="cls-16" x="190.26" y="0">i</tspan><tspan class="cls-17" x="196.06" y="0">a</tspan><tspan class="cls-13" x="207.64" y="0">g</tspan><tspan class="cls-18" x="218.79" y="0">n</tspan><tspan class="cls-9" x="231.22" y="0">o</tspan><tspan class="cls-19" x="244.05" y="0">s</tspan><tspan class="cls-20" x="254.12" y="0">e</tspan><tspan class="cls-13" x="266.73" y="0">d </tspan><tspan class="cls-13"><tspan class="cls-21" x="0" y="29">w</tspan><tspan class="cls-22" x="15.86" y="29">i</tspan><tspan class="cls-23" x="21.74" y="29">t</tspan><tspan class="cls-24" x="29.9" y="29">h </tspan><tspan class="cls-25" x="48.66" y="29">c</tspan><tspan class="cls-26" x="60.65" y="29">a</tspan><tspan class="cls-27" x="71.76" y="29">n</tspan><tspan class="cls-28" x="84.19" y="29">c</tspan><tspan class="cls-29" x="96.12" y="29">e</tspan><tspan x="108.13" y="29">r </tspan><tspan class="cls-30" x="123.11" y="29">i</tspan><tspan x="128.28" y="29">n </tspan><tspan class="cls-21" x="146.87" y="29">I</tspan><tspan class="cls-31" x="152.7" y="29">r</tspan><tspan class="cls-32" x="161.35" y="29">el</tspan><tspan class="cls-26" x="179.08" y="29">a</tspan><tspan class="cls-27" x="190.19" y="29">n</tspan><tspan x="202.62" y="29">d</tspan><tspan class="cls-22" x="0" y="58">e</tspan><tspan class="cls-33" x="12.25" y="58">v</tspan><tspan class="cls-29" x="22.13" y="58">e</tspan><tspan x="34.14" y="58">r y</tspan><tspan class="cls-34" x="59.25" y="58">e</tspan><tspan class="cls-35" x="71.7" y="58">a</tspan><tspan x="82.7" y="58">r</tspan></tspan></text><text class="cls-2" transform="translate(404.96 352.58)"><tspan class="cls-36">8</tspan><tspan class="cls-3" x="12.63" y="0">0%</tspan><tspan class="cls-37" x="45.14" y="0"> </tspan><tspan class="cls-38" x="51.04" y="0">o</tspan><tspan class="cls-13" x="63.76" y="0">f </tspan><tspan class="cls-39" x="77.66" y="0">t</tspan><tspan class="cls-40" x="85.82" y="0">h</tspan><tspan class="cls-16" x="98.41" y="0">e</tspan><tspan class="cls-19" x="110.59" y="0">s</tspan><tspan class="cls-13" x="120.67" y="0">e </tspan><tspan class="cls-6" x="138.89" y="0">c</tspan><tspan class="cls-14" x="150.66" y="0">h</tspan><tspan class="cls-8" x="163.13" y="0">i</tspan><tspan class="cls-41" x="168.65" y="0">l</tspan><tspan class="cls-10" x="174.13" y="0">d</tspan><tspan class="cls-11" x="186.87" y="0">r</tspan><tspan class="cls-42" x="195.51" y="0">e</tspan><tspan class="cls-13" x="207.88" y="0">n </tspan><tspan class="cls-43" x="226.47" y="0">s</tspan><tspan class="cls-44" x="236.37" y="0">u</tspan><tspan class="cls-45" x="248.56" y="0">r</tspan><tspan class="cls-9" x="258.39" y="0">v</tspan><tspan class="cls-46" x="268.22" y="0">i</tspan><tspan class="cls-39" x="274.38" y="0">v</tspan><tspan class="cls-13" x="284.26" y="0">e</tspan></text><text class="cls-2" transform="translate(859.59 352.58)"><tspan class="cls-47">6</tspan><tspan class="cls-3" x="11.95" y="0">,000</tspan><tspan class="cls-37" x="62.17" y="0"> </tspan><tspan class="cls-43" x="68.07" y="0">s</tspan><tspan class="cls-44" x="77.97" y="0">u</tspan><tspan class="cls-45" x="90.16" y="0">r</tspan><tspan class="cls-9" x="99.99" y="0">v</tspan><tspan class="cls-46" x="109.82" y="0">i</tspan><tspan class="cls-39" x="115.98" y="0">v</tspan><tspan class="cls-48" x="125.86" y="0">o</tspan><tspan class="cls-49" x="138.45" y="0">r</tspan><tspan class="cls-13" x="146.83" y="0">s </tspan><tspan class="cls-14" x="162.87" y="0">a</tspan><tspan class="cls-48" x="173.87" y="0">r</tspan><tspan class="cls-13" x="182.51" y="0">e </tspan><tspan class="cls-50" x="200.73" y="0">l</tspan><tspan class="cls-46" x="205.83" y="0">i</tspan><tspan class="cls-9" x="211.99" y="0">v</tspan><tspan class="cls-51" x="221.83" y="0">i</tspan><tspan class="cls-40" x="227" y="0">n</tspan><tspan class="cls-13" x="239.41" y="0">g </tspan><tspan class="cls-52" x="256.46" y="0">i</tspan><tspan class="cls-13" x="261.63" y="0">n </tspan><tspan class="cls-13"><tspan class="cls-21" x="0" y="29">I</tspan><tspan class="cls-31" x="5.83" y="29">r</tspan><tspan class="cls-53" x="14.48" y="29">el</tspan><tspan class="cls-26" x="32.21" y="29">a</tspan><tspan class="cls-27" x="43.32" y="29">n</tspan><tspan class="cls-54" x="55.75" y="29">d</tspan><tspan x="68.16" y="29">.</tspan></tspan></text><text class="cls-55" transform="translate(1344.14 337.82)">C<tspan class="cls-56" x="15.4" y="0">u</tspan><tspan x="27.74" y="0">r</tspan><tspan class="cls-57" x="37.03" y="0">r</tspan><tspan class="cls-58" x="46.35" y="0">e</tspan><tspan class="cls-24" x="58.52" y="0">nt</tspan><tspan class="cls-59" x="80.06" y="0">l</tspan><tspan class="cls-24" x="85.93" y="0">y </tspan><tspan class="cls-53" x="101.97" y="0">t</tspan><tspan class="cls-60" x="110.46" y="0">h</tspan><tspan class="cls-61" x="123.62" y="0">e</tspan><tspan class="cls-57" x="135.76" y="0">r</tspan><tspan x="145.09" y="0">e </tspan><tspan class="cls-62" x="162.78" y="0">i</tspan><tspan x="168.45" y="0">s </tspan><tspan class="cls-61" x="183.94" y="0">n</tspan><tspan x="196.77" y="0">o </tspan><tspan class="cls-27" x="0" y="29">d</tspan><tspan class="cls-63" x="12.91" y="29">e</tspan><tspan class="cls-21" x="25.61" y="29">d</tspan><tspan class="cls-64" x="38.41" y="29">i</tspan><tspan class="cls-60" x="44.33" y="29">c</tspan><tspan class="cls-34" x="56.56" y="29">a</tspan><tspan class="cls-65" x="68" y="29">t</tspan><tspan class="cls-63" x="76.52" y="29">e</tspan><tspan x="89.21" y="29">d a</tspan><tspan class="cls-66" x="119.15" y="29">f</tspan><tspan class="cls-67" x="127.55" y="29">t</tspan><tspan class="cls-68" x="136.07" y="29">e</tspan><tspan class="cls-57" x="148.21" y="29">r</tspan><tspan class="cls-60" x="157.54" y="29">c</tspan><tspan class="cls-29" x="169.77" y="29">a</tspan><tspan class="cls-57" x="180.77" y="29">r</tspan><tspan x="190.1" y="29">e </tspan><tspan class="cls-69" x="207.79" y="29">c</tspan><tspan class="cls-22" x="220.09" y="29">e</tspan><tspan x="232.25" y="29">nt</tspan><tspan class="cls-57" x="253.79" y="29">r</tspan><tspan x="263.12" y="29">e </tspan><tspan class="cls-21" x="0" y="58">f</tspan><tspan class="cls-29" x="7.72" y="58">o</tspan><tspan x="20.57" y="58">r </tspan><tspan class="cls-65" x="35.31" y="58">s</tspan><tspan class="cls-56" x="45.23" y="58">u</tspan><tspan class="cls-70" x="57.57" y="58">r</tspan><tspan class="cls-25" x="67.93" y="58">v</tspan><tspan x="78.3" y="58">i</tspan><tspan class="cls-71" x="84.02" y="58">v</tspan><tspan class="cls-72" x="94.03" y="58">o</tspan><tspan x="106.87" y="58">rs </tspan><tspan class="cls-73" x="131.65" y="58">o</tspan><tspan x="144.87" y="58">f </tspan><tspan class="cls-26" x="158.42" y="58">c</tspan><tspan class="cls-72" x="170.25" y="58">h</tspan><tspan class="cls-67" x="182.99" y="58">i</tspan><tspan class="cls-68" x="188.6" y="58">l</tspan><tspan x="194.63" y="58">d</tspan><tspan class="cls-60" x="207.81" y="58">h</tspan><tspan class="cls-74" x="220.96" y="58">oo</tspan><tspan x="247.58" y="58">d </tspan><tspan class="cls-60" x="0" y="87">c</tspan><tspan class="cls-21" x="12.23" y="87">a</tspan><tspan class="cls-61" x="23.17" y="87">n</tspan><tspan class="cls-69" x="35.99" y="87">c</tspan><tspan class="cls-61" x="48.29" y="87">e</tspan><tspan x="60.43" y="87">r </tspan><tspan class="cls-75" x="75.17" y="87">i</tspan><tspan x="80.41" y="87">n </tspan><tspan class="cls-76" x="98.78" y="87">I</tspan><tspan class="cls-57" x="104.81" y="87">r</tspan><tspan class="cls-61" x="114.13" y="87">e</tspan><tspan class="cls-58" x="126.28" y="87">l</tspan><tspan class="cls-21" x="132.33" y="87">a</tspan><tspan class="cls-61" x="143.26" y="87">n</tspan><tspan x="156.09" y="87">d</tspan></text><line class="cls-77" x1="0.5" y1="295.51" x2="1644.45" y2="295.51"/><line class="cls-77" x1="0.5" y1="295.51" x2="0.5" y2="337"/><line class="cls-77" x1="390.8" y1="295.51" x2="390.8" y2="329.95"/><line class="cls-77" x1="839.7" y1="295.51" x2="839.7" y2="329.95"/><line class="cls-77" x1="1318.65" y1="295.51" x2="1318.65" y2="329.95"/><circle class="cls-78" cx="134.74" cy="194.97" r="2.86"/><circle class="cls-78" cx="153.31" cy="202.55" r="2.86"/><circle class="cls-78" cx="143.78" cy="171.31" r="2.86"/><circle class="cls-78" cx="187.51" cy="208.28" r="2.86"/><circle class="cls-78" cx="133.05" cy="224.97" r="2.86"/><circle class="cls-78" cx="180.63" cy="216.87" r="2.86"/><circle class="cls-78" cx="225.47" cy="243.15" r="2.86"/><circle class="cls-78" cx="191.59" cy="177.04" r="2.86"/><circle class="cls-78" cx="225.47" cy="208.28" r="2.86"/><circle class="cls-78" cx="165.05" cy="246.01" r="2.86"/><circle class="cls-78" cx="134.34" cy="233.85" r="2.86"/><circle class="cls-78" cx="94.11" cy="238.11" r="2.86"/><circle class="cls-78" cx="110.99" cy="217.53" r="2.86"/><circle class="cls-78" cx="199.88" cy="259.14" r="2.86"/><circle class="cls-78" cx="140.5" cy="251.56" r="2.86"/><circle class="cls-78" cx="250.94" cy="262" r="2.86"/><circle class="cls-78" cx="159.88" cy="228.14" r="2.86"/><circle class="cls-78" cx="157.02" cy="188.15" r="2.86"/><circle class="cls-78" cx="250.94" cy="233.64" r="2.86"/><circle class="cls-78" cx="145.62" cy="243.15" r="2.86"/><circle class="cls-78" cx="82.17" cy="210.25" r="2.86"/><circle class="cls-78" cx="93.7" cy="196.83" r="2.86"/><circle class="cls-78" cx="173.28" cy="185.29" r="2.86"/><circle class="cls-78" cx="202.75" cy="193.87" r="2.86"/><circle class="cls-78" cx="159.88" cy="271.19" r="2.86"/><circle class="cls-78" cx="104.52" cy="257.88" r="2.86"/><circle class="cls-78" cx="108.13" cy="253.3" r="2.86"/><circle class="cls-78" cx="117.05" cy="182.43" r="2.86"/><circle class="cls-78" cx="162.98" cy="171.14" r="2.86"/><circle class="cls-78" cx="157.02" cy="166.44" r="2.86"/><circle class="cls-78" cx="205.61" cy="225.28" r="2.86"/><circle class="cls-78" cx="180.77" cy="157.85" r="2.86"/><circle class="cls-78" cx="225.47" cy="179.72" r="2.86"/><circle class="cls-78" cx="194.45" cy="157.85" r="2.86"/><circle class="cls-78" cx="250.94" cy="205.42" r="2.86"/><circle class="cls-78" cx="159.88" cy="144.28" r="2.86"/><circle class="cls-78" cx="159.04" cy="144.28" r="2.86"/><circle class="cls-78" cx="125.64" cy="152.13" r="2.86"/><circle class="cls-78" cx="105.5" cy="154.99" r="2.86"/><circle class="cls-78" cx="90.44" cy="169.6" r="2.86"/><circle class="cls-78" cx="110.99" cy="223.26" r="2.86"/><circle class="cls-78" cx="73.07" cy="189.29" r="2.86"/><circle class="cls-78" cx="172.19" cy="133.92" r="2.86"/><circle class="cls-78" cx="149.5" cy="129.46" r="2.86"/><circle class="cls-78" cx="185.43" cy="129.04" r="2.86"/><circle class="cls-78" cx="167.29" cy="126.18" r="2.86"/><circle class="cls-78" cx="188.29" cy="106.88" r="2.86"/><circle class="cls-78" cx="187.45" cy="106.88" r="2.86"/><circle class="cls-78" cx="154.05" cy="114.73" r="2.86"/><circle class="cls-78" cx="133.91" cy="117.59" r="2.86"/><circle class="cls-78" cx="116.38" cy="133.92" r="2.86"/><path class="cls-78" d="M1068.49,98.53a5.85,5.85,0,0,0,4.62,2.1v10.06l8,12.15-4.14,2.88,3,4.28,2.23,4.84-5-1.3-.55,2.61a19.47,19.47,0,0,1,3.9,4.28c5.72,8.54,2.89,19.29,2.61,20.29-2.22,8-6.92,10.09-6.33,17.13.17,1.93.6,2.75.37,4.84-.49,4.5-3,5.13-5.21,10.61-1.83,4.55-1.36,7.24-3.54,8.19-1.75.77-3.78-.21-3.91.19s3.92,1.43,6,4.84a5.21,5.21,0,0,1,.93,3.72c-.48,2.31-3.21,4.17-5.58,4.1s-2.82-1.79-6.15-2.05a8.12,8.12,0,0,1-2.23-.19c-2.2-.72-2.59-2.69-3.72-2.6-.85.06-1,1.21-2.42,3.16-.55.74-2.77,3.75-4.1,3.35-1.49-.44-1.14-5-1.86-5-.52,0-.4,2.34-2,4.09-2.06,2.2-5.59,2.07-6.14,2-2.58-.09-3-1.19-5.21-.93-1.91.22-1.77,1-4.1,1.67-2.87.8-3.86-.2-6.89.75-.13,0-2.88.92-2.79,1.67s3.64.4,4.09,1.68-2.31,4.32-5.77,5.21c-3.24.84-4.61-.84-7.07.38-1.53.75-1.33,1.57-3.7,4.44-2.63,3.19-4.37,5.31-7,5.9-2.9.63-4.55-1.08-6.46.28-1.38,1-1,2.21-2.24,2.8-1.73.82-3.13-1.22-6.45-1.68-.45-.06-4.92-.64-6.74,1.68-1.54,2,.33,4.09-1.4,7.3-.35.64-1.46,2.69-3.09,2.8-2.5.18-4.25-4.35-5.33-3.93s.67,3.92-1.12,5.9c-1.32,1.46-4.18,1.68-6.17,1.12-1.77-.5-2.44-1.5-3.37-1.12-1.34.54-.93,3.06-2,3.36s-2-2.76-4.21-3.36c-3.41-.93-7.27,4.74-8.42,3.92-.9-.64,1.2-4.42.28-5.05s-3.18,2.76-7.57,3.37c-.91.13-2.63.37-3.37-.56-1-1.3.54-4,1.12-5a14,14,0,0,1,5.05-5.05c3.46-1.89,6.09-1.29,6.46-2.53.2-.68-.32-1.83-3.37-3.92L933.83,243l-5.61.56a9.67,9.67,0,0,1-5.33,3.93c-3,.8-6.76-.07-7-1.41-.15-.78,1-1.39,5-4.49,3.62-2.73,2.86-2.33,5.05-3.92a107.64,107.64,0,0,1,12.63-7.86l-8.7.28L922.6,234c-1.12,2.13-2,2.58-2.52,2.52-1.6-.15-1.74-4.28-3.93-4.77-1.52-.34-2.56,1.4-3.65.85s-.3-2-1.4-3.93c-1.18-2.1-3-2.17-3.08-3.37-.06-.72.51-1.82,3.64-3.37l9.82-3.92,4.77-2,5.33-2,3.65-3.37-8.42,1.41-12.06.28H908l-1.68-5.05,3.37-2.25,2.24-4.21h4.21l3.93,1.41,2.52-1.13,4.21,4.49,3.65-.84.56-4.49-3.08-5.61,3.92-4.21,4.77-3.08,9.82-2.53,3.09-.84,1.12-2.81-3.93-.56-3.36-.56-3.93,1.12-7.3,2.81-4.77.56,2.25-5.33,5.61-1.47,4.49-4.42,3.93-.56,2.52-5.05,3.09-5.33-4.21-1.69,4.77-7.85,1.4-5.89,4.21.84,2.81-.56a25,25,0,0,1,3.08-1.12c4.8-1.42,7.23-.68,7.86-2s-.63-3.35-2.53-4.21a4.34,4.34,0,0,0-4.77.84L954,142.23l-8.42-1.12c-.54-2.06-1.13-2.6-1.6-2.65-1.09-.13-1.53,2.28-3.61,2.92-1.52.46-3.46-.16-3.76-1.12s.73-1.81,2.23-3.33c1.85-1.88,2.63-2,2.92-3.06.42-1.55-.61-3.64-1.67-3.76s-1.44,1.95-4.31,4c-1.12.81-2.2,1.57-3.2,1.25-1.19-.39-1-1.86-2.36-2.64s-2.52.35-3.62-.42c-1.46-1-.34-3.6-1.81-4.59-1.1-.74-2.33.29-3.2-.56a2.07,2.07,0,0,1-.14-2.64c.9-.83,3.06.49,3.34,0s-1.69-1.48-2.36-3.75c-.14-.46-.6-2,.14-2.79s1.95.06,3.06-.83c.75-.6.47-1.2,1.11-1.53,1-.53,2.05.9,3.61.56a2.93,2.93,0,0,0,1.67-1.12c.78-1.09.24-2.23,0-5.14-.18-2.25-.28-3.37.14-4.17,1-2,3.79-2.43,5-2.64,3.61-.63,5.19.81,6.26-.28.87-.9.49-2.54-.28-5.84-.45-1.92-.83-2.38-1.25-2.51-.67-.2-1.3.46-2.37,1.25a13.14,13.14,0,0,1-5,2.51c-2.09.31-3.86-.82-5.84-2.09-1.32-.84-1.1-1-4.32-3.75-2.67-2.31-3.26-2.59-3.19-3.2.17-1.55,4.35-3.22,6.92-1.93,1,.51,1.24,1.2,3.07,2.25,1.46.84,2.31,1.33,2.86,1,1.32-.73.9-6.06-2.25-9-.4-.38-2.07-2.28-3.27-1.84s-1,2.86-2,3.06c-.71.14-1.49-.85-1.84-1.43-1.21-2-.22-4.62.21-5.72.18-.47,1.92-5,4.69-5.11,1,0,1.21.53,2.66.62s2.49-.51,3.88-1a16.43,16.43,0,0,1,6.95-.82c3,.15,3,.9,5.72.82,2.34-.08,2.69-.64,4.49-.41.78.1,3.29.42,4.7,2.24,1.67,2.17.35,4.59,1.84,5.52,1,.63,2.67.16,3.67-.61,2.3-1.77,1.37-5.26,2.86-5.72,1.11-.35,1.74,1.55,4.29,2,1.65.32,1.85-.38,3.88-.2,2.5.22,2.71,1.31,4.91,1.43.53,0,3.45.11,4.69-1.84.58-.91.89-2.41.21-3.27-1-1.25-3.21-.2-3.68-1-.6-1.08,2.1-4.77,6.13-6.54,3.52-1.54,5.1-.32,7.35-2.25,1.71-1.45,1-2.35,3.27-4.69s3.89-2.58,3.88-3.88a3,3,0,0,0-2.45-2.46c-1.13-.22-1.78.43-4.7,1.84a19,19,0,0,1-3.27,1.43c-1.91.36-2.75-.52-7.55-2.45-3.69-1.48-4.67-1.55-5.11-2.65-.58-1.47.33-3.41,1.43-4.5,1.56-1.55,2.81-.72,4.9-2.25s1.63-3.13,3.47-4.08c2.59-1.33,5.51.76,6.13-.2.25-.38,0-1.07-2-3.89-3.26-4.43-4.6-5.29-4.29-6.53.36-1.44,2.35-1,4.09-3.27,1.42-1.87.64-2.91,2-4.29.9-.89,2.24-1.2,4.9-1.84s3-.37,4.29-1c1.84-.91,1.63-1.67,3.06-2.25,2.39-1,3.51,1,5.93.21,2.22-.68,1.94-2.49,4.7-3.48,1.09-.39,1.09-.09,3.67-.61a14.94,14.94,0,0,0,4.29-1.22c.74-.4,3-1.61,3.68-3.88.42-1.41-.15-1.94.41-2.66,1-1.23,3.78-1.17,5.72,0,.87.53.83.83,3.27,3.88s2.9,3.29,3.47,3.47c1.8.58,2.93-.58,3.88.21s0,2.39,1,3.67c1.2,1.52,4,1.14,4.9,1,1.69-.23,2.83-.86,4.91-2.05,3.71-2.11,3.62-2.95,5.1-3.06,2.29-.17,2.58,1.84,6.13,2.25a26.42,26.42,0,0,0,3.88,0c2.37-.12,2.48-.35,3.27-.21,2.45.44,3.92,3.06,4.49,4.09,1.39,2.47.65,3.14,1.84,6.74a45.91,45.91,0,0,0,3.68,7.15c2.3,4,3,4.68,3.88,5.1,1.69.82,2.66.2,3.88,1.23a4.87,4.87,0,0,1,1.43,4.7c-.12.45-.48,1.46-5.31,5.1-2.24,1.69-3.15,2.22-3.47,3.48s.09,3.13,1,3.47,1.73-.92,4.7-3.06c2.44-1.77,3.69-2.65,5.31-2.66a6.15,6.15,0,0,1,4.08,1.84c1.76,1.73,1.79,3.85,1.64,12.46-.15,8.15-.24,10-1.84,11.44-.58.51-2,1.09-4.7,2.24-4.13,1.74-4.63,1.5-5.51,2.46-1.74,1.86-.38,3.37-2,6.74a15.73,15.73,0,0,1-4.49,5.1c-2.1,1.78-3.14,2.66-4.5,2.86-2.55.38-3.81-1.39-6.53-.61a5.67,5.67,0,0,0-2.25,1.23C1067.91,92.82,1066.82,96.18,1068.49,98.53Z"/><circle class="cls-78" cx="217.55" cy="149.45" r="2.86"/><circle class="cls-78" cx="229.35" cy="117.61" r="2.86"/><circle class="cls-78" cx="211.83" cy="133.94" r="2.86"/><circle class="cls-78" cx="194.45" cy="143.63" r="2.86"/><circle class="cls-78" cx="250.94" cy="154.99" r="2.86"/><circle class="cls-78" cx="252.6" cy="128.4" r="2.86"/><circle class="cls-78" cx="235.08" cy="134.72" r="2.86"/><circle class="cls-78" cx="256.59" cy="174" r="2.86"/><circle class="cls-78" cx="276.46" cy="256.28" r="2.86"/><circle class="cls-78" cx="273.59" cy="219.73" r="2.86"/><circle class="cls-78" cx="242.64" cy="255.95" r="2.86"/><circle class="cls-78" cx="236.91" cy="221.27" r="2.86"/><circle class="cls-78" cx="279.32" cy="193.87" r="2.86"/><circle class="cls-78" cx="242.64" cy="195.91" r="2.86"/><circle class="cls-78" cx="292" cy="176.86" r="2.86"/><circle class="cls-78" cx="256.67" cy="212.91" r="2.86"/><circle class="cls-78" cx="250.94" cy="175.78" r="2.86"/><circle class="cls-78" cx="270.52" cy="245.09" r="2.86"/><circle class="cls-78" cx="276.46" cy="163.57" r="2.86"/><circle class="cls-78" cx="244.66" cy="151.2" r="2.86"/><circle class="cls-78" cx="292" cy="152.87" r="2.86"/><circle class="cls-78" cx="262.31" cy="141.42" r="2.86"/><circle class="cls-78" cx="282.18" cy="137.58" r="2.86"/><circle class="cls-78" cx="253.8" cy="233.64" r="2.86"/><circle class="cls-78" cx="245.5" cy="139.05" r="2.86"/><circle class="cls-78" cx="273.59" cy="129.04" r="2.86"/><circle class="cls-78" cx="211.83" cy="112.61" r="2.86"/><circle class="cls-78" cx="292" cy="119.03" r="2.86"/><circle class="cls-78" cx="262.31" cy="106.88" r="2.86"/><circle class="cls-78" cx="232.21" cy="98.01" r="2.86"/><circle class="cls-78" cx="208.47" cy="91.27" r="2.86"/><circle class="cls-78" cx="167.29" cy="95.14" r="2.86"/><circle class="cls-78" cx="173.28" cy="185.29" r="2.86"/><circle class="cls-78" cx="184.65" cy="88.41" r="2.86"/><circle class="cls-78" cx="191.16" cy="88.41" r="2.86"/><circle class="cls-78" cx="143.78" cy="129.66" r="2.86"/><circle class="cls-78" cx="169.33" cy="101.16" r="2.86"/><circle class="cls-1" cx="1067.14" cy="123.94" r="0.49"/><circle class="cls-1" cx="1067.63" cy="128.53" r="0.49"/><circle class="cls-1" cx="1070.46" cy="126.42" r="0.49"/><circle class="cls-1" cx="1064.91" cy="126.92" r="0.49"/><circle class="cls-1" cx="1070.46" cy="129.02" r="0.49"/><circle class="cls-1" cx="1067.68" cy="126.42" r="0.49"/><circle class="cls-1" cx="1065.4" cy="129.51" r="0.49"/><circle class="cls-1" cx="1069.68" cy="123.83" r="0.49"/><circle class="cls-1" cx="1069.68" cy="131.18" r="0.49"/><circle class="cls-1" cx="1070.95" cy="135.2" r="0.49"/><circle class="cls-1" cx="1075.39" cy="138.7" r="0.49"/><circle class="cls-1" cx="1072.41" cy="137.72" r="0.49"/><circle class="cls-1" cx="1069.48" cy="138.7" r="0.49"/><circle class="cls-1" cx="1076.64" cy="149.02" r="0.49"/><circle class="cls-1" cx="1074.9" cy="150" r="0.49"/><circle class="cls-1" cx="1077.62" cy="154.69" r="0.49"/><circle class="cls-1" cx="954.78" cy="134.71" r="0.49"/><circle class="cls-1" cx="951.52" cy="136.69" r="0.49"/><circle class="cls-1" cx="954.29" cy="138.18" r="0.49"/><circle class="cls-1" cx="949.68" cy="121.18" r="0.49"/><circle class="cls-1" cx="929.67" cy="121.18" r="0.49"/><circle class="cls-1" cx="951.61" cy="78.47" r="0.49"/><circle class="cls-1" cx="957.12" cy="158.6" r="0.49"/><circle class="cls-1" cx="949.68" cy="167.18" r="0.49"/><circle class="cls-1" cx="947.68" cy="192.18" r="0.49"/><circle class="cls-1" cx="999.45" cy="226.34" r="0.49"/><circle class="cls-1" cx="996.93" cy="228.41" r="0.49"/><circle class="cls-1" cx="996.44" cy="225.36" r="0.49"/><circle class="cls-1" cx="994.11" cy="228.69" r="0.49"/><circle class="cls-1" cx="957.68" cy="237.18" r="0.49"/><circle class="cls-1" cx="959.68" cy="251.19" r="0.49"/><circle class="cls-1" cx="943.76" cy="220.32" r="0.49"/><circle class="cls-1" cx="1065.89" cy="134.22" r="0.49"/><circle class="cls-1" cx="1072.68" cy="130.18" r="0.49"/><circle class="cls-1" cx="1072.68" cy="127.18" r="0.49"/><circle class="cls-1" cx="1051.18" cy="134.22" r="0.49"/><circle class="cls-1" cx="1067.68" cy="131.67" r="0.49"/><circle class="cls-1" cx="1073.17" cy="132.17" r="0.49"/><circle class="cls-1" cx="1064.41" cy="131.69" r="0.49"/><circle class="cls-1" cx="1067.68" cy="130.18" r="0.49"/><circle class="cls-1" cx="1067.14" cy="137.72" r="0.49"/><circle class="cls-1" cx="1068.99" cy="133.72" r="0.49"/><circle class="cls-1" cx="1058.7" cy="131.2" r="0.49"/><circle class="cls-1" cx="1062.1" cy="134.22" r="0.49"/><circle class="cls-1" cx="1074.4" cy="135.2" r="0.49"/><circle class="cls-1" cx="1063.92" cy="137.23" r="0.49"/><circle class="cls-1" cx="1063.43" cy="130" r="0.49"/><circle class="cls-1" cx="1076.64" cy="130.49" r="0.49"/><circle class="cls-1" cx="1075.88" cy="133.23" r="0.49"/><circle class="cls-1" cx="1075.39" cy="128.04" r="0.49"/><circle class="cls-1" cx="1079.35" cy="132.66" r="0.49"/><circle class="cls-1" cx="1073.91" cy="124.92" r="0.49"/><circle class="cls-1" cx="1041.56" cy="124.43" r="0.49"/><circle class="cls-1" cx="1037.94" cy="130.49" r="0.49"/><circle class="cls-1" cx="1068.18" cy="136.26" r="0.49"/><circle class="cls-1" cx="1029.68" cy="126.18" r="0.49"/><circle class="cls-1" cx="1076.37" cy="122.07" r="0.49"/><circle class="cls-1" cx="1063.92" cy="125.93" r="0.49"/><circle class="cls-1" cx="1071.45" cy="133.23" r="0.49"/><circle class="cls-1" cx="1074.4" cy="130.71" r="0.49"/><circle class="cls-1" cx="1073.42" cy="139.69" r="0.49"/><circle class="cls-1" cx="1071.94" cy="128.53" r="0.49"/><circle class="cls-1" cx="1071.45" cy="131.2" r="0.49"/><circle class="cls-1" cx="1063.68" cy="128.18" r="0.49"/><circle class="cls-1" cx="1073.69" cy="128.18" r="0.49"/><circle class="cls-1" cx="1066.05" cy="132.17" r="0.49"/><circle class="cls-1" cx="1069.34" cy="125.63" r="0.49"/><circle class="cls-1" cx="1075.39" cy="126.42" r="0.49"/><circle class="cls-1" cx="1068.99" cy="127.9" r="0.49"/><circle class="cls-1" cx="1066.87" cy="125.13" r="0.49"/><circle class="cls-1" cx="1072.19" cy="125.63" r="0.49"/><circle class="cls-1" cx="1077.13" cy="128.67" r="0.49"/><circle class="cls-1" cx="1072.93" cy="129.2" r="0.49"/><circle class="cls-1" cx="1074.67" cy="132.41" r="0.49"/><circle class="cls-1" cx="1074.9" cy="129.51" r="0.49"/><circle class="cls-1" cx="1069.97" cy="130.18" r="0.49"/><circle class="cls-1" cx="1070.95" cy="127.54" r="0.49"/><circle class="cls-1" cx="1064.17" cy="133.72" r="0.49"/><circle class="cls-1" cx="1064.68" cy="129.18" r="0.49"/><circle class="cls-1" cx="1075.65" cy="131.48" r="0.49"/><circle class="cls-1" cx="1077.77" cy="131.48" r="0.49"/><circle class="cls-1" cx="1073.17" cy="133.72" r="0.49"/><circle class="cls-1" cx="1071.33" cy="130" r="0.49"/><circle class="cls-1" cx="1072.93" cy="131.17" r="0.49"/><circle class="cls-1" cx="1070.06" cy="132.41" r="0.49"/><circle class="cls-1" cx="1069.68" cy="129.51" r="0.49"/><circle class="cls-1" cx="952.11" cy="133.72" r="0.49"/><circle class="cls-1" cx="952.68" cy="170.18" r="0.49"/><circle class="cls-1" cx="1066.05" cy="163.87" r="0.49"/><circle class="cls-1" cx="1028.68" cy="166.18" r="0.49"/><circle class="cls-1" cx="1028.68" cy="156.18" r="0.49"/><circle class="cls-1" cx="1040.68" cy="124.18" r="0.49"/><circle class="cls-1" cx="1051.68" cy="123.18" r="0.49"/><circle class="cls-1" cx="1072.69" cy="123.18" r="0.49"/><circle class="cls-1" cx="950.68" cy="86.18" r="0.49"/><circle class="cls-1" cx="948.75" cy="81.67" r="0.49"/><circle class="cls-1" cx="951.17" cy="80.49" r="0.49"/><circle class="cls-1" cx="945.64" cy="78.47" r="0.49"/><circle class="cls-1" cx="944.34" cy="82.36" r="0.49"/><circle class="cls-1" cx="950.68" cy="84.18" r="0.49"/><circle class="cls-1" cx="937.68" cy="89.18" r="0.49"/><circle class="cls-1" cx="937.68" cy="92.85" r="0.49"/><circle class="cls-1" cx="946.62" cy="84.18" r="0.49"/><circle class="cls-1" cx="940.52" cy="78.76" r="0.49"/><circle class="cls-1" cx="937.68" cy="83.34" r="0.49"/><circle class="cls-1" cx="941.01" cy="84.67" r="0.49"/><circle class="cls-1" cx="936.51" cy="77.97" r="0.49"/><circle class="cls-1" cx="1006.68" cy="195.18" r="0.49"/><circle class="cls-1" cx="1006.68" cy="185.18" r="0.49"/><circle class="cls-1" cx="1021.68" cy="179.18" r="0.49"/><circle class="cls-1" cx="1021.68" cy="209.2" r="0.49"/><circle class="cls-1" cx="978.68" cy="233.23" r="0.49"/><circle class="cls-1" cx="1064.41" cy="123.18" r="0.49"/><circle class="cls-1" cx="1054.68" cy="131.18" r="0.49"/><circle class="cls-1" cx="1064.69" cy="131.18" r="0.49"/><circle class="cls-1" cx="1070.95" cy="120.44" r="0.49"/><circle class="cls-1" cx="1067.36" cy="120.44" r="0.49"/><circle class="cls-1" cx="1070.83" cy="116.69" r="0.49"/><circle class="cls-1" cx="1068.12" cy="114.7" r="0.49"/><circle class="cls-1" cx="1063.19" cy="115.19" r="0.49"/><circle class="cls-1" cx="1012.69" cy="19.65" r="0.49"/><circle class="cls-1" cx="1006.09" cy="27.51" r="0.49"/><circle class="cls-78" cx="173.78" cy="261.31" r="2.86"/><circle class="cls-78" cx="187.02" cy="278.15" r="2.86"/><circle class="cls-78" cx="147.05" cy="272.43" r="2.86"/><circle class="cls-78" cx="187.02" cy="256.44" r="2.86"/><circle class="cls-78" cx="155.64" cy="242.13" r="2.86"/><circle class="cls-78" cx="135.5" cy="244.99" r="2.86"/><circle class="cls-78" cx="132.4" cy="249.15" r="2.86"/><circle class="cls-78" cx="179.5" cy="219.46" r="2.86"/><circle class="cls-78" cx="184.05" cy="194.72" r="2.86"/><circle class="cls-78" cx="163.91" cy="197.58" r="2.86"/><circle class="cls-78" cx="146.38" cy="213.91" r="2.86"/><circle class="cls-78" cx="173.78" cy="219.66" r="2.86"/><circle class="cls-78" cx="224.56" cy="184.8" r="2.86"/><circle class="cls-78" cx="237.8" cy="201.64" r="2.86"/><circle class="cls-78" cx="197.83" cy="195.91" r="2.86"/><circle class="cls-78" cx="237.8" cy="179.92" r="2.86"/><circle class="cls-78" cx="206.42" cy="165.61" r="2.86"/><circle class="cls-78" cx="186.28" cy="168.48" r="2.86"/><circle class="cls-78" cx="171.22" cy="183.08" r="2.86"/><circle class="cls-78" cx="230.28" cy="142.94" r="2.86"/><circle class="cls-78" cx="234.83" cy="128.21" r="2.86"/><circle class="cls-78" cx="214.69" cy="131.08" r="2.86"/><circle class="cls-78" cx="197.16" cy="137.4" r="2.86"/><circle class="cls-78" cx="224.56" cy="143.15" r="2.86"/><circle class="cls-78" cx="134.24" cy="198.88" r="2.86"/><circle class="cls-78" cx="147.48" cy="215.71" r="2.86"/><circle class="cls-78" cx="119.47" cy="199.54" r="2.86"/><circle class="cls-78" cx="147.48" cy="194" r="2.86"/><circle class="cls-78" cx="116.09" cy="179.69" r="2.86"/><circle class="cls-78" cx="95.96" cy="182.55" r="2.86"/><circle class="cls-78" cx="80.9" cy="197.16" r="2.86"/><circle class="cls-78" cx="139.95" cy="157.02" r="2.86"/><circle class="cls-78" cx="144.5" cy="132.28" r="2.86"/><circle class="cls-78" cx="124.36" cy="135.15" r="2.86"/><circle class="cls-78" cx="106.84" cy="151.47" r="2.86"/><circle class="cls-78" cx="134.24" cy="157.22" r="2.86"/><circle class="cls-1" cx="1060.92" cy="127.93" r="0.49"/><circle class="cls-1" cx="1005.92" cy="24.93" r="0.49"/><circle class="cls-1" cx="1003.92" cy="19.93" r="0.49"/><circle class="cls-1" cx="999.16" cy="21.53" r="0.49"/><circle class="cls-1" cx="1003.06" cy="22.51" r="0.49"/><circle class="cls-1" cx="1009.36" cy="22.02" r="0.49"/><circle class="cls-1" cx="1005.92" cy="39.93" r="0.49"/><circle class="cls-1" cx="995.92" cy="39.93" r="0.49"/><circle class="cls-1" cx="1008.92" cy="63.93" r="0.49"/><circle class="cls-1" cx="1008.92" cy="73.94" r="0.49"/><circle class="cls-1" cx="1068.92" cy="64.94" r="0.49"/><circle class="cls-1" cx="1069.92" cy="80.94" r="0.49"/><circle class="cls-1" cx="1059.19" cy="119.45" r="0.49"/><circle class="cls-1" cx="936.02" cy="115.42" r="0.49"/><circle class="cls-1" cx="1056.98" cy="140.18" r="0.49"/><circle class="cls-1" cx="1062.21" cy="83.69" r="0.49"/><circle class="cls-1" cx="1010.92" cy="116.93" r="0.49"/><circle class="cls-1" cx="1010.92" cy="126.94" r="0.49"/><circle class="cls-1" cx="1038.93" cy="176.94" r="0.49"/><circle class="cls-1" cx="953.93" cy="152.93" r="0.49"/><circle class="cls-1" cx="956.92" cy="242.97" r="0.49"/><circle class="cls-1" cx="964.92" cy="241.93" r="0.49"/><circle class="cls-1" cx="961.92" cy="241.93" r="0.49"/><circle class="cls-1" cx="952.92" cy="203.93" r="0.49"/><circle class="cls-1" cx="942.92" cy="203.93" r="0.49"/><circle class="cls-1" cx="939.91" cy="205.93" r="0.49"/><circle class="cls-1" cx="946.91" cy="199.93" r="0.49"/><circle class="cls-1" cx="947.91" cy="205.93" r="0.49"/><circle class="cls-1" cx="942.91" cy="195.93" r="0.49"/><circle class="cls-1" cx="952.92" cy="195.93" r="0.49"/><circle class="cls-1" cx="934.9" cy="195.93" r="0.49"/><circle class="cls-1" cx="948.91" cy="202.93" r="0.49"/><circle class="cls-1" cx="947.19" cy="195.42" r="0.49"/><circle class="cls-1" cx="939.91" cy="194.44" r="0.49"/><circle class="cls-1" cx="964.91" cy="210.93" r="0.49"/><circle class="cls-1" cx="964.91" cy="236.95" r="0.49"/><circle class="cls-1" cx="1059.91" cy="197.94" r="0.49"/><circle class="cls-1" cx="1059.91" cy="201.95" r="0.49"/><circle class="cls-1" cx="1054.91" cy="198.94" r="0.49"/><circle class="cls-1" cx="1056.91" cy="195.94" r="0.49"/><circle class="cls-1" cx="1064.91" cy="195.94" r="0.49"/><circle class="cls-1" cx="1046.93" cy="157.93" r="0.49"/><circle class="cls-1" cx="996.91" cy="121.93" r="0.49"/><circle class="cls-1" cx="1006.91" cy="151.95" r="0.49"/><circle class="cls-1" cx="986.9" cy="171.96" r="0.49"/><circle class="cls-1" cx="962.91" cy="129.94" r="0.49"/><circle class="cls-1" cx="941.89" cy="109.93" r="0.49"/><circle class="cls-1" cx="952.9" cy="109.93" r="0.49"/><circle class="cls-1" cx="1009.91" cy="32.91" r="0.49"/><circle class="cls-1" cx="999.91" cy="31.91" r="0.49"/><circle class="cls-1" cx="1050.95" cy="48.92" r="0.49"/><circle class="cls-1" cx="1044.94" cy="131.93" r="0.49"/><circle class="cls-1" cx="1034.94" cy="133.93" r="0.49"/><circle class="cls-1" cx="994.91" cy="131.93" r="0.49"/><circle class="cls-1" cx="1064.96" cy="141.94" r="0.49"/><circle class="cls-1" cx="1074.96" cy="142.94" r="0.49"/><circle class="cls-1" cx="1067.96" cy="147.94" r="0.49"/><circle class="cls-1" cx="1053.95" cy="126.93" r="0.49"/><circle class="cls-1" cx="1050.95" cy="117.93" r="0.49"/><circle class="cls-1" cx="1057.95" cy="124.93" r="0.49"/><circle class="cls-1" cx="1056.95" cy="114.93" r="0.49"/><circle class="cls-1" cx="1069.96" cy="110.92" r="0.49"/><circle class="cls-1" cx="1049.94" cy="129.93" r="0.49"/><circle class="cls-1" cx="1058.95" cy="135.93" r="0.49"/><circle class="cls-1" cx="1066.94" cy="110.92" r="0.49"/><circle class="cls-1" cx="1062.96" cy="105.92" r="0.49"/><circle class="cls-1" cx="1045.95" cy="125.93" r="0.49"/><circle class="cls-1" cx="933.93" cy="123.94" r="0.49"/><circle class="cls-1" cx="944.93" cy="113.93" r="0.49"/><circle class="cls-1" cx="1077.62" cy="140.18" r="0.49"/><circle class="cls-1" cx="1072.91" cy="143.93" r="0.49"/><circle class="cls-1" cx="1078.86" cy="144.92" r="0.49"/><circle class="cls-1" cx="1068.12" cy="143.44" r="0.49"/><circle class="cls-1" cx="1059.91" cy="144.42" r="0.49"/><circle class="cls-1" cx="1060.92" cy="138.7" r="0.49"/><circle class="cls-1" cx="1064.2" cy="88.2" r="0.49"/><circle class="cls-1" cx="1059.68" cy="88.69" r="0.49"/><circle class="cls-1" cx="1065.56" cy="117.44" r="0.49"/><circle class="cls-1" cx="1062.21" cy="120.93" r="0.49"/><circle class="cls-1" cx="1071.33" cy="147.94" r="0.49"/><circle class="cls-1" cx="1074.67" cy="152.93" r="0.49"/><circle class="cls-1" cx="1079.35" cy="151.52" r="0.49"/><circle class="cls-1" cx="1069.48" cy="182.37" r="0.49"/><circle class="cls-1" cx="963.91" cy="186.93" r="0.49"/><circle class="cls-1" cx="935.91" cy="197.93" r="0.49"/><circle class="cls-1" cx="1016.91" cy="212.95" r="0.49"/><circle class="cls-1" cx="1012.91" cy="170.93" r="0.49"/><circle class="cls-1" cx="1002.91" cy="170.93" r="0.49"/><circle class="cls-1" cx="1012.91" cy="160.93" r="0.49"/><circle class="cls-1" cx="992.9" cy="170.93" r="0.49"/><circle class="cls-1" cx="1002.91" cy="160.93" r="0.49"/><circle class="cls-1" cx="1022.92" cy="190.94" r="0.49"/><circle class="cls-1" cx="1043.91" cy="134.92" r="0.49"/><circle class="cls-1" cx="1021.9" cy="139.93" r="0.49"/><circle class="cls-79" cx="1453.03" cy="139.99" r="108.88"/><circle class="cls-79" cx="1453.03" cy="139.99" r="81.08"/><circle class="cls-78" cx="91.55" cy="149.33" r="2.86"/><circle class="cls-78" cx="95.44" cy="87.22" r="2.86"/><circle class="cls-78" cx="117.03" cy="134.6" r="2.86"/><circle class="cls-78" cx="118.69" cy="98" r="2.86"/><circle class="cls-78" cx="101.16" cy="114.33" r="2.86"/><circle class="cls-78" cx="122.67" cy="143.6" r="2.86"/><circle class="cls-78" cx="145.4" cy="163.48" r="2.86"/><circle class="cls-78" cx="158.08" cy="146.47" r="2.86"/><circle class="cls-78" cx="117.03" cy="145.38" r="2.86"/><circle class="cls-78" cx="142.54" cy="133.18" r="2.86"/><circle class="cls-78" cx="110.75" cy="130.81" r="2.86"/><circle class="cls-78" cx="158.08" cy="132.48" r="2.86"/><circle class="cls-78" cx="128.4" cy="121.03" r="2.86"/><circle class="cls-78" cx="148.27" cy="117.19" r="2.86"/><circle class="cls-78" cx="111.58" cy="108.66" r="2.86"/><circle class="cls-78" cx="139.68" cy="98.65" r="2.86"/><circle class="cls-78" cx="158.08" cy="98.65" r="2.86"/><circle class="cls-78" cx="90.65" cy="154.41" r="2.86"/><circle class="cls-78" cx="103.89" cy="149.53" r="2.86"/><circle class="cls-78" cx="96.36" cy="122.55" r="2.86"/><circle class="cls-78" cx="100.91" cy="97.82" r="2.86"/><circle class="cls-78" cx="90.65" cy="122.76" r="2.86"/><circle class="cls-78" cx="55.08" cy="243.81" r="2.86"/><circle class="cls-78" cx="47" cy="182.14" r="2.86"/><circle class="cls-78" cx="80.55" cy="219.08" r="2.86"/><circle class="cls-78" cx="70.25" cy="192.93" r="2.86"/><circle class="cls-78" cx="64.69" cy="198.81" r="2.86"/><circle class="cls-78" cx="86.2" cy="238.09" r="2.86"/><circle class="cls-78" cx="108.93" cy="257.97" r="2.86"/><circle class="cls-78" cx="121.61" cy="240.95" r="2.86"/><circle class="cls-78" cx="80.55" cy="239.87" r="2.86"/><circle class="cls-78" cx="106.07" cy="227.67" r="2.86"/><circle class="cls-78" cx="74.28" cy="215.29" r="2.86"/><circle class="cls-78" cx="121.61" cy="216.96" r="2.86"/><circle class="cls-78" cx="91.93" cy="205.51" r="2.86"/><circle class="cls-78" cx="111.8" cy="201.67" r="2.86"/><circle class="cls-78" cx="75.11" cy="193.13" r="2.86"/><circle class="cls-78" cx="91.24" cy="193.57" r="2.86"/><circle class="cls-78" cx="109.65" cy="193.57" r="2.86"/><circle class="cls-78" cx="54.17" cy="248.89" r="2.86"/><circle class="cls-78" cx="67.42" cy="244.02" r="2.86"/><circle class="cls-78" cx="59.89" cy="207.03" r="2.86"/><circle class="cls-78" cx="52.48" cy="192.75" r="2.86"/><circle class="cls-78" cx="54.17" cy="207.24" r="2.86"/><circle class="cls-78" cx="43.12" cy="164.37" r="2.86"/><circle class="cls-78" cx="47" cy="92.25" r="2.86"/><circle class="cls-78" cx="68.59" cy="139.63" r="2.86"/><circle class="cls-78" cx="70.25" cy="113.04" r="2.86"/><circle class="cls-78" cx="52.73" cy="119.36" r="2.86"/><circle class="cls-78" cx="74.24" cy="158.64" r="2.86"/><circle class="cls-78" cx="96.97" cy="178.52" r="2.86"/><circle class="cls-78" cx="109.65" cy="161.5" r="2.86"/><circle class="cls-78" cx="68.59" cy="160.42" r="2.86"/><circle class="cls-78" cx="94.11" cy="148.22" r="2.86"/><circle class="cls-78" cx="62.31" cy="135.85" r="2.86"/><circle class="cls-78" cx="109.65" cy="137.51" r="2.86"/><circle class="cls-78" cx="79.96" cy="136.07" r="2.86"/><circle class="cls-78" cx="99.83" cy="132.23" r="2.86"/><circle class="cls-78" cx="63.15" cy="123.69" r="2.86"/><circle class="cls-78" cx="91.24" cy="113.68" r="2.86"/><circle class="cls-78" cx="109.65" cy="113.68" r="2.86"/><circle class="cls-78" cx="42.21" cy="169.45" r="2.86"/><circle class="cls-78" cx="55.45" cy="164.57" r="2.86"/><circle class="cls-78" cx="47.93" cy="127.59" r="2.86"/><circle class="cls-78" cx="52.48" cy="102.85" r="2.86"/><circle class="cls-78" cx="42.21" cy="127.79" r="2.86"/><circle class="cls-78" cx="129.16" cy="88.23" r="2.86"/><circle class="cls-78" cx="128.32" cy="88.23" r="2.86"/><circle class="cls-78" cx="170.22" cy="98.96" r="2.86"/><circle class="cls-78" cx="152.7" cy="93.95" r="2.86"/><circle class="cls-78" cx="173.08" cy="79.35" r="2.86"/><circle class="cls-78" cx="149.34" cy="72.62" r="2.86"/><circle class="cls-78" cx="125.52" cy="69.75" r="2.86"/><circle class="cls-78" cx="132.02" cy="69.75" r="2.86"/><circle class="cls-78" cx="110.2" cy="82.5" r="2.86"/><circle class="cls-78" cx="205.08" cy="83.51" r="2.86"/><circle class="cls-78" cx="204.23" cy="83.51" r="2.86"/><circle class="cls-78" cx="246.13" cy="94.24" r="2.86"/><circle class="cls-78" cx="228.61" cy="89.23" r="2.86"/><circle class="cls-78" cx="249" cy="74.63" r="2.86"/><circle class="cls-78" cx="225.25" cy="67.9" r="2.86"/><circle class="cls-78" cx="201.43" cy="65.04" r="2.86"/><circle class="cls-78" cx="207.94" cy="65.04" r="2.86"/><circle class="cls-78" cx="186.11" cy="77.78" r="2.86"/><circle class="cls-78" cx="65.56" cy="96.15" r="2.86"/><circle class="cls-78" cx="64.71" cy="96.15" r="2.86"/><circle class="cls-78" cx="106.62" cy="106.88" r="2.86"/><circle class="cls-78" cx="89.09" cy="101.88" r="2.86"/><circle class="cls-78" cx="109.48" cy="87.28" r="2.86"/><circle class="cls-78" cx="85.74" cy="80.54" r="2.86"/><circle class="cls-78" cx="61.91" cy="77.68" r="2.86"/><circle class="cls-78" cx="68.42" cy="77.68" r="2.86"/><circle class="cls-78" cx="46.59" cy="80.42" r="2.86"/><circle class="cls-78" cx="188.89" cy="246.1" r="2.86"/><circle class="cls-78" cx="188.05" cy="246.1" r="2.86"/><circle class="cls-78" cx="229.95" cy="256.83" r="2.86"/><circle class="cls-78" cx="212.42" cy="251.82" r="2.86"/><circle class="cls-78" cx="232.81" cy="237.22" r="2.86"/><circle class="cls-78" cx="209.07" cy="230.49" r="2.86"/><circle class="cls-78" cx="185.25" cy="227.62" r="2.86"/><circle class="cls-78" cx="191.75" cy="227.62" r="2.86"/><circle class="cls-78" cx="169.92" cy="240.37" r="2.86"/><circle class="cls-78" cx="148.57" cy="56.43" r="2.86"/><circle class="cls-78" cx="147.72" cy="56.43" r="2.86"/><circle class="cls-78" cx="189.63" cy="67.16" r="2.86"/><circle class="cls-78" cx="172.1" cy="62.15" r="2.86"/><circle class="cls-78" cx="192.49" cy="47.55" r="2.86"/><circle class="cls-78" cx="168.75" cy="40.82" r="2.86"/><circle class="cls-78" cx="144.93" cy="37.96" r="2.86"/><circle class="cls-78" cx="151.43" cy="37.96" r="2.86"/><circle class="cls-78" cx="129.6" cy="50.7" r="2.86"/><circle class="cls-78" cx="90.16" cy="66.02" r="2.86"/><circle class="cls-78" cx="89.32" cy="66.02" r="2.86"/><circle class="cls-78" cx="131.22" cy="76.75" r="2.86"/><circle class="cls-78" cx="113.69" cy="71.75" r="2.86"/><circle class="cls-78" cx="134.08" cy="57.15" r="2.86"/><circle class="cls-78" cx="110.34" cy="50.41" r="2.86"/><circle class="cls-78" cx="86.52" cy="47.55" r="2.86"/><circle class="cls-78" cx="93.02" cy="47.55" r="2.86"/><circle class="cls-78" cx="71.19" cy="60.3" r="2.86"/><polygon class="cls-1" points="561.94 24.66 561.94 56.92 554.62 56.92 546.98 58.37 538.84 60.42 531.73 63.02 526.75 65.35 519.16 69.78 513.54 73.87 510.67 76.28 503.06 83.98 498.54 89.77 493.24 98.4 490.2 104.88 487.68 111.93 458.69 96.87 460.4 92.48 463.53 85.63 468.26 77.09 473.31 69.59 479.29 62.14 482.62 58.51 487.7 53.54 494.6 47.72 501.31 42.89 507.97 38.81 514.76 35.28 522.24 32.05 528.5 29.84 533.41 28.4 539.09 27.04 547.17 25.64 554.38 24.92 561.94 24.66"/><polygon class="cls-78" points="458.69 96.87 487.68 111.93 486.32 117.03 485.2 122.86 484.63 127.8 484.45 130.18 484.34 133.64 484.45 138.94 484.82 143.31 485.4 147.41 486.07 150.95 486.97 154.68 487.98 158.12 489.12 161.44 490.11 163.96 491.24 166.6 492.48 169.19 493.81 171.73 495.49 174.65 498.07 178.63 499.74 180.95 501.94 183.76 504.93 187.2 507.79 190.13 509.79 192.01 512.34 194.22 515.17 196.47 517.36 198.07 519.91 199.79 522.52 201.41 524.94 202.77 527.89 204.29 531.88 206.11 535.12 207.38 538.88 208.66 542.12 209.59 545.5 210.4 548.23 210.94 550.7 211.34 553.91 211.74 558.18 212.06 561.94 212.15 565.2 212.08 568.85 211.84 571.82 211.52 574.75 211.09 578.51 210.37 583.12 209.22 586.49 208.18 589.13 207.25 592.65 205.83 596.52 204.04 599.43 202.5 602.15 200.93 604.41 199.5 606.15 198.33 608.36 196.74 610.75 194.88 612.82 193.14 614.79 191.38 617.1 189.14 619.14 187 621.2 184.65 623.03 182.41 624.71 180.19 626.3 177.93 628.4 174.65 629.71 172.39 630.86 170.27 631.96 168.06 632.97 165.87 633.58 164.46 634.23 162.84 634.75 161.49 635.28 160.02 635.92 158.09 636.57 155.93 637.25 153.39 637.86 150.76 638.3 148.52 638.58 146.85 638.87 144.88 639.06 143.35 639.24 141.6 639.32 140.69 639.39 139.6 639.45 138.69 639.47 138.23 639.52 136.92 639.54 136.32 639.54 135.95 639.54 135.51 639.56 134.53 639.55 133.79 639.54 132.76 639.52 132.19 639.5 131.67 639.49 131.3 639.47 130.82 639.45 130.49 639.43 130.06 639.41 129.74 639.34 128.67 639.3 128.19 639.22 127.28 639.18 126.83 639.12 126.22 639.06 125.71 639.01 125.26 638.96 124.89 638.9 124.41 638.72 123.09 638.61 122.36 638.5 121.73 638.41 121.2 638.35 120.83 638.19 119.94 638.06 119.31 637.95 118.73 637.67 117.45 637.53 116.83 637.37 116.16 637.19 115.45 637 114.7 636.8 113.97 636.63 113.35 636.18 111.81 636 111.25 635.61 110.02 635.33 109.19 635.15 108.69 634.69 107.42 634.46 106.82 634.2 106.15 633.97 105.57 633.34 104.05 633.13 103.55 632.72 102.64 632.47 102.09 632.26 101.63 631.64 100.34 631.41 99.88 630.8 98.69 630.54 98.2 630.08 97.35 629.74 96.73 629.5 96.3 629.11 95.61 628.76 95.03 628.17 94.05 627.93 93.66 627.68 93.26 627.4 92.81 626.7 91.73 626.44 91.34 625.74 90.32 624.78 88.96 624.37 88.42 623.7 87.52 623.4 87.13 623.1 86.74 622.38 85.84 621.57 84.85 621.22 84.43 620.74 83.87 620.38 83.46 620.09 83.12 619.15 82.08 618.82 81.73 617.77 80.61 617.37 80.21 616.4 79.23 616 78.85 614.81 77.71 614.38 77.32 613.36 76.4 612.93 76.02 612.05 75.26 610.97 74.36 610.54 74.01 609.22 72.98 608.86 72.7 608.03 72.08 607.04 71.36 605.94 70.59 604.84 69.84 603.77 69.14 601.89 67.98 600.39 67.1 598.59 66.1 596.95 65.25 595.75 64.65 594 63.83 592.41 63.13 590.76 62.45 589.24 61.86 588.2 61.48 586.3 60.82 584.22 60.16 582.06 59.55 579.64 58.95 577.02 58.38 575.2 58.05 573.15 57.73 571.02 57.45 569 57.24 566.2 57.04 564.41 56.96 563.06 56.92 561.94 56.92 561.94 24.66 565.33 24.71 567.52 24.8 569.09 24.89 570.49 24.99 573.06 25.21 575.37 25.47 577.33 25.73 578.74 25.93 580.58 26.23 582.67 26.61 584.44 26.96 586.3 27.37 588.05 27.78 589.48 28.14 590.9 28.51 592.2 28.88 593.63 29.3 594.77 29.64 596.22 30.11 598.04 30.73 599.66 31.3 601.14 31.86 602.54 32.4 603.91 32.96 605.5 33.63 607.37 34.46 608.88 35.16 610.39 35.89 611.7 36.54 612.9 37.16 613.81 37.64 614.98 38.28 616.17 38.95 617.57 39.76 619.2 40.74 620.01 41.23 621.03 41.88 622.47 42.82 623.46 43.48 624.37 44.1 625.23 44.7 626.64 45.72 627.73 46.52 628.81 47.34 630.02 48.29 631.15 49.19 631.89 49.8 633.22 50.91 634.42 51.95 635.1 52.55 635.94 53.31 636.96 54.25 637.87 55.12 639.43 56.63 640.25 57.46 641.88 59.14 643.02 60.37 644.59 62.13 645.82 63.55 646.9 64.85 648.77 67.19 649.92 68.69 652.08 71.68 653.85 74.29 655.26 76.5 656.69 78.85 657.97 81.1 659.28 83.5 660.57 86.05 661.75 88.52 662.88 91.04 663.85 93.37 664.78 95.75 665.69 98.25 666.57 100.87 667.33 103.33 668.06 105.92 668.93 109.41 669.47 111.83 670.1 115.04 670.5 117.42 670.75 119.14 671 121.03 671.21 122.9 671.39 124.77 671.57 127.05 671.69 129.15 671.74 130.26 671.79 131.8 671.82 133.78 671.82 135.55 671.79 137.1 671.71 139.49 671.64 140.9 671.47 143.38 671.38 144.46 671.27 145.64 671.15 146.7 671.05 147.64 670.76 149.88 670.38 152.39 670.19 153.51 669.74 155.93 669.22 158.39 667.55 164.97 665.32 171.87 663.8 175.82 661.57 180.93 660.01 184.14 658.1 187.75 655.95 191.45 654.66 193.53 652.83 196.29 649.77 200.58 647.19 203.86 643.75 207.89 639.91 211.96 636.48 215.26 634.61 216.96 633.1 218.26 631.27 219.79 629.56 221.15 627.55 222.69 624.49 224.88 621.97 226.58 618.52 228.75 615.84 230.31 612.56 232.09 610.51 233.12 607.92 234.36 606.61 234.95 603.63 236.23 602.16 236.82 599.86 237.69 596.71 238.8 594.51 239.5 592.88 240 590.33 240.71 587.68 241.38 585.67 241.84 582.82 242.43 580.55 242.84 578.69 243.14 575 243.64 572.99 243.86 569.4 244.16 565.75 244.35 563.14 244.41 561.94 244.41 560.71 244.41 559.24 244.38 557.86 244.34 556.45 244.28 555.64 244.23 554.91 244.19 553.33 244.08 552.34 244 551.22 243.9 550.52 243.82 548.75 243.63 547.1 243.42 545.85 243.24 543.64 242.89 542.62 242.72 541.28 242.47 540.48 242.31 539.2 242.05 538.08 241.81 536.76 241.51 535.81 241.28 534.97 241.07 532.61 240.45 531.95 240.27 530.71 239.91 529.25 239.47 528.33 239.18 527.49 238.9 525.36 238.17 524.3 237.79 523.38 237.46 521.59 236.77 520.43 236.3 519.27 235.82 518.41 235.45 516.82 234.75 516.03 234.39 514.41 233.63 513.14 233 511.57 232.21 510.56 231.68 509.44 231.08 507.51 230 506.35 229.33 503.63 227.68 501.57 226.36 499.37 224.86 497.01 223.18 495.5 222.06 494.52 221.3 492.97 220.07 491.57 218.92 490.61 218.11 488.47 216.23 487.44 215.29 486.7 214.61 484.48 212.46 483.63 211.6 483.15 211.12 481.57 209.46 480.72 208.53 480.18 207.94 479.38 207.04 478.76 206.33 478.17 205.64 476.48 203.6 475.87 202.83 474.34 200.87 473.81 200.16 471.59 197.07 471.22 196.53 468.6 192.52 465.97 188.08 464.4 185.17 462.54 181.41 461.75 179.69 460.68 177.24 459.74 174.94 458.88 172.7 457.49 168.73 456.63 165.99 455.6 162.27 455.06 160.09 454.19 156.12 453.83 154.22 453.41 151.75 452.94 148.47 452.58 145.24 452.42 143.4 452.18 139.44 452.07 137.11 452.07 135.4 452.07 133.78 452.08 133.02 452.11 131.43 452.13 130.77 452.24 128.41 452.33 126.82 452.44 125.46 452.59 123.76 452.76 122.13 452.93 120.7 453.13 119.21 453.32 117.88 453.54 116.5 453.98 114 454.27 112.51 454.65 110.75 455.07 108.9 455.34 107.82 455.71 106.38 456.05 105.13 456.29 104.27 456.57 103.29 456.93 102.12 457.36 100.76 457.95 98.96 458.69 96.87"/></g></g></svg>