<svg xmlns="http://www.w3.org/2000/svg" viewBox="0 0 1159.54 429.7"><defs><style>.cls-1{fill:#7283af;}.cls-2,.cls-38,.cls-4,.cls-76{fill:#f1e9df;}.cls-3,.cls-50,.cls-51,.cls-80{fill:none;stroke-miterlimit:10;}.cls-3{stroke:#ddd;}.cls-3,.cls-80{stroke-width:0.7px;}.cls-38,.cls-4{font-size:29.38px;}.cls-38,.cls-4,.cls-76,.cls-8{font-family:Apercu-Regular, Apercu;}.cls-5{letter-spacing:-0.01em;}.cls-6{letter-spacing:-0.01em;}.cls-7{letter-spacing:-0.01em;}.cls-8{font-size:15.39px;fill:#fff;}.cls-9{letter-spacing:-0.02em;}.cls-10{letter-spacing:-0.02em;}.cls-11{letter-spacing:-0.01em;}.cls-12{letter-spacing:-0.02em;}.cls-13{letter-spacing:-0.02em;}.cls-14{letter-spacing:0em;}.cls-15{letter-spacing:-0.02em;}.cls-16{letter-spacing:-0.01em;}.cls-17{letter-spacing:0.01em;}.cls-18{letter-spacing:-0.01em;}.cls-19{letter-spacing:0em;}.cls-20{letter-spacing:0.01em;}.cls-21{letter-spacing:-0.02em;}.cls-22{letter-spacing:0em;}.cls-23{letter-spacing:-0.01em;}.cls-24{letter-spacing:0.01em;}.cls-25{letter-spacing:-0.01em;}.cls-26{letter-spacing:0em;}.cls-27{letter-spacing:-0.01em;}.cls-28{letter-spacing:-0.03em;}.cls-29{letter-spacing:0.01em;}.cls-30{letter-spacing:-0.01em;}.cls-31{letter-spacing:-0.02em;}.cls-32{letter-spacing:-0.01em;}.cls-33{letter-spacing:-0.01em;}.cls-34{letter-spacing:-0.02em;}.cls-35{letter-spacing:0.03em;}.cls-36{letter-spacing:0.01em;}.cls-37{letter-spacing:-0.01em;}.cls-38{letter-spacing:-0.04em;}.cls-39{letter-spacing:-0.04em;}.cls-40{letter-spacing:-0.01em;}.cls-41{letter-spacing:0em;}.cls-42{letter-spacing:-0.04em;}.cls-43{letter-spacing:-0.04em;}.cls-44{letter-spacing:-0.02em;}.cls-45{letter-spacing:0.03em;}.cls-46{letter-spacing:-0.03em;}.cls-47{letter-spacing:-0.03em;}.cls-48{letter-spacing:-0.02em;}.cls-49{letter-spacing:-0.04em;}.cls-50,.cls-51,.cls-80{stroke:#f1e9df;}.cls-50{stroke-width:0.62px;}.cls-51{stroke-width:0.53px;}.cls-52{letter-spacing:0em;}.cls-53{letter-spacing:0.01em;}.cls-54{letter-spacing:-0.01em;}.cls-55{letter-spacing:-0.01em;}.cls-56{letter-spacing:-0.01em;}.cls-57{letter-spacing:-0.02em;}.cls-58{letter-spacing:-0.01em;}.cls-59{letter-spacing:0.01em;}.cls-60{letter-spacing:-0.01em;}.cls-61{letter-spacing:0.02em;}.cls-62{letter-spacing:0.01em;}.cls-63{letter-spacing:-0.02em;}.cls-64{letter-spacing:0em;}.cls-65{letter-spacing:0em;}.cls-66{letter-spacing:-0.02em;}.cls-67{letter-spacing:0.03em;}.cls-68{letter-spacing:-0.01em;}.cls-69{letter-spacing:0.01em;}.cls-70{letter-spacing:-0.02em;}.cls-71{letter-spacing:0em;}.cls-72{letter-spacing:0.01em;}.cls-73{letter-spacing:0em;}.cls-74{letter-spacing:-0.03em;}.cls-75{letter-spacing:-0.01em;}.cls-76{font-size:4.51px;}.cls-77{letter-spacing:-0.01em;}.cls-78{letter-spacing:-0.01em;}.cls-79{letter-spacing:-0.02em;}</style></defs><title>why thrive</title><g id="Layer_2" data-name="Layer 2"><g id="_1200" data-name="1200"><circle class="cls-1" cx="388.28" cy="129.14" r="129.14"/><polygon class="cls-2" points="408.8 0 388.28 137.18 513.38 96.97 505.48 74.83 492.78 53.25 474.21 32.74 450.83 16.14 423.49 4.86 408.8 0"/><rect class="cls-2" x="63.96" y="14.96" width="66.42" height="235.66" rx="15.5" ry="15.5"/><rect class="cls-2" x="701.91" y="64.06" width="34.35" height="235.66" rx="10.12" ry="10.12" transform="translate(900.98 -537.19) rotate(90)"/><path class="cls-1" d="M611.4,164.72h182a.91.91,0,0,1,.91.91v33.44a0,0,0,0,1,0,0H611.4a10.15,10.15,0,0,1-10.15-10.15V174.86A10.15,10.15,0,0,1,611.4,164.72Z"/><path class="cls-1" d="M64,67.37h66.42a0,0,0,0,1,0,0V242.91a7.71,7.71,0,0,1-7.71,7.71h-51A7.71,7.71,0,0,1,64,242.91V67.37a0,0,0,0,1,0,0Z"/><line class="cls-3" x1="130.37" y1="67.37" x2="43.29" y2="67.37"/><text class="cls-4" transform="translate(70.81 106.69)"><tspan class="cls-5">2</tspan><tspan class="cls-6" x="16.33" y="0">0</tspan><tspan x="34.49" y="0">0</tspan></text><text class="cls-4" transform="translate(350.18 199.96)"><tspan class="cls-7">8</tspan><tspan x="16.86" y="0">0%</tspan></text><text class="cls-8" transform="translate(10.42 317.14)"><tspan xml:space="preserve"> C</tspan><tspan class="cls-9" x="14.71" y="0">h</tspan><tspan class="cls-10" x="23.44" y="0">i</tspan><tspan class="cls-11" x="27.3" y="0">l</tspan><tspan class="cls-12" x="31.13" y="0">d</tspan><tspan class="cls-13" x="40.04" y="0">r</tspan><tspan class="cls-14" x="46.09" y="0">e</tspan><tspan x="54.74" y="0">n </tspan><tspan class="cls-9" x="67.74" y="0">a</tspan><tspan class="cls-13" x="75.43" y="0">r</tspan><tspan x="81.48" y="0">e </tspan><tspan class="cls-15" x="94.22" y="0">d</tspan><tspan class="cls-16" x="103.1" y="0">i</tspan><tspan class="cls-17" x="107.16" y="0">a</tspan><tspan x="115.26" y="0">g</tspan><tspan class="cls-18" x="123.06" y="0">n</tspan><tspan class="cls-11" x="131.75" y="0">o</tspan><tspan class="cls-19" x="140.72" y="0">s</tspan><tspan class="cls-20" x="147.77" y="0">e</tspan><tspan x="156.59" y="0">d </tspan><tspan class="cls-21" x="169.96" y="0">w</tspan><tspan class="cls-22" x="181.06" y="0">i</tspan><tspan class="cls-23" x="185.17" y="0">t</tspan><tspan x="190.87" y="0">h</tspan><tspan x="0" y="20.28"> </tspan><tspan class="cls-24" x="4.12" y="20.28">c</tspan><tspan class="cls-25" x="12.51" y="20.28">a</tspan><tspan class="cls-18" x="20.28" y="20.28">n</tspan><tspan class="cls-26" x="28.98" y="20.28">c</tspan><tspan class="cls-27" x="37.32" y="20.28">e</tspan><tspan x="45.72" y="20.28">r </tspan><tspan class="cls-28" x="56.2" y="20.28">i</tspan><tspan x="59.81" y="20.28">n </tspan><tspan class="cls-21" x="72.82" y="20.28">I</tspan><tspan class="cls-13" x="76.89" y="20.28">r</tspan><tspan class="cls-16" x="82.94" y="20.28">el</tspan><tspan class="cls-25" x="95.35" y="20.28">a</tspan><tspan class="cls-18" x="103.12" y="20.28">n</tspan><tspan x="111.81" y="20.28">d </tspan><tspan class="cls-22" x="125.18" y="20.28">e</tspan><tspan class="cls-23" x="133.75" y="20.28">v</tspan><tspan class="cls-27" x="140.66" y="20.28">e</tspan><tspan x="149.06" y="20.28">r y</tspan><tspan class="cls-29" x="166.62" y="20.28">e</tspan><tspan class="cls-9" x="175.33" y="20.28">a</tspan><tspan x="183.03" y="20.28">r</tspan></text><text class="cls-8" transform="translate(283.26 317.14)"><tspan class="cls-30">8</tspan><tspan x="8.83" y="0">0% </tspan><tspan class="cls-27" x="35.52" y="0">o</tspan><tspan x="44.41" y="0">f </tspan><tspan class="cls-23" x="54.14" y="0">t</tspan><tspan class="cls-25" x="59.84" y="0">h</tspan><tspan class="cls-16" x="68.65" y="0">e</tspan><tspan class="cls-22" x="77.17" y="0">s</tspan><tspan x="84.22" y="0">e </tspan><tspan class="cls-19" x="96.96" y="0">c</tspan><tspan class="cls-9" x="105.19" y="0">h</tspan><tspan class="cls-31" x="113.92" y="0">i</tspan><tspan class="cls-32" x="117.78" y="0">l</tspan><tspan class="cls-12" x="121.61" y="0">d</tspan><tspan class="cls-13" x="130.52" y="0">r</tspan><tspan class="cls-14" x="136.57" y="0">e</tspan><tspan x="145.22" y="0">n </tspan><tspan class="cls-33" x="158.22" y="0">s</tspan><tspan class="cls-34" x="165.15" y="0">u</tspan><tspan class="cls-35" x="173.67" y="0">r</tspan><tspan class="cls-11" x="180.55" y="0">v</tspan><tspan class="cls-36" x="187.43" y="0">i</tspan><tspan class="cls-37" x="191.74" y="0">v</tspan><tspan x="198.65" y="0">e</tspan></text><text class="cls-38" transform="translate(667.93 192.54)">6<tspan class="cls-39" x="15.63" y="0">,</tspan><tspan class="cls-40" x="23.83" y="0">00</tspan><tspan class="cls-41" x="60.14" y="0">0</tspan></text><text class="cls-8" transform="translate(601.25 317.14)"><tspan class="cls-42">6</tspan><tspan class="cls-43" x="8.19" y="0">,</tspan><tspan class="cls-16" x="12.48" y="0">00</tspan><tspan x="31.5" y="0">0 </tspan><tspan class="cls-33" x="45.23" y="0">s</tspan><tspan class="cls-44" x="52.15" y="0">u</tspan><tspan class="cls-45" x="60.68" y="0">r</tspan><tspan class="cls-11" x="67.55" y="0">v</tspan><tspan class="cls-36" x="74.43" y="0">i</tspan><tspan class="cls-37" x="78.74" y="0">v</tspan><tspan class="cls-13" x="85.65" y="0">o</tspan><tspan class="cls-46" x="94.45" y="0">r</tspan><tspan x="100.32" y="0">s </tspan><tspan class="cls-9" x="111.53" y="0">a</tspan><tspan class="cls-13" x="119.23" y="0">r</tspan><tspan x="125.28" y="0">e </tspan><tspan class="cls-47" x="138.02" y="0">l</tspan><tspan class="cls-36" x="141.59" y="0">i</tspan><tspan class="cls-11" x="145.9" y="0">v</tspan><tspan class="cls-28" x="152.77" y="0">i</tspan><tspan class="cls-25" x="156.39" y="0">n</tspan><tspan x="165.07" y="0">g </tspan><tspan class="cls-28" x="177" y="0">i</tspan><tspan x="180.61" y="0">n </tspan><tspan class="cls-48" x="0" y="20.28">I</tspan><tspan class="cls-13" x="4.08" y="20.28">r</tspan><tspan class="cls-16" x="10.13" y="20.28">el</tspan><tspan class="cls-25" x="22.53" y="20.28">a</tspan><tspan class="cls-18" x="30.3" y="20.28">n</tspan><tspan class="cls-49" x="38.99" y="20.28">d</tspan><tspan x="47.67" y="20.28">.</tspan></text><path class="cls-50" d="M1045.21,4.72a114,114,0,1,1-114,114,114,114,0,0,1,114-114"/><path class="cls-51" d="M1045.21,21.81a96.83,96.83,0,1,1-96.83,96.83,96.83,96.83,0,0,1,96.83-96.83"/><text class="cls-8" transform="translate(940.18 306.82)">C<tspan class="cls-34" x="10.59" y="0">u</tspan><tspan x="19.11" y="0">r</tspan><tspan class="cls-13" x="25.47" y="0">r</tspan><tspan class="cls-52" x="31.52" y="0">e</tspan><tspan class="cls-19" x="40.16" y="0">n</tspan><tspan x="49" y="0">t</tspan><tspan class="cls-53" x="54.81" y="0">l</tspan><tspan x="58.94" y="0">y </tspan><tspan class="cls-54" x="70.14" y="0">t</tspan><tspan class="cls-55" x="75.85" y="0">h</tspan><tspan class="cls-56" x="84.65" y="0">e</tspan><tspan class="cls-13" x="93.05" y="0">r</tspan><tspan x="99.1" y="0">e </tspan><tspan class="cls-57" x="111.84" y="0">i</tspan><tspan x="115.67" y="0">s </tspan><tspan class="cls-18" x="126.89" y="0">n</tspan><tspan x="135.58" y="0">o </tspan><tspan class="cls-58" x="0" y="20.28">d</tspan><tspan class="cls-59" x="9.05" y="20.28">e</tspan><tspan class="cls-15" x="17.87" y="20.28">d</tspan><tspan class="cls-60" x="26.74" y="20.28">i</tspan><tspan class="cls-24" x="30.68" y="20.28">c</tspan><tspan class="cls-17" x="39.07" y="20.28">a</tspan><tspan class="cls-32" x="47.16" y="20.28">t</tspan><tspan class="cls-59" x="52.84" y="20.28">e</tspan><tspan x="61.66" y="20.28">d </tspan><tspan class="cls-58" x="75.03" y="20.28">a</tspan><tspan class="cls-61" x="82.8" y="20.28">f</tspan><tspan class="cls-32" x="88.68" y="20.28">t</tspan><tspan class="cls-56" x="94.36" y="20.28">e</tspan><tspan class="cls-13" x="102.76" y="20.28">r</tspan><tspan class="cls-62" x="108.81" y="20.28">c</tspan><tspan class="cls-63" x="117.19" y="20.28">a</tspan><tspan class="cls-13" x="124.89" y="20.28">r</tspan><tspan x="130.93" y="20.28">e </tspan><tspan class="cls-26" x="143.68" y="20.28">c</tspan><tspan class="cls-64" x="152.02" y="20.28">e</tspan><tspan class="cls-65" x="160.66" y="20.28">n</tspan><tspan x="169.5" y="20.28">t</tspan><tspan class="cls-66" x="175.31" y="20.28">r</tspan><tspan x="181.36" y="20.28">e </tspan><tspan class="cls-13" x="0" y="40.57">fo</tspan><tspan x="14.1" y="40.57">r </tspan><tspan class="cls-33" x="24.58" y="40.57">s</tspan><tspan class="cls-34" x="31.5" y="40.57">u</tspan><tspan class="cls-67" x="40.03" y="40.57">r</tspan><tspan class="cls-68" x="46.9" y="40.57">v</tspan><tspan class="cls-69" x="53.78" y="40.57">i</tspan><tspan class="cls-23" x="58.09" y="40.57">v</tspan><tspan class="cls-13" x="65" y="40.57">o</tspan><tspan class="cls-46" x="73.8" y="40.57">r</tspan><tspan x="79.66" y="40.57">s </tspan><tspan class="cls-56" x="90.88" y="40.57">o</tspan><tspan x="99.78" y="40.57">f </tspan><tspan class="cls-19" x="109.5" y="40.57">c</tspan><tspan class="cls-70" x="117.73" y="40.57">h</tspan><tspan class="cls-31" x="126.46" y="40.57">i</tspan><tspan class="cls-32" x="130.32" y="40.57">l</tspan><tspan class="cls-34" x="134.15" y="40.57">d</tspan><tspan class="cls-58" x="143.05" y="40.57">h</tspan><tspan class="cls-71" x="151.85" y="40.57">o</tspan><tspan class="cls-72" x="160.93" y="40.57">o</tspan><tspan x="170.17" y="40.57">d </tspan><tspan class="cls-24" x="0" y="60.85">c</tspan><tspan class="cls-55" x="8.39" y="60.85">a</tspan><tspan class="cls-18" x="16.16" y="60.85">n</tspan><tspan class="cls-73" x="24.85" y="60.85">c</tspan><tspan class="cls-60" x="33.19" y="60.85">e</tspan><tspan x="41.59" y="60.85">r </tspan><tspan class="cls-74" x="52.07" y="60.85">i</tspan><tspan x="55.69" y="60.85">n </tspan><tspan class="cls-48" x="68.69" y="60.85">I</tspan><tspan class="cls-13" x="72.77" y="60.85">r</tspan><tspan class="cls-75" x="78.82" y="60.85">el</tspan><tspan class="cls-58" x="91.22" y="60.85">a</tspan><tspan class="cls-18" x="98.99" y="60.85">n</tspan><tspan x="107.68" y="60.85">d</tspan></text><text class="cls-76" transform="translate(43.29 73.28)"><tspan class="cls-77">2</tspan><tspan class="cls-78" x="2.51" y="0">0</tspan><tspan x="5.29" y="0">0</tspan></text><line class="cls-3" x1="130.37" y1="158.8" x2="43.29" y2="158.8"/><text class="cls-76" transform="translate(43.29 164.72)"><tspan class="cls-79">1</tspan><tspan class="cls-78" x="1.58" y="0">0</tspan><tspan x="4.37" y="0">0</tspan></text><line class="cls-3" x1="130.37" y1="117.91" x2="43.29" y2="117.91"/><text class="cls-76" transform="translate(43.29 123.83)">150</text><line class="cls-3" x1="130.37" y1="201.83" x2="43.29" y2="201.83"/><text class="cls-76" transform="translate(43.29 207.74)">50</text><line class="cls-80" x1="0.35" y1="277.22" x2="1150.23" y2="277.22"/><line class="cls-80" x1="0.35" y1="277.22" x2="0.35" y2="306.25"/><line class="cls-80" x1="273.35" y1="277.22" x2="273.35" y2="301.31"/><line class="cls-80" x1="587.34" y1="277.22" x2="587.34" y2="301.31"/><line class="cls-80" x1="922.35" y1="277.22" x2="922.35" y2="301.31"/></g></g></svg>